<?xml version="1.0" encoding="utf-8"?>
<!-- Generator: Adobe Illustrator 25.0.0, SVG Export Plug-In . SVG Version: 6.00 Build 0)  -->
<svg version="1.1" id="Camada_1" xmlns="http://www.w3.org/2000/svg" xmlns:xlink="http://www.w3.org/1999/xlink" x="0px" y="0px"
	 viewBox="0 0 109.3 88.9" style="enable-background:new 0 0 109.3 88.9;" xml:space="preserve">
<style type="text/css">
	.st0{fill-rule:evenodd;clip-rule:evenodd;fill:#FFFFFF;}
	.st1{fill:#FFFFFF;}
</style>
<g>
	<path class="st0" d="M56.9,48.1l-1.3,0c-1.3,0-3.9-0.1-5.3-0.2c-0.6,0-1.2-0.1-1.7-0.2c-0.5-0.1-1.1-0.1-1.6-0.2
		c-1.7-0.3-2.6-0.4-4.2-0.8c-0.1,0-0.3-0.1-0.4-0.1c0.1,0.2,2.6,1.1,3.1,1.2c0.4,0.1,0.7,0.2,1.1,0.3c1.8,0.5,2.8,0.7,4.7,1.1
		c0.8,0.2,1.6,0.3,2.4,0.4l2.5,0.4c1.2,0.1,2.7,0.4,3.9,0.4c0.4,0,0.9,0.1,1.3,0.1c0.1-0.1,1.1-2.3,1.2-2.6c0.2-0.4,0.4-0.9,0.6-1.3
		c0.2-0.4,0.4-0.9,0.6-1.3c0.2-0.4,0.4-0.9,0.6-1.3l0.9-2c0.2-0.4,0.5-1,0.6-1.3c0.1-0.2,0.2-0.4,0.3-0.6c0.2-0.4,0.4-0.9,0.6-1.3
		c0.4-0.9,0.8-1.7,1.2-2.6l1.2-2.6c0.2-0.4,1.7-3.8,1.7-3.9l-1.6-0.4c-0.1,0.1-1.1,2.3-1.3,2.6c-0.8,1.7-1.7,3.5-2.5,5.2
		c-0.8,1.7-1.7,3.5-2.5,5.2c-0.6,1.3-1.3,2.6-1.9,3.9c-0.2,0.4-0.4,1-0.7,1.2c-0.5,0.5-0.9,0.4-1.5,0.5
		C58.2,48.1,57.5,48.1,56.9,48.1 M40.7,42.7c0,0.1,0.1,0.1,0.2,0.1c1.6,0.6,3,0.9,4.6,1.2c1.5,0.3,4,0.6,5.5,0.7
		c0.4,0,0.8,0.1,1.1,0.1l2.4,0.1c0.6,0,1.8,0,2.4,0c0.3,0,0.9,0,1.2,0l6-12.5c0.3-0.8,0.9-1.9,1.3-2.6c0.5-1.1,1-2.2,1.6-3.3
		c0.1-0.3,1.2-2.5,1.3-2.7c0,0-1-0.2-1.1-0.2L66,23.3c-0.1,0.1-0.2,0.3-0.2,0.5c-0.4,1.1-1.1,2.4-1.5,3.5l-0.9,2
		c-0.6,1.3-1.1,2.7-1.7,4c-0.3,0.7-0.6,1.3-0.9,2c-0.3,0.7-0.6,1.3-0.9,2c-0.3,0.6-0.6,1.3-0.9,2c-0.4,0.8-0.3,0.7-0.9,1.2
		c-1.6,1.3-3.6,1.8-5.6,2.2c-0.4,0.1-0.8,0.1-1.3,0.2c-1.9,0.3-6.1,0.3-8.1,0.1c-0.2,0-0.4,0-0.7-0.1C42.3,42.8,40.7,42.6,40.7,42.7
		z M49.1,19.3c-0.3,0.6-0.9,1.8-1.3,2.5l-1,1.9c-0.1,0.2-0.2,0.4-0.3,0.6c-0.2,0.4-0.4,0.8-0.6,1.2c-0.2,0.4-0.4,0.8-0.6,1.2
		c-0.2,0.4-0.4,0.8-0.6,1.2l-0.6,1.2c-0.4,0.8-0.9,1.7-1.3,2.5c-0.4,0.8-0.9,1.7-1.3,2.5c-0.1,0.2-0.2,0.4-0.3,0.6
		c-0.4,0.7-2.2,4.2-2.2,4.4l2.8,0.3c0.4,0,0.9,0.1,1.4,0.1c2.6,0.2,4.8,0.3,7.4,0c1.8-0.2,3.5-0.5,5-1.3c0.3-0.1,0.5-0.3,0.7-0.4
		c0.2-0.1,0.5-1.1,0.6-1.3c0.6-1.4,1.2-2.9,1.9-4.3c0.6-1.4,1.3-3,1.9-4.3c0.5-1,1-2.2,1.4-3.3c0.2-0.4,0.3-0.7,0.5-1.1
		c0.6-1.4,1.3-2.9,1.9-4.3c0.1-0.2,0.9-2.1,0.9-2.2c-0.1,0-0.3,0.1-0.4,0.1c-2,0.7-4.8,1.4-7,1.7c-0.3,0-0.7,0.1-1,0.1
		c-0.6,0.1-2.7,0.2-3.2,0.3c-1.2,0-2.1,0-3.4,0C49.9,19.3,49.4,19.2,49.1,19.3z M70.5,26.5c0-0.2,1.4-3,1.6-3.3
		c0.2-0.4,0.4-0.8,0.2-1.4c-0.1-0.4-0.4-0.8-0.7-0.9c-0.5-0.3-0.7-0.2-1.3-0.3c-0.5,0-1,0-1.6-0.1c-0.3,0-1.1-0.1-1.4-0.3
		c0-0.2,1.4-3.2,1.5-3.5c0.2-0.6,0.5-1.2,0.8-1.7c0.3-0.7,0.6-1.2,0.2-1.9c-0.3-0.5-0.8-0.9-1.6-0.9c-0.5,0-1.2,0.5-1.7,0.8
		c-0.6,0.3-1.1,0.5-1.7,0.8c-1.1,0.5-2.6,0.9-3.8,1.2c-2.5,0.6-3.9,0.8-6.5,1c-0.8,0.1-1.6,0-2.4,0.1c-0.4,0-0.8,0-1.2,0
		c-0.4,0-0.8,0-1.2,0c-0.4,0-0.8-0.1-1.2-0.1c-0.7-0.1-1.3,0.2-1.7,0.8c-0.4,0.7-0.9,1.8-1.3,2.5l-2.1,4.1c-0.1,0.3-0.3,0.5-0.4,0.8
		c-0.3,0.6-0.6,1.1-0.9,1.6c-0.3,0.5-0.6,1.1-0.9,1.6l-0.9,1.6c-0.3,0.6-0.6,1.1-0.9,1.7c-0.6,1.1-1.2,2.2-1.7,3.3
		c-0.6,1.1-1.2,2.2-1.7,3.3c-0.3,0.6-0.6,1.1-0.9,1.6c-0.3,0.7-0.5,0.9-0.6,1.9c-0.2,1.4,0,2.9,0.8,4.1c0.4,0.6,1,1.5,1.5,1.9
		c0.2,0.2,0.5,0.5,0.9,0.7c0.3,0.2,0.5,0.4,0.9,0.6l0.6,0.4c0.2,0.2,0.5,0.3,0.8,0.4c0.5,0.3,1.1,0.6,1.7,0.8
		c1.4,0.6,3.2,1.2,4.7,1.6c2,0.6,4.1,1,6.2,1.3c2.4,0.4,4.3,0.6,6.6,0.9c0.8,0.1,1.5,0.1,2.3,0.2c1,0.1,1.8,0.1,2.3-0.7l2.2-4.8
		c1.1-2.3,2.1-4.6,3.1-6.9c0.5-1.2,1-2.3,1.6-3.5l3.9-8.6c0.3-0.6,0.5-1.2,0-1.9c-0.4-0.7-1.1-0.7-1.8-0.7c-0.4,0-0.8-0.1-1.1-0.1
		C71.3,26.7,70.7,26.6,70.5,26.5z M54.6,4.7C70.3,4.7,83,17.4,83,33.1c0,15.7-12.7,28.3-28.3,28.3S26.3,48.8,26.3,33.1
		C26.3,17.4,39,4.7,54.6,4.7z"/>
	<path class="st1" d="M7.8,83.8H5.4c0.1-1.5,0.1-2.7,0.1-3.7c0-0.9,0-2-0.1-3L4,77.8l-0.5-0.8l3.1-2.4h1.1c-0.1,2.4-0.1,4.3-0.1,5.6
		C7.7,81.1,7.7,82.3,7.8,83.8z"/>
	<path class="st1" d="M18,79.2c0,1.7-0.4,2.9-1.1,3.8s-1.7,1.2-3.1,1.2c-1.3,0-2.3-0.4-2.9-1.1c-0.7-0.7-1-1.9-1-3.5
		c0-1.6,0.4-2.9,1.1-3.8c0.7-0.9,1.7-1.4,3.1-1.4c1.3,0,2.3,0.4,2.9,1.2S18,77.6,18,79.2z M15.8,79.7c0-1.1-0.1-2-0.4-2.6
		s-0.8-1-1.5-1c-1.2,0-1.7,1-1.7,3c0,1.2,0.2,2,0.5,2.6c0.3,0.6,0.8,0.8,1.5,0.8C15.2,82.5,15.8,81.6,15.8,79.7z"/>
	<path class="st1" d="M27.6,79.2c0,1.7-0.4,2.9-1.1,3.8s-1.7,1.2-3.1,1.2c-1.3,0-2.3-0.4-2.9-1.1c-0.7-0.7-1-1.9-1-3.5
		c0-1.6,0.4-2.9,1.1-3.8c0.7-0.9,1.7-1.4,3.1-1.4c1.3,0,2.3,0.4,2.9,1.2S27.6,77.6,27.6,79.2z M25.4,79.7c0-1.1-0.1-2-0.4-2.6
		s-0.8-1-1.5-1c-1.2,0-1.7,1-1.7,3c0,1.2,0.2,2,0.5,2.6c0.3,0.6,0.8,0.8,1.5,0.8C24.9,82.5,25.4,81.6,25.4,79.7z"/>
	<path class="st1" d="M41,80.7c0,2.3-1.6,3.4-4.9,3.4c-1.1,0-2.2-0.1-3.1-0.4l0.4-2c0.9,0.3,1.8,0.5,2.7,0.5c0.9,0,1.6-0.1,2-0.3
		s0.6-0.5,0.6-0.9c0-0.4-0.2-0.8-0.6-1.1c-0.3-0.3-1-0.6-2-1.1c-0.9-0.4-1.6-0.8-2.1-1.3c-0.6-0.6-0.9-1.3-0.9-2.2
		c0-1,0.4-1.8,1.1-2.4c0.7-0.6,1.8-0.9,3.2-0.9c1.1,0,2.1,0.1,2.9,0.3l-0.3,2c-0.8-0.3-1.6-0.4-2.6-0.4c-1.4,0-2.1,0.4-2.1,1.1
		c0,0.4,0.2,0.7,0.5,1c0.3,0.2,0.9,0.5,1.8,0.9c1,0.4,1.8,0.8,2.2,1.3C40.7,79,41,79.8,41,80.7z"/>
	<path class="st1" d="M53.6,77.9c0,1.8-0.6,3.3-1.7,4.5s-2.5,1.8-4.1,1.8c-1.5,0-2.8-0.5-3.9-1.6s-1.6-2.5-1.6-4.1
		c0-1.8,0.6-3.3,1.7-4.5s2.5-1.8,4.1-1.8c1.5,0,2.8,0.5,3.9,1.6S53.6,76.2,53.6,77.9z M51.2,78.2c0-1.2-0.3-2.2-0.9-3
		S48.8,74,47.9,74c-0.9,0-1.6,0.4-2.2,1.2s-0.9,1.7-0.9,2.9c0,1.2,0.3,2.2,0.9,3s1.4,1.1,2.3,1.1c0.9,0,1.6-0.4,2.2-1.2
		S51.2,79.3,51.2,78.2z"/>
	<path class="st1" d="M62.9,81.9l-0.1,1.9h-7.3c0.1-1.6,0.1-3.6,0.1-6c0-2.2,0-4-0.1-5.5H58c-0.1,1.3-0.1,3.1-0.1,5.5
		c0,1.8,0,3.2-0.1,4.2C59.4,82.1,61.1,82,62.9,81.9z"/>
	<path class="st1" d="M74.9,77.9c0,1.8-0.6,3.3-1.7,4.5s-2.5,1.8-4.1,1.8c-1.5,0-2.8-0.5-3.9-1.6s-1.6-2.5-1.6-4.1
		c0-1.8,0.6-3.3,1.7-4.5s2.5-1.8,4.1-1.8c1.5,0,2.8,0.5,3.9,1.6S74.9,76.2,74.9,77.9z M72.4,78.2c0-1.2-0.3-2.2-0.9-3
		S70.1,74,69.2,74c-0.9,0-1.6,0.4-2.2,1.2s-0.9,1.7-0.9,2.9c0,1.2,0.3,2.2,0.9,3s1.4,1.1,2.3,1.1c0.9,0,1.6-0.4,2.2-1.2
		S72.4,79.3,72.4,78.2z"/>
	<path class="st1" d="M84.3,80.7c0,2.3-1.6,3.4-4.9,3.4c-1.1,0-2.2-0.1-3.1-0.4l0.4-2c0.9,0.3,1.8,0.5,2.7,0.5c0.9,0,1.6-0.1,2-0.3
		s0.6-0.5,0.6-0.9c0-0.4-0.2-0.8-0.6-1.1c-0.3-0.3-1-0.6-2-1.1c-0.9-0.4-1.6-0.8-2.1-1.3c-0.6-0.6-0.9-1.3-0.9-2.2
		c0-1,0.4-1.8,1.1-2.4c0.7-0.6,1.8-0.9,3.2-0.9c1.1,0,2.1,0.1,2.9,0.3l-0.3,2c-0.8-0.3-1.6-0.4-2.6-0.4c-1.4,0-2.1,0.4-2.1,1.1
		c0,0.4,0.2,0.7,0.5,1c0.3,0.2,0.9,0.5,1.8,0.9c1,0.4,1.8,0.8,2.2,1.3C83.9,79,84.3,79.8,84.3,80.7z"/>
	<path class="st1" d="M99.4,83.8h-2.6c-0.7-2.1-1.2-3.4-1.6-3.8s-0.9-0.7-1.8-0.7c-0.3,0-0.7,0-1,0c0,1.5,0,3,0.1,4.6h-2.4
		c0.1-1.8,0.1-3.8,0.1-6c0-2.1,0-4-0.1-5.5h1.5c0.2,0,0.5,0,1.1,0s1.1,0,1.6,0c2.7,0,4,0.9,4,2.8c0,1.5-0.8,2.5-2.3,3v0.1
		c0.6,0.2,1.1,0.6,1.6,1.4S98.6,81.8,99.4,83.8z M96.1,75.8c0-1.2-0.8-1.7-2.2-1.7c-0.6,0-1,0-1.5,0.1c0.1,0.9,0.1,2.1,0.1,3.6
		c0.3,0,0.6,0,0.8,0C95.2,77.7,96.1,77.1,96.1,75.8z"/>
	<path class="st1" d="M105.7,72.4c-0.1,1.7-0.1,3.9-0.1,6.5c0,2-0.4,3.3-1.2,4.2c-0.7,0.7-1.7,1.1-3.2,1.1c-0.5,0-1-0.1-1.5-0.2
		l0.2-1.9c0.4,0.2,0.8,0.3,1.2,0.3c0.8,0,1.3-0.2,1.7-0.5c0.5-0.5,0.7-1.4,0.7-2.7c0-2.7,0-4.9-0.1-6.6H105.7z"/>
</g>
</svg>
