<?xml version="1.0" encoding="utf-8"?>
<!-- Generator: Adobe Illustrator 25.0.0, SVG Export Plug-In . SVG Version: 6.00 Build 0)  -->
<svg version="1.1" id="Camada_1" xmlns="http://www.w3.org/2000/svg" xmlns:xlink="http://www.w3.org/1999/xlink" x="0px" y="0px"
	 viewBox="0 0 172.3 177.9" style="enable-background:new 0 0 172.3 177.9;" xml:space="preserve">
<style type="text/css">
	.st0{fill:#FFFFFF;}
</style>
<g>
	<path class="st0" d="M7.9,101V83.9h9.5v2.4h-6.8v4.3h6.8V93h-6.8v5.5h6.8v2.5H7.9z"/>
	<path class="st0" d="M19.7,97.6l2.2-1c0.2,0.8,0.6,1.3,1.2,1.7c0.6,0.4,1.3,0.6,2.1,0.6c0.8,0,1.5-0.2,2-0.7
		c0.5-0.5,0.7-1.1,0.7-1.8c0-1-0.8-1.9-2.5-2.7c-0.2-0.1-0.4-0.2-0.5-0.3c-1.9-0.9-3.1-1.7-3.8-2.5c-0.6-0.7-0.9-1.7-0.9-2.7
		c0-1.4,0.5-2.5,1.4-3.4c0.9-0.9,2.2-1.3,3.7-1.3c1.3,0,2.3,0.2,3.2,0.7c0.8,0.5,1.4,1.2,1.8,2.1L28,87.4c-0.3-0.5-0.7-0.9-1.1-1.2
		c-0.4-0.2-0.9-0.4-1.4-0.4c-0.7,0-1.3,0.2-1.8,0.6C23.3,86.9,23,87.4,23,88c0,1,1,2,2.9,2.9c0.1,0.1,0.3,0.1,0.4,0.2
		c1.7,0.8,2.8,1.5,3.5,2.3c0.6,0.7,0.9,1.7,0.9,2.8c0,1.6-0.5,2.9-1.5,3.9c-1,1-2.4,1.4-4.1,1.4c-1.5,0-2.6-0.3-3.6-1
		C20.5,99.8,19.9,98.8,19.7,97.6z"/>
	<path class="st0" d="M36.4,93.3v7.7h-2.6V83.9H38c1.2,0,2.2,0.1,2.7,0.2c0.6,0.1,1.1,0.4,1.5,0.7c0.5,0.4,1,0.9,1.3,1.6
		c0.3,0.7,0.5,1.4,0.5,2.2s-0.2,1.6-0.5,2.2c-0.3,0.7-0.7,1.2-1.3,1.6c-0.4,0.3-0.9,0.5-1.5,0.7c-0.6,0.1-1.5,0.2-2.7,0.2h-0.5H36.4
		z M36.5,91h0.7c1.5,0,2.6-0.2,3.1-0.5c0.5-0.3,0.8-0.9,0.8-1.8c0-0.9-0.3-1.6-0.8-1.9s-1.6-0.6-3-0.6h-0.7V91z"/>
	<path class="st0" d="M46.5,101V83.9H56v2.4h-6.8v4.3H56V93h-6.8v5.5H56v2.5H46.5z"/>
	<path class="st0" d="M64.7,86.2V101H62V86.2h-4.5v-2.4h11.8v2.4H64.7z"/>
	<path class="st0" d="M82.7,101l-1.9-4.4H74l-2,4.4H69l8.3-17.8l8.3,17.8H82.7z M75,94.3h4.8L78,90.4c-0.1-0.2-0.2-0.5-0.3-0.9
		c-0.1-0.3-0.2-0.7-0.3-1.1c-0.1,0.4-0.2,0.7-0.3,1c-0.1,0.3-0.2,0.6-0.3,0.9L75,94.3z M75.7,82.2l2.2-3.2h2.6l-3.4,3.2H75.7z"/>
	<path class="st0" d="M100.9,88c-0.8-0.7-1.6-1.2-2.5-1.5c-0.9-0.3-1.8-0.5-2.8-0.5c-1.9,0-3.4,0.6-4.6,1.8
		c-1.2,1.2-1.8,2.8-1.8,4.7c0,1.8,0.6,3.4,1.7,4.6c1.1,1.2,2.6,1.8,4.3,1.8c1,0,2-0.2,2.9-0.5c0.9-0.4,1.8-0.9,2.6-1.6v3.1
		c-0.7,0.5-1.6,0.9-2.4,1.2c-0.9,0.3-1.8,0.4-2.9,0.4c-1.3,0-2.5-0.2-3.6-0.6c-1.1-0.4-2.1-1.1-2.9-1.9c-0.8-0.8-1.5-1.8-1.9-2.9
		c-0.4-1.1-0.7-2.3-0.7-3.5c0-1.3,0.2-2.4,0.7-3.5c0.4-1.1,1.1-2.1,1.9-2.9c0.8-0.8,1.8-1.5,2.9-1.9c1.1-0.4,2.3-0.6,3.6-0.6
		c1,0,2,0.1,2.9,0.4c0.9,0.3,1.8,0.7,2.7,1.3L100.9,88z"/>
	<path class="st0" d="M104.3,83.9h2.7v10.4c0,1.5,0.4,2.7,1.1,3.5c0.7,0.8,1.8,1.2,3.2,1.2c1.4,0,2.5-0.4,3.2-1.2
		c0.7-0.8,1.1-1.9,1.1-3.5V83.9h2.8v10.6c0,2.3-0.6,4-1.8,5.2s-2.9,1.7-5.3,1.7s-4.1-0.6-5.3-1.7c-1.2-1.1-1.7-2.9-1.7-5.2V83.9z"/>
	<path class="st0" d="M122.2,101V83.9h2.8v14.6h6.2v2.5H122.2z"/>
	<path class="st0" d="M150.1,92.5c0,1.2-0.2,2.4-0.7,3.4c-0.5,1.1-1.1,2-2,2.9c-0.9,0.8-1.9,1.5-3,2s-2.3,0.7-3.5,0.7
		c-1.2,0-2.4-0.2-3.5-0.7s-2.1-1.1-3-1.9c-0.9-0.8-1.5-1.8-2-2.9c-0.5-1.1-0.7-2.2-0.7-3.5c0-1.2,0.2-2.4,0.7-3.5
		c0.5-1.1,1.1-2.1,2-2.9c0.9-0.8,1.9-1.5,3-1.9s2.3-0.7,3.5-0.7c1.2,0,2.4,0.2,3.5,0.7s2.1,1.1,3,1.9c0.9,0.9,1.5,1.8,2,2.9
		C149.8,90.1,150.1,91.3,150.1,92.5z M147.2,92.5c0-0.9-0.2-1.7-0.5-2.5c-0.3-0.8-0.8-1.5-1.4-2.1c-0.6-0.6-1.2-1.1-2-1.4
		s-1.6-0.5-2.4-0.5c-0.8,0-1.6,0.2-2.4,0.5s-1.4,0.8-2,1.4c-0.6,0.6-1,1.3-1.4,2.1c-0.3,0.8-0.5,1.6-0.5,2.5c0,0.9,0.2,1.7,0.5,2.5
		c0.3,0.8,0.8,1.5,1.4,2.1c0.6,0.6,1.3,1.1,2,1.4s1.6,0.5,2.4,0.5c0.8,0,1.6-0.2,2.4-0.5c0.8-0.3,1.4-0.8,2-1.4
		c0.6-0.6,1-1.3,1.4-2.1C147,94.1,147.2,93.3,147.2,92.5z"/>
	<path class="st0" d="M152.3,97.6l2.2-1c0.2,0.8,0.6,1.3,1.2,1.7c0.6,0.4,1.3,0.6,2.1,0.6c0.8,0,1.5-0.2,2-0.7
		c0.5-0.5,0.7-1.1,0.7-1.8c0-1-0.8-1.9-2.5-2.7c-0.2-0.1-0.4-0.2-0.5-0.3c-1.9-0.9-3.1-1.7-3.8-2.5c-0.6-0.7-0.9-1.7-0.9-2.7
		c0-1.4,0.5-2.5,1.4-3.4c0.9-0.9,2.2-1.3,3.7-1.3c1.3,0,2.3,0.2,3.2,0.7c0.8,0.5,1.4,1.2,1.8,2.1l-2.2,1.1c-0.3-0.5-0.7-0.9-1.1-1.2
		c-0.4-0.2-0.9-0.4-1.4-0.4c-0.7,0-1.3,0.2-1.8,0.6c-0.4,0.4-0.7,0.9-0.7,1.6c0,1,1,2,2.9,2.9c0.1,0.1,0.3,0.1,0.4,0.2
		c1.7,0.8,2.8,1.5,3.5,2.3c0.6,0.7,0.9,1.7,0.9,2.8c0,1.6-0.5,2.9-1.5,3.9c-1,1-2.4,1.4-4.1,1.4c-1.5,0-2.6-0.3-3.6-1
		C153.2,99.8,152.6,98.8,152.3,97.6z"/>
	<path class="st0" d="M12.9,136.9c1.6,1.9,3.3,3.3,4.9,4.2s3.2,1.4,4.8,1.4c1.5,0,2.7-0.4,3.6-1.2c1-0.8,1.4-1.8,1.4-3
		c0-1.3-0.4-2.4-1.2-3.1s-2.7-1.5-5.6-2.3c-4-1.1-6.8-2.5-8.4-4.2c-1.6-1.7-2.5-4.1-2.5-7.1c0-3.9,1.3-7,3.9-9.5
		c2.6-2.4,6-3.7,10.1-3.7c2.2,0,4.4,0.3,6.4,0.9c2,0.6,3.9,1.5,5.7,2.7l-3.5,7.9c-1.3-1.1-2.5-1.9-3.9-2.4c-1.3-0.5-2.6-0.8-3.9-0.8
		c-1.3,0-2.4,0.3-3.2,1c-0.8,0.6-1.2,1.5-1.2,2.5c0,1,0.4,1.8,1.1,2.4c0.7,0.6,2.1,1.2,4.2,1.7l0.5,0.1c4.5,1.2,7.5,2.6,8.9,4
		c1,1,1.7,2.2,2.2,3.6c0.5,1.4,0.7,2.9,0.7,4.6c0,4.3-1.4,7.8-4.2,10.4c-2.8,2.6-6.6,3.9-11.3,3.9c-2.8,0-5.4-0.5-7.7-1.4
		c-2.3-1-4.5-2.5-6.7-4.5L12.9,136.9z"/>
	<path class="st0" d="M85.7,129.8c0,2.9-0.5,5.6-1.6,8.2s-2.6,4.8-4.7,6.8c-2.1,2-4.4,3.5-7.1,4.6c-2.7,1.1-5.4,1.6-8.3,1.6
		c-2.9,0-5.7-0.5-8.3-1.6s-5-2.6-7-4.6c-2.1-2-3.7-4.3-4.7-6.9c-1.1-2.6-1.6-5.3-1.6-8.2c0-2.9,0.5-5.6,1.6-8.2
		c1.1-2.6,2.7-4.8,4.7-6.9c2-2,4.3-3.5,7-4.6s5.4-1.6,8.3-1.6c2.9,0,5.7,0.5,8.3,1.6s5,2.6,7,4.6c2,2,3.6,4.3,4.7,6.8
		C85.1,124.2,85.7,126.9,85.7,129.8z M64,141.7c3.1,0,5.6-1.1,7.6-3.4s3-5.1,3-8.5c0-3.4-1-6.2-3-8.5c-2-2.3-4.6-3.4-7.6-3.4
		c-3.1,0-5.6,1.1-7.6,3.4c-2,2.3-3,5.1-3,8.5c0,3.5,1,6.3,3,8.6C58.3,140.6,60.9,141.7,64,141.7z"/>
	<path class="st0" d="M92.6,150v-40.5h11v31.1h13.7v9.5H92.6z"/>
	<path class="st0" d="M163.4,129.8c0,2.9-0.5,5.6-1.6,8.2s-2.6,4.8-4.7,6.8c-2.1,2-4.4,3.5-7.1,4.6c-2.7,1.1-5.4,1.6-8.3,1.6
		c-2.9,0-5.7-0.5-8.3-1.6s-5-2.6-7-4.6c-2.1-2-3.7-4.3-4.7-6.9c-1.1-2.6-1.6-5.3-1.6-8.2c0-2.9,0.5-5.6,1.6-8.2
		c1.1-2.6,2.7-4.8,4.7-6.9c2-2,4.3-3.5,7-4.6s5.4-1.6,8.3-1.6c2.9,0,5.7,0.5,8.3,1.6s5,2.6,7,4.6c2,2,3.6,4.3,4.7,6.8
		C162.8,124.2,163.4,126.9,163.4,129.8z M141.7,141.7c3.1,0,5.6-1.1,7.6-3.4s3-5.1,3-8.5c0-3.4-1-6.2-3-8.5c-2-2.3-4.6-3.4-7.6-3.4
		c-3.1,0-5.6,1.1-7.6,3.4c-2,2.3-3,5.1-3,8.5c0,3.5,1,6.3,3,8.6C136,140.6,138.6,141.7,141.7,141.7z"/>
	<path class="st0" d="M7.9,168.4V158h2.3c1.5,0,2.5,0.1,3.1,0.2s1.1,0.4,1.6,0.8c0.6,0.5,1.1,1.1,1.4,1.8c0.3,0.7,0.5,1.5,0.5,2.5
		s-0.2,1.7-0.5,2.5c-0.3,0.7-0.8,1.3-1.4,1.8c-0.5,0.4-1,0.6-1.6,0.8c-0.6,0.1-1.5,0.2-2.7,0.2h-0.5H7.9z M9.6,166.9H11
		c0.8,0,1.4-0.1,1.8-0.2s0.7-0.3,1-0.5c0.4-0.3,0.7-0.8,0.9-1.3c0.2-0.5,0.3-1.1,0.3-1.7c0-0.7-0.1-1.2-0.3-1.7
		c-0.2-0.5-0.5-0.9-0.9-1.3c-0.3-0.2-0.6-0.4-1.1-0.5c-0.4-0.1-1.1-0.2-1.9-0.2h-0.6H9.6V166.9z"/>
	<path class="st0" d="M25.4,168.4l-1.2-2.7H20l-1.2,2.7H17l5-10.8l5,10.8H25.4z M20.7,164.3h2.9l-1.1-2.4c-0.1-0.2-0.1-0.3-0.2-0.5
		c-0.1-0.2-0.1-0.4-0.2-0.7c-0.1,0.2-0.1,0.4-0.2,0.6c-0.1,0.2-0.1,0.4-0.2,0.5L20.7,164.3z"/>
	<path class="st0" d="M40.9,160.5c-0.5-0.4-1-0.7-1.5-0.9s-1.1-0.3-1.7-0.3c-1.1,0-2.1,0.4-2.8,1.1c-0.7,0.7-1.1,1.7-1.1,2.8
		c0,1.1,0.3,2.1,1,2.8c0.7,0.7,1.6,1.1,2.6,1.1c0.6,0,1.2-0.1,1.8-0.3c0.6-0.2,1.1-0.5,1.6-1v1.9c-0.5,0.3-1,0.6-1.5,0.7
		c-0.5,0.2-1.1,0.2-1.7,0.2c-0.8,0-1.5-0.1-2.2-0.4c-0.7-0.3-1.3-0.6-1.8-1.2c-0.5-0.5-0.9-1.1-1.2-1.8c-0.3-0.7-0.4-1.4-0.4-2.2
		s0.1-1.5,0.4-2.2c0.3-0.7,0.7-1.3,1.2-1.8c0.5-0.5,1.1-0.9,1.8-1.2c0.7-0.3,1.4-0.4,2.2-0.4c0.6,0,1.2,0.1,1.8,0.3
		c0.6,0.2,1.1,0.4,1.6,0.8L40.9,160.5z"/>
	<path class="st0" d="M43,168.4V158h5.8v1.4h-4.1v2.6h4.1v1.5h-4.1v3.4h4.1v1.5H43z"/>
	<path class="st0" d="M50.7,168.4v-10.8l6.6,6.4c0.2,0.2,0.4,0.4,0.5,0.6c0.2,0.2,0.4,0.4,0.6,0.7V158h1.6v10.8l-6.8-6.5
		c-0.2-0.2-0.4-0.4-0.5-0.6c-0.2-0.2-0.3-0.4-0.5-0.6v7.2H50.7z"/>
	<path class="st0" d="M69.3,168.4l-1.2-2.7H64l-1.2,2.7H61l5-10.8l5,10.8H69.3z M64.7,164.3h2.9l-1.1-2.4c-0.1-0.2-0.1-0.3-0.2-0.5
		c-0.1-0.2-0.1-0.4-0.2-0.7c-0.1,0.2-0.1,0.4-0.2,0.6c-0.1,0.2-0.1,0.4-0.2,0.5L64.7,164.3z"/>
	<path class="st0" d="M76.5,168.4V158h5.8v1.4h-4.1v2.6h4.1v1.5h-4.1v4.9H76.5z"/>
	<path class="st0" d="M84.2,168.4V158h1.7v8.9h3.8v1.5H84.2z"/>
	<path class="st0" d="M90.7,158h1.7v6.3c0,0.9,0.2,1.6,0.7,2.1c0.4,0.5,1.1,0.7,1.9,0.7c0.9,0,1.5-0.2,1.9-0.7
		c0.4-0.5,0.7-1.2,0.7-2.1V158h1.7v6.5c0,1.4-0.4,2.5-1.1,3.2s-1.8,1-3.2,1s-2.5-0.3-3.2-1c-0.7-0.7-1.1-1.8-1.1-3.2V158z"/>
	<path class="st0" d="M110.1,163.2c0-0.1,0-0.3-0.1-0.7c0-0.3-0.1-0.6-0.1-0.8c0,0.2-0.1,0.5-0.2,0.7c-0.1,0.2-0.2,0.5-0.3,0.7
		l-2.7,5.6l-2.7-5.7c-0.1-0.2-0.2-0.5-0.3-0.7c-0.1-0.2-0.2-0.4-0.2-0.6c0,0.2,0,0.4-0.1,0.7c0,0.2-0.1,0.5-0.1,0.8l-1.1,5.1h-1.6
		l2.5-10.9l3.1,6.6c0,0.1,0.1,0.3,0.2,0.5c0.1,0.2,0.2,0.5,0.4,0.9c0.1-0.3,0.3-0.7,0.5-1.1c0.1-0.1,0.1-0.2,0.1-0.3l3-6.6l2.5,10.9
		h-1.6L110.1,163.2z"/>
	<path class="st0" d="M114.2,168.4V158h1.7v10.4H114.2z"/>
	<path class="st0" d="M118.4,168.4v-10.8l6.6,6.4c0.2,0.2,0.4,0.4,0.5,0.6c0.2,0.2,0.4,0.4,0.6,0.7V158h1.6v10.8l-6.8-6.5
		c-0.2-0.2-0.4-0.4-0.5-0.6c-0.2-0.2-0.3-0.4-0.5-0.6v7.2H118.4z"/>
	<path class="st0" d="M130.1,168.4V158h5.8v1.4h-4.1v2.6h4.1v1.5h-4.1v3.4h4.1v1.5H130.1z"/>
	<path class="st0" d="M137.8,168.4v-10.8l6.6,6.4c0.2,0.2,0.4,0.4,0.5,0.6c0.2,0.2,0.4,0.4,0.6,0.7V158h1.6v10.8l-6.8-6.5
		c-0.2-0.2-0.4-0.4-0.5-0.6c-0.2-0.2-0.3-0.4-0.5-0.6v7.2H137.8z"/>
	<path class="st0" d="M149,166.3l1.4-0.6c0.1,0.5,0.4,0.8,0.7,1.1c0.3,0.2,0.8,0.4,1.3,0.4c0.5,0,0.9-0.1,1.2-0.4
		c0.3-0.3,0.4-0.7,0.4-1.1c0-0.6-0.5-1.2-1.5-1.6c-0.1-0.1-0.3-0.1-0.3-0.2c-1.1-0.6-1.9-1.1-2.3-1.5c-0.4-0.5-0.6-1-0.6-1.7
		c0-0.8,0.3-1.5,0.9-2.1c0.6-0.5,1.3-0.8,2.3-0.8c0.8,0,1.4,0.1,1.9,0.4s0.9,0.7,1.1,1.3l-1.3,0.7c-0.2-0.3-0.4-0.6-0.7-0.7
		c-0.2-0.2-0.5-0.2-0.9-0.2c-0.5,0-0.8,0.1-1.1,0.4s-0.4,0.6-0.4,1c0,0.6,0.6,1.2,1.8,1.8c0.1,0,0.2,0.1,0.2,0.1
		c1,0.5,1.7,0.9,2.1,1.4c0.4,0.5,0.6,1,0.6,1.7c0,1-0.3,1.8-0.9,2.4c-0.6,0.6-1.5,0.9-2.5,0.9c-0.9,0-1.6-0.2-2.2-0.6
		C149.5,167.7,149.1,167.1,149,166.3z"/>
	<path class="st0" d="M157.6,168.4V158h5.8v1.4h-4.1v2.6h4.1v1.5h-4.1v3.4h4.1v1.5H157.6z"/>
	<path class="st0" d="M22.2,71.8V23.7H8.7l7.4-14.3h21.8v62.4H22.2z"/>
	<path class="st0" d="M107.5,41.4c0,10-2.1,17.8-6.3,23.5c-4.2,5.7-10.1,8.6-17.5,8.6c-7.4,0-13.2-2.9-17.5-8.7
		c-4.3-5.8-6.4-13.8-6.4-24c0-10.2,2.1-18.1,6.4-23.9c4.3-5.8,10.1-8.7,17.5-8.7c7.5,0,13.4,2.9,17.5,8.7
		C105.4,22.7,107.5,30.8,107.5,41.4z M75.7,40.8c0,6.9,0.6,11.9,1.9,15.1c1.3,3.2,3.3,4.8,6.1,4.8c2.7,0,4.7-1.6,6-4.8
		c1.3-3.2,1.9-8.2,1.9-15.1c0-6.8-0.6-11.8-1.9-15c-1.3-3.2-3.3-4.8-6-4.8c-2.8,0-4.9,1.6-6.1,4.7C76.3,28.8,75.7,33.8,75.7,40.8z"
		/>
	<path class="st0" d="M162.6,41.4c0,10-2.1,17.8-6.3,23.5c-4.2,5.7-10.1,8.6-17.5,8.6c-7.4,0-13.2-2.9-17.5-8.7
		c-4.3-5.8-6.4-13.8-6.4-24c0-10.2,2.1-18.1,6.4-23.9c4.3-5.8,10.1-8.7,17.5-8.7c7.5,0,13.4,2.9,17.5,8.7
		C160.5,22.7,162.6,30.8,162.6,41.4z M130.8,40.8c0,6.9,0.6,11.9,1.9,15.1c1.3,3.2,3.3,4.8,6.1,4.8c2.7,0,4.7-1.6,6-4.8
		c1.3-3.2,1.9-8.2,1.9-15.1c0-6.8-0.6-11.8-1.9-15c-1.3-3.2-3.3-4.8-6-4.8c-2.8,0-4.9,1.6-6.1,4.7C131.4,28.8,130.8,33.8,130.8,40.8
		z"/>
</g>
</svg>
