<?xml version="1.0" encoding="utf-8"?>
<!-- Generator: Adobe Illustrator 25.0.0, SVG Export Plug-In . SVG Version: 6.00 Build 0)  -->
<svg version="1.1" id="Camada_1" xmlns="http://www.w3.org/2000/svg" xmlns:xlink="http://www.w3.org/1999/xlink" x="0px" y="0px"
	 viewBox="0 0 311.3 77.9" style="enable-background:new 0 0 311.3 77.9;" xml:space="preserve">
<style type="text/css">
	.st0{fill:#FFFFFF;}
	.st1{fill-rule:evenodd;clip-rule:evenodd;fill:#FFFFFF;}
</style>
<g>
	<path class="st0" d="M153.7,39.3L153.7,39.3V42h1.9c0.8,0,1.4-0.1,1.8-0.3c0.4-0.2,0.6-0.6,0.6-1.1c0-0.4-0.2-0.8-0.5-1
		c-0.3-0.2-0.8-0.3-1.3-0.3H153.7z M153.8,45.2v4.4c0,0.1,0,0.3-0.1,0.4c-0.1,0.1-0.2,0.2-0.4,0.2h-3.6c-0.1,0-0.2-0.1-0.3-0.2
		c-0.1-0.1-0.1-0.2-0.1-0.4V36.7c0-0.1,0-0.3,0.1-0.4c0.1-0.1,0.2-0.2,0.3-0.2h8.1c1.4,0,2.5,0.3,3.3,1c0.9,0.7,1.4,1.7,1.4,2.9
		c0,1.4-0.4,2.3-1.1,2.9c-0.2,0.2-0.4,0.3-0.6,0.4c-0.2,0.1-0.5,0.3-0.8,0.4c0.3,0.2,0.6,0.4,0.9,0.7c0.2,0.2,0.4,0.5,0.6,0.7
		l2.2,4.1c0.1,0.2,0.1,0.4,0,0.6c-0.1,0.2-0.2,0.3-0.4,0.3h-4.1c-0.1,0-0.2,0-0.2-0.1c-0.1-0.1-0.1-0.1-0.2-0.2l-2.1-4.3l0,0
		c0-0.1-0.1-0.1-0.1-0.2c0-0.1-0.1-0.1-0.2-0.1c-0.1-0.1-0.4-0.1-1-0.1H153.8z"/>
	<path class="st0" d="M164.8,50.2c-0.1,0-0.2-0.1-0.3-0.2c-0.1-0.1-0.1-0.2-0.1-0.4V36.7c0-0.1,0-0.3,0.1-0.4
		c0.1-0.1,0.2-0.2,0.3-0.2h3c0.1,0,0.2,0.1,0.3,0.2c0.1,0.1,0.1,0.2,0.1,0.4v12.9c0,0.1,0,0.3-0.1,0.4c-0.1,0.1-0.2,0.2-0.3,0.2
		H164.8z"/>
	<path class="st0" d="M178.8,40.8L178.8,40.8c-0.5-0.5-1.3-0.8-2.3-0.8c-1,0-1.8,0.3-2.3,0.8c-0.5,0.5-0.8,1.3-0.8,2.3
		s0.3,1.8,0.8,2.3c0.5,0.5,1.3,0.8,2.3,0.8c1,0,1.8-0.3,2.3-0.8c0.5-0.5,0.8-1.3,0.8-2.3S179.3,41.3,178.8,40.8 M182.1,48.6
		c-1.3,1.2-3.2,1.8-5.6,1.8c-2.5,0-4.4-0.6-5.6-1.8c-1.3-1.2-1.9-3-1.9-5.4c0-2.4,0.6-4.3,1.9-5.5c1.3-1.2,3.2-1.8,5.6-1.8
		c2.5,0,4.4,0.6,5.6,1.8c1.3,1.2,1.9,3,1.9,5.5C184,45.6,183.4,47.4,182.1,48.6z"/>
	<path class="st0" d="M198,41.1L198,41.1c-0.4-0.5-0.9-0.7-1.7-0.7h-2.8v5.5h2.7c0.8,0,1.4-0.2,1.8-0.7c0.4-0.5,0.6-1.1,0.6-2
		C198.6,42.3,198.4,41.6,198,41.1 M196.5,36.2c1.9,0,3.5,0.6,4.7,1.9c1.2,1.3,1.8,3,1.8,5.1c0,2-0.6,3.7-1.8,5c-1.2,1.3-2.7,2-4.6,2
		h-7.1c-0.1,0-0.3-0.1-0.4-0.2c-0.1-0.1-0.1-0.2-0.1-0.4V36.7c0-0.1,0-0.3,0.1-0.4c0.1-0.1,0.2-0.2,0.4-0.2H196.5z"/>
	<path class="st0" d="M204.2,50.2c-0.1,0-0.2-0.1-0.3-0.2c-0.1-0.1-0.1-0.2-0.1-0.4V36.7c0-0.1,0-0.3,0.1-0.4
		c0.1-0.1,0.2-0.2,0.3-0.2h9.4c0.1,0,0.2,0.1,0.3,0.2c0.1,0.1,0.1,0.2,0.1,0.4v2.6c0,0.2,0,0.3-0.1,0.4c-0.1,0.1-0.2,0.2-0.3,0.2
		h-5.4v1.4h4.6c0.1,0,0.2,0.1,0.3,0.2c0.1,0.1,0.1,0.2,0.1,0.4v2.6c0,0.2,0,0.3-0.1,0.4c-0.1,0.1-0.2,0.2-0.3,0.2l-4.6,0v1.5h5.8
		c0.1,0,0.3,0.1,0.3,0.2c0.1,0.1,0.1,0.2,0.1,0.4v2.6c0,0.1,0,0.3-0.1,0.4c-0.1,0.1-0.2,0.2-0.3,0.2H204.2z"/>
	<path class="st0" d="M228.3,36c0.1,0,0.2,0.1,0.3,0.2c0.1,0.1,0.1,0.2,0.1,0.4v9.2c0,1.5-0.5,2.6-1.4,3.6c-0.9,0.9-2,1.4-3.4,1.4
		c-0.8,0-1.5-0.1-2.3-0.4c-0.4-0.1-0.7-0.3-1-0.4c-0.2-0.1-0.4-0.2-0.5-0.2c-0.1,0-0.1-0.1-0.2-0.2c0-0.1-0.1-0.2-0.1-0.2l-0.5-4.1
		c0-0.1,0-0.3,0-0.4c0.1-0.1,0.1-0.2,0.2-0.2c0.1,0,0.2-0.1,0.3,0s0.2,0.1,0.3,0.2c0.2,0.2,0.5,0.5,1,0.8c0.5,0.3,1,0.4,1.5,0.4
		c1,0,1.5-0.5,1.5-1.5v-7.9c0-0.2,0-0.3,0.1-0.4c0.1-0.1,0.2-0.2,0.3-0.2H228.3z"/>
	<path class="st0" d="M234.9,45L234.9,45h3l-1.4-3.1L234.9,45z M240.6,50.2c-0.1,0-0.2,0-0.2-0.1c-0.1-0.1-0.2-0.1-0.2-0.2l-0.8-1.8
		h-6l-0.8,1.8c0,0.1-0.1,0.2-0.2,0.2c-0.1,0.1-0.2,0.1-0.3,0.1h-3.3c-0.2,0-0.4-0.1-0.5-0.3c-0.1-0.2-0.1-0.4,0-0.6l6.6-12.9
		c0-0.1,0.1-0.1,0.2-0.2c0.1-0.1,0.2-0.1,0.2-0.1h2.8c0.1,0,0.2,0,0.2,0.1c0.1,0.1,0.2,0.1,0.2,0.2l6.2,12.9c0.1,0.2,0.1,0.4,0,0.5
		c-0.1,0.2-0.2,0.2-0.5,0.2H240.6z"/>
	<path class="st0" d="M253.2,41.9c0.3,0.5,0.6,0.9,0.9,1.4v-6.6c0-0.1,0-0.3,0.1-0.4c0.1-0.1,0.2-0.2,0.4-0.2h3.1
		c0.1,0,0.3,0.1,0.4,0.2c0.1,0.1,0.1,0.2,0.1,0.4v12.9c0,0.1-0.1,0.3-0.1,0.4c-0.1,0.1-0.2,0.2-0.4,0.2h-3.6c-0.1,0-0.1,0-0.2-0.1
		c-0.1,0-0.2-0.1-0.2-0.2l-4.5-6.8v6.5c0,0.1,0,0.3-0.1,0.4c-0.1,0.1-0.2,0.2-0.4,0.2h-3.1c-0.1,0-0.2-0.1-0.3-0.2
		c-0.1-0.1-0.1-0.2-0.1-0.4V36.7c0-0.1,0-0.3,0.1-0.4c0.1-0.1,0.2-0.2,0.3-0.2h3.6c0.1,0,0.1,0,0.2,0.1c0.1,0,0.1,0.1,0.2,0.2
		c0.5,0.7,0.9,1.4,1.4,2.1c0.4,0.7,0.9,1.3,1.4,2C252.6,40.9,252.9,41.4,253.2,41.9"/>
	<path class="st0" d="M259.7,50.2c-0.1,0-0.2-0.1-0.3-0.2c-0.1-0.1-0.1-0.2-0.1-0.4V36.7c0-0.1,0-0.3,0.1-0.4
		c0.1-0.1,0.2-0.2,0.3-0.2h9.4c0.1,0,0.2,0.1,0.3,0.2c0.1,0.1,0.1,0.2,0.1,0.4v2.6c0,0.2,0,0.3-0.1,0.4c-0.1,0.1-0.2,0.2-0.3,0.2
		h-5.4v1.4h4.6c0.1,0,0.2,0.1,0.3,0.2c0.1,0.1,0.1,0.2,0.1,0.4v2.6c0,0.2,0,0.3-0.1,0.4c-0.1,0.1-0.2,0.2-0.3,0.2l-4.6,0v1.5h5.8
		c0.1,0,0.3,0.1,0.3,0.2c0.1,0.1,0.1,0.2,0.1,0.4v2.6c0,0.1,0,0.3-0.1,0.4c-0.1,0.1-0.2,0.2-0.3,0.2H259.7z"/>
	<path class="st0" d="M271.1,50.2c-0.1,0-0.2-0.1-0.3-0.2c-0.1-0.1-0.1-0.2-0.1-0.4V36.7c0-0.1,0-0.3,0.1-0.4
		c0.1-0.1,0.2-0.2,0.3-0.2h3c0.1,0,0.2,0.1,0.3,0.2c0.1,0.1,0.1,0.2,0.1,0.4v12.9c0,0.1,0,0.3-0.1,0.4c-0.1,0.1-0.2,0.2-0.3,0.2
		H271.1z"/>
	<path class="st0" d="M279.7,39.3L279.7,39.3V42h1.9c0.8,0,1.4-0.1,1.8-0.3c0.4-0.2,0.6-0.6,0.6-1.1c0-0.4-0.2-0.8-0.5-1
		c-0.3-0.2-0.8-0.3-1.4-0.3H279.7z M279.8,45.2v4.4c0,0.1,0,0.3-0.1,0.4c-0.1,0.1-0.2,0.2-0.4,0.2h-3.6c-0.1,0-0.2-0.1-0.3-0.2
		c-0.1-0.1-0.1-0.2-0.1-0.4V36.7c0-0.1,0-0.3,0.1-0.4c0.1-0.1,0.2-0.2,0.3-0.2h8.1c1.4,0,2.5,0.3,3.3,1c0.9,0.7,1.3,1.7,1.3,2.9
		c0,1.4-0.4,2.3-1.1,2.9c-0.2,0.2-0.4,0.3-0.6,0.4c-0.2,0.1-0.5,0.3-0.8,0.4c0.3,0.2,0.6,0.4,0.9,0.7c0.2,0.2,0.4,0.5,0.6,0.7
		l2.2,4.1c0.1,0.2,0.1,0.4,0,0.6c-0.1,0.2-0.2,0.3-0.4,0.3h-4.1c-0.1,0-0.2,0-0.2-0.1c-0.1-0.1-0.1-0.1-0.2-0.2l-2.1-4.3l0,0
		c0-0.1-0.1-0.1-0.1-0.2c0-0.1-0.1-0.1-0.2-0.1c-0.1-0.1-0.4-0.1-1-0.1H279.8z"/>
	<path class="st0" d="M298.5,40.8L298.5,40.8c-0.5-0.5-1.3-0.8-2.3-0.8c-1,0-1.8,0.3-2.3,0.8c-0.5,0.5-0.8,1.3-0.8,2.3
		s0.3,1.8,0.8,2.3c0.5,0.5,1.3,0.8,2.3,0.8c1,0,1.8-0.3,2.3-0.8c0.5-0.5,0.8-1.3,0.8-2.3S299.1,41.3,298.5,40.8 M301.9,48.6
		c-1.3,1.2-3.2,1.8-5.6,1.8c-2.5,0-4.4-0.6-5.6-1.8c-1.3-1.2-1.9-3-1.9-5.4c0-2.4,0.6-4.3,1.9-5.5c1.3-1.2,3.2-1.8,5.6-1.8
		c2.5,0,4.4,0.6,5.6,1.8c1.3,1.2,1.9,3,1.9,5.5C303.8,45.6,303.1,47.4,301.9,48.6z"/>
	<path class="st0" d="M149.2,28.7c0-2.5,1.2-3.6,3.3-3.6c1.3,0,2,0.4,2.5,1l-0.9,1.1c-0.3-0.3-0.7-0.6-1.6-0.6
		c-1.4,0-1.9,0.8-1.9,2.2c0,1.5,0.4,2.3,1.9,2.3c1.2,0,1.6-0.5,1.6-1.4v-0.2h-1.8v-1.3h3.1v1.1c0,2-0.7,3-3,3
		C149.9,32.3,149.2,31,149.2,28.7"/>
	<path class="st0" d="M164.5,28.7L164.5,28.7c0-1.4-0.5-2.2-1.9-2.2c-1.4,0-1.9,0.8-1.9,2.2c0,1.4,0.5,2.2,1.9,2.2
		C164,30.9,164.5,30,164.5,28.7 M159.3,28.7c0-2.6,1.3-3.6,3.3-3.6c2,0,3.3,1,3.3,3.6c0,2.6-1.3,3.6-3.3,3.6
		C160.6,32.3,159.3,31.3,159.3,28.7z"/>
	<polygon class="st0" points="169.4,25.2 170.9,25.2 172.6,30.3 174.4,25.2 175.8,25.2 173.3,32.2 171.9,32.2 	"/>
	<polygon class="st0" points="179.9,25.2 184.6,25.2 184.6,26.6 181.3,26.6 181.3,27.9 184.5,27.9 184.5,29.3 181.3,29.3 
		181.3,30.8 184.6,30.8 184.6,32.1 179.9,32.1 	"/>
	<path class="st0" d="M192,28.5L192,28.5c0.8,0,1.1-0.2,1.1-1c0-0.8-0.3-1-1.1-1h-1.6v2H192z M191.8,29.8h-1.4v2.3H189v-7h3
		c2,0,2.5,0.9,2.5,2.3c0,1-0.3,1.8-1.3,2.2l1.2,2.5h-1.5L191.8,29.8z"/>
	<polygon class="st0" points="198.9,25.2 200.4,25.2 203.3,29.6 203.3,25.2 204.6,25.2 204.6,32.1 203.3,32.1 200.2,27.4 
		200.2,32.1 198.9,32.1 	"/>
	<path class="st0" d="M214.1,28.7L214.1,28.7c0-1.4-0.5-2.2-1.9-2.2c-1.4,0-1.9,0.8-1.9,2.2c0,1.4,0.5,2.2,1.9,2.2
		C213.6,30.9,214.1,30,214.1,28.7 M208.8,28.7c0-2.6,1.3-3.6,3.3-3.6c2,0,3.3,1,3.3,3.6c0,2.6-1.3,3.6-3.3,3.6
		C210.2,32.3,208.8,31.3,208.8,28.7z"/>
	<path class="st0" d="M227.2,30.8L227.2,30.8c1.7,0,2.1-0.6,2.1-2.1c0-1.6-0.3-2.1-2.1-2.1h-0.9v4.3H227.2z M224.9,25.2h2.3
		c2.5,0,3.5,0.7,3.5,3.5c0,2.7-1.1,3.5-3.5,3.5h-2.2V25.2z"/>
	<path class="st0" d="M239.8,28.7L239.8,28.7c0-1.4-0.5-2.2-1.9-2.2c-1.4,0-1.9,0.8-1.9,2.2c0,1.4,0.5,2.2,1.9,2.2
		C239.3,30.9,239.8,30,239.8,28.7 M234.5,28.7c0-2.6,1.3-3.6,3.3-3.6c2,0,3.3,1,3.3,3.6c0,2.6-1.3,3.6-3.3,3.6
		C235.9,32.3,234.5,31.3,234.5,28.7z"/>
	<polygon class="st0" points="250.6,25.2 255.3,25.2 255.3,26.6 252,26.6 252,27.9 255.2,27.9 255.2,29.3 252,29.3 252,30.8 
		255.3,30.8 255.3,32.1 250.6,32.1 	"/>
	<path class="st0" d="M259.2,31.3l0.7-1.1c0.7,0.5,1.4,0.7,2.3,0.7c1.2,0,1.5-0.3,1.5-0.8c0-0.6-0.5-0.7-1.5-0.8
		c-1.7-0.3-2.6-0.6-2.6-2.1c0-1.6,0.8-2.1,2.6-2.1c1.3,0,2.1,0.3,2.5,0.7l-0.7,1.2c-0.4-0.3-1.1-0.5-1.8-0.5c-1,0-1.2,0.2-1.2,0.7
		c0,0.6,0.5,0.7,1.5,0.8c1.5,0.2,2.5,0.5,2.5,2.1c0,1.4-0.7,2.2-2.8,2.2C260.9,32.3,259.9,31.9,259.2,31.3"/>
	<polygon class="st0" points="270.6,26.6 268.4,26.6 268.4,25.2 274.2,25.2 274.2,26.6 272,26.6 272,32.1 270.6,32.1 	"/>
	<path class="st0" d="M281.1,29.7L281.1,29.7l-1-2.8l-1,2.8H281.1z M279.4,25.1h1.4l2.5,7h-1.4l-0.4-1.1h-2.8l-0.4,1.1h-1.4
		L279.4,25.1z"/>
	<path class="st0" d="M289.7,30.8L289.7,30.8c1.7,0,2.1-0.6,2.1-2.1c0-1.6-0.3-2.1-2.1-2.1h-0.9v4.3H289.7z M287.4,25.2h2.3
		c2.5,0,3.5,0.7,3.5,3.5c0,2.7-1.1,3.5-3.5,3.5h-2.2V25.2z"/>
	<path class="st0" d="M302.3,28.7L302.3,28.7c0-1.4-0.5-2.2-1.9-2.2c-1.4,0-1.9,0.8-1.9,2.2c0,1.4,0.5,2.2,1.9,2.2
		C301.8,30.9,302.3,30,302.3,28.7 M297.1,28.7c0-2.6,1.3-3.6,3.3-3.6c2,0,3.3,1,3.3,3.6c0,2.6-1.3,3.6-3.3,3.6
		C298.4,32.3,297.1,31.3,297.1,28.7z"/>
	<path class="st0" d="M7.5,31.9l0.4-0.6c0.7,0.4,1.4,0.6,2.1,0.6c1.2,0,1.7-0.3,1.7-1c0-0.7-0.7-0.9-1.7-1c-1.4-0.2-2.2-0.5-2.2-1.7
		c0-1.2,0.7-1.7,2.2-1.7c1,0,1.7,0.2,2.2,0.5l-0.4,0.7c-0.4-0.3-1.1-0.5-1.7-0.5c-1,0-1.4,0.3-1.4,0.9c0,0.7,0.6,0.8,1.6,1
		c1.3,0.2,2.3,0.4,2.3,1.7c0,1.2-0.7,1.8-2.5,1.8C9.1,32.6,8.2,32.4,7.5,31.9"/>
	<path class="st0" d="M13.3,30.2c0-1.3,0.4-2.3,2.2-2.3c1.8,0,1.9,1.3,1.9,2.6h-3.3c0,0.8,0.3,1.3,1.4,1.3c0.7,0,1.1-0.2,1.4-0.4
		l0.4,0.5c-0.5,0.4-1,0.6-1.8,0.6C13.7,32.6,13.3,31.5,13.3,30.2 M14.1,29.9h2.6c0-0.7-0.1-1.3-1.2-1.3
		C14.4,28.6,14.1,29.1,14.1,29.9z"/>
	<path class="st0" d="M18.1,30.2c0-1.4,0.5-2.3,2.2-2.3c0.8,0,1.3,0.3,1.7,0.7l-0.6,0.5c-0.2-0.2-0.5-0.5-1.1-0.5
		c-1.1,0-1.4,0.6-1.4,1.6c0,1,0.3,1.6,1.4,1.6c0.5,0,0.8-0.2,1.1-0.5l0.5,0.5c-0.5,0.4-0.9,0.7-1.7,0.7
		C18.6,32.6,18.1,31.6,18.1,30.2"/>
	<path class="st0" d="M22.9,28.1l0.6,0l0.1,0.5c0.2-0.3,0.7-0.6,1.5-0.6v0.8c-1.1,0-1.4,0.6-1.4,1.4v2.4h-0.8V28.1z"/>
	<path class="st0" d="M25.7,30.2c0-1.3,0.4-2.3,2.2-2.3c1.8,0,1.9,1.3,1.9,2.6h-3.3c0,0.8,0.3,1.3,1.4,1.3c0.7,0,1.1-0.2,1.4-0.4
		l0.4,0.5c-0.5,0.4-1,0.6-1.8,0.6C26,32.6,25.7,31.5,25.7,30.2 M26.4,29.9H29c0-0.7-0.1-1.3-1.2-1.3C26.8,28.6,26.5,29.1,26.4,29.9z
		"/>
	<path class="st0" d="M30.4,28h0.8l0.1-1.3l0.6-0.1V28h1.2v0.7h-1.2v2.4c0,0.4,0,0.6,0.6,0.6h0.5v0.7c-0.1,0-0.6,0-0.7,0
		c-1.1,0-1.3-0.4-1.3-1.2v-2.5h-0.8V28z"/>
	<path class="st0" d="M33.8,31.2c0-1.3,0.7-1.6,2.9-1.6H37c0-0.6-0.2-0.9-1.1-0.9c-0.6,0-1,0.2-1.3,0.4l-0.4-0.6
		c0.3-0.2,1-0.5,1.8-0.5c1.5,0,1.8,0.5,1.8,1.8v1.6c0,0.4,0,0.5,0.4,0.5v0.7c-0.1,0-0.2,0-0.3,0c-0.5,0-0.7-0.1-0.8-0.5
		c-0.3,0.4-0.7,0.6-1.7,0.6C34.1,32.6,33.8,32,33.8,31.2 M37,30.5v-0.3h-0.2c-1.8,0-2.2,0.2-2.2,0.9c0,0.5,0.2,0.7,1,0.7
		C36.6,31.9,37,31.5,37,30.5z"/>
	<path class="st0" d="M39.1,28.1l0.6,0l0.1,0.5c0.2-0.3,0.7-0.6,1.5-0.6v0.8c-1.1,0-1.4,0.6-1.4,1.4v2.4h-0.8V28.1z"/>
	<path class="st0" d="M42.1,26.5h0.8v0.9h-0.8V26.5z M42.2,28h0.8v4.5h-0.8V28z"/>
	<path class="st0" d="M43.9,31.2c0-1.3,0.7-1.6,2.9-1.6h0.2c0-0.6-0.2-0.9-1.1-0.9c-0.6,0-1,0.2-1.3,0.4l-0.4-0.6
		c0.3-0.2,1-0.5,1.8-0.5c1.5,0,1.8,0.5,1.8,1.8v1.6c0,0.4,0,0.5,0.4,0.5v0.7c-0.1,0-0.2,0-0.3,0c-0.5,0-0.7-0.1-0.8-0.5
		c-0.3,0.4-0.7,0.6-1.7,0.6C44.2,32.6,43.9,32,43.9,31.2 M47.1,30.5v-0.3h-0.2c-1.8,0-2.2,0.2-2.2,0.9c0,0.5,0.2,0.7,1,0.7
		C46.6,31.9,47.1,31.5,47.1,30.5z"/>
	<path class="st0" d="M50.8,30.2c0-1.4,0.4-2.3,1.9-2.3c0.9,0,1.4,0.2,1.6,0.5v-2.2h0.8v6.2l-0.6,0.1L54.4,32
		c-0.3,0.4-0.8,0.6-1.7,0.6C51.2,32.6,50.8,31.6,50.8,30.2 M54.3,30.2c0-1.2-0.4-1.6-1.5-1.6c-1,0-1.3,0.6-1.3,1.6
		c0,1,0.3,1.6,1.3,1.6C53.9,31.9,54.3,31.4,54.3,30.2z"/>
	<path class="st0" d="M56.1,30.2c0-1.3,0.4-2.3,2.2-2.3c1.8,0,1.9,1.3,1.9,2.6h-3.3c0,0.8,0.3,1.3,1.4,1.3c0.7,0,1.1-0.2,1.4-0.4
		l0.4,0.5c-0.5,0.4-1,0.6-1.8,0.6C56.4,32.6,56.1,31.5,56.1,30.2 M56.8,29.9h2.6c0-0.7-0.1-1.3-1.2-1.3
		C57.2,28.6,56.9,29.1,56.8,29.9z"/>
	<path class="st0" d="M7.5,38.3c0-2.1,1.2-3.1,3.1-3.1c1.1,0,1.8,0.3,2.3,0.9L12.1,37c-0.4-0.4-0.8-0.6-1.4-0.6
		c-1.3,0-1.8,0.6-1.8,1.9c0,1.2,0.4,1.9,1.8,1.9c0.8,0,1.1-0.3,1.5-0.6l0.9,0.9c-0.5,0.5-1.1,0.9-2.5,0.9
		C8.3,41.4,7.5,40.3,7.5,38.3"/>
	<path class="st0" d="M13.8,39.2v-2.4h1.3v2.5c0,0.6,0,1.1,0.9,1.1c0.9,0,0.9-0.4,0.9-1.1v-2.4h1.2v2.4c0,1.6-0.4,2.2-2.2,2.2
		C14.2,41.4,13.8,40.8,13.8,39.2"/>
	<path class="st0" d="M19.1,40v-4.9h1.3v4.7c0,0.4,0.1,0.5,0.5,0.5H21v1c-0.1,0-0.4,0-0.6,0C19.6,41.3,19.1,41,19.1,40"/>
	<path class="st0" d="M21.5,36.8h0.8l0.2-1.1l1-0.2v1.3h1.1v1.1h-1.1v1.9c0,0.4,0,0.5,0.6,0.5h0.5v1.1c-0.2,0-0.5,0-0.7,0
		c-1.2,0-1.6-0.4-1.6-1.4v-2.1h-0.7V36.8z"/>
	<path class="st0" d="M25.4,39.2v-2.4h1.3v2.5c0,0.6,0,1.1,0.9,1.1c0.9,0,0.9-0.4,0.9-1.1v-2.4h1.2v2.4c0,1.6-0.4,2.2-2.2,2.2
		C25.9,41.4,25.4,40.8,25.4,39.2"/>
	<path class="st0" d="M30.7,36.9l1-0.1l0.1,0.5c0.2-0.3,0.7-0.5,1.5-0.5v1.2c-1.1,0-1.3,0.4-1.3,1.1v2.2h-1.3V36.9z"/>
	<path class="st0" d="M33.7,40c0-1.3,0.9-1.6,2.9-1.6h0.2c0-0.4-0.1-0.6-0.9-0.6c-0.6,0-1,0.2-1.3,0.4l-0.6-0.9
		c0.3-0.2,1.1-0.6,2.1-0.6c1.6,0,2,0.5,2,1.8v1.4c0,0.4,0,0.4,0.4,0.4v1c-0.1,0-0.2,0-0.5,0c-0.5,0-0.7-0.1-0.9-0.5
		c-0.2,0.3-0.7,0.5-1.6,0.5C34,41.4,33.7,40.8,33.7,40 M36.8,39.4v-0.2h-0.1c-1.6,0-1.8,0.1-1.8,0.6c0,0.3,0.2,0.5,0.8,0.5
		C36.4,40.4,36.8,40.1,36.8,39.4z"/>
	<path class="st0" d="M40.7,39c0-1.3,0.4-2.4,2.4-2.4c2,0,2.1,1.3,2,2.9h-3.2c0.1,0.5,0.3,0.9,1.1,0.9c0.7,0,1.1-0.2,1.4-0.4
		l0.6,0.8c-0.6,0.4-1.2,0.6-2.1,0.6C41.1,41.4,40.7,40.3,40.7,39 M41.9,38.6h2c0-0.5-0.1-0.9-0.9-0.9C42.2,37.7,42,38.1,41.9,38.6z"
		/>
	<polygon class="st0" points="47.7,35.4 52.2,35.4 52.2,36.6 49,36.6 49,37.7 52.1,37.7 52.1,38.9 49,38.9 49,40.2 52.2,40.2 
		52.2,41.3 47.7,41.3 	"/>
	<path class="st0" d="M52.9,39c0-1.3,0.4-2.4,2.4-2.4c0.8,0,1.4,0.3,1.8,0.7l-0.9,0.8c-0.2-0.2-0.5-0.4-1-0.4
		c-0.9,0-1.1,0.5-1.1,1.2c0,0.8,0.2,1.3,1.1,1.3c0.4,0,0.7-0.1,1-0.4l0.8,0.8c-0.5,0.5-1,0.7-1.9,0.7C53.4,41.4,52.9,40.4,52.9,39"
		/>
	<path class="st0" d="M57.6,39c0-1.5,0.7-2.4,2.4-2.4c1.7,0,2.4,0.8,2.4,2.4c0,1.5-0.7,2.4-2.4,2.4C58.3,41.4,57.6,40.6,57.6,39
		 M61.1,39.1c0-0.8-0.2-1.3-1.1-1.3c-0.9,0-1.1,0.5-1.1,1.3c0,0.8,0.2,1.3,1.1,1.3C60.9,40.3,61.1,39.9,61.1,39.1z"/>
	<path class="st0" d="M63.2,36.9l1-0.1l0.1,0.4c0.2-0.3,0.7-0.5,1.6-0.5c1.4,0,1.6,0.8,1.6,1.9v2.8h-1.3v-2.5c0-0.6-0.1-1-0.8-1
		c-0.9,0-1,0.4-1,1v2.5h-1.3V36.9z"/>
	<path class="st0" d="M68.3,39c0-1.5,0.7-2.4,2.4-2.4c1.7,0,2.4,0.8,2.4,2.4c0,1.5-0.7,2.4-2.4,2.4C68.9,41.4,68.3,40.6,68.3,39
		 M71.8,39.1c0-0.8-0.2-1.3-1.1-1.3c-0.9,0-1.1,0.5-1.1,1.3c0,0.8,0.2,1.3,1.1,1.3C71.5,40.3,71.8,39.9,71.8,39.1z"/>
	<path class="st0" d="M73.8,36.9l1-0.1l0.1,0.4c0.2-0.3,0.7-0.5,1.6-0.5c1,0,1.2,0.2,1.3,0.5c0.2-0.3,0.7-0.5,1.7-0.5
		c1.4,0,1.6,0.8,1.6,1.9v2.8h-1.3v-2.5c0-0.6,0-1-0.8-1c-0.9,0-1,0.4-1,1v2.5h-1.3v-2.5c0-0.6,0-1-0.8-1c-0.9,0-1,0.4-1,1v2.5h-1.3
		V36.9z"/>
	<path class="st0" d="M82.1,35.2h1.3v1.1h-1.3V35.2z M82.1,36.8h1.3v4.5h-1.3V36.8z"/>
	<path class="st0" d="M84.1,40c0-1.3,0.9-1.6,2.9-1.6h0.2c0-0.4-0.1-0.6-0.9-0.6c-0.6,0-1,0.2-1.3,0.4l-0.6-0.9
		c0.3-0.2,1.1-0.6,2.1-0.6c1.6,0,2,0.5,2,1.8v1.4c0,0.4,0,0.4,0.4,0.4v1c-0.1,0-0.2,0-0.5,0c-0.5,0-0.7-0.1-0.9-0.5
		c-0.2,0.3-0.7,0.5-1.6,0.5C84.4,41.4,84.1,40.8,84.1,40 M87.2,39.4v-0.2h-0.1c-1.6,0-1.8,0.1-1.8,0.6c0,0.3,0.2,0.5,0.8,0.5
		C86.9,40.4,87.2,40.1,87.2,39.4z"/>
	<path class="st0" d="M7.5,47.2c0-2.1,1.2-3.1,3.1-3.1c1.1,0,1.8,0.3,2.3,0.9l-0.9,0.9c-0.4-0.4-0.8-0.6-1.4-0.6
		c-1.3,0-1.8,0.6-1.8,1.9c0,1.2,0.4,1.9,1.8,1.9c0.8,0,1.1-0.3,1.5-0.6l0.9,0.9c-0.5,0.5-1.1,0.9-2.5,0.9
		C8.3,50.3,7.5,49.2,7.5,47.2"/>
	<path class="st0" d="M13.8,45.7l1-0.1l0.1,0.5c0.2-0.3,0.7-0.5,1.5-0.5v1.2c-1.1,0-1.3,0.4-1.3,1.1v2.2h-1.3V45.7z"/>
	<path class="st0" d="M17.1,44.1h1.3v1.1h-1.3V44.1z M17.1,45.6h1.3v4.5h-1.3V45.6z"/>
	<path class="st0" d="M19.1,48.8c0-1.3,0.9-1.6,2.9-1.6h0.2c0-0.4-0.1-0.6-0.9-0.6c-0.6,0-1,0.2-1.3,0.4l-0.6-0.9
		c0.3-0.2,1.1-0.6,2.1-0.6c1.6,0,2,0.5,2,1.8v1.4c0,0.4,0,0.4,0.4,0.4v1c-0.1,0-0.2,0-0.5,0c-0.5,0-0.7-0.1-0.9-0.4
		c-0.2,0.3-0.7,0.5-1.6,0.5C19.4,50.2,19.1,49.6,19.1,48.8 M22.2,48.3v-0.2h-0.1c-1.6,0-1.8,0.1-1.8,0.6c0,0.3,0.2,0.5,0.8,0.5
		C21.9,49.2,22.2,49,22.2,48.3z"/>
	<path class="st0" d="M24.3,45.6h0.8l0.2-1.1l1-0.2v1.3h1.1v1.1h-1.1v1.9c0,0.4,0,0.5,0.6,0.5h0.5v1.1c-0.2,0-0.5,0-0.7,0
		c-1.2,0-1.6-0.4-1.6-1.4v-2.1h-0.7V45.6z"/>
	<path class="st0" d="M28.3,44.1h1.3v1.1h-1.3V44.1z M28.3,45.6h1.3v4.5h-1.3V45.6z"/>
	<polygon class="st0" points="30.1,45.6 31.4,45.6 32.6,48.7 33.7,45.6 35,45.6 33.2,50.2 31.9,50.2 	"/>
	<path class="st0" d="M35.2,48.8c0-1.3,0.9-1.6,2.9-1.6h0.2c0-0.4-0.1-0.6-0.9-0.6c-0.6,0-1,0.2-1.3,0.4l-0.6-0.9
		c0.3-0.2,1.1-0.6,2.1-0.6c1.6,0,2,0.5,2,1.8v1.4c0,0.4,0,0.4,0.4,0.4v1c-0.1,0-0.2,0-0.5,0c-0.5,0-0.7-0.1-0.9-0.4
		c-0.2,0.3-0.7,0.5-1.6,0.5C35.5,50.2,35.2,49.6,35.2,48.8 M38.3,48.3v-0.2h-0.1c-1.6,0-1.8,0.1-1.8,0.6c0,0.3,0.2,0.5,0.8,0.5
		C38,49.2,38.3,49,38.3,48.3z"/>
	<path class="st1" d="M118.7,63.2L118.7,63.2c0.5,0.2,0.6-0.2,0.8-0.5c0.1-0.4,0.3-0.7-0.2-0.9c-0.5-0.2-0.6,0.2-0.8,0.5
		C118.4,62.6,118.2,63,118.7,63.2 M118.8,63L118.8,63c-0.2-0.1-0.1-0.2,0-0.6c0.1-0.4,0.2-0.5,0.4-0.4c0.2,0.1,0.1,0.2,0,0.6
		C119,62.9,118.9,63,118.8,63z M117,62.6L117,62.6l0.5,0.1c0.5,0.1,0.6-0.4,0.7-0.6c0.1-0.4,0.1-0.7-0.3-0.8l-0.5-0.1L117,62.6z
		 M117.6,61.4L117.6,61.4l0.2,0c0.2,0.1,0.1,0.3,0.1,0.6c-0.1,0.4-0.2,0.5-0.4,0.4l-0.1,0L117.6,61.4z M115.6,62.4L115.6,62.4
		c0.5,0.1,0.6-0.3,0.6-0.7c0.1-0.4,0.1-0.8-0.4-0.8c-0.5-0.1-0.6,0.3-0.6,0.7C115.1,61.9,115.1,62.3,115.6,62.4z M115.6,62.1
		L115.6,62.1c-0.2,0-0.2-0.2-0.1-0.6c0.1-0.4,0.1-0.5,0.3-0.5c0.2,0,0.2,0.2,0.1,0.6C115.8,62,115.8,62.2,115.6,62.1z M113.8,62.3
		L113.8,62.3l0.5,0c0.5,0,0.5-0.5,0.5-0.7c0-0.5-0.1-0.7-0.5-0.7l-0.5,0L113.8,62.3z M114.2,61L114.2,61l0.2,0
		c0.2,0,0.2,0.2,0.2,0.5c0,0.4,0,0.5-0.2,0.5l-0.1,0L114.2,61z M113.1,61.8L113.1,61.8l-0.3,0l0.1-0.7h0L113.1,61.8z M112.7,62.4
		L112.7,62.4l0-0.3l0.4-0.1l0.1,0.3l0.3,0l-0.6-1.4l-0.4,0l-0.2,1.5L112.7,62.4z M111.1,61.2L111.1,61.2l0,0.2l0.3-0.1l0.3,1.2
		l0.3-0.1l-0.3-1.2l0.3-0.1l0-0.2L111.1,61.2z M111.2,62.3L111.2,62.3c-0.2-0.4-0.7-0.2-0.8-0.5c0-0.1,0-0.2,0.1-0.2
		c0.1,0,0.2,0.1,0.2,0.2l0.3-0.1c-0.1-0.3-0.3-0.4-0.6-0.3c-0.4,0.1-0.4,0.3-0.3,0.6c0.1,0.4,0.7,0.2,0.8,0.5c0,0.1,0,0.2-0.1,0.2
		c-0.2,0.1-0.2-0.1-0.3-0.2l-0.3,0.1c0.1,0.2,0.2,0.4,0.6,0.3C111,62.7,111.3,62.6,111.2,62.3z M110.2,63L110.2,63l-0.1-0.2
		l-0.5,0.2l-0.2-0.4l0.4-0.2l-0.1-0.2l-0.4,0.2l-0.2-0.3l0.5-0.2l-0.1-0.2l-0.7,0.4l0.7,1.3L110.2,63z M123.6,63.4L123.6,63.4
		c0.4,0.3,0.6,0,0.8-0.4c0.2-0.3,0.4-0.7,0-0.9c-0.4-0.3-0.6,0-0.8,0.4C123.3,62.8,123.1,63.1,123.6,63.4z M123.7,63.2L123.7,63.2
		c-0.1-0.1-0.1-0.2,0.1-0.6c0.2-0.3,0.3-0.5,0.5-0.4c0.1,0.1,0.1,0.2-0.1,0.6C123.9,63.2,123.8,63.3,123.7,63.2z M122.8,62.9
		L122.8,62.9l0.8-1.3l-0.3-0.2l-0.8,1.3L122.8,62.9z M122.1,61.7L122.1,61.7L122.1,61.7c0.3,0.2,0.2,0.3,0.1,0.4
		c-0.1,0.1-0.1,0.2-0.1,0.3l0.3,0.2c0-0.1,0.2-0.3,0.2-0.4c0.1-0.2,0-0.3-0.1-0.4l0,0c0.2,0.1,0.3,0,0.4-0.2
		c0.1-0.2,0.1-0.4-0.1-0.5l-0.5-0.3l-0.8,1.3l0.3,0.2L122.1,61.7z M122.4,61.2L122.4,61.2l0.1,0.1c0.1,0.1,0.1,0.1,0,0.3
		c0,0.1-0.1,0.2-0.3,0.1l-0.1-0.1L122.4,61.2z M137.1,62.7L137.1,62.7c0.5-0.2,0.3-0.6,0.2-0.9c-0.2-0.4-0.3-0.7-0.8-0.5
		c-0.5,0.2-0.3,0.5-0.2,0.9C136.5,62.6,136.6,62.9,137.1,62.7z M137,62.5L137,62.5c-0.2,0.1-0.2-0.1-0.4-0.4c-0.1-0.4-0.2-0.5,0-0.6
		c0.2-0.1,0.2,0.1,0.4,0.4C137.2,62.3,137.2,62.4,137,62.5z M135.5,62.6L135.5,62.6L135.5,62.6c0.3-0.1,0.3,0.1,0.4,0.2
		c0,0.1,0,0.2,0.1,0.3l0.3-0.1c0,0-0.1-0.3-0.2-0.4c-0.1-0.3-0.3-0.2-0.3-0.2l0,0c0.2-0.1,0.2-0.2,0.2-0.4c-0.1-0.2-0.2-0.3-0.4-0.3
		l-0.6,0.2l0.4,1.4l0.3-0.1L135.5,62.6z M135.3,62L135.3,62l0.1,0c0.1,0,0.2,0,0.2,0.1c0,0.1,0,0.2-0.1,0.3l-0.1,0L135.3,62z
		 M135,63.4L135,63.4l-0.3-1.5l-0.3,0.1l0.3,1.5L135,63.4z M134.4,63.5L134.4,63.5l0-0.2l-0.5,0.1l-0.1-0.4l0.5-0.1l0-0.2l-0.5,0.1
		l-0.1-0.4l0.5-0.1l0-0.2l-0.8,0.1l0.2,1.5L134.4,63.5z M132.3,63.7L132.3,63.7l0-1.1h0l0.5,1.1l0.4,0l-0.1-1.5l-0.3,0l0,1l0,0
		l-0.4-1l-0.4,0l0.1,1.5L132.3,63.7z M131.3,63.1L131.3,63.1l-0.3,0l0.2-0.6h0L131.3,63.1z M130.8,63.7L130.8,63.7l0.1-0.3l0.4,0
		l0.1,0.3l0.3,0l-0.3-1.5l-0.4,0l-0.5,1.5L130.8,63.7z M130.2,62.1L130.2,62.1l-0.2,1.2c0,0.1-0.1,0.1-0.1,0.1
		c-0.2,0-0.1-0.2-0.1-0.3l-0.3,0c-0.1,0.3-0.1,0.5,0.4,0.6c0.2,0,0.4,0,0.5-0.3l0.2-1.1L130.2,62.1z M128.5,63.2L128.5,63.2l0.1-0.2
		l-0.5-0.2l0.1-0.4l0.4,0.1l0.1-0.2l-0.4-0.1l0.1-0.4l0.5,0.2l0.1-0.2l-0.8-0.2l-0.4,1.4L128.5,63.2z M126.4,62.4L126.4,62.4
		l0.5,0.2c0.5,0.2,0.7-0.3,0.8-0.5c0.2-0.4,0.2-0.7-0.1-0.9L127,61L126.4,62.4z M127.2,61.4l0.1,0.1c0.2,0.1,0.1,0.3,0,0.6
		c-0.2,0.3-0.2,0.5-0.4,0.4l-0.1-0.1L127.2,61.4z M137.3,59.6c-1.5,1-3.4,1.5-5.3,1.5c-2,0-3.8-0.6-5.3-1.5l-1.2,1.9l-3.4-2.1
		c0,0-0.6,1-1.2,1.9c-2-1.1-4.3-1.7-6.7-1.7c-2.7,0-5.2,0.8-7.3,2.1c0,0,1.5,2.4,2,3.2c1.5-1,3.4-1.5,5.3-1.5c1.9,0,3.8,0.6,5.3,1.5
		l1.2-1.9l3.4,2.1c0.2-0.3,0.7-1.2,1.2-1.9c2,1.1,4.3,1.7,6.7,1.7c2.7,0,5.2-0.7,7.3-2.1C139.3,62.8,137.7,60.2,137.3,59.6z"/>
	<path class="st0" d="M131.6,35.8c0,0-0.1,0.1-0.3,0.3c0,0,0,0,0,0c-0.3,0.4-0.8,0.7-1.3,0.9c-0.6,0.2-1.9,0.5-2.7,0.9
		c0.6,0,2.9,0.3,3.7,0.1c0.9-0.1,1.8-0.6,1.8-1.3C133,36,132.3,35.8,131.6,35.8 M133.5,32.6L133.5,32.6c-0.2,0.1,0.2-0.4,0.6-0.1
		C134.1,32.5,133.7,32.5,133.5,32.6z M123.5,40.8c0-0.4,0-1,0-1.3c0-0.5,0.2-0.9,0.8-1.3c-0.1,0.2,0,2,0.1,2.6c-0.2,0-0.4,0-0.6,0
		C123.7,40.8,123.6,40.8,123.5,40.8z M135.5,48.4l-4.4,0c0-0.1,0-0.2,0-0.3c0-3.5-2.4-6.3-5.6-7.1h0l0,0c-0.2-0.4,0-1.7,0.1-2
		c0.1-0.4,0.9-1,1.5-1.3c0.6-0.4,1.7-0.7,2.4-0.9c0.7-0.2,1-0.3,1.2-0.5c0.3-0.2,0.5-0.5,0.9-0.9c0.1-0.1,0.2-0.2,0.2-0.2
		c0,0,0.8-0.8,2-1.3c0.3-0.1,1-0.3,1.2-0.3c0.3,0,0.4,0.1,0.6,0.2c0-0.3,0-0.5-0.1-0.8c-0.1-0.3-0.3-0.8-1.2-0.7
		c-0.1-0.3-0.8-0.2-1.4,0c-0.6,0.2-1.8,0.6-2.3,0.8c-0.5,0.2-1.3,0.3-1.6,0.1c0.1,0.2,0.2,0.3,0.4,0.3c-0.1,0-0.1,0-0.2,0
		c-0.2-0.1-0.6-0.2-0.8-0.7c-0.3-0.5-0.2-1-0.4-1.3c-0.2-0.3-0.3-0.8-1.1-0.8c-0.9,0-2.8,0.7-4.5,1.1c-1.7,0.4-4.6,1.3-5.9,1.6
		c-0.3,0.1-0.8,0.2-1.3,0.3l2.5-4.8c1.4-3,2.4-1.1,2.4-1.1s0.5-0.5,1.1-0.8c0.8-0.5,1.4,0.6,1.4,0.6s0.2-0.7,1.3-0.9
		c0.3,0,0.9-4.3,0.9-4.3s0.1-1.6,0.7-2c0.3,0,0.6,0.1,0.9,0.2c0.4,0.4,0.4,1.2,0.4,1.2l0.5,8.4l2.5,0l3.7-4.4
		c2.4,3.4,3.9,8,3.9,13.1c0,0.5,0,1.5,0,2h0C137,43.7,136.4,46.2,135.5,48.4z M110.2,41.1c0-0.5,0-1.4,0-2c0-1.6,0.1-3.1,0.4-4.5
		l3.1,1.1c0.4,0,0.7-0.3,0.9-0.6c1.2,0,2.3-0.2,2.7-0.3c-0.4,0.1-2.6,0.6-2.6,0.7c0,0.2,1.4,0.5,4.1-0.3c-0.4,0.3-1.5,0.7-2.3,0.9
		c-0.1,0,0,0.1,0.2,0.1c0.5,0.1,1.6,0.2,3.9-0.6c-0.5,0.3-1.6,0.7-2.4,0.9c-0.4,0.1,0.7,0.2,1.6,0.1c0.9-0.2,1.7-0.6,2.3-0.7l0.5,0
		c-0.9,0.2-3.2,1.3-3.9,1.7c-0.8,0.5-2.5,1.1-3.3,1.2c0.3,0.3,1.3,0.8,2,0.9c0.8,0.2,2.1,0.3,3.2,0.1c0.4-0.9,1.8-1.8,2.5-2
		c-0.8,0.7-0.8,1.1-0.8,1.6c0,0.3,0.2,1.1,0.3,1.5c-0.2,0-0.3,0.1-0.5,0.1h-0.1c-3.1,0.8-5.5,3.7-5.5,7.1c0,0.1,0,0.2,0,0.3l-4.5,0
		C111.1,46.2,110.5,43.7,110.2,41.1L110.2,41.1z"/>
	<path class="st0" d="M134.4,56.5c0.2-0.2,0.4-0.2,0.6-0.1c-0.4-0.4-0.7-0.9-0.8-1.6c-0.1-0.7,0.1-1.4,0.5-1.9c0.5,0.4,0.9,1,1,1.7
		c0-0.1,0.1-0.2,0.2-0.2c0.4-0.5,0.8-0.8,1.3-0.9c-0.1-0.2-0.1-0.4,0-0.6c0.1-0.2,0.3-0.3,0.4-0.3c0-0.1,0-0.1-0.1-0.2
		c-0.2,0.1-0.4,0.1-0.5,0c-0.3-0.2-0.4-0.5-0.2-0.8c0.2-0.3,0.5-0.4,0.8-0.2c0.2,0.1,0.3,0.3,0.3,0.4c0.1,0,0.1,0,0.2-0.1
		c-0.1-0.2-0.1-0.4,0-0.5c0.1-0.2,0.3-0.3,0.6-0.3c-0.5-0.3-0.9-0.7-1.2-1.3c-0.3-0.7-0.3-1.4,0-2c0.6,0.2,1.1,0.7,1.4,1.3
		c0-0.1,0.1-0.2,0.1-0.3c0.2-0.6,0.6-1,1.1-1.3c-0.2-0.1-0.3-0.4-0.2-0.6c0.1-0.2,0.2-0.3,0.4-0.4c0-0.1-0.1-0.1-0.1-0.2
		c-0.1,0.1-0.3,0.2-0.5,0.1c-0.3-0.1-0.5-0.4-0.4-0.7c0.1-0.3,0.4-0.5,0.7-0.4c0.2,0.1,0.3,0.2,0.4,0.4c0,0,0.1-0.1,0.2-0.1
		c-0.1-0.1-0.2-0.3-0.1-0.5c0.1-0.2,0.3-0.4,0.5-0.4c-0.6-0.1-1.1-0.4-1.5-0.9c-0.4-0.6-0.6-1.3-0.5-1.9c0.6,0.1,1.2,0.4,1.7,1
		c0-0.1,0-0.2,0-0.3c0.1-0.6,0.4-1.1,0.7-1.5c-0.2-0.1-0.3-0.3-0.3-0.5c0-0.2,0.1-0.4,0.3-0.5c-0.1,0-0.1-0.1-0.1-0.1
		c-0.1,0.1-0.3,0.2-0.5,0.2c-0.3,0-0.6-0.3-0.6-0.6c0-0.3,0.3-0.6,0.6-0.6c0.2,0,0.4,0.1,0.5,0.3c0-0.1,0.1-0.1,0.1-0.1
		c-0.1-0.1-0.2-0.3-0.2-0.5c0-0.3,0.2-0.5,0.4-0.5c-0.6,0-1.1-0.2-1.6-0.6c-0.6-0.5-0.9-1.1-0.9-1.7c0.6-0.1,1.3,0.1,1.9,0.6
		c0-0.1,0-0.2,0-0.3c-0.1-0.6,0.1-1.1,0.4-1.6c-0.2-0.1-0.4-0.2-0.4-0.4c0-0.2,0-0.4,0.2-0.5c-0.1,0-0.1-0.1-0.2-0.1
		c-0.1,0.2-0.2,0.3-0.4,0.3c-0.3,0.1-0.6-0.1-0.7-0.5c-0.1-0.3,0.1-0.6,0.5-0.7c0.2,0,0.4,0,0.5,0.1c0-0.1,0.1-0.1,0.1-0.2
		c-0.2-0.1-0.3-0.2-0.3-0.4c0-0.2,0-0.4,0.2-0.6c-0.5,0.1-1.1,0.1-1.7-0.2c-0.6-0.3-1.1-0.9-1.3-1.5c0.6-0.2,1.3-0.2,1.9,0.1
		c0-0.1-0.1-0.2-0.1-0.3c-0.2-0.6-0.2-1.2,0-1.7c-0.2,0-0.5-0.1-0.6-0.3c-0.1-0.2-0.1-0.4,0-0.5c-0.1,0-0.1,0-0.2-0.1
		c0,0.2-0.1,0.3-0.3,0.4c-0.3,0.1-0.6,0-0.8-0.3c-0.1-0.3,0-0.6,0.3-0.8c0.2-0.1,0.4-0.1,0.5,0c0-0.1,0-0.1,0.1-0.2
		c-0.2,0-0.3-0.1-0.4-0.3c-0.1-0.2-0.1-0.5,0.1-0.6c-0.5,0.3-1.1,0.4-1.7,0.3c-0.7-0.1-1.3-0.5-1.6-1.1c0.5-0.4,1.2-0.5,1.9-0.4
		c-0.1-0.1-0.1-0.1-0.2-0.2c-0.3-0.5-0.5-1.1-0.4-1.6c-0.2,0.1-0.5,0-0.6-0.2c-0.1-0.1-0.2-0.3-0.1-0.5c-0.1,0-0.1,0-0.2,0
		c0,0.2,0,0.4-0.2,0.5c-0.2,0.2-0.6,0.2-0.8,0c-0.2-0.2-0.2-0.6,0-0.8c0.1-0.1,0.3-0.2,0.5-0.1c0-0.1,0-0.1,0-0.2
		c-0.2,0-0.4,0-0.5-0.2c-0.1-0.1-0.2-0.3-0.1-0.5c-0.4,0.4-0.9,0.7-1.5,0.7c-0.7,0.1-1.4-0.1-1.9-0.5c0.4-0.5,1-0.9,1.7-1
		c-0.1,0-0.1-0.1-0.2-0.2c-0.6-0.4-0.9-1.1-1-1.7c0.6-0.1,1.3,0.1,1.9,0.5c0.1,0.1,0.1,0.1,0.2,0.2c-0.1-0.7,0.1-1.4,0.5-1.9
		c0.5,0.4,0.9,1,1,1.7c0.1,0.6-0.1,1.2-0.4,1.7c0.2-0.1,0.5,0,0.7,0.1c0.1,0.1,0.2,0.3,0.1,0.5c0.1,0,0.1,0,0.2,0
		c0-0.2,0-0.4,0.2-0.5c0.2-0.2,0.6-0.2,0.8,0c0.2,0.2,0.2,0.6,0,0.8c-0.1,0.1-0.3,0.2-0.5,0.1c0,0.1,0,0.1,0,0.2
		c0.2,0,0.4,0,0.5,0.2c0.2,0.2,0.2,0.5,0.1,0.7c0.5,0.2,1,0.5,1.4,1c0.1,0.1,0.1,0.2,0.1,0.2c0.1-0.7,0.5-1.3,1.1-1.6
		c0.4,0.5,0.5,1.2,0.4,1.9c-0.1,0.7-0.5,1.3-1,1.6c0.3-0.1,0.6,0,0.7,0.3c0.1,0.2,0.1,0.4,0,0.5c0.1,0,0.1,0,0.2,0.1
		c0-0.2,0.2-0.3,0.3-0.4c0.3-0.1,0.6,0,0.8,0.3c0.1,0.3,0,0.6-0.3,0.8c-0.2,0.1-0.4,0.1-0.5,0c0,0.1,0,0.1-0.1,0.2
		c0.2,0,0.3,0.1,0.4,0.3c0.1,0.2,0,0.5-0.1,0.7c0.5,0.3,0.9,0.8,1.1,1.4c0,0.1,0.1,0.2,0.1,0.3c0.3-0.6,0.9-1.1,1.5-1.2
		c0.2,0.6,0.2,1.3-0.1,2c-0.3,0.6-0.8,1-1.3,1.2c0.2,0,0.5,0.2,0.5,0.5c0,0.2,0,0.4-0.1,0.5c0.1,0,0.1,0.1,0.1,0.1
		c0.1-0.2,0.2-0.3,0.4-0.3c0.3-0.1,0.6,0.1,0.7,0.5c0.1,0.3-0.1,0.6-0.5,0.7c-0.2,0-0.4,0-0.5-0.1c0,0.1-0.1,0.1-0.1,0.2
		c0.2,0.1,0.3,0.2,0.3,0.4c0,0.2-0.1,0.5-0.3,0.6c0.4,0.4,0.6,0.9,0.7,1.5c0,0.1,0,0.2,0,0.3c0.5-0.5,1.1-0.8,1.7-0.9
		c0.1,0.6-0.1,1.3-0.6,1.9c-0.4,0.5-1,0.8-1.6,0.9c0.3,0.1,0.5,0.3,0.4,0.6c0,0.2-0.1,0.4-0.2,0.5c0,0,0.1,0.1,0.1,0.1
		c0.1-0.1,0.3-0.2,0.5-0.2c0.3,0,0.6,0.3,0.6,0.6c0,0.3-0.3,0.6-0.6,0.6c-0.2,0-0.4-0.1-0.5-0.2c0,0.1-0.1,0.1-0.1,0.1
		c0.1,0.1,0.2,0.3,0.2,0.5c0,0.3-0.2,0.5-0.4,0.5c0.3,0.5,0.4,1,0.3,1.6c0,0.1,0,0.2-0.1,0.3c0.6-0.4,1.3-0.6,1.9-0.5
		c-0.1,0.6-0.4,1.3-1,1.7c-0.5,0.4-1.2,0.6-1.8,0.5c0.3,0.1,0.4,0.4,0.3,0.7c-0.1,0.2-0.2,0.3-0.4,0.4c0,0,0.1,0.1,0.1,0.2
		c0.1-0.1,0.3-0.2,0.5-0.1c0.3,0.1,0.5,0.4,0.4,0.7c-0.1,0.3-0.4,0.5-0.7,0.4c-0.2,0-0.3-0.2-0.4-0.3c0,0-0.1,0.1-0.2,0.1
		c0.1,0.1,0.2,0.3,0.1,0.5c-0.1,0.3-0.3,0.4-0.5,0.4c0.2,0.5,0.2,1.1-0.1,1.7c0,0.1-0.1,0.2-0.1,0.3c0.7-0.3,1.4-0.3,1.9,0
		c-0.2,0.6-0.7,1.1-1.4,1.4c-0.6,0.3-1.3,0.3-1.8,0.1c0.2,0.2,0.3,0.5,0.1,0.7c-0.1,0.2-0.3,0.3-0.4,0.3c0,0.1,0,0.1,0,0.2
		c0.2-0.1,0.4-0.1,0.5,0c0.3,0.2,0.4,0.5,0.2,0.8c-0.2,0.3-0.5,0.4-0.8,0.2c-0.2-0.1-0.3-0.3-0.3-0.4c-0.1,0-0.1,0-0.2,0
		c0.1,0.2,0.1,0.4,0,0.5c-0.1,0.2-0.4,0.3-0.6,0.3c0,0.5-0.2,1.1-0.5,1.6c-0.1,0.1-0.1,0.1-0.2,0.2c0.7-0.1,1.4,0.1,1.9,0.5
		c-0.4,0.5-1,0.9-1.7,1c-0.7,0.1-1.3-0.1-1.8-0.5c0.2,0.2,0.1,0.6-0.1,0.8c-0.1,0.1-0.3,0.2-0.5,0.1c0,0.1,0,0.1,0,0.2
		c0.2,0,0.4,0,0.5,0.2c0.2,0.2,0.2,0.6,0,0.8c-0.2,0.2-0.6,0.2-0.8,0c-0.1-0.1-0.2-0.3-0.1-0.5c-0.1,0-0.1,0-0.2,0
		c0,0.2,0,0.4-0.2,0.5c-0.2,0.2-0.6,0.2-0.8,0c-0.2-0.2-0.2-0.6,0-0.8c0.1-0.1,0.3-0.2,0.5-0.1c0-0.1,0-0.1,0-0.2
		c-0.2,0-0.4,0-0.5-0.2c-0.2-0.2-0.2-0.6,0-0.8c0.2-0.2,0.6-0.2,0.8,0c0.1,0.1,0.2,0.3,0.1,0.5c0.1,0,0.1,0,0.2,0
		C134.2,56.8,134.3,56.6,134.4,56.5"/>
	<path class="st0" d="M111,21c-1.2,1.4-2.2,3-3.1,4.7l1-3.5c0,0,0-0.1-0.1-0.1l-0.9-0.4c0,0-0.1,0-0.1,0l-2.4,4.3c0,0,0,0.1,0,0.1
		c0,0,0.1,0,0.1,0c0,0,1.7-2,2.1-2.4l-0.2,3.1c-0.1,0.3-0.3,0.6-0.4,0.9c-0.7,1.8-1.3,3.8-1.7,5.8l-0.1-3.8c0,0,0-0.1-0.1-0.1
		l-1-0.1c-0.1,0-0.1,0-0.1,0.1l-1.1,4.8c0,0.1,0,0.1,0.1,0.1c0.1,0,0.1,0,0.1-0.1c0,0,1.1-2.4,1.3-2.9l0.7,3.1
		c-0.2,1.4-0.3,2.8-0.3,4.3c0,0.8,0,1.6,0.1,2.3l-1-3.6c0,0-0.1-0.1-0.1-0.1l-1,0.1c-0.1,0-0.1,0.1-0.1,0.1l0.1,5
		c0,0.1,0,0.1,0.1,0.1c0.1,0,0.1,0,0.1-0.1c0,0,0.5-2.6,0.6-3.1l1.4,2.9c0.3,2.3,0.8,4.5,1.5,6.6l-1.9-3.2c0,0-0.1-0.1-0.1,0
		l-0.9,0.4c0,0-0.1,0.1-0.1,0.1l1.4,4.7c0,0.1,0.1,0.1,0.1,0.1c0,0,0.1-0.1,0.1-0.1v0c0,0-0.3-2.7-0.3-3.2l2.1,2.4
		c0.8,2.1,1.9,4,3.2,5.7l-2.7-2.4c0,0-0.1,0-0.1,0l-0.7,0.6c0,0,0,0.1,0,0.1l2.9,4.1c0,0,0.1,0.1,0.1,0c0,0,0.1-0.1,0.1-0.1
		c0,0,0,0,0,0c0,0-1.1-2.4-1.3-2.9L111,57c0.4,0.4,0.7,0.8,1.1,1.2c0.2,0.2,0.5,0.2,0.8,0c0.2-0.2,0.2-0.5,0-0.8
		c-0.4-0.4-0.8-0.8-1.2-1.3l-0.2-2.5c0.3,0.4,2.1,2.4,2.1,2.4c0,0,0.1,0,0.1,0c0,0,0.1-0.1,0-0.1l-2.5-4.3c0,0-0.1-0.1-0.1,0
		l-0.9,0.4c-0.1,0-0.1,0.1-0.1,0.1l1,3.4c-1.3-1.7-2.4-3.7-3.3-5.9l0.5-2.7c0.2,0.5,1.4,2.9,1.4,2.9c0,0.1,0.1,0.1,0.1,0.1
		c0.1,0,0.1-0.1,0.1-0.1l-1.3-4.8c0,0-0.1-0.1-0.1-0.1l-1,0.1c-0.1,0-0.1,0.1-0.1,0.1l0,3.7c-0.8-2.1-1.2-4.3-1.5-6.6l1.2-2.5
		c0.1,0.5,0.6,3.2,0.6,3.2c0,0.1,0.1,0.1,0.1,0.1c0.1,0,0.1,0,0.1-0.1v-5c0-0.1,0-0.1-0.1-0.1l-1-0.1c-0.1,0-0.1,0-0.1,0.1l-0.9,3.6
		c-0.1-0.8-0.1-1.5-0.1-2.3c0-1.5,0.1-2.9,0.3-4.4l1.7-2.1c0,0.5-0.1,3.2-0.1,3.2v0c0,0.1,0,0.1,0.1,0.1c0.1,0,0.1,0,0.1-0.1
		l1.2-4.8c0-0.1,0-0.1-0.1-0.1l-0.9-0.4c0,0-0.1,0-0.1,0l-1.7,3.3c0.4-2.4,1.1-4.7,2.1-6.8l2.3-1.5c-0.2,0.5-1.1,3-1.1,3
		c0,0,0,0,0,0c0,0,0,0.1,0.1,0.1c0,0,0.1,0,0.1,0l2.6-4.2c0,0,0-0.1,0-0.1l-0.7-0.6c0,0-0.1,0-0.1,0l-2.7,2.6c0.8-1.7,1.9-3.2,3-4.6
		l3.8-3.2c0,0,0,0,0-0.1c0,0,0,0-0.1,0c0,0-1.1,0.6-2,1.1l2.5-3.2c0,0,0-0.1,0-0.1c0,0,0,0-0.1,0l-2.9,2.8c0.4-0.9,0.9-2,0.9-2
		c0,0,0-0.1,0-0.1c0,0-0.1,0-0.1,0L111,21L111,21z"/>
	<path class="st0" d="M123.7,57.4L123.7,57.4c-7.3,0-13.3-8.2-13.3-18.4c0-10.1,6-18.4,13.3-18.4c7.3,0,13.3,8.2,13.3,18.4
		C137,49.2,131.1,57.4,123.7,57.4 M123.7,19.7c-7.9,0-14.3,8.7-14.3,19.4c0,10.7,6.4,19.4,14.3,19.4c7.9,0,14.3-8.7,14.3-19.4
		C138,28.3,131.6,19.7,123.7,19.7z"/>
	<path class="st0" d="M117.7,48.4L117.7,48.4c0-0.1,0-0.2-0.1-0.2c-0.1,0-0.1,0.1-0.1,0.2l0,0.2l0.3,0L117.7,48.4z M117.8,48.5
		l0,0.2l0.3,0l0,0.2l-1,0.1l0-0.5c0-0.3,0.1-0.4,0.3-0.4c0.1,0,0.3,0,0.3,0.2l0.3-0.2l0,0.2L117.8,48.5z"/>
	<polygon class="st0" points="117.2,47.3 117.4,46.6 117.6,46.6 117.5,47.1 117.6,47.2 117.7,46.7 117.9,46.7 117.8,47.2 118,47.2 
		118.1,46.7 118.3,46.8 118.2,47.5 	"/>
	<polygon class="st0" points="117.6,45.8 117.7,45.6 118.4,45.6 117.9,45.1 118,44.8 118.9,45.2 118.8,45.4 118.2,45.2 118.7,45.7 
		118.6,45.8 118,45.8 118.5,46 118.5,46.2 	"/>
	<path class="st0" d="M119.2,44.1L119.2,44.1c0.1-0.1,0.1-0.2,0-0.2c-0.1-0.1-0.1-0.1-0.2,0l-0.2,0.2l0.2,0.2L119.2,44.1z
		 M118.5,44.1l0.3-0.4c0.2-0.2,0.3-0.2,0.5-0.1c0.2,0.1,0.2,0.3,0,0.5l-0.2,0.2l0.2,0.2l-0.1,0.2L118.5,44.1z"/>
	<path class="st0" d="M119.9,43.5l-0.3-0.5l0.2-0.1l0.3,0.5c0.1,0.1,0.2,0.2,0.3,0c0.2-0.1,0.1-0.2,0.1-0.3l-0.3-0.5l0.2-0.1
		l0.3,0.5c0.1,0.1,0.2,0.3-0.1,0.6C120.2,43.8,120,43.6,119.9,43.5"/>
	<path class="st0" d="M121.7,42.6L121.7,42.6c0.1,0,0.1-0.1,0.1-0.2c0-0.1-0.1-0.1-0.2,0l-0.2,0.1l0.1,0.2L121.7,42.6z M121.6,42.3
		L121.6,42.3c0.1,0,0.1-0.1,0.1-0.2c0-0.1-0.1-0.1-0.2,0l-0.2,0.1l0.1,0.2L121.6,42.3z M121,42.1l0.4-0.2c0.2-0.1,0.4-0.1,0.4,0.1
		c0,0.1,0,0.2,0,0.2c0.1,0,0.2,0,0.2,0.2c0.1,0.2,0,0.3-0.3,0.4l-0.4,0.2L121,42.1z"/>
	<polygon class="st0" points="122.5,41.6 122.7,41.6 122.9,42.3 123.3,42.3 123.4,42.4 122.7,42.5 	"/>
	
		<rect x="123.5" y="41.8" transform="matrix(2.701326e-02 -0.9996 0.9996 2.701326e-02 78.7265 164.7782)" class="st0" width="1" height="0.2"/>
	<path class="st0" d="M124.8,42c0.1-0.3,0.3-0.4,0.6-0.4c0.2,0,0.3,0.1,0.3,0.2l-0.2,0.1c0-0.1-0.1-0.1-0.2-0.1
		c-0.2,0-0.3,0-0.4,0.2c0,0.2,0,0.3,0.2,0.4c0.1,0,0.2,0,0.3,0l0.1,0.2c-0.1,0.1-0.2,0.1-0.4,0.1C124.8,42.5,124.7,42.3,124.8,42"/>
	<path class="st0" d="M126.7,42.8L126.7,42.8l0-0.4l-0.3,0.3L126.7,42.8z M126.7,42.1l0.2,0.1l-0.1,1l-0.2-0.1l0-0.2l-0.4-0.2
		l-0.1,0.1l-0.2-0.1L126.7,42.1z"/>
	<polygon class="st0" points="127.9,42.8 128.1,43 127.8,43.7 128.5,43.3 128.7,43.5 128,44.2 127.9,44.1 128.3,43.6 127.7,43.9 
		127.6,43.8 127.8,43.2 127.4,43.7 127.2,43.5 	"/>
	<path class="st0" d="M129.9,47c0.3,0,0.5,0.1,0.5,0.5c0,0.2,0,0.3-0.1,0.4l-0.2-0.1c0-0.1,0.1-0.1,0.1-0.3c0-0.2-0.1-0.3-0.3-0.3
		c-0.2,0-0.3,0.1-0.3,0.3c0,0.2,0.1,0.2,0.2,0.2l0,0l0-0.3l0.2,0l0,0.5l-0.2,0c-0.3,0-0.4-0.1-0.4-0.4C129.4,47.1,129.5,47,129.9,47
		"/>
	<polygon class="st0" points="130.4,48.5 130.3,49.2 130.1,49.1 130.2,48.6 130,48.6 129.9,49.1 129.7,49.1 129.8,48.6 129.6,48.6 
		129.5,49.1 129.3,49 129.4,48.3 	"/>
	<path class="st0" d="M129.6,50L129.6,50c0,0.1,0,0.2,0.1,0.2c0.1,0,0.1,0,0.2-0.1l0.1-0.2l-0.3-0.1L129.6,50z M129.4,49.9l0.1-0.2
		l-0.3-0.1l0.1-0.2l0.9,0.3l-0.2,0.4c-0.1,0.3-0.2,0.3-0.4,0.2c-0.1,0-0.2-0.1-0.2-0.3l-0.4,0.1L129,50L129.4,49.9z"/>
	<polygon class="st0" points="129.6,51.1 129.2,51.7 129.1,51.6 129.3,51.2 129.2,51.1 128.9,51.5 128.7,51.4 129,51 128.8,50.9 
		128.6,51.3 128.4,51.2 128.8,50.6 	"/>
	<path class="st0" d="M128.2,52.2L128.2,52.2c-0.1,0.1-0.1,0.1,0,0.2c0.1,0.1,0.1,0.1,0.2,0l0.2-0.2l-0.2-0.2L128.2,52.2z M128.1,52
		l0.1-0.2l-0.2-0.2l0.1-0.2l0.7,0.7l-0.3,0.3c-0.2,0.2-0.3,0.2-0.5,0.1c-0.1-0.1-0.2-0.2-0.1-0.4l-0.4-0.1l0.2-0.2L128.1,52z"/>
	<polygon class="st0" points="127.8,53.2 127.2,53.6 127.1,53.4 127.5,53.1 127.4,53 127,53.3 126.9,53.1 127.3,52.8 127.2,52.7 
		126.8,52.9 126.7,52.8 127.3,52.4 	"/>
	<path class="st0" d="M124.4,54.1L124.4,54.1c-0.1,0-0.2,0-0.1,0.2c0,0.1,0.1,0.1,0.2,0.1l0.2,0l0-0.3L124.4,54.1z M124.4,53.9
		l0.2,0l0-0.3l0.2,0l0.1,1l-0.5,0.1c-0.3,0-0.4-0.1-0.4-0.3c0-0.1,0-0.3,0.2-0.3l-0.2-0.3l0.2,0L124.4,53.9z"/>
	<polygon class="st0" points="123.5,54.6 122.8,54.5 122.8,54.3 123.3,54.3 123.3,54.2 122.8,54.1 122.8,53.9 123.3,54 123.3,53.8 
		122.8,53.7 122.8,53.5 123.6,53.6 	"/>
	<path class="st0" d="M122.4,53.9c-0.1,0.3-0.3,0.4-0.6,0.3c-0.2-0.1-0.3-0.1-0.3-0.2l0.2-0.1c0,0.1,0.1,0.1,0.2,0.2
		c0.2,0.1,0.3,0,0.4-0.2c0.1-0.2,0-0.3-0.2-0.4c-0.1,0-0.2,0-0.3,0l-0.1-0.2c0.1-0.1,0.2-0.1,0.4,0
		C122.4,53.4,122.5,53.6,122.4,53.9"/>
	<polygon class="st0" points="120.7,53.6 121,53.8 120.9,53.9 120.2,53.5 120.3,53.4 120.5,53.5 120.9,52.8 121.1,52.9 	"/>
	<polygon class="st0" points="119.7,53.2 119.2,52.7 119.3,52.6 119.7,52.9 119.8,52.8 119.4,52.5 119.5,52.3 119.9,52.6 
		120.1,52.5 119.7,52.1 119.8,52 120.3,52.5 	"/>
	<path class="st0" d="M128.7,46.9L128.7,46.9c0,0.1,0.1,0.8,0.1,1c0,2.8-2.3,5.1-5.1,5.1c-1.3,0-2.9-0.7-3.8-1.5l0.1-0.1
		C122.8,47.8,127.4,47,128.7,46.9L128.7,46.9z M123.7,42.9L123.7,42.9l0.4,1l1.1,0l-0.9,0.7l0.3,1.1c0,0,0.1,0,0.1,0
		c1.4-0.4,2.7-0.5,3.2-0.5C127,43.7,125.5,42.9,123.7,42.9z M118.7,47.9c0-2.8,2.3-5.1,5.1-5.1l-0.4,1l-1.1,0l0.9,0.7l-0.3,1.1
		l0.9-0.6l0.9,0.6c-1.7,0.5-3.8,2-5.6,4.3C118.9,49.4,118.7,48.5,118.7,47.9z"/>
	<path class="st0" d="M120.5,49.3L120.5,49.3c-0.1-0.1-0.2-0.1-0.2,0c-0.1,0.1-0.1,0.2,0,0.2c0.1,0.1,0.1,0.1,0.2,0
		C120.6,49.5,120.6,49.4,120.5,49.3 M120.6,49.9L120.6,49.9c0.3-0.3,0.2-0.4,0.1-0.5c0,0.1,0,0.1-0.1,0.2c-0.1,0.2-0.3,0.1-0.4,0
		c-0.1-0.1-0.2-0.3,0-0.5c0.2-0.2,0.3-0.2,0.5,0c0.3,0.2,0.3,0.4,0,0.7l-0.1,0.1L120.6,49.9z"/>
	<path class="st0" d="M121.6,48.7L121.6,48.7l-0.3-0.2l0.1,0.3L121.6,48.7z M121,48.4l0.1-0.1l0.8,0.4l-0.1,0.1l-0.1-0.1l-0.3,0.3
		l0.1,0.1l-0.1,0.1L121,48.4z"/>
	<path class="st0" d="M122.3,48.3L122.3,48.3c0.1-0.1,0.1-0.1,0.1-0.2c0-0.1-0.1-0.1-0.2,0l-0.2,0.1l0.1,0.2L122.3,48.3z M122.1,48
		L122.1,48c0.1-0.1,0.1-0.1,0-0.2c0,0-0.1-0.1-0.2,0l-0.2,0.1l0.1,0.1L122.1,48z M121.6,48l0.3-0.2c0.2-0.1,0.3-0.1,0.4,0
		c0.1,0.1,0.1,0.2,0,0.2c0.1,0,0.2,0,0.2,0.1c0.1,0.2,0,0.3-0.1,0.4l-0.3,0.2L121.6,48z"/>
	<path class="st0" d="M122.9,47.6L122.9,47.6c0.1-0.1,0.1-0.1,0.1-0.2c-0.1-0.1-0.1-0.1-0.2,0l-0.2,0.1l0.1,0.2L122.9,47.6z
		 M123,47.7l-0.2,0.1l0.1,0.2l-0.2,0.1l-0.4-0.7l0.4-0.2c0.2-0.1,0.3-0.1,0.4,0.1c0.1,0.1,0.1,0.2,0,0.3l0.3,0.2l-0.2,0.1L123,47.7z
		"/>
	<polygon class="st0" points="123.2,46.9 123.4,46.9 123.8,47.6 123.6,47.7 	"/>
	<polygon class="st0" points="123.6,46.7 123.8,46.7 124.1,47.3 124.4,47.1 124.5,47.3 123.9,47.5 	"/>
	<polygon class="st0" points="124.7,46.5 124.6,46.5 124.6,46.4 124.9,46.3 125.1,47.1 125,47.2 	"/>
	<path class="st0" d="M125.8,46.7L125.8,46.7c0-0.1-0.1-0.1-0.2-0.1c-0.1,0-0.2,0.1-0.2,0.2c0,0.1,0.1,0.1,0.2,0.1
		C125.8,46.8,125.8,46.7,125.8,46.7 M125.7,46.3L125.7,46.3c0-0.1-0.1-0.1-0.2-0.1c-0.1,0-0.2,0.1-0.1,0.1c0,0.1,0.1,0.1,0.2,0.1
		C125.7,46.4,125.7,46.4,125.7,46.3z M125.3,46.8c0-0.1,0-0.2,0.1-0.3c-0.1,0-0.1-0.1-0.1-0.2c0-0.1,0-0.2,0.3-0.3
		c0.3-0.1,0.4,0,0.4,0.1c0,0.1,0,0.2-0.1,0.2c0.1,0,0.2,0.1,0.2,0.2c0,0.1,0,0.3-0.3,0.3C125.4,47,125.3,46.9,125.3,46.8z"/>
	<path class="st0" d="M126.6,46.2L126.6,46.2c0-0.1-0.1-0.1-0.2-0.1c-0.1,0-0.2,0.1-0.1,0.2c0,0.1,0.1,0.1,0.2,0.1
		C126.6,46.4,126.6,46.3,126.6,46.2 M126.2,46.7L126.2,46.7c0.4-0.1,0.4-0.2,0.4-0.3c0,0.1-0.1,0.1-0.2,0.1c-0.2,0-0.3-0.1-0.3-0.2
		c0-0.2,0-0.3,0.3-0.4c0.3,0,0.4,0.1,0.4,0.3c0,0.3,0,0.5-0.5,0.6l-0.1,0L126.2,46.7z"/>
	<path class="st0" d="M126.9,46.6l0.3-0.3c0.1-0.1,0.2-0.2,0.2-0.2c0-0.1,0-0.1-0.2-0.1c-0.1,0-0.2,0-0.2,0.1l-0.1-0.1
		c0.1-0.1,0.2-0.1,0.3-0.1c0.2,0,0.3,0,0.3,0.2c0,0.1-0.1,0.2-0.2,0.3l-0.2,0.2l0.4,0l0,0.2l-0.6,0L126.9,46.6z"/>
	<polygon class="st0" points="126.1,18.9 124.1,17.6 122.2,18.9 122.9,16.7 121,15.2 123.4,15.2 124.1,12.9 124.9,15.2 127.3,15.2 
		125.4,16.7 	"/>
</g>
</svg>
