<?xml version="1.0" encoding="utf-8"?>
<!-- Generator: Adobe Illustrator 25.0.0, SVG Export Plug-In . SVG Version: 6.00 Build 0)  -->
<svg version="1.1" id="Camada_1" xmlns="http://www.w3.org/2000/svg" xmlns:xlink="http://www.w3.org/1999/xlink" x="0px" y="0px"
	 viewBox="0 0 160.3 236.9" style="enable-background:new 0 0 160.3 236.9;" xml:space="preserve">
<style type="text/css">
	.st0{clip-path:url(#SVGID_2_);fill-rule:evenodd;clip-rule:evenodd;fill:#EC1651;}
	.st1{clip-path:url(#SVGID_2_);fill-rule:evenodd;clip-rule:evenodd;fill:#FF9C01;}
	.st2{clip-path:url(#SVGID_2_);fill-rule:evenodd;clip-rule:evenodd;fill:#59B5A3;}
	.st3{clip-path:url(#SVGID_2_);fill-rule:evenodd;clip-rule:evenodd;fill:#C60039;}
	.st4{clip-path:url(#SVGID_2_);fill-rule:evenodd;clip-rule:evenodd;fill:#37979E;}
	.st5{clip-path:url(#SVGID_2_);fill-rule:evenodd;clip-rule:evenodd;fill:#00CBFF;}
	.st6{fill-rule:evenodd;clip-rule:evenodd;fill:#77A5B1;}
	.st7{fill-rule:evenodd;clip-rule:evenodd;fill:#C24C4E;}
	.st8{fill-rule:evenodd;clip-rule:evenodd;fill:#EC1651;}
	.st9{fill-rule:evenodd;clip-rule:evenodd;fill:#608EA7;}
	.st10{fill:#FFCB00;}
	.st11{fill:#FFFFFF;}
</style>
<g>
	<g>
		<defs>
			<path id="SVGID_1_" d="M39.8,108.2c1,0.4,2.5,0.1,4.5-1c0.5-0.5,1.1-0.8,1.9-0.8c1.4,0,2.6,1.2,2.6,2.6c0,1.4-1.2,2.6-2.6,2.6
				c-0.7,0-1.4-0.3-1.8-0.8c-1.6-1-3.1-1.4-4.7-0.9c-0.2,0.2-0.5,0.3-0.9,0.3c-0.7,0-1.2-0.6-1.2-1.2c0-0.7,0.6-1.2,1.2-1.2
				C39.2,107.8,39.6,107.9,39.8,108.2 M54.3,102.8c0.2-0.1,0.5-0.3,0.7-0.4c-0.1,0-0.3,0-0.4,0.1v0
				C54.5,102.6,54.4,102.7,54.3,102.8z M45.6,28.1c1.2,0.5,2.8,0.2,5.1-1.1c0.5-0.6,1.3-0.9,2.1-0.9c1.6,0,2.9,1.3,2.9,2.9
				c0,1.6-1.3,2.9-2.9,2.9c-0.8,0-1.5-0.3-2.1-0.9c-1.8-1.1-3.5-1.6-5.2-1c-0.3,0.2-0.6,0.4-1,0.4c-0.8,0-1.4-0.6-1.4-1.4
				c0-0.8,0.6-1.4,1.4-1.4C45,27.6,45.3,27.8,45.6,28.1z M70.1,24.1L70.1,24.1L70.1,24.1L70.1,24.1L70.1,24.1z M61.6,92.9h3.9
				c0,4.3,1.3,8.2,4,11.5c2.7,3.3,7.4,5.3,14,5.7c5.9,0,10.6-1.1,14.2-3.4c1.2-0.7,2.1-1.5,2.9-2.4l0.1,0l0,0
				c1.6-1.8,2.4-3.9,2.4-6.2c0-2.8-0.8-5-2.4-6.9c-1.6-1.8-3.6-3.3-6-4.3c-2.4-1.1-5-2-7.8-2.7c-2.8-0.8-5.5-1.4-8-2.1
				c-9.2-2.1-16.6-4.2-22.3-6.2c0-0.2,0-0.3,0-0.5c0-2.9,2-5.3,4.8-5.8c0,0-0.1-0.1-0.1-0.1v0c-4.7-2.6-9.5-4.6-15.1-2.8v-0.1
				c-0.5,0.4-1.2,0.7-1.9,0.7c-1.7,0-3-1.3-3-3c0-1.7,1.3-3,3-3c0.7,0,1.4,0.3,1.9,0.7C49.7,63,53.8,62,58.2,60h0
				c-1.9,0-3.6-0.8-4.9-2v0c-4.4-2.4-8.2-2.6-11.6-1.5v0c-0.4,0.2-0.8,0.2-1.3,0.2c-2.1,0-3.7-1.7-3.7-3.7s1.7-3.7,3.7-3.7
				c0.5,0,0.9,0.1,1.3,0.2c4.1,1.4,7.8,1.6,11-0.8c1.1-1.4,2.8-2.4,4.7-2.6c-1.9-0.5-3.8-0.5-5.6,0.3v0c-1.1,0.9-2.5,1.4-4,1.4
				c-3.6,0-6.5-2.9-6.5-6.5c0-3.6,2.9-6.5,6.5-6.5c1.4,0,2.7,0.4,3.7,1.2c4.2,1.8,7.7,0.6,11-1.6c-2.2-1.1-3.7-3.3-3.7-5.9
				c0-3.5,2.8-6.4,6.3-6.5c-2-0.5-4.1-0.6-6.3,0.2v-0.1c-0.4,0.4-0.9,0.6-1.5,0.6c-1.3,0-2.3-1-2.3-2.3c0-1.3,1-2.3,2.3-2.3
				c0.6,0,1.1,0.2,1.5,0.6c3,1,6.5,0,10.2-1.7c-0.7-1.2-1-2.6-1-4.1c0-1.2,0.2-2.3,0.7-3.3c5.3-1,11.1-1.5,17.3-1.5
				c16.3,0.2,28.4,3.3,36.4,9.4c8,6.1,12,14.6,12,25.4c0,1.4-0.1,2.6-0.1,3.3h-33.3c0-4.5-1.4-8.1-4.3-10.7c-2.9-2.6-6.9-4-12.1-4
				c-4.3,0-7.9,1.2-10.8,3.5c-2.9,2.3-4.3,5-4.3,8c0,6.2,6.6,10.7,19.9,13.7c9.1,2.1,15.9,3.7,20.5,4.9c4.6,1.2,9.1,3.1,13.4,5.5
				c4.4,2.5,8,5.9,10.8,10.3c2.8,4.4,4.3,10.1,4.6,17c0,8.8-2.4,16.1-7.2,22.1c-4.8,6-11.2,10.4-19.3,13.3c-1.1,0.4-2.2,0.7-3.3,1.1
				c-0.4,0.1-0.8,0.1-1.1,0.2c-0.1,0.1-0.1,0.1-0.2,0.2c-6.8,1.9-14.2,2.9-22.2,2.9c-8.2,0-15.3-0.7-21.6-2.1c0.1-3.9,3.3-7,7.2-7
				c0.1,0,0.1,0,0.2,0c0.3-1.4,1.4-2.5,2.7-2.9c-2.6-0.5-5.1-0.5-6.1,0.1c-0.1,0.1-0.1,0.1-0.2,0.2l0,0c-0.6,0.5-1.4,0.8-2.3,0.8
				c-1,0-1.8-0.4-2.5-0.9c-1.3-0.7-2.7-1-4.1-0.3c-0.5,0.3-1,0.5-1.6,0.5c-0.7,0-1.4-0.3-1.9-0.7l0,0l-0.1,0l0,0l0,0
				c-1.9-1.7-3-1.4-5-0.8v0c-0.3,0.4-0.8,0.6-1.4,0.6c-1,0-1.9-0.8-1.9-1.9c0-1,0.8-1.9,1.9-1.9c0.5,0,1,0.2,1.3,0.5
				c2,1.2,3.6,0.2,5.3-0.9v0c0.5-0.4,1.1-0.6,1.8-0.6c0.6,0,1.2,0.2,1.7,0.6v0c1.5,1.1,3,0.3,4.3-0.6l0,0l0,0l0.1-0.1l0,0
				c0.6-0.4,1.3-0.6,2.1-0.6c0.8,0,1.5,0.3,2.1,0.7l0,0c0.1,0.1,0.2,0.1,0.2,0.2c0.8,0.5,2.4,0.6,4.3,0.3c-0.4-0.3-0.8-0.6-1.2-0.9
				v0l0,0c-0.3-0.3-0.6-0.5-0.8-0.8c-2.4-2.1-4.8-3.1-7.4-3c-1.1,1.3-2.8,2.1-4.7,2.1c-3.5,0-6.2-2.8-6.2-6.2c0-1.7,0.7-3.2,1.8-4.4
				c-0.9,0.6-2,0.9-3.2,0.9c-2.3,0-4.2-1.2-5.2-3v0c-2.1-2-5.4-2-9.1-1.3c-0.3,0.4-0.8,0.6-1.4,0.6c-1,0-1.8-0.8-1.8-1.8
				c0-1,0.8-1.8,1.8-1.8c0.5,0,0.9,0.2,1.2,0.5c4.6,0.7,7.3-0.1,9.2-1.4v0.2c0.9-1.8,2.9-3,5.2-3c2,0,3.8,1,4.8,2.4
				c1.8,0.4,3.6-0.3,5.3-1.6C60.5,93.9,61,93.3,61.6,92.9z"/>
		</defs>
		<clipPath id="SVGID_2_">
			<use xlink:href="#SVGID_1_"  style="overflow:visible;"/>
		</clipPath>
		<path class="st0" d="M70.8,124.9c2.2,0,4.1,0.9,5.4,2.4c3.2,0.4,5.8-0.9,8.1-2.9c0.4-0.5,0.9-1,1.4-1.4l0,0v0
			c2.1-1.8,4.9-2.9,7.9-2.9c6.6,0,12,5.4,12,12c0,6.6-5.4,12-12,12c-3,0-5.7-1.1-7.9-2.9v0l0,0c-0.3-0.3-0.7-0.6-1-0.9
			c-2.7-2.5-5.6-3.6-8.5-3.4c-1.3,1.5-3.3,2.4-5.4,2.4c-4,0-7.2-3.2-7.2-7.2C63.5,128.1,66.8,124.9,70.8,124.9"/>
		<path class="st1" d="M116,107.2L116,107.2c1.5-1.1,3.3-1.7,5.2-1.7c2.3,0,4.4,0.9,6,2.3v0c11.1,3.2,19.3,5.2,28.6,2.4v0
			c0.9-0.8,2.2-1.3,3.5-1.3c3,0,5.4,2.4,5.4,5.4c0,3-2.4,5.4-5.4,5.4c-1.3,0-2.4-0.4-3.4-1.2c-11.3-4.1-18.6-1.3-28.8,2.2
			c-1.6,1.4-3.7,2.3-6,2.3c-2.1,0-3.9-0.7-5.4-1.9c-7.1-1.6-14.4-1.1-20.2,2.3v0c-1.7,1.2-3.8,1.8-6.1,1.8c-6.1,0-11-4.9-11-11
			c0-6.1,4.9-11,11-11c2.2,0,4.2,0.6,6,1.8v0C102.2,108.1,109.8,108.7,116,107.2"/>
		<path class="st0" d="M58.1,46c-2.2,0-4.2,1.1-5.5,2.7c-3.2,2.4-7,2.2-11,0.8c-0.4-0.2-0.9-0.2-1.3-0.2c-2.1,0-3.7,1.7-3.7,3.7
			s1.7,3.7,3.7,3.7c0.5,0,0.9-0.1,1.3-0.2v0c3.5-1.1,7.3-1,11.6,1.5v0c1.3,1.2,3,2,4.9,2c1.4,0,2.8-0.4,3.9-1.2v0
			c4.7-1.2,9.1,0.3,14,2.9v0c1.8,1.3,4,2.1,6.5,2.1c2.3,0,4.4-0.7,6.2-1.9v0c4.7-3.2,9.3-5.6,13.5-3.7v0c1.1,0.9,2.6,1.4,4.1,1.4
			c3.7,0,6.6-3,6.6-6.6s-3-6.6-6.6-6.6c-1.4,0-2.8,0.5-3.8,1.2c-5.1,2.2-9.1,0.1-12.9-2.8c-0.2-0.2-0.5-0.4-0.7-0.6l0,0
			c-1.8-1.3-4-2-6.3-2c-2.4,0-4.7,0.8-6.5,2.2c-5.3,3-10,3.7-14.2,2.7C60.7,46.4,59.5,46,58.1,46"/>
		<path class="st2" d="M97,7.3L97,7.3c1.1-0.8,2.5-1.3,4.1-1.3c1.8,0,3.4,0.7,4.6,1.8v0c8.7,2.5,15,4.1,22.3,1.8v0
			c0.7-0.6,1.7-1,2.7-1c2.3,0,4.2,1.9,4.2,4.2c0,2.3-1.9,4.2-4.2,4.2c-1,0-1.9-0.3-2.6-0.9c-8.8-3.2-14.4-1-22.4,1.7
			c-1.2,1.1-2.8,1.8-4.6,1.8c-1.6,0-3.1-0.5-4.2-1.5c-5.5-1.3-11.2-0.9-15.7,1.8v0c-1.4,0.9-3,1.4-4.7,1.4c-4.7,0-8.5-3.8-8.5-8.5
			c0-4.7,3.8-8.5,8.5-8.5c1.7,0,3.3,0.5,4.6,1.4v0C86.2,7.9,92.2,8.4,97,7.3"/>
		<path class="st1" d="M92.1,83.9C92.1,83.9,92.1,83.9,92.1,83.9L92.1,83.9z M119.4,55.8c10.7,0,19.4,8.7,19.4,19.4
			c0,10.7-8.7,19.4-19.4,19.4c-5.3,0-10.1-2.1-13.6-5.5c-8-6.4-13.6-5.3-13.7-5.3c-1.8,1.3-4,2.1-6.3,2.1c-2.4,0-4.6-0.8-6.3-2.1v0
			c-4.1-2.9-8.9-4.5-13.2-3.9c-1,0.8-2.3,1.3-3.7,1.3c-3.3,0-6-2.7-6-6s2.7-6,6-6c1.3,0,2.4,0.4,3.4,1.1v0c1.7,1,9.5-0.5,12.3-2.7
			c0.2-0.2,0.4-0.3,0.5-0.5l0,0v0c1.9-1.6,4.3-2.6,7-2.6c2.3,0,4.5,0.8,6.3,2v0c4.7,1.9,9.3-1.7,14-5.4v0
			C109.6,57.9,114.2,55.8,119.4,55.8z"/>
		<path class="st0" d="M125,33.5L125,33.5c1.5-1.1,3.3-1.7,5.2-1.7c2.3,0,4.4,0.9,6,2.3v0c11.1,3.2,19.3,5.2,28.6,2.4v0
			c0.9-0.8,2.2-1.3,3.5-1.3c3,0,5.4,2.4,5.4,5.4s-2.4,5.4-5.4,5.4c-1.3,0-2.4-0.4-3.4-1.2c-11.3-4.1-18.6-1.3-28.8,2.2
			c-1.6,1.4-3.7,2.3-6,2.3c-2.1,0-3.9-0.7-5.4-1.9c-7.1-1.6-14.4-1.1-20.2,2.3v0c-1.7,1.2-3.8,1.8-6.1,1.8c-6.1,0-11-4.9-11-11
			c0-6.1,4.9-11,11-11c2.2,0,4.2,0.6,6,1.8v0C111.2,34.3,118.8,34.9,125,33.5"/>
		<path class="st3" d="M39.8,108.2c1,0.4,2.5,0.1,4.5-1c0.5-0.5,1.1-0.8,1.9-0.8c1.4,0,2.6,1.2,2.6,2.6c0,1.4-1.2,2.6-2.6,2.6
			c-0.7,0-1.4-0.3-1.8-0.8c-1.6-1-3.1-1.4-4.7-0.9c-0.2,0.2-0.5,0.3-0.9,0.3c-0.7,0-1.2-0.6-1.2-1.2c0-0.7,0.6-1.2,1.2-1.2
			C39.2,107.8,39.6,107.9,39.8,108.2"/>
		<path class="st3" d="M57.7,101.8c1.9,0,3.5,0.8,4.7,2.1c2.8,0.3,5.1-0.7,7-2.6c0.4-0.4,0.8-0.8,1.2-1.2l0,0v0
			c1.8-1.6,4.2-2.5,6.8-2.5c5.8,0,10.4,4.7,10.4,10.4c0,5.8-4.7,10.4-10.4,10.4c-2.6,0-5-1-6.8-2.5v0l0,0c-0.3-0.3-0.6-0.5-0.8-0.8
			c-2.4-2.1-4.8-3.1-7.4-3c-1.1,1.3-2.8,2.1-4.7,2.1c-3.5,0-6.2-2.8-6.2-6.2S54.2,101.8,57.7,101.8"/>
		<path class="st2" d="M65.1,115.6c0.8,0,1.5,0.3,2.1,0.7l0,0c0.1,0.1,0.2,0.1,0.2,0.2c2.3,1.5,10.9-0.8,13.1-2.4
			c0.2-0.2,0.3-0.3,0.5-0.5c1.4-1.2,3.2-2,5.2-2c4.9,0,8.1,6.2,13.5,2.4v0c1.7-2.6,4.7-4.4,8.1-4.4c3.7,0,6.8,2,8.5,5v0
			c2.4,2,4.8,2.2,7.1,0.8v0c1.3-2.3,3.8-3.8,6.6-3.8c2.5,0,4.7,1.2,6.1,3c4.2,2.6,9,3.3,12.7,2.5c0.5-0.4,1.1-0.7,1.8-0.7
			c1.6,0,2.9,1.3,2.9,2.9c0,1.6-1.3,2.9-2.9,2.9c-0.6,0-1.2-0.2-1.7-0.5c-3.9-0.5-9.3,0.8-13.3,2.9c-1.4,1.5-3.4,2.4-5.6,2.4
			c-2.7,0-5-1.4-6.4-3.4v0c-2.4-0.8-4.5-1.4-7.4,0.7v0c-1.7,2.8-4.8,4.7-8.3,4.7c-3.6,0-6.8-2-8.5-5c-2.9-1.3-5.3-0.5-7.8,0.9
			c-1.4,1.3-3.2,2.1-5.3,2.1c-2,0-3.8-0.8-5.2-2l0,0c-0.2-0.2-0.5-0.5-0.7-0.7c-2.6-1.9-11-3.4-12.8-2.2c-0.1,0.1-0.1,0.1-0.2,0.2
			l0,0c-0.6,0.5-1.4,0.8-2.3,0.8c-1,0-1.8-0.4-2.5-0.9c-1.3-0.7-2.7-1-4.1-0.3c-0.5,0.3-1,0.5-1.6,0.5c-0.7,0-1.4-0.3-1.9-0.7l0,0
			l-0.1,0l0,0l0,0c-1.9-1.7-3-1.4-5-0.8v0c-0.3,0.4-0.8,0.6-1.4,0.6c-1,0-1.9-0.8-1.9-1.9c0-1,0.8-1.9,1.9-1.9c0.5,0,1,0.2,1.3,0.5
			c2,1.2,3.6,0.2,5.3-0.9v0c0.5-0.4,1.1-0.6,1.8-0.6c0.6,0,1.2,0.2,1.7,0.6v0c1.5,1.1,3,0.3,4.3-0.6l0,0l0,0l0.1-0.1l0,0
			C63.6,115.9,64.4,115.6,65.1,115.6"/>
		<path class="st4" d="M35.8,100.3c3.7-0.7,6.9-0.6,9.1,1.3v0c0.9,1.8,2.9,3,5.2,3c1.9,0,3.5-0.8,4.6-2.1v0c2.3-0.4,3.9,0,5.4,1
			c0.5,0.8,1.2,1.5,2.1,2.1l0,0v0c1.4,1,3.2,1.6,5.1,1.6c4.7,0,8.5-3.6,8.5-8.1c0-4.5-3.8-8.1-8.5-8.1c-2.9,0-5.4,1.4-7,3.5
			c-1.7,1.2-3.5,2-5.3,1.6c-1-1.5-2.8-2.4-4.8-2.4c-2.3,0-4.2,1.2-5.2,3v-0.2c-1.9,1.3-4.6,2-9.2,1.4c-0.3-0.3-0.8-0.5-1.2-0.5
			c-1,0-1.8,0.8-1.8,1.8c0,1,0.8,1.8,1.8,1.8C34.9,100.9,35.4,100.6,35.8,100.3"/>
		<path class="st1" d="M57.2,18c0.6,0,1.1,0.2,1.5,0.6c3.5,1.2,7.6-0.3,11.8-2.6v0.3c1.2-1.7,3.2-2.8,5.5-2.8c1.9,0,3.7,0.8,4.9,2.1
			c2.9,1.2,5.4,0.5,7.8-1.1c1.5-1.6,3.7-2.7,6.2-2.7c2.3,0,4.4,0.9,6,2.4v0c2.7,1.7,5.5,1.3,8.2-0.4v0c1.7-1.7,4.1-2.8,6.7-2.8
			c5.2,0,9.4,4.2,9.4,9.4c0,5.2-4.2,9.4-9.4,9.4c-2.6,0-5-1.1-6.7-2.8V27c-2.6-2.1-5.3-2.3-8.2-0.7c-1.5,1.5-3.6,2.4-6,2.4
			c-2.2,0-4.2-0.8-5.7-2.2c-2.8-2-5.4-2.6-8-1.9c-1.2,1.5-3.1,2.4-5.2,2.4c-2.2,0-4.2-1.1-5.5-2.8v0c-3.7-2-7.4-3.6-11.8-2.2v-0.1
			c-0.4,0.4-0.9,0.6-1.5,0.6c-1.3,0-2.3-1-2.3-2.3C54.8,19,55.9,18,57.2,18"/>
		<path class="st0" d="M106.9,101.2c-1.7,0-3.3,0.8-4.3,2.1c-2.4,1.9-5.4,1.7-8.5,0.6c-0.3-0.1-0.7-0.2-1-0.2
			c-1.6,0-2.9,1.3-2.9,2.9c0,1.6,1.3,2.9,2.9,2.9c0.4,0,0.7-0.1,1-0.2v0c2.7-0.9,5.6-0.7,9,1.2v0c1,1,2.3,1.5,3.8,1.5
			c1.1,0,2.1-0.3,3-0.9v0c3.7-0.9,7,0.2,10.8,2.2v0c1.4,1,3.1,1.6,5,1.6c1.8,0,3.4-0.5,4.7-1.5v0c3.6-2.5,7.2-4.3,10.4-2.9v0
			c0.9,0.7,2,1.1,3.2,1.1c2.8,0,5.1-2.3,5.1-5.1c0-2.8-2.3-5.1-5.1-5.1c-1.1,0-2.1,0.4-3,0.9c-3.9,1.7-7,0.1-9.9-2.2
			c-0.2-0.2-0.4-0.3-0.6-0.4l0,0c-1.4-1-3.1-1.6-4.9-1.6c-1.9,0-3.6,0.6-5,1.7c-4.1,2.3-7.7,2.8-11,2.1
			C108.9,101.5,107.9,101.2,106.9,101.2"/>
		<path class="st3" d="M94.7,34.4c2.2,0,4.1,1,5.4,2.6c3.1,2.3,6.8,2.1,10.7,0.8c0.4-0.2,0.8-0.2,1.3-0.2c2,0,3.6,1.6,3.6,3.6
			c0,2-1.6,3.6-3.6,3.6c-0.4,0-0.9-0.1-1.3-0.2v0c-3.4-1.1-7.1-0.9-11.3,1.5v0c-1.2,1.2-2.9,2-4.8,2c-1.4,0-2.7-0.4-3.8-1.1v0
			c-4.6-1.1-8.8,0.2-13.7,2.8v0c-1.8,1.3-3.9,2.1-6.3,2.1c-2.2,0-4.3-0.7-6-1.9v0c-4.6-3.2-9.1-5.5-13.2-3.6v0
			c-1.1,0.9-2.5,1.4-4,1.4c-3.6,0-6.5-2.9-6.5-6.5c0-3.6,2.9-6.5,6.5-6.5c1.4,0,2.7,0.4,3.7,1.2c4.9,2.2,8.9,0.1,12.6-2.8
			c0.2-0.2,0.5-0.4,0.7-0.6l0,0c1.7-1.3,3.9-2,6.2-2c2.4,0,4.6,0.8,6.4,2.1c5.2,2.9,9.8,3.6,13.9,2.6C92.2,34.8,93.4,34.4,94.7,34.4
			"/>
		<path class="st3" d="M72.4,82.2c0.8,0,1.6,0.3,2.2,0.8c5,1.7,10.9-0.5,17-3.7v0.4c1.8-2.4,4.6-4,7.8-4c2.8,0,5.3,1.2,7,3
			c4.1,1.8,7.8,0.7,11.2-1.6c2.2-2.4,5.4-3.8,8.9-3.8c3.3,0,6.4,1.3,8.6,3.5v-0.1c3.9,2.4,7.8,1.9,11.7-0.6v0c2.4-2.5,5.8-4,9.6-4
			c7.4,0,13.4,6,13.4,13.4c0,7.4-6,13.4-13.4,13.4c-3.8,0-7.2-1.6-9.6-4v0.3c-3.7-2.9-7.6-3.3-11.7-0.9c-2.2,2.2-5.2,3.5-8.6,3.5
			c-3.2,0-6-1.2-8.2-3.2c-4-2.9-7.8-3.8-11.5-2.7c-1.8,2.1-4.5,3.5-7.5,3.5c-3.2,0-6.1-1.6-7.8-4v0c-5.3-2.9-10.6-5.2-17-3.1v-0.1
			C74,88.6,73.3,89,72.4,89c-1.9,0-3.4-1.5-3.4-3.4C69.1,83.7,70.6,82.2,72.4,82.2"/>
		<path class="st1" d="M107.4,120.5L107.4,120.5c-1.1-0.8-2.4-1.3-3.9-1.3c-1.7,0-3.3,0.7-4.5,1.7v0c-8.4,2.4-14.5,3.9-21.5,1.8v0
			c-0.7-0.6-1.6-1-2.6-1c-2.2,0-4,1.8-4,4c0,2.2,1.8,4,4,4c1,0,1.8-0.3,2.5-0.9c8.5-3,13.9-1,21.6,1.7c1.2,1.1,2.7,1.7,4.5,1.7
			c1.5,0,3-0.5,4.1-1.4c5.3-1.2,10.8-0.9,15.2,1.7v0c1.3,0.9,2.9,1.4,4.5,1.4c4.5,0,8.2-3.7,8.2-8.2c0-4.5-3.7-8.2-8.2-8.2
			c-1.6,0-3.2,0.5-4.5,1.3v0C117.8,121.2,112,121.7,107.4,120.5"/>
		<path class="st4" d="M45.6,28.1c1.2,0.5,2.8,0.2,5.1-1.1c0.5-0.6,1.3-0.9,2.1-0.9c1.6,0,2.9,1.3,2.9,2.9c0,1.6-1.3,2.9-2.9,2.9
			c-0.8,0-1.5-0.3-2.1-0.9c-1.8-1.1-3.5-1.6-5.2-1c-0.3,0.2-0.6,0.4-1,0.4c-0.8,0-1.4-0.6-1.4-1.4s0.6-1.4,1.4-1.4
			C45,27.6,45.3,27.8,45.6,28.1"/>
		<path class="st5" d="M70.1,24.1c3.3,1.6,7.5-0.2,11.5-3.4v0c2-1.9,4.6-3.1,7.6-3.1c2.9,0,5.5,1.1,7.5,3c4.3,0.9,8.9-0.5,13.6-2.4
			c2.5-2.4,6-3.9,9.8-3.9c7.8,0,14.2,6.4,14.2,14.2c0,7.8-6.4,14.2-14.2,14.2c-3.4,0-6.6-1.2-9-3.2c-5.9-3.9-10-4.6-14.5-2.8v0
			c-1.9,1.7-4.5,2.8-7.3,2.8c-2.9,0-5.6-1.2-7.6-3.1v0c-4.2-3.2-8.1-4.1-11.9-3v0c-1.2,1-2.7,1.7-4.4,1.7c-3.6,0-6.5-2.9-6.5-6.5
			c0-3.6,2.9-6.5,6.5-6.5C67.2,22,68.9,22.8,70.1,24.1L70.1,24.1z"/>
		<path class="st4" d="M44.1,61.1c0.7,0,1.4,0.3,1.9,0.7c4.5,1.5,9.7-0.4,15.1-3.3v0.4c1.6-2.1,4.1-3.5,7-3.5c2.5,0,4.7,1,6.3,2.7
			c3.7,1.6,6.9,0.7,10-1.4c2-2.1,4.8-3.4,7.9-3.4c3,0,5.7,1.2,7.6,3.1v-0.1c3.5,2.1,7,1.7,10.5-0.5v0c2.2-2.2,5.2-3.6,8.6-3.6
			c6.6,0,12,5.4,12,12s-5.4,12-12,12c-3.4,0-6.4-1.4-8.6-3.6v0.2c-3.3-2.6-6.8-2.9-10.5-0.8c-2,1.9-4.7,3.1-7.6,3.1
			c-2.8,0-5.4-1.1-7.3-2.8c-3.6-2.6-7-3.4-10.3-2.4c-1.6,1.9-4,3.1-6.7,3.1c-2.9,0-5.4-1.4-7-3.5v0c-4.7-2.6-9.5-4.6-15.1-2.8v-0.1
			c-0.5,0.4-1.2,0.7-1.9,0.7c-1.7,0-3-1.3-3-3C41.1,62.4,42.5,61.1,44.1,61.1"/>
		<path class="st5" d="M133.6,84c7.6,0,13.7,6.2,13.7,13.7c0,7.6-6.2,13.7-13.7,13.7c-3.9,0-7.4-1.6-9.9-4.2v0c-3-2.3-6-4.7-9.4-3.4
			v0c-1.7,1.9-4.2,3.1-6.9,3.1c-3,0-5.7-1.4-7.4-3.7v0c-2.9-2.7-5.5-3.1-8-1.9c-1.1,1.3-2.7,2.2-4.5,2.2c-3.2,0-5.8-2.6-5.8-5.8
			c0-3.2,2.6-5.8,5.8-5.8c2,0,3.8,1,4.9,2.6c2.5,0.5,5-0.5,7.4-2.1v0c1.7-2.4,4.4-4,7.6-4c2.6,0,4.9,1.1,6.6,2.8v0
			c4.2,0.3,7.1-0.5,10-3.3v0C126.5,85.5,129.9,84,133.6,84"/>
	</g>
	<path class="st6" d="M37.8,12.3c0.2,0,0.4,0.1,0.6,0.2c1.3,0.5,2.9-0.1,4.5-1v0.1c0.5-0.6,1.2-1.1,2.1-1.1c0.7,0,1.4,0.3,1.9,0.8
		c1.1,0.5,2.1,0.2,3-0.4c0.6-0.6,1.4-1,2.4-1c0.9,0,1.7,0.4,2.3,0.9v0c1,0.6,2.1,0.5,3.1-0.2v0c0.7-0.7,1.6-1.1,2.6-1.1
		c2,0,3.6,1.6,3.6,3.6c0,2-1.6,3.6-3.6,3.6c-1,0-1.9-0.4-2.6-1.1v0.1c-1-0.8-2-0.9-3.1-0.3c-0.6,0.6-1.4,0.9-2.3,0.9
		c-0.8,0-1.6-0.3-2.2-0.8c-1.1-0.8-2.1-1-3.1-0.7c-0.5,0.6-1.2,0.9-2,0.9c-0.9,0-1.6-0.4-2.1-1.1v0c-1.4-0.8-2.8-1.4-4.5-0.8v0
		c-0.2,0.1-0.4,0.2-0.6,0.2c-0.5,0-0.9-0.4-0.9-0.9S37.3,12.3,37.8,12.3"/>
	<path class="st7" d="M30.8,34.9c3.3,0,6,2.7,6,6c0,3.3-2.7,6-6,6c-1.7,0-3.2-0.7-4.3-1.8v0c-1.3-1-2.6-2.1-4.1-1.5v0
		c-0.7,0.8-1.8,1.4-3,1.4c-1.3,0-2.5-0.6-3.2-1.6v0c-1.3-1.2-2.4-1.3-3.5-0.8c-0.5,0.6-1.2,0.9-2,0.9c-1.4,0-2.5-1.1-2.5-2.5
		c0-1.4,1.1-2.5,2.5-2.5c0.9,0,1.7,0.5,2.1,1.1c1.1,0.2,2.2-0.2,3.2-0.9v0c0.7-1,1.9-1.7,3.3-1.7c1.1,0,2.1,0.5,2.9,1.2v0
		c1.8,0.1,3.1-0.2,4.4-1.4v0C27.7,35.6,29.2,34.9,30.8,34.9"/>
	<path class="st8" d="M38.5,130.3c2-0.4,3.7-0.3,4.8,0.7v0c0.5,1,1.5,1.6,2.7,1.6c1,0,1.9-0.4,2.4-1.1v0c1.2-0.2,2.1,0,2.8,0.5
		c0.3,0.4,0.7,0.8,1.1,1.1l0,0v0c0.7,0.5,1.7,0.8,2.7,0.8c2.5,0,4.5-1.9,4.5-4.3c0-2.4-2-4.3-4.5-4.3c-1.5,0-2.9,0.7-3.7,1.8
		c-0.9,0.7-1.8,1-2.8,0.8c-0.5-0.8-1.5-1.3-2.5-1.3c-1.2,0-2.2,0.7-2.7,1.6v-0.1c-1,0.7-2.4,1.1-4.9,0.7c-0.2-0.2-0.4-0.2-0.7-0.2
		c-0.5,0-1,0.4-1,0.9c0,0.5,0.4,0.9,1,0.9C38.1,130.6,38.3,130.5,38.5,130.3"/>
	<path class="st9" d="M30.2,63.3c0.9,0.4,2.1,0.1,3.9-0.8c0.4-0.4,1-0.7,1.6-0.7c1.2,0,2.2,1,2.2,2.2c0,1.2-1,2.2-2.2,2.2
		c-0.6,0-1.2-0.3-1.6-0.7c-1.4-0.9-2.7-1.2-4-0.8c-0.2,0.2-0.4,0.3-0.7,0.3c-0.6,0-1.1-0.5-1.1-1.1c0-0.6,0.5-1.1,1.1-1.1
		C29.7,62.9,30,63.1,30.2,63.3"/>
	<path class="st10" d="M22,154.8c0-0.1,0-0.2-0.1-0.5c0-0.2-0.1-0.4-0.1-0.6c0,0.2-0.1,0.4-0.1,0.6s-0.1,0.4-0.2,0.6l-2.2,4.4
		l-2.2-4.5c-0.1-0.2-0.2-0.4-0.2-0.5c-0.1-0.2-0.1-0.3-0.2-0.5c0,0.2,0,0.4,0,0.5s-0.1,0.4-0.1,0.6l-0.9,4.1h-1.2l2-8.6l2.4,5.2
		c0,0.1,0.1,0.2,0.2,0.4c0.1,0.2,0.2,0.4,0.3,0.7c0.1-0.2,0.2-0.5,0.4-0.9c0-0.1,0.1-0.2,0.1-0.2l2.4-5.2l2,8.6h-1.2L22,154.8z"/>
	<path class="st10" d="M33.7,154.8c0,0.6-0.1,1.1-0.3,1.7c-0.2,0.5-0.5,1-1,1.4c-0.4,0.4-0.9,0.7-1.4,0.9c-0.5,0.2-1.1,0.3-1.7,0.3
		c-0.6,0-1.2-0.1-1.7-0.3s-1-0.5-1.4-0.9c-0.4-0.4-0.7-0.9-1-1.4c-0.2-0.5-0.3-1.1-0.3-1.7c0-0.6,0.1-1.2,0.3-1.7
		c0.2-0.5,0.5-1,1-1.4c0.4-0.4,0.9-0.7,1.4-0.9c0.5-0.2,1.1-0.3,1.7-0.3c0.6,0,1.2,0.1,1.7,0.3s1,0.5,1.4,0.9c0.4,0.4,0.7,0.9,1,1.4
		C33.6,153.7,33.7,154.2,33.7,154.8z M32.3,154.8c0-0.4-0.1-0.8-0.2-1.2c-0.2-0.4-0.4-0.7-0.7-1c-0.3-0.3-0.6-0.5-1-0.7
		c-0.4-0.2-0.8-0.2-1.2-0.2s-0.8,0.1-1.2,0.2s-0.7,0.4-1,0.7c-0.3,0.3-0.5,0.6-0.7,1c-0.2,0.4-0.2,0.8-0.2,1.2
		c0,0.4,0.1,0.8,0.2,1.2c0.2,0.4,0.4,0.7,0.7,1s0.6,0.5,1,0.7c0.4,0.2,0.8,0.2,1.2,0.2c0.4,0,0.8-0.1,1.2-0.2c0.4-0.2,0.7-0.4,1-0.7
		c0.3-0.3,0.5-0.6,0.7-1C32.3,155.6,32.3,155.2,32.3,154.8z"/>
	<path class="st10" d="M34.8,157.3l1.1-0.5c0.1,0.4,0.3,0.7,0.6,0.8s0.6,0.3,1,0.3c0.4,0,0.7-0.1,1-0.3c0.2-0.2,0.4-0.5,0.4-0.9
		c0-0.5-0.4-0.9-1.2-1.3c-0.1-0.1-0.2-0.1-0.3-0.1c-0.9-0.4-1.5-0.8-1.8-1.2c-0.3-0.4-0.5-0.8-0.5-1.3c0-0.7,0.2-1.2,0.7-1.6
		s1.1-0.6,1.8-0.6c0.6,0,1.1,0.1,1.5,0.4c0.4,0.2,0.7,0.6,0.9,1l-1.1,0.5c-0.2-0.3-0.3-0.5-0.5-0.6c-0.2-0.1-0.4-0.2-0.7-0.2
		c-0.4,0-0.6,0.1-0.9,0.3s-0.3,0.4-0.3,0.8c0,0.5,0.5,1,1.4,1.4c0.1,0,0.1,0.1,0.2,0.1c0.8,0.4,1.4,0.7,1.7,1.1
		c0.3,0.4,0.5,0.8,0.5,1.3c0,0.8-0.2,1.4-0.7,1.9c-0.5,0.5-1.2,0.7-2,0.7c-0.7,0-1.3-0.2-1.7-0.5C35.3,158.3,35,157.9,34.8,157.3z"
		/>
	<path class="st10" d="M44.3,151.8v7.1H43v-7.1h-2.2v-1.1h5.7v1.1H44.3z"/>
	<path class="st10" d="M48.8,155.2v3.7h-1.3v-8.3h1.9c0.6,0,1,0,1.3,0.1c0.3,0.1,0.6,0.2,0.8,0.4c0.3,0.2,0.5,0.5,0.6,0.8
		c0.1,0.3,0.2,0.7,0.2,1c0,0.7-0.2,1.2-0.5,1.6s-0.8,0.6-1.4,0.7l2.9,3.8h-1.5l-2.8-3.7H48.8z M48.9,154.2h0.2
		c0.7,0,1.2-0.1,1.4-0.2s0.4-0.5,0.4-0.9c0-0.5-0.1-0.8-0.4-1c-0.3-0.2-0.7-0.3-1.4-0.3h-0.2V154.2z"/>
	<path class="st10" d="M59.5,158.9l-0.9-2.1h-3.3l-1,2.1h-1.4l4-8.6l4,8.6H59.5z M55.8,155.7h2.3l-0.8-1.9c0-0.1-0.1-0.3-0.2-0.4
		s-0.1-0.3-0.2-0.5c0,0.2-0.1,0.3-0.1,0.5c-0.1,0.2-0.1,0.3-0.2,0.4L55.8,155.7z"/>
	<path class="st10" d="M65.2,158.9v-8.3H67c1.2,0,2,0.1,2.5,0.2c0.5,0.1,0.9,0.3,1.3,0.6c0.5,0.4,0.8,0.8,1.1,1.4s0.4,1.2,0.4,2
		c0,0.7-0.1,1.4-0.4,2c-0.2,0.6-0.6,1-1.1,1.4c-0.4,0.3-0.8,0.5-1.2,0.6c-0.5,0.1-1.2,0.2-2.2,0.2H67H65.2z M66.5,157.7h1.1
		c0.6,0,1.1,0,1.4-0.1c0.3-0.1,0.6-0.2,0.8-0.4c0.3-0.3,0.5-0.6,0.7-1c0.2-0.4,0.2-0.9,0.2-1.4c0-0.5-0.1-1-0.2-1.4
		c-0.2-0.4-0.4-0.7-0.7-1c-0.2-0.2-0.5-0.3-0.8-0.4s-0.8-0.1-1.5-0.1H67h-0.5V157.7z"/>
	<path class="st10" d="M73.8,158.9v-8.3h4.6v1.1h-3.3v2.1h3.3v1.2h-3.3v2.7h3.3v1.2H73.8z"/>
	<path class="st10" d="M86.1,151.8v7.1h-1.3v-7.1h-2.2v-1.1h5.7v1.1H86.1z"/>
	<path class="st10" d="M89.3,158.9v-8.3h4.6v1.1h-3.3v2.1h3.3v1.2h-3.3v2.7h3.3v1.2H89.3z"/>
	<path class="st10" d="M101,158.9l-0.9-2.1h-3.3l-1,2.1h-1.4l4-8.6l4,8.6H101z M97.2,155.7h2.3l-0.8-1.9c0-0.1-0.1-0.3-0.2-0.4
		s-0.1-0.3-0.2-0.5c0,0.2-0.1,0.3-0.1,0.5c-0.1,0.2-0.1,0.3-0.2,0.4L97.2,155.7z"/>
	<path class="st10" d="M105.2,151.8v7.1h-1.3v-7.1h-2.2v-1.1h5.7v1.1H105.2z"/>
	<path class="st10" d="M109.7,155.2v3.7h-1.3v-8.3h1.9c0.6,0,1,0,1.3,0.1c0.3,0.1,0.6,0.2,0.8,0.4c0.3,0.2,0.5,0.5,0.6,0.8
		c0.1,0.3,0.2,0.7,0.2,1c0,0.7-0.2,1.2-0.5,1.6s-0.8,0.6-1.4,0.7l2.9,3.8h-1.5l-2.8-3.7H109.7z M109.8,154.2h0.2
		c0.7,0,1.2-0.1,1.4-0.2s0.4-0.5,0.4-0.9c0-0.5-0.1-0.8-0.4-1c-0.3-0.2-0.7-0.3-1.4-0.3h-0.2V154.2z"/>
	<path class="st10" d="M123.4,154.8c0,0.6-0.1,1.1-0.3,1.7c-0.2,0.5-0.5,1-1,1.4c-0.4,0.4-0.9,0.7-1.4,0.9c-0.5,0.2-1.1,0.3-1.7,0.3
		c-0.6,0-1.2-0.1-1.7-0.3s-1-0.5-1.4-0.9c-0.4-0.4-0.7-0.9-1-1.4c-0.2-0.5-0.3-1.1-0.3-1.7c0-0.6,0.1-1.2,0.3-1.7
		c0.2-0.5,0.5-1,1-1.4c0.4-0.4,0.9-0.7,1.4-0.9c0.5-0.2,1.1-0.3,1.7-0.3c0.6,0,1.2,0.1,1.7,0.3s1,0.5,1.4,0.9c0.4,0.4,0.7,0.9,1,1.4
		C123.3,153.7,123.4,154.2,123.4,154.8z M122,154.8c0-0.4-0.1-0.8-0.2-1.2c-0.2-0.4-0.4-0.7-0.7-1c-0.3-0.3-0.6-0.5-1-0.7
		c-0.4-0.2-0.8-0.2-1.2-0.2s-0.8,0.1-1.2,0.2s-0.7,0.4-1,0.7c-0.3,0.3-0.5,0.6-0.7,1c-0.2,0.4-0.2,0.8-0.2,1.2
		c0,0.4,0.1,0.8,0.2,1.2c0.2,0.4,0.4,0.7,0.7,1s0.6,0.5,1,0.7c0.4,0.2,0.8,0.2,1.2,0.2c0.4,0,0.8-0.1,1.2-0.2c0.4-0.2,0.7-0.4,1-0.7
		c0.3-0.3,0.5-0.6,0.7-1C121.9,155.6,122,155.2,122,154.8z"/>
	<path class="st10" d="M130.5,158.9h-6.3l3.7-4.4c0.2-0.3,0.4-0.5,0.5-0.7s0.2-0.4,0.2-0.6c0-0.3-0.1-0.5-0.3-0.7
		c-0.2-0.2-0.4-0.3-0.7-0.3c-0.4,0-0.6,0.1-0.8,0.3c-0.2,0.2-0.3,0.6-0.3,1v0.1h-2v-0.1c0-0.9,0.3-1.7,0.8-2.2
		c0.5-0.5,1.3-0.8,2.2-0.8c0.9,0,1.7,0.2,2.2,0.7c0.6,0.5,0.8,1.1,0.8,1.9c0,0.4-0.1,0.8-0.3,1.1s-0.5,0.8-0.9,1.2l-1.5,1.6h2.5
		V158.9z"/>
	<path class="st10" d="M138,154.9c0,1.3-0.3,2.3-0.8,3.1c-0.6,0.8-1.3,1.1-2.3,1.1c-1,0-1.7-0.4-2.3-1.1s-0.8-1.8-0.8-3.2
		c0-1.3,0.3-2.4,0.8-3.1s1.3-1.1,2.3-1.1c1,0,1.8,0.4,2.3,1.1C137.7,152.5,138,153.5,138,154.9z M133.8,154.9c0,0.9,0.1,1.6,0.3,2
		c0.2,0.4,0.4,0.6,0.8,0.6c0.4,0,0.6-0.2,0.8-0.6c0.2-0.4,0.3-1.1,0.3-2c0-0.9-0.1-1.6-0.3-2c-0.2-0.4-0.4-0.6-0.8-0.6
		c-0.4,0-0.6,0.2-0.8,0.6C133.9,153.3,133.8,153.9,133.8,154.9z"/>
	<path class="st10" d="M145,158.9h-6.3l3.7-4.4c0.2-0.3,0.4-0.5,0.5-0.7s0.2-0.4,0.2-0.6c0-0.3-0.1-0.5-0.3-0.7
		c-0.2-0.2-0.4-0.3-0.7-0.3c-0.4,0-0.6,0.1-0.8,0.3c-0.2,0.2-0.3,0.6-0.3,1v0.1h-2v-0.1c0-0.9,0.3-1.7,0.8-2.2
		c0.5-0.5,1.3-0.8,2.2-0.8c0.9,0,1.7,0.2,2.2,0.7c0.6,0.5,0.8,1.1,0.8,1.9c0,0.4-0.1,0.8-0.3,1.1s-0.5,0.8-0.9,1.2l-1.5,1.6h2.5
		V158.9z"/>
	<path class="st10" d="M148.5,158.9v-6.3h-1.8l1-1.9h2.9v8.2H148.5z"/>
	<path class="st11" d="M15.8,198.8l4.4-5c0.6,1.4,1.4,2.4,2.7,3.2s2.6,1.2,4.1,1.2c1.8,0,3.3-0.4,4.4-1.3c1.1-0.9,1.6-2,1.6-3.5
		c0-1.7-1.8-3.5-5.4-5.2c-1.2-0.6-2.1-1-2.7-1.4c-3.2-1.7-5.4-3.3-6.7-4.9s-1.9-3.5-1.9-5.7c0-3,1.2-5.5,3.6-7.5
		c2.4-2,5.5-2.9,9.4-2.9c2.2,0,4.2,0.4,5.8,1.2c1.6,0.8,3,2,4.3,3.7l-4.7,4.4c-0.6-1.1-1.3-1.9-2.2-2.4c-0.9-0.5-2-0.8-3.3-0.8
		c-1.6,0-2.8,0.4-3.8,1.2s-1.4,1.8-1.4,3c0,1.9,1.9,3.7,5.7,5.3c0.8,0.3,1.3,0.6,1.7,0.8c3.1,1.4,5.4,3,6.9,4.8
		c1.5,1.8,2.2,3.8,2.2,6.1c0,3.5-1.2,6.2-3.5,8.3c-2.4,2.1-5.5,3.1-9.5,3.1c-2.8,0-5.2-0.5-7.2-1.5S16.8,200.6,15.8,198.8z"/>
	<path class="st11" d="M84.7,185.2c0,2.6-0.5,5.1-1.5,7.5c-1,2.3-2.4,4.4-4.2,6.2c-1.9,1.8-4.1,3.2-6.5,4.2c-2.4,1-4.9,1.5-7.4,1.5
		c-2.2,0-4.4-0.4-6.6-1.1c-2.2-0.8-4.1-1.9-5.9-3.3c-2.3-1.8-4.1-4-5.3-6.6c-1.2-2.6-1.8-5.3-1.8-8.3c0-2.6,0.5-5.1,1.5-7.5
		c1-2.3,2.4-4.4,4.3-6.2c1.8-1.8,4-3.2,6.4-4.2c2.4-1,4.9-1.5,7.5-1.5c2.6,0,5.1,0.5,7.5,1.5c2.4,1,4.6,2.4,6.4,4.2
		c1.9,1.8,3.3,3.9,4.2,6.2C84.2,180.1,84.7,182.5,84.7,185.2z M65.1,197.5c3.3,0,6.1-1.2,8.3-3.5c2.2-2.3,3.3-5.3,3.3-8.8
		c0-3.5-1.1-6.4-3.3-8.8c-2.2-2.4-4.9-3.6-8.2-3.6c-3.3,0-6.1,1.2-8.3,3.6s-3.3,5.3-3.3,8.8c0,3.6,1.1,6.5,3.2,8.8
		S61.7,197.5,65.1,197.5z"/>
	<path class="st11" d="M91.3,203.5v-36.8h7.9v30.1h12.6v6.7H91.3z"/>
	<path class="st11" d="M152.5,185.2c0,2.6-0.5,5.1-1.5,7.5c-1,2.3-2.4,4.4-4.2,6.2c-1.9,1.8-4.1,3.2-6.5,4.2c-2.4,1-4.9,1.5-7.4,1.5
		c-2.2,0-4.4-0.4-6.6-1.1c-2.2-0.8-4.1-1.9-5.9-3.3c-2.3-1.8-4.1-4-5.3-6.6c-1.2-2.6-1.8-5.3-1.8-8.3c0-2.6,0.5-5.1,1.5-7.5
		c1-2.3,2.4-4.4,4.3-6.2c1.8-1.8,4-3.2,6.4-4.2c2.4-1,4.9-1.5,7.5-1.5c2.6,0,5.1,0.5,7.5,1.5c2.4,1,4.6,2.4,6.4,4.2
		c1.9,1.8,3.3,3.9,4.2,6.2C152,180.1,152.5,182.5,152.5,185.2z M132.9,197.5c3.3,0,6.1-1.2,8.3-3.5c2.2-2.3,3.3-5.3,3.3-8.8
		c0-3.5-1.1-6.4-3.3-8.8c-2.2-2.4-4.9-3.6-8.2-3.6c-3.3,0-6.1,1.2-8.3,3.6s-3.3,5.3-3.3,8.8c0,3.6,1.1,6.5,3.2,8.8
		S129.5,197.5,132.9,197.5z"/>
	<path class="st11" d="M15.9,226.1v-17.7h3.3c1.7,0,3,0.1,3.8,0.2c0.8,0.1,1.5,0.4,2.1,0.7c0.7,0.4,1.2,0.9,1.6,1.6
		c0.4,0.6,0.6,1.4,0.6,2.2c0,1-0.3,1.9-0.9,2.5c-0.6,0.6-1.6,1.1-2.8,1.3c1.4,0.2,2.5,0.7,3.2,1.4s1.1,1.7,1.1,2.9
		c0,0.9-0.2,1.7-0.6,2.4s-1,1.3-1.7,1.7c-0.7,0.4-1.4,0.6-2.3,0.8c-0.9,0.2-2.3,0.2-4.4,0.2h-0.4H15.9z M19.6,215.5h0.8
		c1.1,0,2-0.2,2.4-0.5c0.5-0.3,0.7-0.9,0.7-1.6c0-0.7-0.2-1.3-0.7-1.6c-0.5-0.3-1.3-0.5-2.4-0.5h-0.9V215.5z M19.6,223.2h1.5
		c1,0,1.7-0.2,2.2-0.6c0.5-0.4,0.7-1,0.7-1.8c0-0.8-0.2-1.3-0.7-1.7c-0.5-0.4-1.2-0.6-2.1-0.6h-1.5V223.2z"/>
	<path class="st11" d="M43.5,226.1h-4.4l-4.7-8.3v8.3h-3.8v-17.7h5.4c2.2,0,3.8,0.4,4.8,1.3c1.1,0.8,1.6,2.1,1.6,3.8
		c0,1.2-0.4,2.3-1.1,3.1c-0.7,0.9-1.7,1.4-2.8,1.5L43.5,226.1z M34.5,216H35c1.5,0,2.5-0.2,3-0.5c0.5-0.3,0.7-0.9,0.7-1.8
		c0-0.9-0.3-1.5-0.8-1.9s-1.5-0.6-3-0.6h-0.6V216z"/>
	<path class="st11" d="M43.6,226.1l6.7-17.7h4.3l6.8,17.7h-4.3l-1.4-3.8h-6.9l-1.2,3.8H43.6z M54.9,219.4l-2-5.7
		c-0.1-0.2-0.1-0.5-0.2-0.9c-0.1-0.4-0.2-0.9-0.3-1.5c-0.1,0.6-0.2,1.1-0.3,1.5c-0.1,0.5-0.2,0.8-0.2,0.9l-1.9,5.7H54.9z"/>
	<path class="st11" d="M62.2,223.9l2.1-2.4c0.3,0.7,0.7,1.2,1.3,1.5c0.6,0.4,1.3,0.6,2,0.6c0.9,0,1.6-0.2,2.1-0.6
		c0.5-0.4,0.8-1,0.8-1.7c0-0.8-0.9-1.7-2.6-2.5c-0.6-0.3-1-0.5-1.3-0.7c-1.6-0.8-2.6-1.6-3.2-2.4c-0.6-0.8-0.9-1.7-0.9-2.8
		c0-1.5,0.6-2.7,1.7-3.6c1.2-0.9,2.7-1.4,4.5-1.4c1.1,0,2,0.2,2.8,0.6c0.8,0.4,1.5,1,2.1,1.8l-2.2,2.1c-0.3-0.5-0.6-0.9-1.1-1.2
		c-0.4-0.3-1-0.4-1.6-0.4c-0.8,0-1.4,0.2-1.8,0.6c-0.5,0.4-0.7,0.9-0.7,1.5c0,0.9,0.9,1.8,2.7,2.6c0.4,0.2,0.6,0.3,0.8,0.4
		c1.5,0.7,2.6,1.5,3.3,2.3s1.1,1.8,1.1,3c0,1.7-0.6,3-1.7,4c-1.1,1-2.7,1.5-4.6,1.5c-1.4,0-2.5-0.2-3.5-0.7
		C63.4,225.4,62.7,224.8,62.2,223.9z"/>
	<path class="st11" d="M77.4,226.1v-17.7h3.8v17.7H77.4z"/>
	<path class="st11" d="M85.2,226.1v-17.7H89v14.5H95v3.2H85.2z"/>
	<path class="st11" d="M97.4,226.1v-17.7h10.4v3.2h-6.7v3.6h6.7v3.2h-6.7v4.4h6.7v3.2H97.4z"/>
	<path class="st11" d="M111.7,226.1v-17.7h3.8v17.7H111.7z"/>
	<path class="st11" d="M132.3,226.1H128l-4.7-8.3v8.3h-3.8v-17.7h5.4c2.2,0,3.8,0.4,4.8,1.3c1.1,0.8,1.6,2.1,1.6,3.8
		c0,1.2-0.4,2.3-1.1,3.1c-0.7,0.9-1.7,1.4-2.8,1.5L132.3,226.1z M123.3,216h0.6c1.5,0,2.5-0.2,3-0.5c0.5-0.3,0.7-0.9,0.7-1.8
		c0-0.9-0.3-1.5-0.8-1.9s-1.5-0.6-3-0.6h-0.6V216z"/>
	<path class="st11" d="M152.7,217.3c0,1.3-0.2,2.5-0.7,3.6c-0.5,1.1-1.2,2.1-2,3c-0.9,0.9-2,1.6-3.1,2c-1.2,0.5-2.4,0.7-3.6,0.7
		c-1.1,0-2.1-0.2-3.2-0.6c-1-0.4-2-0.9-2.9-1.6c-1.1-0.9-2-2-2.6-3.2c-0.6-1.2-0.9-2.6-0.9-4c0-1.3,0.2-2.5,0.7-3.6
		c0.5-1.1,1.2-2.1,2.1-3c0.9-0.9,1.9-1.5,3.1-2c1.2-0.5,2.4-0.7,3.6-0.7c1.2,0,2.4,0.2,3.6,0.7s2.2,1.1,3.1,2c0.9,0.9,1.6,1.9,2,3
		C152.5,214.8,152.7,216,152.7,217.3z M143.2,223.2c1.6,0,2.9-0.6,4-1.7c1-1.1,1.6-2.5,1.6-4.2c0-1.7-0.5-3.1-1.6-4.2
		c-1.1-1.1-2.4-1.7-4-1.7c-1.6,0-2.9,0.6-4,1.7c-1.1,1.1-1.6,2.6-1.6,4.2c0,1.7,0.5,3.1,1.6,4.2
		C140.3,222.7,141.6,223.2,143.2,223.2z"/>
</g>
</svg>
