<?xml version="1.0" encoding="utf-8"?>
<!-- Generator: Adobe Illustrator 25.0.0, SVG Export Plug-In . SVG Version: 6.00 Build 0)  -->
<svg version="1.1" id="Camada_1" xmlns="http://www.w3.org/2000/svg" xmlns:xlink="http://www.w3.org/1999/xlink" x="0px" y="0px"
	 viewBox="0 0 272.7 84.9" style="enable-background:new 0 0 272.7 84.9;" xml:space="preserve">
<style type="text/css">
	.st0{clip-path:url(#SVGID_2_);fill-rule:evenodd;clip-rule:evenodd;fill:#EC1651;}
	.st1{clip-path:url(#SVGID_4_);fill-rule:evenodd;clip-rule:evenodd;fill:#FF9C01;}
	.st2{clip-path:url(#SVGID_6_);fill-rule:evenodd;clip-rule:evenodd;fill:#EC1651;}
	.st3{clip-path:url(#SVGID_8_);fill-rule:evenodd;clip-rule:evenodd;fill:#59B5A3;}
	.st4{clip-path:url(#SVGID_10_);fill-rule:evenodd;clip-rule:evenodd;fill:#FF9C01;}
	.st5{clip-path:url(#SVGID_12_);fill-rule:evenodd;clip-rule:evenodd;fill:#EC1651;}
	.st6{clip-path:url(#SVGID_14_);fill-rule:evenodd;clip-rule:evenodd;fill:#C60039;}
	.st7{clip-path:url(#SVGID_16_);fill-rule:evenodd;clip-rule:evenodd;fill:#C60039;}
	.st8{clip-path:url(#SVGID_18_);fill-rule:evenodd;clip-rule:evenodd;fill:#59B5A3;}
	.st9{clip-path:url(#SVGID_20_);fill-rule:evenodd;clip-rule:evenodd;fill:#37979E;}
	.st10{clip-path:url(#SVGID_22_);fill-rule:evenodd;clip-rule:evenodd;fill:#FF9C01;}
	.st11{clip-path:url(#SVGID_24_);fill-rule:evenodd;clip-rule:evenodd;fill:#EC1651;}
	.st12{clip-path:url(#SVGID_26_);fill-rule:evenodd;clip-rule:evenodd;fill:#C60039;}
	.st13{clip-path:url(#SVGID_28_);fill-rule:evenodd;clip-rule:evenodd;fill:#C60039;}
	.st14{clip-path:url(#SVGID_30_);fill-rule:evenodd;clip-rule:evenodd;fill:#FF9C01;}
	.st15{clip-path:url(#SVGID_32_);fill-rule:evenodd;clip-rule:evenodd;fill:#37979E;}
	.st16{clip-path:url(#SVGID_34_);fill-rule:evenodd;clip-rule:evenodd;fill:#37979E;}
	.st17{clip-path:url(#SVGID_36_);fill-rule:evenodd;clip-rule:evenodd;fill:#37979E;}
	.st18{clip-path:url(#SVGID_38_);fill-rule:evenodd;clip-rule:evenodd;fill:#37979E;}
	.st19{fill-rule:evenodd;clip-rule:evenodd;fill:#77A5B1;}
	.st20{fill-rule:evenodd;clip-rule:evenodd;fill:#C24C4E;}
	.st21{fill-rule:evenodd;clip-rule:evenodd;fill:#EC1651;}
	.st22{fill-rule:evenodd;clip-rule:evenodd;fill:#608EA7;}
	.st23{fill:#FFFFFF;}
</style>
<g>
	<g>
		<g>
			<defs>
				<path id="SVGID_1_" d="M23.6,64c0.6,0.2,1.4,0.1,2.6-0.6c0.3-0.3,0.7-0.5,1.1-0.5c0.8,0,1.5,0.7,1.5,1.5c0,0.8-0.7,1.5-1.5,1.5
					c-0.4,0-0.8-0.2-1.1-0.4c-0.9-0.6-1.8-0.8-2.7-0.5c-0.1,0.1-0.3,0.2-0.5,0.2c-0.4,0-0.7-0.3-0.7-0.7c0-0.4,0.3-0.7,0.7-0.7
					C23.3,63.8,23.5,63.9,23.6,64 M31.9,60.9c0.1-0.1,0.3-0.2,0.4-0.2c-0.1,0-0.2,0-0.2,0l0,0C32,60.8,32,60.9,31.9,60.9z
					 M26.9,17.8c0.7,0.3,1.6,0.1,2.9-0.6c0.3-0.3,0.7-0.5,1.2-0.5c0.9,0,1.7,0.7,1.7,1.7c0,0.9-0.7,1.7-1.7,1.7
					c-0.5,0-0.9-0.2-1.2-0.5c-1-0.6-2-0.9-3-0.6c-0.1,0.1-0.3,0.2-0.6,0.2c-0.4,0-0.8-0.4-0.8-0.8s0.4-0.8,0.8-0.8
					C26.6,17.5,26.8,17.7,26.9,17.8z M41.1,15.5L41.1,15.5L41.1,15.5L41.1,15.5L41.1,15.5z M36.2,55.2h2.2c0,2.5,0.8,4.7,2.3,6.6
					c1.6,1.9,4.3,3,8.1,3.3c3.4,0,6.1-0.6,8.2-1.9c0.7-0.4,1.2-0.9,1.7-1.4l0,0l0,0c0.9-1,1.4-2.2,1.4-3.6c0-1.6-0.5-2.9-1.4-4
					s-2.1-1.9-3.5-2.5s-2.9-1.1-4.5-1.6c-1.6-0.4-3.2-0.8-4.6-1.2c-5.3-1.2-9.6-2.4-12.9-3.6c0-0.1,0-0.2,0-0.3c0-1.7,1.2-3,2.7-3.4
					c0,0,0-0.1-0.1-0.1l0,0c-2.7-1.5-5.5-2.7-8.7-1.6v-0.1c-0.3,0.3-0.7,0.4-1.1,0.4c-1,0-1.7-0.8-1.7-1.7s0.8-1.7,1.7-1.7
					c0.4,0,0.8,0.2,1.1,0.4c2.1,0.7,4.5,0.1,7-1l0,0c-1.1,0-2.1-0.4-2.8-1.2l0,0c-2.5-1.4-4.7-1.5-6.7-0.9l0,0
					c-0.2,0.1-0.5,0.1-0.8,0.1c-1.2,0-2.2-1-2.2-2.2s1-2.2,2.2-2.2c0.3,0,0.5,0,0.8,0.1c2.3,0.8,4.5,0.9,6.4-0.5
					c0.7-0.8,1.6-1.4,2.7-1.5c-1.1-0.3-2.2-0.3-3.3,0.2l0,0c-0.6,0.5-1.4,0.8-2.3,0.8c-2.1,0-3.7-1.7-3.7-3.7c0-2.1,1.7-3.7,3.7-3.7
					c0.8,0,1.6,0.3,2.2,0.7c2.4,1.1,4.4,0.4,6.3-0.9c-1.2-0.6-2.1-1.9-2.1-3.4c0-2,1.6-3.7,3.6-3.8C37,14,35.8,14,34.5,14.4l0,0
					c-0.2,0.2-0.5,0.3-0.9,0.3c-0.7,0-1.3-0.6-1.3-1.3s0.6-1.3,1.3-1.3c0.3,0,0.6,0.1,0.9,0.3c1.8,0.6,3.8,0,5.9-1
					C40,10.6,39.8,9.8,39.8,9c0-0.7,0.1-1.3,0.4-1.9c3.1-0.6,6.4-0.9,10-0.9c9.4,0.1,16.4,1.9,21,5.4s6.9,8.4,6.9,14.6
					c0,0.8,0,1.5-0.1,1.9H58.8c0-2.6-0.8-4.7-2.5-6.2s-4-2.3-7-2.3c-2.5,0-4.6,0.7-6.2,2c-1.7,1.4-2.5,2.9-2.5,4.6
					c0,3.6,3.8,6.2,11.5,7.9c5.3,1.2,9.2,2.1,11.8,2.8c2.6,0.7,5.2,1.8,7.7,3.2s4.6,3.4,6.2,5.9s2.5,5.8,2.7,9.8
					c0,5.1-1.4,9.3-4.1,12.7c-2.8,3.4-6.5,6-11.1,7.7c-0.6,0.2-1.3,0.4-1.9,0.6c-0.2,0-0.4,0.1-0.7,0.1L62.6,77
					c-3.9,1.1-8.2,1.6-12.8,1.6c-4.7,0-8.9-0.4-12.5-1.2c0.1-2.2,1.9-4,4.2-4h0.1c0.2-0.8,0.8-1.4,1.6-1.7c-1.5-0.3-3-0.3-3.5,0.1
					l-0.1,0.1l0,0c-0.4,0.3-0.8,0.4-1.3,0.4s-1-0.2-1.4-0.5c-0.8-0.4-1.5-0.6-2.4-0.2c-0.3,0.2-0.6,0.3-0.9,0.3
					c-0.4,0-0.8-0.2-1.1-0.4l0,0l0,0l0,0l0,0c-1.1-1-1.8-0.8-2.9-0.5l0,0c-0.2,0.2-0.5,0.3-0.8,0.3c-0.6,0-1.1-0.5-1.1-1.1
					s0.5-1.1,1.1-1.1c0.3,0,0.6,0.1,0.8,0.3c1.1,0.7,2.1,0.1,3-0.5l0,0c0.3-0.2,0.6-0.4,1-0.4s0.7,0.1,1,0.3l0,0
					c0.9,0.6,1.8,0.1,2.5-0.4l0,0l0,0h0.1l0,0c0.3-0.2,0.8-0.4,1.2-0.4c0.5,0,0.9,0.1,1.2,0.4l0,0l0.1,0.1c0.5,0.3,1.4,0.3,2.5,0.2
					c-0.2-0.2-0.5-0.3-0.7-0.5l0,0l0,0c-0.2-0.1-0.3-0.3-0.5-0.5c-1.4-1.2-2.8-1.8-4.3-1.7c-0.7,0.8-1.6,1.2-2.7,1.2
					c-2,0-3.6-1.6-3.6-3.6c0-1,0.4-1.9,1-2.5c-0.5,0.3-1.2,0.5-1.8,0.5c-1.3,0-2.4-0.7-3-1.8l0,0c-1.2-1.1-3.1-1.1-5.2-0.8
					c-0.2,0.2-0.5,0.4-0.8,0.4c-0.6,0-1.1-0.5-1.1-1c0-0.6,0.5-1,1.1-1c0.3,0,0.5,0.1,0.7,0.3c2.6,0.4,4.2,0,5.3-0.8V57
					c0.5-1,1.7-1.8,3-1.8c1.2,0,2.2,0.6,2.8,1.4c1,0.2,2.1-0.2,3-0.9C35.5,55.8,35.8,55.5,36.2,55.2z"/>
			</defs>
			<clipPath id="SVGID_2_">
				<use xlink:href="#SVGID_1_"  style="overflow:visible;"/>
			</clipPath>
			<path class="st0" d="M41.4,73.7c1.2,0,2.4,0.5,3.1,1.4c1.9,0.2,3.4-0.5,4.7-1.7c0.2-0.3,0.5-0.6,0.8-0.8l0,0l0,0
				c1.2-1,2.8-1.7,4.5-1.7c3.8,0,6.9,3.1,6.9,6.9s-3.1,6.9-6.9,6.9c-1.7,0-3.3-0.6-4.5-1.7l0,0l0,0c-0.2-0.2-0.4-0.3-0.6-0.5
				c-1.6-1.4-3.2-2.1-4.9-2c-0.8,0.9-1.9,1.4-3.1,1.4c-2.3,0-4.2-1.9-4.2-4.2S39.1,73.7,41.4,73.7"/>
		</g>
		<g>
			<defs>
				<path id="SVGID_3_" d="M23.6,64c0.6,0.2,1.4,0.1,2.6-0.6c0.3-0.3,0.7-0.5,1.1-0.5c0.8,0,1.5,0.7,1.5,1.5c0,0.8-0.7,1.5-1.5,1.5
					c-0.4,0-0.8-0.2-1.1-0.4c-0.9-0.6-1.8-0.8-2.7-0.5c-0.1,0.1-0.3,0.2-0.5,0.2c-0.4,0-0.7-0.3-0.7-0.7c0-0.4,0.3-0.7,0.7-0.7
					C23.3,63.8,23.5,63.9,23.6,64 M31.9,60.9c0.1-0.1,0.3-0.2,0.4-0.2c-0.1,0-0.2,0-0.2,0l0,0C32,60.8,32,60.9,31.9,60.9z
					 M26.9,17.8c0.7,0.3,1.6,0.1,2.9-0.6c0.3-0.3,0.7-0.5,1.2-0.5c0.9,0,1.7,0.7,1.7,1.7c0,0.9-0.7,1.7-1.7,1.7
					c-0.5,0-0.9-0.2-1.2-0.5c-1-0.6-2-0.9-3-0.6c-0.1,0.1-0.3,0.2-0.6,0.2c-0.4,0-0.8-0.4-0.8-0.8s0.4-0.8,0.8-0.8
					C26.6,17.5,26.8,17.7,26.9,17.8z M41.1,15.5L41.1,15.5L41.1,15.5L41.1,15.5L41.1,15.5z M36.2,55.2h2.2c0,2.5,0.8,4.7,2.3,6.6
					c1.6,1.9,4.3,3,8.1,3.3c3.4,0,6.1-0.6,8.2-1.9c0.7-0.4,1.2-0.9,1.7-1.4l0,0l0,0c0.9-1,1.4-2.2,1.4-3.6c0-1.6-0.5-2.9-1.4-4
					s-2.1-1.9-3.5-2.5s-2.9-1.1-4.5-1.6c-1.6-0.4-3.2-0.8-4.6-1.2c-5.3-1.2-9.6-2.4-12.9-3.6c0-0.1,0-0.2,0-0.3c0-1.7,1.2-3,2.7-3.4
					c0,0,0-0.1-0.1-0.1l0,0c-2.7-1.5-5.5-2.7-8.7-1.6v-0.1c-0.3,0.3-0.7,0.4-1.1,0.4c-1,0-1.7-0.8-1.7-1.7s0.8-1.7,1.7-1.7
					c0.4,0,0.8,0.2,1.1,0.4c2.1,0.7,4.5,0.1,7-1l0,0c-1.1,0-2.1-0.4-2.8-1.2l0,0c-2.5-1.4-4.7-1.5-6.7-0.9l0,0
					c-0.2,0.1-0.5,0.1-0.8,0.1c-1.2,0-2.2-1-2.2-2.2s1-2.2,2.2-2.2c0.3,0,0.5,0,0.8,0.1c2.3,0.8,4.5,0.9,6.4-0.5
					c0.7-0.8,1.6-1.4,2.7-1.5c-1.1-0.3-2.2-0.3-3.3,0.2l0,0c-0.6,0.5-1.4,0.8-2.3,0.8c-2.1,0-3.7-1.7-3.7-3.7c0-2.1,1.7-3.7,3.7-3.7
					c0.8,0,1.6,0.3,2.2,0.7c2.4,1.1,4.4,0.4,6.3-0.9c-1.2-0.6-2.1-1.9-2.1-3.4c0-2,1.6-3.7,3.6-3.8C37,14,35.8,14,34.5,14.4l0,0
					c-0.2,0.2-0.5,0.3-0.9,0.3c-0.7,0-1.3-0.6-1.3-1.3s0.6-1.3,1.3-1.3c0.3,0,0.6,0.1,0.9,0.3c1.8,0.6,3.8,0,5.9-1
					C40,10.6,39.8,9.8,39.8,9c0-0.7,0.1-1.3,0.4-1.9c3.1-0.6,6.4-0.9,10-0.9c9.4,0.1,16.4,1.9,21,5.4s6.9,8.4,6.9,14.6
					c0,0.8,0,1.5-0.1,1.9H58.8c0-2.6-0.8-4.7-2.5-6.2s-4-2.3-7-2.3c-2.5,0-4.6,0.7-6.2,2c-1.7,1.4-2.5,2.9-2.5,4.6
					c0,3.6,3.8,6.2,11.5,7.9c5.3,1.2,9.2,2.1,11.8,2.8c2.6,0.7,5.2,1.8,7.7,3.2s4.6,3.4,6.2,5.9s2.5,5.8,2.7,9.8
					c0,5.1-1.4,9.3-4.1,12.7c-2.8,3.4-6.5,6-11.1,7.7c-0.6,0.2-1.3,0.4-1.9,0.6c-0.2,0-0.4,0.1-0.7,0.1L62.6,77
					c-3.9,1.1-8.2,1.6-12.8,1.6c-4.7,0-8.9-0.4-12.5-1.2c0.1-2.2,1.9-4,4.2-4h0.1c0.2-0.8,0.8-1.4,1.6-1.7c-1.5-0.3-3-0.3-3.5,0.1
					l-0.1,0.1l0,0c-0.4,0.3-0.8,0.4-1.3,0.4s-1-0.2-1.4-0.5c-0.8-0.4-1.5-0.6-2.4-0.2c-0.3,0.2-0.6,0.3-0.9,0.3
					c-0.4,0-0.8-0.2-1.1-0.4l0,0l0,0l0,0l0,0c-1.1-1-1.8-0.8-2.9-0.5l0,0c-0.2,0.2-0.5,0.3-0.8,0.3c-0.6,0-1.1-0.5-1.1-1.1
					s0.5-1.1,1.1-1.1c0.3,0,0.6,0.1,0.8,0.3c1.1,0.7,2.1,0.1,3-0.5l0,0c0.3-0.2,0.6-0.4,1-0.4s0.7,0.1,1,0.3l0,0
					c0.9,0.6,1.8,0.1,2.5-0.4l0,0l0,0h0.1l0,0c0.3-0.2,0.8-0.4,1.2-0.4c0.5,0,0.9,0.1,1.2,0.4l0,0l0.1,0.1c0.5,0.3,1.4,0.3,2.5,0.2
					c-0.2-0.2-0.5-0.3-0.7-0.5l0,0l0,0c-0.2-0.1-0.3-0.3-0.5-0.5c-1.4-1.2-2.8-1.8-4.3-1.7c-0.7,0.8-1.6,1.2-2.7,1.2
					c-2,0-3.6-1.6-3.6-3.6c0-1,0.4-1.9,1-2.5c-0.5,0.3-1.2,0.5-1.8,0.5c-1.3,0-2.4-0.7-3-1.8l0,0c-1.2-1.1-3.1-1.1-5.2-0.8
					c-0.2,0.2-0.5,0.4-0.8,0.4c-0.6,0-1.1-0.5-1.1-1c0-0.6,0.5-1,1.1-1c0.3,0,0.5,0.1,0.7,0.3c2.6,0.4,4.2,0,5.3-0.8V57
					c0.5-1,1.7-1.8,3-1.8c1.2,0,2.2,0.6,2.8,1.4c1,0.2,2.1-0.2,3-0.9C35.5,55.8,35.8,55.5,36.2,55.2z"/>
			</defs>
			<clipPath id="SVGID_4_">
				<use xlink:href="#SVGID_3_"  style="overflow:visible;"/>
			</clipPath>
			<path class="st1" d="M67.6,63.5L67.6,63.5c0.8-0.6,1.9-1,3-1c1.3,0,2.5,0.5,3.4,1.3l0,0c6.4,1.9,11.1,3,16.5,1.4l0,0
				c0.5-0.5,1.3-0.8,2-0.8c1.7,0,3.1,1.4,3.1,3.1s-1.4,3.1-3.1,3.1c-0.7,0-1.4-0.3-1.9-0.7c-6.5-2.3-10.7-0.7-16.6,1.3
				c-0.9,0.8-2.1,1.3-3.4,1.3c-1.2,0-2.3-0.4-3.1-1.1c-4.1-0.9-8.3-0.7-11.7,1.3l0,0c-1,0.7-2.2,1.1-3.5,1.1c-3.5,0-6.3-2.8-6.3-6.3
				s2.8-6.3,6.3-6.3c1.3,0,2.4,0.4,3.4,1C59.6,64,64,64.3,67.6,63.5"/>
		</g>
		<g>
			<defs>
				<path id="SVGID_5_" d="M23.6,64c0.6,0.2,1.4,0.1,2.6-0.6c0.3-0.3,0.7-0.5,1.1-0.5c0.8,0,1.5,0.7,1.5,1.5c0,0.8-0.7,1.5-1.5,1.5
					c-0.4,0-0.8-0.2-1.1-0.4c-0.9-0.6-1.8-0.8-2.7-0.5c-0.1,0.1-0.3,0.2-0.5,0.2c-0.4,0-0.7-0.3-0.7-0.7c0-0.4,0.3-0.7,0.7-0.7
					C23.3,63.8,23.5,63.9,23.6,64 M31.9,60.9c0.1-0.1,0.3-0.2,0.4-0.2c-0.1,0-0.2,0-0.2,0l0,0C32,60.8,32,60.9,31.9,60.9z
					 M26.9,17.8c0.7,0.3,1.6,0.1,2.9-0.6c0.3-0.3,0.7-0.5,1.2-0.5c0.9,0,1.7,0.7,1.7,1.7c0,0.9-0.7,1.7-1.7,1.7
					c-0.5,0-0.9-0.2-1.2-0.5c-1-0.6-2-0.9-3-0.6c-0.1,0.1-0.3,0.2-0.6,0.2c-0.4,0-0.8-0.4-0.8-0.8s0.4-0.8,0.8-0.8
					C26.6,17.5,26.8,17.7,26.9,17.8z M41.1,15.5L41.1,15.5L41.1,15.5L41.1,15.5L41.1,15.5z M36.2,55.2h2.2c0,2.5,0.8,4.7,2.3,6.6
					c1.6,1.9,4.3,3,8.1,3.3c3.4,0,6.1-0.6,8.2-1.9c0.7-0.4,1.2-0.9,1.7-1.4l0,0l0,0c0.9-1,1.4-2.2,1.4-3.6c0-1.6-0.5-2.9-1.4-4
					s-2.1-1.9-3.5-2.5s-2.9-1.1-4.5-1.6c-1.6-0.4-3.2-0.8-4.6-1.2c-5.3-1.2-9.6-2.4-12.9-3.6c0-0.1,0-0.2,0-0.3c0-1.7,1.2-3,2.7-3.4
					c0,0,0-0.1-0.1-0.1l0,0c-2.7-1.5-5.5-2.7-8.7-1.6v-0.1c-0.3,0.3-0.7,0.4-1.1,0.4c-1,0-1.7-0.8-1.7-1.7s0.8-1.7,1.7-1.7
					c0.4,0,0.8,0.2,1.1,0.4c2.1,0.7,4.5,0.1,7-1l0,0c-1.1,0-2.1-0.4-2.8-1.2l0,0c-2.5-1.4-4.7-1.5-6.7-0.9l0,0
					c-0.2,0.1-0.5,0.1-0.8,0.1c-1.2,0-2.2-1-2.2-2.2s1-2.2,2.2-2.2c0.3,0,0.5,0,0.8,0.1c2.3,0.8,4.5,0.9,6.4-0.5
					c0.7-0.8,1.6-1.4,2.7-1.5c-1.1-0.3-2.2-0.3-3.3,0.2l0,0c-0.6,0.5-1.4,0.8-2.3,0.8c-2.1,0-3.7-1.7-3.7-3.7c0-2.1,1.7-3.7,3.7-3.7
					c0.8,0,1.6,0.3,2.2,0.7c2.4,1.1,4.4,0.4,6.3-0.9c-1.2-0.6-2.1-1.9-2.1-3.4c0-2,1.6-3.7,3.6-3.8C37,14,35.8,14,34.5,14.4l0,0
					c-0.2,0.2-0.5,0.3-0.9,0.3c-0.7,0-1.3-0.6-1.3-1.3s0.6-1.3,1.3-1.3c0.3,0,0.6,0.1,0.9,0.3c1.8,0.6,3.8,0,5.9-1
					C40,10.6,39.8,9.8,39.8,9c0-0.7,0.1-1.3,0.4-1.9c3.1-0.6,6.4-0.9,10-0.9c9.4,0.1,16.4,1.9,21,5.4s6.9,8.4,6.9,14.6
					c0,0.8,0,1.5-0.1,1.9H58.8c0-2.6-0.8-4.7-2.5-6.2s-4-2.3-7-2.3c-2.5,0-4.6,0.7-6.2,2c-1.7,1.4-2.5,2.9-2.5,4.6
					c0,3.6,3.8,6.2,11.5,7.9c5.3,1.2,9.2,2.1,11.8,2.8c2.6,0.7,5.2,1.8,7.7,3.2s4.6,3.4,6.2,5.9s2.5,5.8,2.7,9.8
					c0,5.1-1.4,9.3-4.1,12.7c-2.8,3.4-6.5,6-11.1,7.7c-0.6,0.2-1.3,0.4-1.9,0.6c-0.2,0-0.4,0.1-0.7,0.1L62.6,77
					c-3.9,1.1-8.2,1.6-12.8,1.6c-4.7,0-8.9-0.4-12.5-1.2c0.1-2.2,1.9-4,4.2-4h0.1c0.2-0.8,0.8-1.4,1.6-1.7c-1.5-0.3-3-0.3-3.5,0.1
					l-0.1,0.1l0,0c-0.4,0.3-0.8,0.4-1.3,0.4s-1-0.2-1.4-0.5c-0.8-0.4-1.5-0.6-2.4-0.2c-0.3,0.2-0.6,0.3-0.9,0.3
					c-0.4,0-0.8-0.2-1.1-0.4l0,0l0,0l0,0l0,0c-1.1-1-1.8-0.8-2.9-0.5l0,0c-0.2,0.2-0.5,0.3-0.8,0.3c-0.6,0-1.1-0.5-1.1-1.1
					s0.5-1.1,1.1-1.1c0.3,0,0.6,0.1,0.8,0.3c1.1,0.7,2.1,0.1,3-0.5l0,0c0.3-0.2,0.6-0.4,1-0.4s0.7,0.1,1,0.3l0,0
					c0.9,0.6,1.8,0.1,2.5-0.4l0,0l0,0h0.1l0,0c0.3-0.2,0.8-0.4,1.2-0.4c0.5,0,0.9,0.1,1.2,0.4l0,0l0.1,0.1c0.5,0.3,1.4,0.3,2.5,0.2
					c-0.2-0.2-0.5-0.3-0.7-0.5l0,0l0,0c-0.2-0.1-0.3-0.3-0.5-0.5c-1.4-1.2-2.8-1.8-4.3-1.7c-0.7,0.8-1.6,1.2-2.7,1.2
					c-2,0-3.6-1.6-3.6-3.6c0-1,0.4-1.9,1-2.5c-0.5,0.3-1.2,0.5-1.8,0.5c-1.3,0-2.4-0.7-3-1.8l0,0c-1.2-1.1-3.1-1.1-5.2-0.8
					c-0.2,0.2-0.5,0.4-0.8,0.4c-0.6,0-1.1-0.5-1.1-1c0-0.6,0.5-1,1.1-1c0.3,0,0.5,0.1,0.7,0.3c2.6,0.4,4.2,0,5.3-0.8V57
					c0.5-1,1.7-1.8,3-1.8c1.2,0,2.2,0.6,2.8,1.4c1,0.2,2.1-0.2,3-0.9C35.5,55.8,35.8,55.5,36.2,55.2z"/>
			</defs>
			<clipPath id="SVGID_6_">
				<use xlink:href="#SVGID_5_"  style="overflow:visible;"/>
			</clipPath>
			<path class="st2" d="M34.2,28.2c-1.3,0-2.4,0.6-3.2,1.5c-1.8,1.4-4,1.3-6.4,0.5c-0.2-0.1-0.5-0.1-0.8-0.1c-1.2,0-2.2,1-2.2,2.2
				c0,1.2,1,2.2,2.2,2.2c0.3,0,0.5,0,0.8-0.1l0,0c2-0.6,4.2-0.5,6.7,0.9l0,0c0.7,0.7,1.7,1.2,2.8,1.2c0.8,0,1.6-0.2,2.2-0.7l0,0
				c2.7-0.7,5.2,0.1,8.1,1.7l0,0c1,0.8,2.3,1.2,3.7,1.2c1.3,0,2.5-0.4,3.6-1.1l0,0c2.7-1.9,5.4-3.2,7.8-2.2l0,0
				c0.7,0.5,1.5,0.8,2.4,0.8c2.1,0,3.8-1.7,3.8-3.8s-1.7-3.8-3.8-3.8c-0.8,0-1.6,0.3-2.2,0.7c-2.9,1.3-5.2,0.1-7.4-1.6
				c-0.1-0.1-0.3-0.2-0.4-0.3l0,0c-1-0.7-2.3-1.2-3.7-1.2s-2.7,0.5-3.8,1.3c-3.1,1.7-5.8,2.1-8.2,1.5C35.7,28.4,34.9,28.2,34.2,28.2
				"/>
		</g>
		<g>
			<defs>
				<path id="SVGID_7_" d="M23.6,64c0.6,0.2,1.4,0.1,2.6-0.6c0.3-0.3,0.7-0.5,1.1-0.5c0.8,0,1.5,0.7,1.5,1.5c0,0.8-0.7,1.5-1.5,1.5
					c-0.4,0-0.8-0.2-1.1-0.4c-0.9-0.6-1.8-0.8-2.7-0.5c-0.1,0.1-0.3,0.2-0.5,0.2c-0.4,0-0.7-0.3-0.7-0.7c0-0.4,0.3-0.7,0.7-0.7
					C23.3,63.8,23.5,63.9,23.6,64 M31.9,60.9c0.1-0.1,0.3-0.2,0.4-0.2c-0.1,0-0.2,0-0.2,0l0,0C32,60.8,32,60.9,31.9,60.9z
					 M26.9,17.8c0.7,0.3,1.6,0.1,2.9-0.6c0.3-0.3,0.7-0.5,1.2-0.5c0.9,0,1.7,0.7,1.7,1.7c0,0.9-0.7,1.7-1.7,1.7
					c-0.5,0-0.9-0.2-1.2-0.5c-1-0.6-2-0.9-3-0.6c-0.1,0.1-0.3,0.2-0.6,0.2c-0.4,0-0.8-0.4-0.8-0.8s0.4-0.8,0.8-0.8
					C26.6,17.5,26.8,17.7,26.9,17.8z M41.1,15.5L41.1,15.5L41.1,15.5L41.1,15.5L41.1,15.5z M36.2,55.2h2.2c0,2.5,0.8,4.7,2.3,6.6
					c1.6,1.9,4.3,3,8.1,3.3c3.4,0,6.1-0.6,8.2-1.9c0.7-0.4,1.2-0.9,1.7-1.4l0,0l0,0c0.9-1,1.4-2.2,1.4-3.6c0-1.6-0.5-2.9-1.4-4
					s-2.1-1.9-3.5-2.5s-2.9-1.1-4.5-1.6c-1.6-0.4-3.2-0.8-4.6-1.2c-5.3-1.2-9.6-2.4-12.9-3.6c0-0.1,0-0.2,0-0.3c0-1.7,1.2-3,2.7-3.4
					c0,0,0-0.1-0.1-0.1l0,0c-2.7-1.5-5.5-2.7-8.7-1.6v-0.1c-0.3,0.3-0.7,0.4-1.1,0.4c-1,0-1.7-0.8-1.7-1.7s0.8-1.7,1.7-1.7
					c0.4,0,0.8,0.2,1.1,0.4c2.1,0.7,4.5,0.1,7-1l0,0c-1.1,0-2.1-0.4-2.8-1.2l0,0c-2.5-1.4-4.7-1.5-6.7-0.9l0,0
					c-0.2,0.1-0.5,0.1-0.8,0.1c-1.2,0-2.2-1-2.2-2.2s1-2.2,2.2-2.2c0.3,0,0.5,0,0.8,0.1c2.3,0.8,4.5,0.9,6.4-0.5
					c0.7-0.8,1.6-1.4,2.7-1.5c-1.1-0.3-2.2-0.3-3.3,0.2l0,0c-0.6,0.5-1.4,0.8-2.3,0.8c-2.1,0-3.7-1.7-3.7-3.7c0-2.1,1.7-3.7,3.7-3.7
					c0.8,0,1.6,0.3,2.2,0.7c2.4,1.1,4.4,0.4,6.3-0.9c-1.2-0.6-2.1-1.9-2.1-3.4c0-2,1.6-3.7,3.6-3.8C37,14,35.8,14,34.5,14.4l0,0
					c-0.2,0.2-0.5,0.3-0.9,0.3c-0.7,0-1.3-0.6-1.3-1.3s0.6-1.3,1.3-1.3c0.3,0,0.6,0.1,0.9,0.3c1.8,0.6,3.8,0,5.9-1
					C40,10.6,39.8,9.8,39.8,9c0-0.7,0.1-1.3,0.4-1.9c3.1-0.6,6.4-0.9,10-0.9c9.4,0.1,16.4,1.9,21,5.4s6.9,8.4,6.9,14.6
					c0,0.8,0,1.5-0.1,1.9H58.8c0-2.6-0.8-4.7-2.5-6.2s-4-2.3-7-2.3c-2.5,0-4.6,0.7-6.2,2c-1.7,1.4-2.5,2.9-2.5,4.6
					c0,3.6,3.8,6.2,11.5,7.9c5.3,1.2,9.2,2.1,11.8,2.8c2.6,0.7,5.2,1.8,7.7,3.2s4.6,3.4,6.2,5.9s2.5,5.8,2.7,9.8
					c0,5.1-1.4,9.3-4.1,12.7c-2.8,3.4-6.5,6-11.1,7.7c-0.6,0.2-1.3,0.4-1.9,0.6c-0.2,0-0.4,0.1-0.7,0.1L62.6,77
					c-3.9,1.1-8.2,1.6-12.8,1.6c-4.7,0-8.9-0.4-12.5-1.2c0.1-2.2,1.9-4,4.2-4h0.1c0.2-0.8,0.8-1.4,1.6-1.7c-1.5-0.3-3-0.3-3.5,0.1
					l-0.1,0.1l0,0c-0.4,0.3-0.8,0.4-1.3,0.4s-1-0.2-1.4-0.5c-0.8-0.4-1.5-0.6-2.4-0.2c-0.3,0.2-0.6,0.3-0.9,0.3
					c-0.4,0-0.8-0.2-1.1-0.4l0,0l0,0l0,0l0,0c-1.1-1-1.8-0.8-2.9-0.5l0,0c-0.2,0.2-0.5,0.3-0.8,0.3c-0.6,0-1.1-0.5-1.1-1.1
					s0.5-1.1,1.1-1.1c0.3,0,0.6,0.1,0.8,0.3c1.1,0.7,2.1,0.1,3-0.5l0,0c0.3-0.2,0.6-0.4,1-0.4s0.7,0.1,1,0.3l0,0
					c0.9,0.6,1.8,0.1,2.5-0.4l0,0l0,0h0.1l0,0c0.3-0.2,0.8-0.4,1.2-0.4c0.5,0,0.9,0.1,1.2,0.4l0,0l0.1,0.1c0.5,0.3,1.4,0.3,2.5,0.2
					c-0.2-0.2-0.5-0.3-0.7-0.5l0,0l0,0c-0.2-0.1-0.3-0.3-0.5-0.5c-1.4-1.2-2.8-1.8-4.3-1.7c-0.7,0.8-1.6,1.2-2.7,1.2
					c-2,0-3.6-1.6-3.6-3.6c0-1,0.4-1.9,1-2.5c-0.5,0.3-1.2,0.5-1.8,0.5c-1.3,0-2.4-0.7-3-1.8l0,0c-1.2-1.1-3.1-1.1-5.2-0.8
					c-0.2,0.2-0.5,0.4-0.8,0.4c-0.6,0-1.1-0.5-1.1-1c0-0.6,0.5-1,1.1-1c0.3,0,0.5,0.1,0.7,0.3c2.6,0.4,4.2,0,5.3-0.8V57
					c0.5-1,1.7-1.8,3-1.8c1.2,0,2.2,0.6,2.8,1.4c1,0.2,2.1-0.2,3-0.9C35.5,55.8,35.8,55.5,36.2,55.2z"/>
			</defs>
			<clipPath id="SVGID_8_">
				<use xlink:href="#SVGID_7_"  style="overflow:visible;"/>
			</clipPath>
			<path class="st3" d="M56.6,5.8L56.6,5.8C57.3,5.3,58.1,5,58.9,5c1,0,2,0.4,2.7,1l0,0c5,1.5,8.7,2.3,12.9,1.1l0,0
				c0.4-0.4,1-0.6,1.6-0.6c1.3,0,2.4,1.1,2.4,2.4s-1.1,2.4-2.4,2.4c-0.6,0-1.1-0.2-1.5-0.5c-5.1-1.8-8.3-0.6-12.9,1
				c-0.7,0.6-1.6,1-2.7,1c-0.9,0-1.8-0.3-2.4-0.8c-3.2-0.7-6.5-0.5-9.1,1l0,0c-0.8,0.5-1.7,0.8-2.7,0.8c-2.7,0-4.9-2.2-4.9-4.9
				C39.8,6.3,42,4,44.7,4c1,0,1.9,0.3,2.7,0.8l0,0C50.4,6.2,53.8,6.5,56.6,5.8"/>
		</g>
		<g>
			<defs>
				<path id="SVGID_9_" d="M23.6,64c0.6,0.2,1.4,0.1,2.6-0.6c0.3-0.3,0.7-0.5,1.1-0.5c0.8,0,1.5,0.7,1.5,1.5c0,0.8-0.7,1.5-1.5,1.5
					c-0.4,0-0.8-0.2-1.1-0.4c-0.9-0.6-1.8-0.8-2.7-0.5c-0.1,0.1-0.3,0.2-0.5,0.2c-0.4,0-0.7-0.3-0.7-0.7c0-0.4,0.3-0.7,0.7-0.7
					C23.3,63.8,23.5,63.9,23.6,64 M31.9,60.9c0.1-0.1,0.3-0.2,0.4-0.2c-0.1,0-0.2,0-0.2,0l0,0C32,60.8,32,60.9,31.9,60.9z
					 M26.9,17.8c0.7,0.3,1.6,0.1,2.9-0.6c0.3-0.3,0.7-0.5,1.2-0.5c0.9,0,1.7,0.7,1.7,1.7c0,0.9-0.7,1.7-1.7,1.7
					c-0.5,0-0.9-0.2-1.2-0.5c-1-0.6-2-0.9-3-0.6c-0.1,0.1-0.3,0.2-0.6,0.2c-0.4,0-0.8-0.4-0.8-0.8s0.4-0.8,0.8-0.8
					C26.6,17.5,26.8,17.7,26.9,17.8z M41.1,15.5L41.1,15.5L41.1,15.5L41.1,15.5L41.1,15.5z M36.2,55.2h2.2c0,2.5,0.8,4.7,2.3,6.6
					c1.6,1.9,4.3,3,8.1,3.3c3.4,0,6.1-0.6,8.2-1.9c0.7-0.4,1.2-0.9,1.7-1.4l0,0l0,0c0.9-1,1.4-2.2,1.4-3.6c0-1.6-0.5-2.9-1.4-4
					s-2.1-1.9-3.5-2.5s-2.9-1.1-4.5-1.6c-1.6-0.4-3.2-0.8-4.6-1.2c-5.3-1.2-9.6-2.4-12.9-3.6c0-0.1,0-0.2,0-0.3c0-1.7,1.2-3,2.7-3.4
					c0,0,0-0.1-0.1-0.1l0,0c-2.7-1.5-5.5-2.7-8.7-1.6v-0.1c-0.3,0.3-0.7,0.4-1.1,0.4c-1,0-1.7-0.8-1.7-1.7s0.8-1.7,1.7-1.7
					c0.4,0,0.8,0.2,1.1,0.4c2.1,0.7,4.5,0.1,7-1l0,0c-1.1,0-2.1-0.4-2.8-1.2l0,0c-2.5-1.4-4.7-1.5-6.7-0.9l0,0
					c-0.2,0.1-0.5,0.1-0.8,0.1c-1.2,0-2.2-1-2.2-2.2s1-2.2,2.2-2.2c0.3,0,0.5,0,0.8,0.1c2.3,0.8,4.5,0.9,6.4-0.5
					c0.7-0.8,1.6-1.4,2.7-1.5c-1.1-0.3-2.2-0.3-3.3,0.2l0,0c-0.6,0.5-1.4,0.8-2.3,0.8c-2.1,0-3.7-1.7-3.7-3.7c0-2.1,1.7-3.7,3.7-3.7
					c0.8,0,1.6,0.3,2.2,0.7c2.4,1.1,4.4,0.4,6.3-0.9c-1.2-0.6-2.1-1.9-2.1-3.4c0-2,1.6-3.7,3.6-3.8C37,14,35.8,14,34.5,14.4l0,0
					c-0.2,0.2-0.5,0.3-0.9,0.3c-0.7,0-1.3-0.6-1.3-1.3s0.6-1.3,1.3-1.3c0.3,0,0.6,0.1,0.9,0.3c1.8,0.6,3.8,0,5.9-1
					C40,10.6,39.8,9.8,39.8,9c0-0.7,0.1-1.3,0.4-1.9c3.1-0.6,6.4-0.9,10-0.9c9.4,0.1,16.4,1.9,21,5.4s6.9,8.4,6.9,14.6
					c0,0.8,0,1.5-0.1,1.9H58.8c0-2.6-0.8-4.7-2.5-6.2s-4-2.3-7-2.3c-2.5,0-4.6,0.7-6.2,2c-1.7,1.4-2.5,2.9-2.5,4.6
					c0,3.6,3.8,6.2,11.5,7.9c5.3,1.2,9.2,2.1,11.8,2.8c2.6,0.7,5.2,1.8,7.7,3.2s4.6,3.4,6.2,5.9s2.5,5.8,2.7,9.8
					c0,5.1-1.4,9.3-4.1,12.7c-2.8,3.4-6.5,6-11.1,7.7c-0.6,0.2-1.3,0.4-1.9,0.6c-0.2,0-0.4,0.1-0.7,0.1L62.6,77
					c-3.9,1.1-8.2,1.6-12.8,1.6c-4.7,0-8.9-0.4-12.5-1.2c0.1-2.2,1.9-4,4.2-4h0.1c0.2-0.8,0.8-1.4,1.6-1.7c-1.5-0.3-3-0.3-3.5,0.1
					l-0.1,0.1l0,0c-0.4,0.3-0.8,0.4-1.3,0.4s-1-0.2-1.4-0.5c-0.8-0.4-1.5-0.6-2.4-0.2c-0.3,0.2-0.6,0.3-0.9,0.3
					c-0.4,0-0.8-0.2-1.1-0.4l0,0l0,0l0,0l0,0c-1.1-1-1.8-0.8-2.9-0.5l0,0c-0.2,0.2-0.5,0.3-0.8,0.3c-0.6,0-1.1-0.5-1.1-1.1
					s0.5-1.1,1.1-1.1c0.3,0,0.6,0.1,0.8,0.3c1.1,0.7,2.1,0.1,3-0.5l0,0c0.3-0.2,0.6-0.4,1-0.4s0.7,0.1,1,0.3l0,0
					c0.9,0.6,1.8,0.1,2.5-0.4l0,0l0,0h0.1l0,0c0.3-0.2,0.8-0.4,1.2-0.4c0.5,0,0.9,0.1,1.2,0.4l0,0l0.1,0.1c0.5,0.3,1.4,0.3,2.5,0.2
					c-0.2-0.2-0.5-0.3-0.7-0.5l0,0l0,0c-0.2-0.1-0.3-0.3-0.5-0.5c-1.4-1.2-2.8-1.8-4.3-1.7c-0.7,0.8-1.6,1.2-2.7,1.2
					c-2,0-3.6-1.6-3.6-3.6c0-1,0.4-1.9,1-2.5c-0.5,0.3-1.2,0.5-1.8,0.5c-1.3,0-2.4-0.7-3-1.8l0,0c-1.2-1.1-3.1-1.1-5.2-0.8
					c-0.2,0.2-0.5,0.4-0.8,0.4c-0.6,0-1.1-0.5-1.1-1c0-0.6,0.5-1,1.1-1c0.3,0,0.5,0.1,0.7,0.3c2.6,0.4,4.2,0,5.3-0.8V57
					c0.5-1,1.7-1.8,3-1.8c1.2,0,2.2,0.6,2.8,1.4c1,0.2,2.1-0.2,3-0.9C35.5,55.8,35.8,55.5,36.2,55.2z"/>
			</defs>
			<clipPath id="SVGID_10_">
				<use xlink:href="#SVGID_9_"  style="overflow:visible;"/>
			</clipPath>
			<path class="st4" d="M53.8,50L53.8,50L53.8,50z M69.5,33.8c6.2,0,11.2,5,11.2,11.2s-5,11.2-11.2,11.2c-3,0-5.8-1.2-7.8-3.2
				c-4.6-3.7-7.9-3.1-7.9-3c-1,0.8-2.3,1.2-3.7,1.2s-2.6-0.4-3.7-1.2l0,0c-2.3-1.7-5.1-2.6-7.6-2.3c-0.6,0.5-1.3,0.7-2.1,0.7
				c-1.9,0-3.4-1.5-3.4-3.4s1.5-3.4,3.4-3.4c0.7,0,1.4,0.2,2,0.6l0,0c1,0.6,5.5-0.3,7.1-1.6c0.1-0.1,0.2-0.2,0.3-0.3l0,0l0,0
				c1.1-0.9,2.5-1.5,4-1.5c1.4,0,2.6,0.4,3.6,1.2l0,0c2.7,1.1,5.4-1,8.1-3.1l0,0C63.8,35,66.5,33.8,69.5,33.8z"/>
		</g>
		<g>
			<defs>
				<path id="SVGID_11_" d="M23.6,64c0.6,0.2,1.4,0.1,2.6-0.6c0.3-0.3,0.7-0.5,1.1-0.5c0.8,0,1.5,0.7,1.5,1.5c0,0.8-0.7,1.5-1.5,1.5
					c-0.4,0-0.8-0.2-1.1-0.4c-0.9-0.6-1.8-0.8-2.7-0.5c-0.1,0.1-0.3,0.2-0.5,0.2c-0.4,0-0.7-0.3-0.7-0.7c0-0.4,0.3-0.7,0.7-0.7
					C23.3,63.8,23.5,63.9,23.6,64 M31.9,60.9c0.1-0.1,0.3-0.2,0.4-0.2c-0.1,0-0.2,0-0.2,0l0,0C32,60.8,32,60.9,31.9,60.9z
					 M26.9,17.8c0.7,0.3,1.6,0.1,2.9-0.6c0.3-0.3,0.7-0.5,1.2-0.5c0.9,0,1.7,0.7,1.7,1.7c0,0.9-0.7,1.7-1.7,1.7
					c-0.5,0-0.9-0.2-1.2-0.5c-1-0.6-2-0.9-3-0.6c-0.1,0.1-0.3,0.2-0.6,0.2c-0.4,0-0.8-0.4-0.8-0.8s0.4-0.8,0.8-0.8
					C26.6,17.5,26.8,17.7,26.9,17.8z M41.1,15.5L41.1,15.5L41.1,15.5L41.1,15.5L41.1,15.5z M36.2,55.2h2.2c0,2.5,0.8,4.7,2.3,6.6
					c1.6,1.9,4.3,3,8.1,3.3c3.4,0,6.1-0.6,8.2-1.9c0.7-0.4,1.2-0.9,1.7-1.4l0,0l0,0c0.9-1,1.4-2.2,1.4-3.6c0-1.6-0.5-2.9-1.4-4
					s-2.1-1.9-3.5-2.5s-2.9-1.1-4.5-1.6c-1.6-0.4-3.2-0.8-4.6-1.2c-5.3-1.2-9.6-2.4-12.9-3.6c0-0.1,0-0.2,0-0.3c0-1.7,1.2-3,2.7-3.4
					c0,0,0-0.1-0.1-0.1l0,0c-2.7-1.5-5.5-2.7-8.7-1.6v-0.1c-0.3,0.3-0.7,0.4-1.1,0.4c-1,0-1.7-0.8-1.7-1.7s0.8-1.7,1.7-1.7
					c0.4,0,0.8,0.2,1.1,0.4c2.1,0.7,4.5,0.1,7-1l0,0c-1.1,0-2.1-0.4-2.8-1.2l0,0c-2.5-1.4-4.7-1.5-6.7-0.9l0,0
					c-0.2,0.1-0.5,0.1-0.8,0.1c-1.2,0-2.2-1-2.2-2.2s1-2.2,2.2-2.2c0.3,0,0.5,0,0.8,0.1c2.3,0.8,4.5,0.9,6.4-0.5
					c0.7-0.8,1.6-1.4,2.7-1.5c-1.1-0.3-2.2-0.3-3.3,0.2l0,0c-0.6,0.5-1.4,0.8-2.3,0.8c-2.1,0-3.7-1.7-3.7-3.7c0-2.1,1.7-3.7,3.7-3.7
					c0.8,0,1.6,0.3,2.2,0.7c2.4,1.1,4.4,0.4,6.3-0.9c-1.2-0.6-2.1-1.9-2.1-3.4c0-2,1.6-3.7,3.6-3.8C37,14,35.8,14,34.5,14.4l0,0
					c-0.2,0.2-0.5,0.3-0.9,0.3c-0.7,0-1.3-0.6-1.3-1.3s0.6-1.3,1.3-1.3c0.3,0,0.6,0.1,0.9,0.3c1.8,0.6,3.8,0,5.9-1
					C40,10.6,39.8,9.8,39.8,9c0-0.7,0.1-1.3,0.4-1.9c3.1-0.6,6.4-0.9,10-0.9c9.4,0.1,16.4,1.9,21,5.4s6.9,8.4,6.9,14.6
					c0,0.8,0,1.5-0.1,1.9H58.8c0-2.6-0.8-4.7-2.5-6.2s-4-2.3-7-2.3c-2.5,0-4.6,0.7-6.2,2c-1.7,1.4-2.5,2.9-2.5,4.6
					c0,3.6,3.8,6.2,11.5,7.9c5.3,1.2,9.2,2.1,11.8,2.8c2.6,0.7,5.2,1.8,7.7,3.2s4.6,3.4,6.2,5.9s2.5,5.8,2.7,9.8
					c0,5.1-1.4,9.3-4.1,12.7c-2.8,3.4-6.5,6-11.1,7.7c-0.6,0.2-1.3,0.4-1.9,0.6c-0.2,0-0.4,0.1-0.7,0.1L62.6,77
					c-3.9,1.1-8.2,1.6-12.8,1.6c-4.7,0-8.9-0.4-12.5-1.2c0.1-2.2,1.9-4,4.2-4h0.1c0.2-0.8,0.8-1.4,1.6-1.7c-1.5-0.3-3-0.3-3.5,0.1
					l-0.1,0.1l0,0c-0.4,0.3-0.8,0.4-1.3,0.4s-1-0.2-1.4-0.5c-0.8-0.4-1.5-0.6-2.4-0.2c-0.3,0.2-0.6,0.3-0.9,0.3
					c-0.4,0-0.8-0.2-1.1-0.4l0,0l0,0l0,0l0,0c-1.1-1-1.8-0.8-2.9-0.5l0,0c-0.2,0.2-0.5,0.3-0.8,0.3c-0.6,0-1.1-0.5-1.1-1.1
					s0.5-1.1,1.1-1.1c0.3,0,0.6,0.1,0.8,0.3c1.1,0.7,2.1,0.1,3-0.5l0,0c0.3-0.2,0.6-0.4,1-0.4s0.7,0.1,1,0.3l0,0
					c0.9,0.6,1.8,0.1,2.5-0.4l0,0l0,0h0.1l0,0c0.3-0.2,0.8-0.4,1.2-0.4c0.5,0,0.9,0.1,1.2,0.4l0,0l0.1,0.1c0.5,0.3,1.4,0.3,2.5,0.2
					c-0.2-0.2-0.5-0.3-0.7-0.5l0,0l0,0c-0.2-0.1-0.3-0.3-0.5-0.5c-1.4-1.2-2.8-1.8-4.3-1.7c-0.7,0.8-1.6,1.2-2.7,1.2
					c-2,0-3.6-1.6-3.6-3.6c0-1,0.4-1.9,1-2.5c-0.5,0.3-1.2,0.5-1.8,0.5c-1.3,0-2.4-0.7-3-1.8l0,0c-1.2-1.1-3.1-1.1-5.2-0.8
					c-0.2,0.2-0.5,0.4-0.8,0.4c-0.6,0-1.1-0.5-1.1-1c0-0.6,0.5-1,1.1-1c0.3,0,0.5,0.1,0.7,0.3c2.6,0.4,4.2,0,5.3-0.8V57
					c0.5-1,1.7-1.8,3-1.8c1.2,0,2.2,0.6,2.8,1.4c1,0.2,2.1-0.2,3-0.9C35.5,55.8,35.8,55.5,36.2,55.2z"/>
			</defs>
			<clipPath id="SVGID_12_">
				<use xlink:href="#SVGID_11_"  style="overflow:visible;"/>
			</clipPath>
			<path class="st5" d="M72.8,20.9L72.8,20.9c0.8-0.6,1.9-1,3-1c1.3,0,2.5,0.5,3.4,1.3l0,0c6.4,1.9,11.1,3,16.5,1.4l0,0
				c0.5-0.5,1.3-0.8,2-0.8c1.7,0,3.1,1.4,3.1,3.1S99.4,28,97.7,28c-0.7,0-1.4-0.3-1.9-0.7c-6.5-2.3-10.7-0.7-16.6,1.3
				c-0.9,0.8-2.1,1.3-3.4,1.3c-1.2,0-2.3-0.4-3.1-1.1c-4.1-0.9-8.3-0.7-11.7,1.3l0,0c-1,0.7-2.2,1.1-3.5,1.1c-3.5,0-6.3-2.8-6.3-6.3
				s2.8-6.3,6.3-6.3c1.3,0,2.4,0.4,3.4,1l0,0C64.8,21.4,69.2,21.8,72.8,20.9"/>
		</g>
		<g>
			<defs>
				<path id="SVGID_13_" d="M23.6,64c0.6,0.2,1.4,0.1,2.6-0.6c0.3-0.3,0.7-0.5,1.1-0.5c0.8,0,1.5,0.7,1.5,1.5c0,0.8-0.7,1.5-1.5,1.5
					c-0.4,0-0.8-0.2-1.1-0.4c-0.9-0.6-1.8-0.8-2.7-0.5c-0.1,0.1-0.3,0.2-0.5,0.2c-0.4,0-0.7-0.3-0.7-0.7c0-0.4,0.3-0.7,0.7-0.7
					C23.3,63.8,23.5,63.9,23.6,64 M31.9,60.9c0.1-0.1,0.3-0.2,0.4-0.2c-0.1,0-0.2,0-0.2,0l0,0C32,60.8,32,60.9,31.9,60.9z
					 M26.9,17.8c0.7,0.3,1.6,0.1,2.9-0.6c0.3-0.3,0.7-0.5,1.2-0.5c0.9,0,1.7,0.7,1.7,1.7c0,0.9-0.7,1.7-1.7,1.7
					c-0.5,0-0.9-0.2-1.2-0.5c-1-0.6-2-0.9-3-0.6c-0.1,0.1-0.3,0.2-0.6,0.2c-0.4,0-0.8-0.4-0.8-0.8s0.4-0.8,0.8-0.8
					C26.6,17.5,26.8,17.7,26.9,17.8z M41.1,15.5L41.1,15.5L41.1,15.5L41.1,15.5L41.1,15.5z M36.2,55.2h2.2c0,2.5,0.8,4.7,2.3,6.6
					c1.6,1.9,4.3,3,8.1,3.3c3.4,0,6.1-0.6,8.2-1.9c0.7-0.4,1.2-0.9,1.7-1.4l0,0l0,0c0.9-1,1.4-2.2,1.4-3.6c0-1.6-0.5-2.9-1.4-4
					s-2.1-1.9-3.5-2.5s-2.9-1.1-4.5-1.6c-1.6-0.4-3.2-0.8-4.6-1.2c-5.3-1.2-9.6-2.4-12.9-3.6c0-0.1,0-0.2,0-0.3c0-1.7,1.2-3,2.7-3.4
					c0,0,0-0.1-0.1-0.1l0,0c-2.7-1.5-5.5-2.7-8.7-1.6v-0.1c-0.3,0.3-0.7,0.4-1.1,0.4c-1,0-1.7-0.8-1.7-1.7s0.8-1.7,1.7-1.7
					c0.4,0,0.8,0.2,1.1,0.4c2.1,0.7,4.5,0.1,7-1l0,0c-1.1,0-2.1-0.4-2.8-1.2l0,0c-2.5-1.4-4.7-1.5-6.7-0.9l0,0
					c-0.2,0.1-0.5,0.1-0.8,0.1c-1.2,0-2.2-1-2.2-2.2s1-2.2,2.2-2.2c0.3,0,0.5,0,0.8,0.1c2.3,0.8,4.5,0.9,6.4-0.5
					c0.7-0.8,1.6-1.4,2.7-1.5c-1.1-0.3-2.2-0.3-3.3,0.2l0,0c-0.6,0.5-1.4,0.8-2.3,0.8c-2.1,0-3.7-1.7-3.7-3.7c0-2.1,1.7-3.7,3.7-3.7
					c0.8,0,1.6,0.3,2.2,0.7c2.4,1.1,4.4,0.4,6.3-0.9c-1.2-0.6-2.1-1.9-2.1-3.4c0-2,1.6-3.7,3.6-3.8C37,14,35.8,14,34.5,14.4l0,0
					c-0.2,0.2-0.5,0.3-0.9,0.3c-0.7,0-1.3-0.6-1.3-1.3s0.6-1.3,1.3-1.3c0.3,0,0.6,0.1,0.9,0.3c1.8,0.6,3.8,0,5.9-1
					C40,10.6,39.8,9.8,39.8,9c0-0.7,0.1-1.3,0.4-1.9c3.1-0.6,6.4-0.9,10-0.9c9.4,0.1,16.4,1.9,21,5.4s6.9,8.4,6.9,14.6
					c0,0.8,0,1.5-0.1,1.9H58.8c0-2.6-0.8-4.7-2.5-6.2s-4-2.3-7-2.3c-2.5,0-4.6,0.7-6.2,2c-1.7,1.4-2.5,2.9-2.5,4.6
					c0,3.6,3.8,6.2,11.5,7.9c5.3,1.2,9.2,2.1,11.8,2.8c2.6,0.7,5.2,1.8,7.7,3.2s4.6,3.4,6.2,5.9s2.5,5.8,2.7,9.8
					c0,5.1-1.4,9.3-4.1,12.7c-2.8,3.4-6.5,6-11.1,7.7c-0.6,0.2-1.3,0.4-1.9,0.6c-0.2,0-0.4,0.1-0.7,0.1L62.6,77
					c-3.9,1.1-8.2,1.6-12.8,1.6c-4.7,0-8.9-0.4-12.5-1.2c0.1-2.2,1.9-4,4.2-4h0.1c0.2-0.8,0.8-1.4,1.6-1.7c-1.5-0.3-3-0.3-3.5,0.1
					l-0.1,0.1l0,0c-0.4,0.3-0.8,0.4-1.3,0.4s-1-0.2-1.4-0.5c-0.8-0.4-1.5-0.6-2.4-0.2c-0.3,0.2-0.6,0.3-0.9,0.3
					c-0.4,0-0.8-0.2-1.1-0.4l0,0l0,0l0,0l0,0c-1.1-1-1.8-0.8-2.9-0.5l0,0c-0.2,0.2-0.5,0.3-0.8,0.3c-0.6,0-1.1-0.5-1.1-1.1
					s0.5-1.1,1.1-1.1c0.3,0,0.6,0.1,0.8,0.3c1.1,0.7,2.1,0.1,3-0.5l0,0c0.3-0.2,0.6-0.4,1-0.4s0.7,0.1,1,0.3l0,0
					c0.9,0.6,1.8,0.1,2.5-0.4l0,0l0,0h0.1l0,0c0.3-0.2,0.8-0.4,1.2-0.4c0.5,0,0.9,0.1,1.2,0.4l0,0l0.1,0.1c0.5,0.3,1.4,0.3,2.5,0.2
					c-0.2-0.2-0.5-0.3-0.7-0.5l0,0l0,0c-0.2-0.1-0.3-0.3-0.5-0.5c-1.4-1.2-2.8-1.8-4.3-1.7c-0.7,0.8-1.6,1.2-2.7,1.2
					c-2,0-3.6-1.6-3.6-3.6c0-1,0.4-1.9,1-2.5c-0.5,0.3-1.2,0.5-1.8,0.5c-1.3,0-2.4-0.7-3-1.8l0,0c-1.2-1.1-3.1-1.1-5.2-0.8
					c-0.2,0.2-0.5,0.4-0.8,0.4c-0.6,0-1.1-0.5-1.1-1c0-0.6,0.5-1,1.1-1c0.3,0,0.5,0.1,0.7,0.3c2.6,0.4,4.2,0,5.3-0.8V57
					c0.5-1,1.7-1.8,3-1.8c1.2,0,2.2,0.6,2.8,1.4c1,0.2,2.1-0.2,3-0.9C35.5,55.8,35.8,55.5,36.2,55.2z"/>
			</defs>
			<clipPath id="SVGID_14_">
				<use xlink:href="#SVGID_13_"  style="overflow:visible;"/>
			</clipPath>
			<path class="st6" d="M23.6,64c0.6,0.2,1.4,0.1,2.6-0.6c0.3-0.3,0.7-0.5,1.1-0.5c0.8,0,1.5,0.7,1.5,1.5c0,0.8-0.7,1.5-1.5,1.5
				c-0.4,0-0.8-0.2-1.1-0.4c-0.9-0.6-1.8-0.8-2.7-0.5c-0.1,0.1-0.3,0.2-0.5,0.2c-0.4,0-0.7-0.3-0.7-0.7c0-0.4,0.3-0.7,0.7-0.7
				C23.3,63.8,23.5,63.9,23.6,64"/>
		</g>
		<g>
			<defs>
				<path id="SVGID_15_" d="M23.6,64c0.6,0.2,1.4,0.1,2.6-0.6c0.3-0.3,0.7-0.5,1.1-0.5c0.8,0,1.5,0.7,1.5,1.5c0,0.8-0.7,1.5-1.5,1.5
					c-0.4,0-0.8-0.2-1.1-0.4c-0.9-0.6-1.8-0.8-2.7-0.5c-0.1,0.1-0.3,0.2-0.5,0.2c-0.4,0-0.7-0.3-0.7-0.7c0-0.4,0.3-0.7,0.7-0.7
					C23.3,63.8,23.5,63.9,23.6,64 M31.9,60.9c0.1-0.1,0.3-0.2,0.4-0.2c-0.1,0-0.2,0-0.2,0l0,0C32,60.8,32,60.9,31.9,60.9z
					 M26.9,17.8c0.7,0.3,1.6,0.1,2.9-0.6c0.3-0.3,0.7-0.5,1.2-0.5c0.9,0,1.7,0.7,1.7,1.7c0,0.9-0.7,1.7-1.7,1.7
					c-0.5,0-0.9-0.2-1.2-0.5c-1-0.6-2-0.9-3-0.6c-0.1,0.1-0.3,0.2-0.6,0.2c-0.4,0-0.8-0.4-0.8-0.8s0.4-0.8,0.8-0.8
					C26.6,17.5,26.8,17.7,26.9,17.8z M41.1,15.5L41.1,15.5L41.1,15.5L41.1,15.5L41.1,15.5z M36.2,55.2h2.2c0,2.5,0.8,4.7,2.3,6.6
					c1.6,1.9,4.3,3,8.1,3.3c3.4,0,6.1-0.6,8.2-1.9c0.7-0.4,1.2-0.9,1.7-1.4l0,0l0,0c0.9-1,1.4-2.2,1.4-3.6c0-1.6-0.5-2.9-1.4-4
					s-2.1-1.9-3.5-2.5s-2.9-1.1-4.5-1.6c-1.6-0.4-3.2-0.8-4.6-1.2c-5.3-1.2-9.6-2.4-12.9-3.6c0-0.1,0-0.2,0-0.3c0-1.7,1.2-3,2.7-3.4
					c0,0,0-0.1-0.1-0.1l0,0c-2.7-1.5-5.5-2.7-8.7-1.6v-0.1c-0.3,0.3-0.7,0.4-1.1,0.4c-1,0-1.7-0.8-1.7-1.7s0.8-1.7,1.7-1.7
					c0.4,0,0.8,0.2,1.1,0.4c2.1,0.7,4.5,0.1,7-1l0,0c-1.1,0-2.1-0.4-2.8-1.2l0,0c-2.5-1.4-4.7-1.5-6.7-0.9l0,0
					c-0.2,0.1-0.5,0.1-0.8,0.1c-1.2,0-2.2-1-2.2-2.2s1-2.2,2.2-2.2c0.3,0,0.5,0,0.8,0.1c2.3,0.8,4.5,0.9,6.4-0.5
					c0.7-0.8,1.6-1.4,2.7-1.5c-1.1-0.3-2.2-0.3-3.3,0.2l0,0c-0.6,0.5-1.4,0.8-2.3,0.8c-2.1,0-3.7-1.7-3.7-3.7c0-2.1,1.7-3.7,3.7-3.7
					c0.8,0,1.6,0.3,2.2,0.7c2.4,1.1,4.4,0.4,6.3-0.9c-1.2-0.6-2.1-1.9-2.1-3.4c0-2,1.6-3.7,3.6-3.8C37,14,35.8,14,34.5,14.4l0,0
					c-0.2,0.2-0.5,0.3-0.9,0.3c-0.7,0-1.3-0.6-1.3-1.3s0.6-1.3,1.3-1.3c0.3,0,0.6,0.1,0.9,0.3c1.8,0.6,3.8,0,5.9-1
					C40,10.6,39.8,9.8,39.8,9c0-0.7,0.1-1.3,0.4-1.9c3.1-0.6,6.4-0.9,10-0.9c9.4,0.1,16.4,1.9,21,5.4s6.9,8.4,6.9,14.6
					c0,0.8,0,1.5-0.1,1.9H58.8c0-2.6-0.8-4.7-2.5-6.2s-4-2.3-7-2.3c-2.5,0-4.6,0.7-6.2,2c-1.7,1.4-2.5,2.9-2.5,4.6
					c0,3.6,3.8,6.2,11.5,7.9c5.3,1.2,9.2,2.1,11.8,2.8c2.6,0.7,5.2,1.8,7.7,3.2s4.6,3.4,6.2,5.9s2.5,5.8,2.7,9.8
					c0,5.1-1.4,9.3-4.1,12.7c-2.8,3.4-6.5,6-11.1,7.7c-0.6,0.2-1.3,0.4-1.9,0.6c-0.2,0-0.4,0.1-0.7,0.1L62.6,77
					c-3.9,1.1-8.2,1.6-12.8,1.6c-4.7,0-8.9-0.4-12.5-1.2c0.1-2.2,1.9-4,4.2-4h0.1c0.2-0.8,0.8-1.4,1.6-1.7c-1.5-0.3-3-0.3-3.5,0.1
					l-0.1,0.1l0,0c-0.4,0.3-0.8,0.4-1.3,0.4s-1-0.2-1.4-0.5c-0.8-0.4-1.5-0.6-2.4-0.2c-0.3,0.2-0.6,0.3-0.9,0.3
					c-0.4,0-0.8-0.2-1.1-0.4l0,0l0,0l0,0l0,0c-1.1-1-1.8-0.8-2.9-0.5l0,0c-0.2,0.2-0.5,0.3-0.8,0.3c-0.6,0-1.1-0.5-1.1-1.1
					s0.5-1.1,1.1-1.1c0.3,0,0.6,0.1,0.8,0.3c1.1,0.7,2.1,0.1,3-0.5l0,0c0.3-0.2,0.6-0.4,1-0.4s0.7,0.1,1,0.3l0,0
					c0.9,0.6,1.8,0.1,2.5-0.4l0,0l0,0h0.1l0,0c0.3-0.2,0.8-0.4,1.2-0.4c0.5,0,0.9,0.1,1.2,0.4l0,0l0.1,0.1c0.5,0.3,1.4,0.3,2.5,0.2
					c-0.2-0.2-0.5-0.3-0.7-0.5l0,0l0,0c-0.2-0.1-0.3-0.3-0.5-0.5c-1.4-1.2-2.8-1.8-4.3-1.7c-0.7,0.8-1.6,1.2-2.7,1.2
					c-2,0-3.6-1.6-3.6-3.6c0-1,0.4-1.9,1-2.5c-0.5,0.3-1.2,0.5-1.8,0.5c-1.3,0-2.4-0.7-3-1.8l0,0c-1.2-1.1-3.1-1.1-5.2-0.8
					c-0.2,0.2-0.5,0.4-0.8,0.4c-0.6,0-1.1-0.5-1.1-1c0-0.6,0.5-1,1.1-1c0.3,0,0.5,0.1,0.7,0.3c2.6,0.4,4.2,0,5.3-0.8V57
					c0.5-1,1.7-1.8,3-1.8c1.2,0,2.2,0.6,2.8,1.4c1,0.2,2.1-0.2,3-0.9C35.5,55.8,35.8,55.5,36.2,55.2z"/>
			</defs>
			<clipPath id="SVGID_16_">
				<use xlink:href="#SVGID_15_"  style="overflow:visible;"/>
			</clipPath>
			<path class="st7" d="M33.9,60.4c1.1,0,2,0.5,2.7,1.2c1.6,0.2,2.9-0.4,4.1-1.5c0.2-0.2,0.4-0.5,0.7-0.7l0,0l0,0
				c1.1-0.9,2.4-1.5,3.9-1.5c3.3,0,6,2.7,6,6c0,3.3-2.7,6-6,6c-1.5,0-2.9-0.5-3.9-1.5l0,0l0,0c-0.2-0.1-0.3-0.3-0.5-0.5
				c-1.4-1.2-2.8-1.8-4.3-1.7c-0.7,0.8-1.6,1.2-2.7,1.2c-2,0-3.6-1.6-3.6-3.6C30.3,62,31.9,60.4,33.9,60.4"/>
		</g>
		<g>
			<defs>
				<path id="SVGID_17_" d="M23.6,64c0.6,0.2,1.4,0.1,2.6-0.6c0.3-0.3,0.7-0.5,1.1-0.5c0.8,0,1.5,0.7,1.5,1.5c0,0.8-0.7,1.5-1.5,1.5
					c-0.4,0-0.8-0.2-1.1-0.4c-0.9-0.6-1.8-0.8-2.7-0.5c-0.1,0.1-0.3,0.2-0.5,0.2c-0.4,0-0.7-0.3-0.7-0.7c0-0.4,0.3-0.7,0.7-0.7
					C23.3,63.8,23.5,63.9,23.6,64 M31.9,60.9c0.1-0.1,0.3-0.2,0.4-0.2c-0.1,0-0.2,0-0.2,0l0,0C32,60.8,32,60.9,31.9,60.9z
					 M26.9,17.8c0.7,0.3,1.6,0.1,2.9-0.6c0.3-0.3,0.7-0.5,1.2-0.5c0.9,0,1.7,0.7,1.7,1.7c0,0.9-0.7,1.7-1.7,1.7
					c-0.5,0-0.9-0.2-1.2-0.5c-1-0.6-2-0.9-3-0.6c-0.1,0.1-0.3,0.2-0.6,0.2c-0.4,0-0.8-0.4-0.8-0.8s0.4-0.8,0.8-0.8
					C26.6,17.5,26.8,17.7,26.9,17.8z M41.1,15.5L41.1,15.5L41.1,15.5L41.1,15.5L41.1,15.5z M36.2,55.2h2.2c0,2.5,0.8,4.7,2.3,6.6
					c1.6,1.9,4.3,3,8.1,3.3c3.4,0,6.1-0.6,8.2-1.9c0.7-0.4,1.2-0.9,1.7-1.4l0,0l0,0c0.9-1,1.4-2.2,1.4-3.6c0-1.6-0.5-2.9-1.4-4
					s-2.1-1.9-3.5-2.5s-2.9-1.1-4.5-1.6c-1.6-0.4-3.2-0.8-4.6-1.2c-5.3-1.2-9.6-2.4-12.9-3.6c0-0.1,0-0.2,0-0.3c0-1.7,1.2-3,2.7-3.4
					c0,0,0-0.1-0.1-0.1l0,0c-2.7-1.5-5.5-2.7-8.7-1.6v-0.1c-0.3,0.3-0.7,0.4-1.1,0.4c-1,0-1.7-0.8-1.7-1.7s0.8-1.7,1.7-1.7
					c0.4,0,0.8,0.2,1.1,0.4c2.1,0.7,4.5,0.1,7-1l0,0c-1.1,0-2.1-0.4-2.8-1.2l0,0c-2.5-1.4-4.7-1.5-6.7-0.9l0,0
					c-0.2,0.1-0.5,0.1-0.8,0.1c-1.2,0-2.2-1-2.2-2.2s1-2.2,2.2-2.2c0.3,0,0.5,0,0.8,0.1c2.3,0.8,4.5,0.9,6.4-0.5
					c0.7-0.8,1.6-1.4,2.7-1.5c-1.1-0.3-2.2-0.3-3.3,0.2l0,0c-0.6,0.5-1.4,0.8-2.3,0.8c-2.1,0-3.7-1.7-3.7-3.7c0-2.1,1.7-3.7,3.7-3.7
					c0.8,0,1.6,0.3,2.2,0.7c2.4,1.1,4.4,0.4,6.3-0.9c-1.2-0.6-2.1-1.9-2.1-3.4c0-2,1.6-3.7,3.6-3.8C37,14,35.8,14,34.5,14.4l0,0
					c-0.2,0.2-0.5,0.3-0.9,0.3c-0.7,0-1.3-0.6-1.3-1.3s0.6-1.3,1.3-1.3c0.3,0,0.6,0.1,0.9,0.3c1.8,0.6,3.8,0,5.9-1
					C40,10.6,39.8,9.8,39.8,9c0-0.7,0.1-1.3,0.4-1.9c3.1-0.6,6.4-0.9,10-0.9c9.4,0.1,16.4,1.9,21,5.4s6.9,8.4,6.9,14.6
					c0,0.8,0,1.5-0.1,1.9H58.8c0-2.6-0.8-4.7-2.5-6.2s-4-2.3-7-2.3c-2.5,0-4.6,0.7-6.2,2c-1.7,1.4-2.5,2.9-2.5,4.6
					c0,3.6,3.8,6.2,11.5,7.9c5.3,1.2,9.2,2.1,11.8,2.8c2.6,0.7,5.2,1.8,7.7,3.2s4.6,3.4,6.2,5.9s2.5,5.8,2.7,9.8
					c0,5.1-1.4,9.3-4.1,12.7c-2.8,3.4-6.5,6-11.1,7.7c-0.6,0.2-1.3,0.4-1.9,0.6c-0.2,0-0.4,0.1-0.7,0.1L62.6,77
					c-3.9,1.1-8.2,1.6-12.8,1.6c-4.7,0-8.9-0.4-12.5-1.2c0.1-2.2,1.9-4,4.2-4h0.1c0.2-0.8,0.8-1.4,1.6-1.7c-1.5-0.3-3-0.3-3.5,0.1
					l-0.1,0.1l0,0c-0.4,0.3-0.8,0.4-1.3,0.4s-1-0.2-1.4-0.5c-0.8-0.4-1.5-0.6-2.4-0.2c-0.3,0.2-0.6,0.3-0.9,0.3
					c-0.4,0-0.8-0.2-1.1-0.4l0,0l0,0l0,0l0,0c-1.1-1-1.8-0.8-2.9-0.5l0,0c-0.2,0.2-0.5,0.3-0.8,0.3c-0.6,0-1.1-0.5-1.1-1.1
					s0.5-1.1,1.1-1.1c0.3,0,0.6,0.1,0.8,0.3c1.1,0.7,2.1,0.1,3-0.5l0,0c0.3-0.2,0.6-0.4,1-0.4s0.7,0.1,1,0.3l0,0
					c0.9,0.6,1.8,0.1,2.5-0.4l0,0l0,0h0.1l0,0c0.3-0.2,0.8-0.4,1.2-0.4c0.5,0,0.9,0.1,1.2,0.4l0,0l0.1,0.1c0.5,0.3,1.4,0.3,2.5,0.2
					c-0.2-0.2-0.5-0.3-0.7-0.5l0,0l0,0c-0.2-0.1-0.3-0.3-0.5-0.5c-1.4-1.2-2.8-1.8-4.3-1.7c-0.7,0.8-1.6,1.2-2.7,1.2
					c-2,0-3.6-1.6-3.6-3.6c0-1,0.4-1.9,1-2.5c-0.5,0.3-1.2,0.5-1.8,0.5c-1.3,0-2.4-0.7-3-1.8l0,0c-1.2-1.1-3.1-1.1-5.2-0.8
					c-0.2,0.2-0.5,0.4-0.8,0.4c-0.6,0-1.1-0.5-1.1-1c0-0.6,0.5-1,1.1-1c0.3,0,0.5,0.1,0.7,0.3c2.6,0.4,4.2,0,5.3-0.8V57
					c0.5-1,1.7-1.8,3-1.8c1.2,0,2.2,0.6,2.8,1.4c1,0.2,2.1-0.2,3-0.9C35.5,55.8,35.8,55.5,36.2,55.2z"/>
			</defs>
			<clipPath id="SVGID_18_">
				<use xlink:href="#SVGID_17_"  style="overflow:visible;"/>
			</clipPath>
			<path class="st8" d="M38.2,68.3c0.5,0,0.9,0.1,1.2,0.4l0,0l0.1,0.1c1.3,0.8,6.3-0.5,7.6-1.4c0.1-0.1,0.2-0.2,0.3-0.3
				c0.8-0.7,1.8-1.2,3-1.2c2.8,0,4.7,3.6,7.8,1.4l0,0c1-1.5,2.7-2.5,4.7-2.5c2.1,0,3.9,1.2,4.9,2.9l0,0c1.4,1.1,2.8,1.3,4.1,0.4l0,0
				c0.8-1.3,2.2-2.2,3.8-2.2c1.4,0,2.7,0.7,3.5,1.7c2.4,1.5,5.2,1.9,7.3,1.4c0.3-0.2,0.7-0.4,1.1-0.4c0.9,0,1.7,0.7,1.7,1.7
				c0,0.9-0.7,1.7-1.7,1.7c-0.4,0-0.7-0.1-1-0.3c-2.2-0.3-5.3,0.5-7.7,1.7c-0.8,0.9-2,1.4-3.2,1.4c-1.5,0-2.9-0.8-3.7-2l0,0
				c-1.4-0.5-2.6-0.8-4.3,0.4l0,0c-1,1.6-2.8,2.7-4.8,2.7c-2.1,0-3.9-1.2-4.9-2.9c-1.6-0.8-3.1-0.3-4.5,0.5c-0.8,0.7-1.9,1.2-3,1.2
				c-1.2,0-2.2-0.4-3-1.2l0,0c-0.1-0.1-0.3-0.3-0.4-0.4c-1.5-1.1-6.3-2-7.4-1.3l-0.1,0.1l0,0c-0.4,0.3-0.8,0.4-1.3,0.4
				s-1-0.2-1.4-0.5c-0.8-0.4-1.5-0.6-2.4-0.2c-0.3,0.2-0.6,0.3-0.9,0.3c-0.4,0-0.8-0.2-1.1-0.4l0,0l0,0l0,0l0,0
				c-1.1-1-1.8-0.8-2.9-0.5l0,0c-0.2,0.2-0.5,0.3-0.8,0.3c-0.6,0-1.1-0.5-1.1-1.1s0.5-1.1,1.1-1.1c0.3,0,0.6,0.1,0.8,0.3
				c1.1,0.7,2.1,0.1,3-0.5l0,0c0.3-0.2,0.6-0.4,1-0.4s0.7,0.1,1,0.3l0,0c0.9,0.6,1.8,0.1,2.5-0.4l0,0l0,0h0.1l0,0
				C37.3,68.5,37.8,68.3,38.2,68.3"/>
		</g>
		<g>
			<defs>
				<path id="SVGID_19_" d="M23.6,64c0.6,0.2,1.4,0.1,2.6-0.6c0.3-0.3,0.7-0.5,1.1-0.5c0.8,0,1.5,0.7,1.5,1.5c0,0.8-0.7,1.5-1.5,1.5
					c-0.4,0-0.8-0.2-1.1-0.4c-0.9-0.6-1.8-0.8-2.7-0.5c-0.1,0.1-0.3,0.2-0.5,0.2c-0.4,0-0.7-0.3-0.7-0.7c0-0.4,0.3-0.7,0.7-0.7
					C23.3,63.8,23.5,63.9,23.6,64 M31.9,60.9c0.1-0.1,0.3-0.2,0.4-0.2c-0.1,0-0.2,0-0.2,0l0,0C32,60.8,32,60.9,31.9,60.9z
					 M26.9,17.8c0.7,0.3,1.6,0.1,2.9-0.6c0.3-0.3,0.7-0.5,1.2-0.5c0.9,0,1.7,0.7,1.7,1.7c0,0.9-0.7,1.7-1.7,1.7
					c-0.5,0-0.9-0.2-1.2-0.5c-1-0.6-2-0.9-3-0.6c-0.1,0.1-0.3,0.2-0.6,0.2c-0.4,0-0.8-0.4-0.8-0.8s0.4-0.8,0.8-0.8
					C26.6,17.5,26.8,17.7,26.9,17.8z M41.1,15.5L41.1,15.5L41.1,15.5L41.1,15.5L41.1,15.5z M36.2,55.2h2.2c0,2.5,0.8,4.7,2.3,6.6
					c1.6,1.9,4.3,3,8.1,3.3c3.4,0,6.1-0.6,8.2-1.9c0.7-0.4,1.2-0.9,1.7-1.4l0,0l0,0c0.9-1,1.4-2.2,1.4-3.6c0-1.6-0.5-2.9-1.4-4
					s-2.1-1.9-3.5-2.5s-2.9-1.1-4.5-1.6c-1.6-0.4-3.2-0.8-4.6-1.2c-5.3-1.2-9.6-2.4-12.9-3.6c0-0.1,0-0.2,0-0.3c0-1.7,1.2-3,2.7-3.4
					c0,0,0-0.1-0.1-0.1l0,0c-2.7-1.5-5.5-2.7-8.7-1.6v-0.1c-0.3,0.3-0.7,0.4-1.1,0.4c-1,0-1.7-0.8-1.7-1.7s0.8-1.7,1.7-1.7
					c0.4,0,0.8,0.2,1.1,0.4c2.1,0.7,4.5,0.1,7-1l0,0c-1.1,0-2.1-0.4-2.8-1.2l0,0c-2.5-1.4-4.7-1.5-6.7-0.9l0,0
					c-0.2,0.1-0.5,0.1-0.8,0.1c-1.2,0-2.2-1-2.2-2.2s1-2.2,2.2-2.2c0.3,0,0.5,0,0.8,0.1c2.3,0.8,4.5,0.9,6.4-0.5
					c0.7-0.8,1.6-1.4,2.7-1.5c-1.1-0.3-2.2-0.3-3.3,0.2l0,0c-0.6,0.5-1.4,0.8-2.3,0.8c-2.1,0-3.7-1.7-3.7-3.7c0-2.1,1.7-3.7,3.7-3.7
					c0.8,0,1.6,0.3,2.2,0.7c2.4,1.1,4.4,0.4,6.3-0.9c-1.2-0.6-2.1-1.9-2.1-3.4c0-2,1.6-3.7,3.6-3.8C37,14,35.8,14,34.5,14.4l0,0
					c-0.2,0.2-0.5,0.3-0.9,0.3c-0.7,0-1.3-0.6-1.3-1.3s0.6-1.3,1.3-1.3c0.3,0,0.6,0.1,0.9,0.3c1.8,0.6,3.8,0,5.9-1
					C40,10.6,39.8,9.8,39.8,9c0-0.7,0.1-1.3,0.4-1.9c3.1-0.6,6.4-0.9,10-0.9c9.4,0.1,16.4,1.9,21,5.4s6.9,8.4,6.9,14.6
					c0,0.8,0,1.5-0.1,1.9H58.8c0-2.6-0.8-4.7-2.5-6.2s-4-2.3-7-2.3c-2.5,0-4.6,0.7-6.2,2c-1.7,1.4-2.5,2.9-2.5,4.6
					c0,3.6,3.8,6.2,11.5,7.9c5.3,1.2,9.2,2.1,11.8,2.8c2.6,0.7,5.2,1.8,7.7,3.2s4.6,3.4,6.2,5.9s2.5,5.8,2.7,9.8
					c0,5.1-1.4,9.3-4.1,12.7c-2.8,3.4-6.5,6-11.1,7.7c-0.6,0.2-1.3,0.4-1.9,0.6c-0.2,0-0.4,0.1-0.7,0.1L62.6,77
					c-3.9,1.1-8.2,1.6-12.8,1.6c-4.7,0-8.9-0.4-12.5-1.2c0.1-2.2,1.9-4,4.2-4h0.1c0.2-0.8,0.8-1.4,1.6-1.7c-1.5-0.3-3-0.3-3.5,0.1
					l-0.1,0.1l0,0c-0.4,0.3-0.8,0.4-1.3,0.4s-1-0.2-1.4-0.5c-0.8-0.4-1.5-0.6-2.4-0.2c-0.3,0.2-0.6,0.3-0.9,0.3
					c-0.4,0-0.8-0.2-1.1-0.4l0,0l0,0l0,0l0,0c-1.1-1-1.8-0.8-2.9-0.5l0,0c-0.2,0.2-0.5,0.3-0.8,0.3c-0.6,0-1.1-0.5-1.1-1.1
					s0.5-1.1,1.1-1.1c0.3,0,0.6,0.1,0.8,0.3c1.1,0.7,2.1,0.1,3-0.5l0,0c0.3-0.2,0.6-0.4,1-0.4s0.7,0.1,1,0.3l0,0
					c0.9,0.6,1.8,0.1,2.5-0.4l0,0l0,0h0.1l0,0c0.3-0.2,0.8-0.4,1.2-0.4c0.5,0,0.9,0.1,1.2,0.4l0,0l0.1,0.1c0.5,0.3,1.4,0.3,2.5,0.2
					c-0.2-0.2-0.5-0.3-0.7-0.5l0,0l0,0c-0.2-0.1-0.3-0.3-0.5-0.5c-1.4-1.2-2.8-1.8-4.3-1.7c-0.7,0.8-1.6,1.2-2.7,1.2
					c-2,0-3.6-1.6-3.6-3.6c0-1,0.4-1.9,1-2.5c-0.5,0.3-1.2,0.5-1.8,0.5c-1.3,0-2.4-0.7-3-1.8l0,0c-1.2-1.1-3.1-1.1-5.2-0.8
					c-0.2,0.2-0.5,0.4-0.8,0.4c-0.6,0-1.1-0.5-1.1-1c0-0.6,0.5-1,1.1-1c0.3,0,0.5,0.1,0.7,0.3c2.6,0.4,4.2,0,5.3-0.8V57
					c0.5-1,1.7-1.8,3-1.8c1.2,0,2.2,0.6,2.8,1.4c1,0.2,2.1-0.2,3-0.9C35.5,55.8,35.8,55.5,36.2,55.2z"/>
			</defs>
			<clipPath id="SVGID_20_">
				<use xlink:href="#SVGID_19_"  style="overflow:visible;"/>
			</clipPath>
			<path class="st9" d="M21.3,59.5c2.1-0.4,4-0.4,5.2,0.8l0,0c0.5,1,1.7,1.8,3,1.8c1.1,0,2-0.5,2.6-1.2l0,0c1.3-0.2,2.3,0,3.1,0.6
				c0.3,0.5,0.7,0.9,1.2,1.2l0,0l0,0c0.8,0.6,1.8,0.9,2.9,0.9c2.7,0,4.9-2.1,4.9-4.7c0-2.6-2.2-4.7-4.9-4.7c-1.7,0-3.1,0.8-4,2
				c-1,0.7-2,1.1-3,0.9c-0.6-0.9-1.6-1.4-2.8-1.4c-1.3,0-2.4,0.7-3,1.8v-0.1c-1.1,0.8-2.7,1.2-5.3,0.8c-0.2-0.2-0.4-0.3-0.7-0.3
				c-0.6,0-1.1,0.5-1.1,1c0,0.6,0.5,1,1.1,1C20.8,59.8,21.1,59.7,21.3,59.5"/>
		</g>
		<g>
			<defs>
				<path id="SVGID_21_" d="M23.6,64c0.6,0.2,1.4,0.1,2.6-0.6c0.3-0.3,0.7-0.5,1.1-0.5c0.8,0,1.5,0.7,1.5,1.5c0,0.8-0.7,1.5-1.5,1.5
					c-0.4,0-0.8-0.2-1.1-0.4c-0.9-0.6-1.8-0.8-2.7-0.5c-0.1,0.1-0.3,0.2-0.5,0.2c-0.4,0-0.7-0.3-0.7-0.7c0-0.4,0.3-0.7,0.7-0.7
					C23.3,63.8,23.5,63.9,23.6,64 M31.9,60.9c0.1-0.1,0.3-0.2,0.4-0.2c-0.1,0-0.2,0-0.2,0l0,0C32,60.8,32,60.9,31.9,60.9z
					 M26.9,17.8c0.7,0.3,1.6,0.1,2.9-0.6c0.3-0.3,0.7-0.5,1.2-0.5c0.9,0,1.7,0.7,1.7,1.7c0,0.9-0.7,1.7-1.7,1.7
					c-0.5,0-0.9-0.2-1.2-0.5c-1-0.6-2-0.9-3-0.6c-0.1,0.1-0.3,0.2-0.6,0.2c-0.4,0-0.8-0.4-0.8-0.8s0.4-0.8,0.8-0.8
					C26.6,17.5,26.8,17.7,26.9,17.8z M41.1,15.5L41.1,15.5L41.1,15.5L41.1,15.5L41.1,15.5z M36.2,55.2h2.2c0,2.5,0.8,4.7,2.3,6.6
					c1.6,1.9,4.3,3,8.1,3.3c3.4,0,6.1-0.6,8.2-1.9c0.7-0.4,1.2-0.9,1.7-1.4l0,0l0,0c0.9-1,1.4-2.2,1.4-3.6c0-1.6-0.5-2.9-1.4-4
					s-2.1-1.9-3.5-2.5s-2.9-1.1-4.5-1.6c-1.6-0.4-3.2-0.8-4.6-1.2c-5.3-1.2-9.6-2.4-12.9-3.6c0-0.1,0-0.2,0-0.3c0-1.7,1.2-3,2.7-3.4
					c0,0,0-0.1-0.1-0.1l0,0c-2.7-1.5-5.5-2.7-8.7-1.6v-0.1c-0.3,0.3-0.7,0.4-1.1,0.4c-1,0-1.7-0.8-1.7-1.7s0.8-1.7,1.7-1.7
					c0.4,0,0.8,0.2,1.1,0.4c2.1,0.7,4.5,0.1,7-1l0,0c-1.1,0-2.1-0.4-2.8-1.2l0,0c-2.5-1.4-4.7-1.5-6.7-0.9l0,0
					c-0.2,0.1-0.5,0.1-0.8,0.1c-1.2,0-2.2-1-2.2-2.2s1-2.2,2.2-2.2c0.3,0,0.5,0,0.8,0.1c2.3,0.8,4.5,0.9,6.4-0.5
					c0.7-0.8,1.6-1.4,2.7-1.5c-1.1-0.3-2.2-0.3-3.3,0.2l0,0c-0.6,0.5-1.4,0.8-2.3,0.8c-2.1,0-3.7-1.7-3.7-3.7c0-2.1,1.7-3.7,3.7-3.7
					c0.8,0,1.6,0.3,2.2,0.7c2.4,1.1,4.4,0.4,6.3-0.9c-1.2-0.6-2.1-1.9-2.1-3.4c0-2,1.6-3.7,3.6-3.8C37,14,35.8,14,34.5,14.4l0,0
					c-0.2,0.2-0.5,0.3-0.9,0.3c-0.7,0-1.3-0.6-1.3-1.3s0.6-1.3,1.3-1.3c0.3,0,0.6,0.1,0.9,0.3c1.8,0.6,3.8,0,5.9-1
					C40,10.6,39.8,9.8,39.8,9c0-0.7,0.1-1.3,0.4-1.9c3.1-0.6,6.4-0.9,10-0.9c9.4,0.1,16.4,1.9,21,5.4s6.9,8.4,6.9,14.6
					c0,0.8,0,1.5-0.1,1.9H58.8c0-2.6-0.8-4.7-2.5-6.2s-4-2.3-7-2.3c-2.5,0-4.6,0.7-6.2,2c-1.7,1.4-2.5,2.9-2.5,4.6
					c0,3.6,3.8,6.2,11.5,7.9c5.3,1.2,9.2,2.1,11.8,2.8c2.6,0.7,5.2,1.8,7.7,3.2s4.6,3.4,6.2,5.9s2.5,5.8,2.7,9.8
					c0,5.1-1.4,9.3-4.1,12.7c-2.8,3.4-6.5,6-11.1,7.7c-0.6,0.2-1.3,0.4-1.9,0.6c-0.2,0-0.4,0.1-0.7,0.1L62.6,77
					c-3.9,1.1-8.2,1.6-12.8,1.6c-4.7,0-8.9-0.4-12.5-1.2c0.1-2.2,1.9-4,4.2-4h0.1c0.2-0.8,0.8-1.4,1.6-1.7c-1.5-0.3-3-0.3-3.5,0.1
					l-0.1,0.1l0,0c-0.4,0.3-0.8,0.4-1.3,0.4s-1-0.2-1.4-0.5c-0.8-0.4-1.5-0.6-2.4-0.2c-0.3,0.2-0.6,0.3-0.9,0.3
					c-0.4,0-0.8-0.2-1.1-0.4l0,0l0,0l0,0l0,0c-1.1-1-1.8-0.8-2.9-0.5l0,0c-0.2,0.2-0.5,0.3-0.8,0.3c-0.6,0-1.1-0.5-1.1-1.1
					s0.5-1.1,1.1-1.1c0.3,0,0.6,0.1,0.8,0.3c1.1,0.7,2.1,0.1,3-0.5l0,0c0.3-0.2,0.6-0.4,1-0.4s0.7,0.1,1,0.3l0,0
					c0.9,0.6,1.8,0.1,2.5-0.4l0,0l0,0h0.1l0,0c0.3-0.2,0.8-0.4,1.2-0.4c0.5,0,0.9,0.1,1.2,0.4l0,0l0.1,0.1c0.5,0.3,1.4,0.3,2.5,0.2
					c-0.2-0.2-0.5-0.3-0.7-0.5l0,0l0,0c-0.2-0.1-0.3-0.3-0.5-0.5c-1.4-1.2-2.8-1.8-4.3-1.7c-0.7,0.8-1.6,1.2-2.7,1.2
					c-2,0-3.6-1.6-3.6-3.6c0-1,0.4-1.9,1-2.5c-0.5,0.3-1.2,0.5-1.8,0.5c-1.3,0-2.4-0.7-3-1.8l0,0c-1.2-1.1-3.1-1.1-5.2-0.8
					c-0.2,0.2-0.5,0.4-0.8,0.4c-0.6,0-1.1-0.5-1.1-1c0-0.6,0.5-1,1.1-1c0.3,0,0.5,0.1,0.7,0.3c2.6,0.4,4.2,0,5.3-0.8V57
					c0.5-1,1.7-1.8,3-1.8c1.2,0,2.2,0.6,2.8,1.4c1,0.2,2.1-0.2,3-0.9C35.5,55.8,35.8,55.5,36.2,55.2z"/>
			</defs>
			<clipPath id="SVGID_22_">
				<use xlink:href="#SVGID_21_"  style="overflow:visible;"/>
			</clipPath>
			<path class="st10" d="M33.6,12c0.3,0,0.6,0.1,0.9,0.3c2,0.7,4.4-0.2,6.8-1.5V11c0.7-1,1.9-1.6,3.2-1.6c1.1,0,2.1,0.5,2.8,1.2
				c1.6,0.7,3.1,0.3,4.5-0.7C52.7,9,54,8.4,55.4,8.4c1.3,0,2.6,0.5,3.4,1.4l0,0c1.6,1,3.1,0.8,4.7-0.2l0,0c1-1,2.3-1.6,3.9-1.6
				c3,0,5.4,2.4,5.4,5.4s-2.4,5.4-5.4,5.4c-1.5,0-2.9-0.6-3.9-1.6v0.1c-1.5-1.2-3.1-1.3-4.7-0.4c-0.9,0.9-2.1,1.4-3.4,1.4
				c-1.3,0-2.4-0.5-3.3-1.3c-1.6-1.2-3.1-1.5-4.6-1.1c-0.7,0.9-1.8,1.4-3,1.4c-1.3,0-2.4-0.6-3.2-1.6l0,0c-2.1-1.2-4.3-2.1-6.8-1.3
				l0,0c-0.2,0.2-0.5,0.3-0.9,0.3c-0.7,0-1.3-0.6-1.3-1.3C32.3,12.6,32.9,12,33.6,12"/>
		</g>
		<g>
			<defs>
				<path id="SVGID_23_" d="M23.6,64c0.6,0.2,1.4,0.1,2.6-0.6c0.3-0.3,0.7-0.5,1.1-0.5c0.8,0,1.5,0.7,1.5,1.5c0,0.8-0.7,1.5-1.5,1.5
					c-0.4,0-0.8-0.2-1.1-0.4c-0.9-0.6-1.8-0.8-2.7-0.5c-0.1,0.1-0.3,0.2-0.5,0.2c-0.4,0-0.7-0.3-0.7-0.7c0-0.4,0.3-0.7,0.7-0.7
					C23.3,63.8,23.5,63.9,23.6,64 M31.9,60.9c0.1-0.1,0.3-0.2,0.4-0.2c-0.1,0-0.2,0-0.2,0l0,0C32,60.8,32,60.9,31.9,60.9z
					 M26.9,17.8c0.7,0.3,1.6,0.1,2.9-0.6c0.3-0.3,0.7-0.5,1.2-0.5c0.9,0,1.7,0.7,1.7,1.7c0,0.9-0.7,1.7-1.7,1.7
					c-0.5,0-0.9-0.2-1.2-0.5c-1-0.6-2-0.9-3-0.6c-0.1,0.1-0.3,0.2-0.6,0.2c-0.4,0-0.8-0.4-0.8-0.8s0.4-0.8,0.8-0.8
					C26.6,17.5,26.8,17.7,26.9,17.8z M41.1,15.5L41.1,15.5L41.1,15.5L41.1,15.5L41.1,15.5z M36.2,55.2h2.2c0,2.5,0.8,4.7,2.3,6.6
					c1.6,1.9,4.3,3,8.1,3.3c3.4,0,6.1-0.6,8.2-1.9c0.7-0.4,1.2-0.9,1.7-1.4l0,0l0,0c0.9-1,1.4-2.2,1.4-3.6c0-1.6-0.5-2.9-1.4-4
					s-2.1-1.9-3.5-2.5s-2.9-1.1-4.5-1.6c-1.6-0.4-3.2-0.8-4.6-1.2c-5.3-1.2-9.6-2.4-12.9-3.6c0-0.1,0-0.2,0-0.3c0-1.7,1.2-3,2.7-3.4
					c0,0,0-0.1-0.1-0.1l0,0c-2.7-1.5-5.5-2.7-8.7-1.6v-0.1c-0.3,0.3-0.7,0.4-1.1,0.4c-1,0-1.7-0.8-1.7-1.7s0.8-1.7,1.7-1.7
					c0.4,0,0.8,0.2,1.1,0.4c2.1,0.7,4.5,0.1,7-1l0,0c-1.1,0-2.1-0.4-2.8-1.2l0,0c-2.5-1.4-4.7-1.5-6.7-0.9l0,0
					c-0.2,0.1-0.5,0.1-0.8,0.1c-1.2,0-2.2-1-2.2-2.2s1-2.2,2.2-2.2c0.3,0,0.5,0,0.8,0.1c2.3,0.8,4.5,0.9,6.4-0.5
					c0.7-0.8,1.6-1.4,2.7-1.5c-1.1-0.3-2.2-0.3-3.3,0.2l0,0c-0.6,0.5-1.4,0.8-2.3,0.8c-2.1,0-3.7-1.7-3.7-3.7c0-2.1,1.7-3.7,3.7-3.7
					c0.8,0,1.6,0.3,2.2,0.7c2.4,1.1,4.4,0.4,6.3-0.9c-1.2-0.6-2.1-1.9-2.1-3.4c0-2,1.6-3.7,3.6-3.8C37,14,35.8,14,34.5,14.4l0,0
					c-0.2,0.2-0.5,0.3-0.9,0.3c-0.7,0-1.3-0.6-1.3-1.3s0.6-1.3,1.3-1.3c0.3,0,0.6,0.1,0.9,0.3c1.8,0.6,3.8,0,5.9-1
					C40,10.6,39.8,9.8,39.8,9c0-0.7,0.1-1.3,0.4-1.9c3.1-0.6,6.4-0.9,10-0.9c9.4,0.1,16.4,1.9,21,5.4s6.9,8.4,6.9,14.6
					c0,0.8,0,1.5-0.1,1.9H58.8c0-2.6-0.8-4.7-2.5-6.2s-4-2.3-7-2.3c-2.5,0-4.6,0.7-6.2,2c-1.7,1.4-2.5,2.9-2.5,4.6
					c0,3.6,3.8,6.2,11.5,7.9c5.3,1.2,9.2,2.1,11.8,2.8c2.6,0.7,5.2,1.8,7.7,3.2s4.6,3.4,6.2,5.9s2.5,5.8,2.7,9.8
					c0,5.1-1.4,9.3-4.1,12.7c-2.8,3.4-6.5,6-11.1,7.7c-0.6,0.2-1.3,0.4-1.9,0.6c-0.2,0-0.4,0.1-0.7,0.1L62.6,77
					c-3.9,1.1-8.2,1.6-12.8,1.6c-4.7,0-8.9-0.4-12.5-1.2c0.1-2.2,1.9-4,4.2-4h0.1c0.2-0.8,0.8-1.4,1.6-1.7c-1.5-0.3-3-0.3-3.5,0.1
					l-0.1,0.1l0,0c-0.4,0.3-0.8,0.4-1.3,0.4s-1-0.2-1.4-0.5c-0.8-0.4-1.5-0.6-2.4-0.2c-0.3,0.2-0.6,0.3-0.9,0.3
					c-0.4,0-0.8-0.2-1.1-0.4l0,0l0,0l0,0l0,0c-1.1-1-1.8-0.8-2.9-0.5l0,0c-0.2,0.2-0.5,0.3-0.8,0.3c-0.6,0-1.1-0.5-1.1-1.1
					s0.5-1.1,1.1-1.1c0.3,0,0.6,0.1,0.8,0.3c1.1,0.7,2.1,0.1,3-0.5l0,0c0.3-0.2,0.6-0.4,1-0.4s0.7,0.1,1,0.3l0,0
					c0.9,0.6,1.8,0.1,2.5-0.4l0,0l0,0h0.1l0,0c0.3-0.2,0.8-0.4,1.2-0.4c0.5,0,0.9,0.1,1.2,0.4l0,0l0.1,0.1c0.5,0.3,1.4,0.3,2.5,0.2
					c-0.2-0.2-0.5-0.3-0.7-0.5l0,0l0,0c-0.2-0.1-0.3-0.3-0.5-0.5c-1.4-1.2-2.8-1.8-4.3-1.7c-0.7,0.8-1.6,1.2-2.7,1.2
					c-2,0-3.6-1.6-3.6-3.6c0-1,0.4-1.9,1-2.5c-0.5,0.3-1.2,0.5-1.8,0.5c-1.3,0-2.4-0.7-3-1.8l0,0c-1.2-1.1-3.1-1.1-5.2-0.8
					c-0.2,0.2-0.5,0.4-0.8,0.4c-0.6,0-1.1-0.5-1.1-1c0-0.6,0.5-1,1.1-1c0.3,0,0.5,0.1,0.7,0.3c2.6,0.4,4.2,0,5.3-0.8V57
					c0.5-1,1.7-1.8,3-1.8c1.2,0,2.2,0.6,2.8,1.4c1,0.2,2.1-0.2,3-0.9C35.5,55.8,35.8,55.5,36.2,55.2z"/>
			</defs>
			<clipPath id="SVGID_24_">
				<use xlink:href="#SVGID_23_"  style="overflow:visible;"/>
			</clipPath>
			<path class="st11" d="M62.3,60c-1,0-1.9,0.5-2.5,1.2c-1.4,1.1-3.1,1-4.9,0.4c-0.2-0.1-0.4-0.1-0.6-0.1c-0.9,0-1.7,0.7-1.7,1.7
				c0,0.9,0.7,1.7,1.7,1.7c0.2,0,0.4,0,0.6-0.1l0,0c1.5-0.5,3.2-0.4,5.2,0.7l0,0c0.6,0.6,1.3,0.9,2.2,0.9c0.6,0,1.2-0.2,1.7-0.5l0,0
				c2.1-0.5,4,0.1,6.2,1.3l0,0c0.8,0.6,1.8,0.9,2.9,0.9c1,0,2-0.3,2.7-0.9l0,0c2.1-1.4,4.1-2.5,6-1.7l0,0c0.5,0.4,1.1,0.6,1.8,0.6
				c1.6,0,2.9-1.3,2.9-2.9s-1.3-2.9-2.9-2.9c-0.6,0-1.2,0.2-1.7,0.5c-2.3,1-4,0-5.7-1.3c-0.1-0.1-0.2-0.2-0.3-0.3l0,0
				c-0.8-0.6-1.8-0.9-2.8-0.9c-1.1,0-2.1,0.4-2.9,1c-2.4,1.3-4.5,1.6-6.3,1.2C63.4,60.2,62.9,60,62.3,60"/>
		</g>
		<g>
			<defs>
				<path id="SVGID_25_" d="M23.6,64c0.6,0.2,1.4,0.1,2.6-0.6c0.3-0.3,0.7-0.5,1.1-0.5c0.8,0,1.5,0.7,1.5,1.5c0,0.8-0.7,1.5-1.5,1.5
					c-0.4,0-0.8-0.2-1.1-0.4c-0.9-0.6-1.8-0.8-2.7-0.5c-0.1,0.1-0.3,0.2-0.5,0.2c-0.4,0-0.7-0.3-0.7-0.7c0-0.4,0.3-0.7,0.7-0.7
					C23.3,63.8,23.5,63.9,23.6,64 M31.9,60.9c0.1-0.1,0.3-0.2,0.4-0.2c-0.1,0-0.2,0-0.2,0l0,0C32,60.8,32,60.9,31.9,60.9z
					 M26.9,17.8c0.7,0.3,1.6,0.1,2.9-0.6c0.3-0.3,0.7-0.5,1.2-0.5c0.9,0,1.7,0.7,1.7,1.7c0,0.9-0.7,1.7-1.7,1.7
					c-0.5,0-0.9-0.2-1.2-0.5c-1-0.6-2-0.9-3-0.6c-0.1,0.1-0.3,0.2-0.6,0.2c-0.4,0-0.8-0.4-0.8-0.8s0.4-0.8,0.8-0.8
					C26.6,17.5,26.8,17.7,26.9,17.8z M41.1,15.5L41.1,15.5L41.1,15.5L41.1,15.5L41.1,15.5z M36.2,55.2h2.2c0,2.5,0.8,4.7,2.3,6.6
					c1.6,1.9,4.3,3,8.1,3.3c3.4,0,6.1-0.6,8.2-1.9c0.7-0.4,1.2-0.9,1.7-1.4l0,0l0,0c0.9-1,1.4-2.2,1.4-3.6c0-1.6-0.5-2.9-1.4-4
					s-2.1-1.9-3.5-2.5s-2.9-1.1-4.5-1.6c-1.6-0.4-3.2-0.8-4.6-1.2c-5.3-1.2-9.6-2.4-12.9-3.6c0-0.1,0-0.2,0-0.3c0-1.7,1.2-3,2.7-3.4
					c0,0,0-0.1-0.1-0.1l0,0c-2.7-1.5-5.5-2.7-8.7-1.6v-0.1c-0.3,0.3-0.7,0.4-1.1,0.4c-1,0-1.7-0.8-1.7-1.7s0.8-1.7,1.7-1.7
					c0.4,0,0.8,0.2,1.1,0.4c2.1,0.7,4.5,0.1,7-1l0,0c-1.1,0-2.1-0.4-2.8-1.2l0,0c-2.5-1.4-4.7-1.5-6.7-0.9l0,0
					c-0.2,0.1-0.5,0.1-0.8,0.1c-1.2,0-2.2-1-2.2-2.2s1-2.2,2.2-2.2c0.3,0,0.5,0,0.8,0.1c2.3,0.8,4.5,0.9,6.4-0.5
					c0.7-0.8,1.6-1.4,2.7-1.5c-1.1-0.3-2.2-0.3-3.3,0.2l0,0c-0.6,0.5-1.4,0.8-2.3,0.8c-2.1,0-3.7-1.7-3.7-3.7c0-2.1,1.7-3.7,3.7-3.7
					c0.8,0,1.6,0.3,2.2,0.7c2.4,1.1,4.4,0.4,6.3-0.9c-1.2-0.6-2.1-1.9-2.1-3.4c0-2,1.6-3.7,3.6-3.8C37,14,35.8,14,34.5,14.4l0,0
					c-0.2,0.2-0.5,0.3-0.9,0.3c-0.7,0-1.3-0.6-1.3-1.3s0.6-1.3,1.3-1.3c0.3,0,0.6,0.1,0.9,0.3c1.8,0.6,3.8,0,5.9-1
					C40,10.6,39.8,9.8,39.8,9c0-0.7,0.1-1.3,0.4-1.9c3.1-0.6,6.4-0.9,10-0.9c9.4,0.1,16.4,1.9,21,5.4s6.9,8.4,6.9,14.6
					c0,0.8,0,1.5-0.1,1.9H58.8c0-2.6-0.8-4.7-2.5-6.2s-4-2.3-7-2.3c-2.5,0-4.6,0.7-6.2,2c-1.7,1.4-2.5,2.9-2.5,4.6
					c0,3.6,3.8,6.2,11.5,7.9c5.3,1.2,9.2,2.1,11.8,2.8c2.6,0.7,5.2,1.8,7.7,3.2s4.6,3.4,6.2,5.9s2.5,5.8,2.7,9.8
					c0,5.1-1.4,9.3-4.1,12.7c-2.8,3.4-6.5,6-11.1,7.7c-0.6,0.2-1.3,0.4-1.9,0.6c-0.2,0-0.4,0.1-0.7,0.1L62.6,77
					c-3.9,1.1-8.2,1.6-12.8,1.6c-4.7,0-8.9-0.4-12.5-1.2c0.1-2.2,1.9-4,4.2-4h0.1c0.2-0.8,0.8-1.4,1.6-1.7c-1.5-0.3-3-0.3-3.5,0.1
					l-0.1,0.1l0,0c-0.4,0.3-0.8,0.4-1.3,0.4s-1-0.2-1.4-0.5c-0.8-0.4-1.5-0.6-2.4-0.2c-0.3,0.2-0.6,0.3-0.9,0.3
					c-0.4,0-0.8-0.2-1.1-0.4l0,0l0,0l0,0l0,0c-1.1-1-1.8-0.8-2.9-0.5l0,0c-0.2,0.2-0.5,0.3-0.8,0.3c-0.6,0-1.1-0.5-1.1-1.1
					s0.5-1.1,1.1-1.1c0.3,0,0.6,0.1,0.8,0.3c1.1,0.7,2.1,0.1,3-0.5l0,0c0.3-0.2,0.6-0.4,1-0.4s0.7,0.1,1,0.3l0,0
					c0.9,0.6,1.8,0.1,2.5-0.4l0,0l0,0h0.1l0,0c0.3-0.2,0.8-0.4,1.2-0.4c0.5,0,0.9,0.1,1.2,0.4l0,0l0.1,0.1c0.5,0.3,1.4,0.3,2.5,0.2
					c-0.2-0.2-0.5-0.3-0.7-0.5l0,0l0,0c-0.2-0.1-0.3-0.3-0.5-0.5c-1.4-1.2-2.8-1.8-4.3-1.7c-0.7,0.8-1.6,1.2-2.7,1.2
					c-2,0-3.6-1.6-3.6-3.6c0-1,0.4-1.9,1-2.5c-0.5,0.3-1.2,0.5-1.8,0.5c-1.3,0-2.4-0.7-3-1.8l0,0c-1.2-1.1-3.1-1.1-5.2-0.8
					c-0.2,0.2-0.5,0.4-0.8,0.4c-0.6,0-1.1-0.5-1.1-1c0-0.6,0.5-1,1.1-1c0.3,0,0.5,0.1,0.7,0.3c2.6,0.4,4.2,0,5.3-0.8V57
					c0.5-1,1.7-1.8,3-1.8c1.2,0,2.2,0.6,2.8,1.4c1,0.2,2.1-0.2,3-0.9C35.5,55.8,35.8,55.5,36.2,55.2z"/>
			</defs>
			<clipPath id="SVGID_26_">
				<use xlink:href="#SVGID_25_"  style="overflow:visible;"/>
			</clipPath>
			<path class="st12" d="M55.3,21.5c1.3,0,2.4,0.6,3.1,1.5c1.8,1.4,3.9,1.2,6.2,0.5c0.2-0.1,0.5-0.1,0.7-0.1c1.2,0,2.1,0.9,2.1,2.1
				s-0.9,2.1-2.1,2.1c-0.3,0-0.5,0-0.7-0.1l0,0c-2-0.6-4.1-0.5-6.5,0.8l0,0c-0.7,0.7-1.7,1.1-2.8,1.1c-0.8,0-1.6-0.2-2.2-0.7l0,0
				c-2.7-0.7-5.1,0.1-7.9,1.6l0,0c-1,0.8-2.3,1.2-3.6,1.2s-2.5-0.4-3.5-1.1l0,0c-2.6-1.8-5.2-3.2-7.6-2.1l0,0
				c-0.6,0.5-1.4,0.8-2.3,0.8c-2.1,0-3.7-1.7-3.7-3.7c0-2.1,1.7-3.7,3.7-3.7c0.8,0,1.6,0.3,2.2,0.7c2.8,1.2,5.1,0.1,7.3-1.6
				c0.1-0.1,0.3-0.2,0.4-0.3l0,0c1-0.7,2.2-1.1,3.6-1.1c1.4,0,2.6,0.5,3.7,1.2c3,1.7,5.6,2.1,8,1.5C53.8,21.7,54.5,21.5,55.3,21.5"
				/>
		</g>
		<g>
			<defs>
				<path id="SVGID_27_" d="M23.6,64c0.6,0.2,1.4,0.1,2.6-0.6c0.3-0.3,0.7-0.5,1.1-0.5c0.8,0,1.5,0.7,1.5,1.5c0,0.8-0.7,1.5-1.5,1.5
					c-0.4,0-0.8-0.2-1.1-0.4c-0.9-0.6-1.8-0.8-2.7-0.5c-0.1,0.1-0.3,0.2-0.5,0.2c-0.4,0-0.7-0.3-0.7-0.7c0-0.4,0.3-0.7,0.7-0.7
					C23.3,63.8,23.5,63.9,23.6,64 M31.9,60.9c0.1-0.1,0.3-0.2,0.4-0.2c-0.1,0-0.2,0-0.2,0l0,0C32,60.8,32,60.9,31.9,60.9z
					 M26.9,17.8c0.7,0.3,1.6,0.1,2.9-0.6c0.3-0.3,0.7-0.5,1.2-0.5c0.9,0,1.7,0.7,1.7,1.7c0,0.9-0.7,1.7-1.7,1.7
					c-0.5,0-0.9-0.2-1.2-0.5c-1-0.6-2-0.9-3-0.6c-0.1,0.1-0.3,0.2-0.6,0.2c-0.4,0-0.8-0.4-0.8-0.8s0.4-0.8,0.8-0.8
					C26.6,17.5,26.8,17.7,26.9,17.8z M41.1,15.5L41.1,15.5L41.1,15.5L41.1,15.5L41.1,15.5z M36.2,55.2h2.2c0,2.5,0.8,4.7,2.3,6.6
					c1.6,1.9,4.3,3,8.1,3.3c3.4,0,6.1-0.6,8.2-1.9c0.7-0.4,1.2-0.9,1.7-1.4l0,0l0,0c0.9-1,1.4-2.2,1.4-3.6c0-1.6-0.5-2.9-1.4-4
					s-2.1-1.9-3.5-2.5s-2.9-1.1-4.5-1.6c-1.6-0.4-3.2-0.8-4.6-1.2c-5.3-1.2-9.6-2.4-12.9-3.6c0-0.1,0-0.2,0-0.3c0-1.7,1.2-3,2.7-3.4
					c0,0,0-0.1-0.1-0.1l0,0c-2.7-1.5-5.5-2.7-8.7-1.6v-0.1c-0.3,0.3-0.7,0.4-1.1,0.4c-1,0-1.7-0.8-1.7-1.7s0.8-1.7,1.7-1.7
					c0.4,0,0.8,0.2,1.1,0.4c2.1,0.7,4.5,0.1,7-1l0,0c-1.1,0-2.1-0.4-2.8-1.2l0,0c-2.5-1.4-4.7-1.5-6.7-0.9l0,0
					c-0.2,0.1-0.5,0.1-0.8,0.1c-1.2,0-2.2-1-2.2-2.2s1-2.2,2.2-2.2c0.3,0,0.5,0,0.8,0.1c2.3,0.8,4.5,0.9,6.4-0.5
					c0.7-0.8,1.6-1.4,2.7-1.5c-1.1-0.3-2.2-0.3-3.3,0.2l0,0c-0.6,0.5-1.4,0.8-2.3,0.8c-2.1,0-3.7-1.7-3.7-3.7c0-2.1,1.7-3.7,3.7-3.7
					c0.8,0,1.6,0.3,2.2,0.7c2.4,1.1,4.4,0.4,6.3-0.9c-1.2-0.6-2.1-1.9-2.1-3.4c0-2,1.6-3.7,3.6-3.8C37,14,35.8,14,34.5,14.4l0,0
					c-0.2,0.2-0.5,0.3-0.9,0.3c-0.7,0-1.3-0.6-1.3-1.3s0.6-1.3,1.3-1.3c0.3,0,0.6,0.1,0.9,0.3c1.8,0.6,3.8,0,5.9-1
					C40,10.6,39.8,9.8,39.8,9c0-0.7,0.1-1.3,0.4-1.9c3.1-0.6,6.4-0.9,10-0.9c9.4,0.1,16.4,1.9,21,5.4s6.9,8.4,6.9,14.6
					c0,0.8,0,1.5-0.1,1.9H58.8c0-2.6-0.8-4.7-2.5-6.2s-4-2.3-7-2.3c-2.5,0-4.6,0.7-6.2,2c-1.7,1.4-2.5,2.9-2.5,4.6
					c0,3.6,3.8,6.2,11.5,7.9c5.3,1.2,9.2,2.1,11.8,2.8c2.6,0.7,5.2,1.8,7.7,3.2s4.6,3.4,6.2,5.9s2.5,5.8,2.7,9.8
					c0,5.1-1.4,9.3-4.1,12.7c-2.8,3.4-6.5,6-11.1,7.7c-0.6,0.2-1.3,0.4-1.9,0.6c-0.2,0-0.4,0.1-0.7,0.1L62.6,77
					c-3.9,1.1-8.2,1.6-12.8,1.6c-4.7,0-8.9-0.4-12.5-1.2c0.1-2.2,1.9-4,4.2-4h0.1c0.2-0.8,0.8-1.4,1.6-1.7c-1.5-0.3-3-0.3-3.5,0.1
					l-0.1,0.1l0,0c-0.4,0.3-0.8,0.4-1.3,0.4s-1-0.2-1.4-0.5c-0.8-0.4-1.5-0.6-2.4-0.2c-0.3,0.2-0.6,0.3-0.9,0.3
					c-0.4,0-0.8-0.2-1.1-0.4l0,0l0,0l0,0l0,0c-1.1-1-1.8-0.8-2.9-0.5l0,0c-0.2,0.2-0.5,0.3-0.8,0.3c-0.6,0-1.1-0.5-1.1-1.1
					s0.5-1.1,1.1-1.1c0.3,0,0.6,0.1,0.8,0.3c1.1,0.7,2.1,0.1,3-0.5l0,0c0.3-0.2,0.6-0.4,1-0.4s0.7,0.1,1,0.3l0,0
					c0.9,0.6,1.8,0.1,2.5-0.4l0,0l0,0h0.1l0,0c0.3-0.2,0.8-0.4,1.2-0.4c0.5,0,0.9,0.1,1.2,0.4l0,0l0.1,0.1c0.5,0.3,1.4,0.3,2.5,0.2
					c-0.2-0.2-0.5-0.3-0.7-0.5l0,0l0,0c-0.2-0.1-0.3-0.3-0.5-0.5c-1.4-1.2-2.8-1.8-4.3-1.7c-0.7,0.8-1.6,1.2-2.7,1.2
					c-2,0-3.6-1.6-3.6-3.6c0-1,0.4-1.9,1-2.5c-0.5,0.3-1.2,0.5-1.8,0.5c-1.3,0-2.4-0.7-3-1.8l0,0c-1.2-1.1-3.1-1.1-5.2-0.8
					c-0.2,0.2-0.5,0.4-0.8,0.4c-0.6,0-1.1-0.5-1.1-1c0-0.6,0.5-1,1.1-1c0.3,0,0.5,0.1,0.7,0.3c2.6,0.4,4.2,0,5.3-0.8V57
					c0.5-1,1.7-1.8,3-1.8c1.2,0,2.2,0.6,2.8,1.4c1,0.2,2.1-0.2,3-0.9C35.5,55.8,35.8,55.5,36.2,55.2z"/>
			</defs>
			<clipPath id="SVGID_28_">
				<use xlink:href="#SVGID_27_"  style="overflow:visible;"/>
			</clipPath>
			<path class="st13" d="M42.4,49.1c0.5,0,0.9,0.2,1.3,0.5c2.9,1,6.3-0.3,9.8-2.1v0.3c1-1.4,2.7-2.3,4.5-2.3c1.6,0,3,0.7,4.1,1.7
				c2.4,1,4.5,0.4,6.5-0.9c1.3-1.4,3.1-2.2,5.1-2.2c1.9,0,3.7,0.8,4.9,2l0,0c2.3,1.4,4.5,1.1,6.8-0.3l0,0c1.4-1.4,3.4-2.3,5.5-2.3
				c4.3,0,7.7,3.5,7.7,7.7s-3.5,7.7-7.7,7.7c-2.2,0-4.1-0.9-5.5-2.3v0.2c-2.2-1.7-4.4-1.9-6.8-0.5c-1.3,1.2-3,2-4.9,2
				c-1.8,0-3.5-0.7-4.7-1.8c-2.3-1.7-4.5-2.2-6.6-1.6c-1,1.2-2.6,2-4.3,2c-1.9,0-3.5-0.9-4.5-2.3l0,0c-3-1.7-6.1-3-9.8-1.8v-0.1
				c-0.3,0.3-0.8,0.5-1.3,0.5c-1.1,0-1.9-0.9-1.9-1.9S41.4,49.1,42.4,49.1"/>
		</g>
		<g>
			<defs>
				<path id="SVGID_29_" d="M23.6,64c0.6,0.2,1.4,0.1,2.6-0.6c0.3-0.3,0.7-0.5,1.1-0.5c0.8,0,1.5,0.7,1.5,1.5c0,0.8-0.7,1.5-1.5,1.5
					c-0.4,0-0.8-0.2-1.1-0.4c-0.9-0.6-1.8-0.8-2.7-0.5c-0.1,0.1-0.3,0.2-0.5,0.2c-0.4,0-0.7-0.3-0.7-0.7c0-0.4,0.3-0.7,0.7-0.7
					C23.3,63.8,23.5,63.9,23.6,64 M31.9,60.9c0.1-0.1,0.3-0.2,0.4-0.2c-0.1,0-0.2,0-0.2,0l0,0C32,60.8,32,60.9,31.9,60.9z
					 M26.9,17.8c0.7,0.3,1.6,0.1,2.9-0.6c0.3-0.3,0.7-0.5,1.2-0.5c0.9,0,1.7,0.7,1.7,1.7c0,0.9-0.7,1.7-1.7,1.7
					c-0.5,0-0.9-0.2-1.2-0.5c-1-0.6-2-0.9-3-0.6c-0.1,0.1-0.3,0.2-0.6,0.2c-0.4,0-0.8-0.4-0.8-0.8s0.4-0.8,0.8-0.8
					C26.6,17.5,26.8,17.7,26.9,17.8z M41.1,15.5L41.1,15.5L41.1,15.5L41.1,15.5L41.1,15.5z M36.2,55.2h2.2c0,2.5,0.8,4.7,2.3,6.6
					c1.6,1.9,4.3,3,8.1,3.3c3.4,0,6.1-0.6,8.2-1.9c0.7-0.4,1.2-0.9,1.7-1.4l0,0l0,0c0.9-1,1.4-2.2,1.4-3.6c0-1.6-0.5-2.9-1.4-4
					s-2.1-1.9-3.5-2.5s-2.9-1.1-4.5-1.6c-1.6-0.4-3.2-0.8-4.6-1.2c-5.3-1.2-9.6-2.4-12.9-3.6c0-0.1,0-0.2,0-0.3c0-1.7,1.2-3,2.7-3.4
					c0,0,0-0.1-0.1-0.1l0,0c-2.7-1.5-5.5-2.7-8.7-1.6v-0.1c-0.3,0.3-0.7,0.4-1.1,0.4c-1,0-1.7-0.8-1.7-1.7s0.8-1.7,1.7-1.7
					c0.4,0,0.8,0.2,1.1,0.4c2.1,0.7,4.5,0.1,7-1l0,0c-1.1,0-2.1-0.4-2.8-1.2l0,0c-2.5-1.4-4.7-1.5-6.7-0.9l0,0
					c-0.2,0.1-0.5,0.1-0.8,0.1c-1.2,0-2.2-1-2.2-2.2s1-2.2,2.2-2.2c0.3,0,0.5,0,0.8,0.1c2.3,0.8,4.5,0.9,6.4-0.5
					c0.7-0.8,1.6-1.4,2.7-1.5c-1.1-0.3-2.2-0.3-3.3,0.2l0,0c-0.6,0.5-1.4,0.8-2.3,0.8c-2.1,0-3.7-1.7-3.7-3.7c0-2.1,1.7-3.7,3.7-3.7
					c0.8,0,1.6,0.3,2.2,0.7c2.4,1.1,4.4,0.4,6.3-0.9c-1.2-0.6-2.1-1.9-2.1-3.4c0-2,1.6-3.7,3.6-3.8C37,14,35.8,14,34.5,14.4l0,0
					c-0.2,0.2-0.5,0.3-0.9,0.3c-0.7,0-1.3-0.6-1.3-1.3s0.6-1.3,1.3-1.3c0.3,0,0.6,0.1,0.9,0.3c1.8,0.6,3.8,0,5.9-1
					C40,10.6,39.8,9.8,39.8,9c0-0.7,0.1-1.3,0.4-1.9c3.1-0.6,6.4-0.9,10-0.9c9.4,0.1,16.4,1.9,21,5.4s6.9,8.4,6.9,14.6
					c0,0.8,0,1.5-0.1,1.9H58.8c0-2.6-0.8-4.7-2.5-6.2s-4-2.3-7-2.3c-2.5,0-4.6,0.7-6.2,2c-1.7,1.4-2.5,2.9-2.5,4.6
					c0,3.6,3.8,6.2,11.5,7.9c5.3,1.2,9.2,2.1,11.8,2.8c2.6,0.7,5.2,1.8,7.7,3.2s4.6,3.4,6.2,5.9s2.5,5.8,2.7,9.8
					c0,5.1-1.4,9.3-4.1,12.7c-2.8,3.4-6.5,6-11.1,7.7c-0.6,0.2-1.3,0.4-1.9,0.6c-0.2,0-0.4,0.1-0.7,0.1L62.6,77
					c-3.9,1.1-8.2,1.6-12.8,1.6c-4.7,0-8.9-0.4-12.5-1.2c0.1-2.2,1.9-4,4.2-4h0.1c0.2-0.8,0.8-1.4,1.6-1.7c-1.5-0.3-3-0.3-3.5,0.1
					l-0.1,0.1l0,0c-0.4,0.3-0.8,0.4-1.3,0.4s-1-0.2-1.4-0.5c-0.8-0.4-1.5-0.6-2.4-0.2c-0.3,0.2-0.6,0.3-0.9,0.3
					c-0.4,0-0.8-0.2-1.1-0.4l0,0l0,0l0,0l0,0c-1.1-1-1.8-0.8-2.9-0.5l0,0c-0.2,0.2-0.5,0.3-0.8,0.3c-0.6,0-1.1-0.5-1.1-1.1
					s0.5-1.1,1.1-1.1c0.3,0,0.6,0.1,0.8,0.3c1.1,0.7,2.1,0.1,3-0.5l0,0c0.3-0.2,0.6-0.4,1-0.4s0.7,0.1,1,0.3l0,0
					c0.9,0.6,1.8,0.1,2.5-0.4l0,0l0,0h0.1l0,0c0.3-0.2,0.8-0.4,1.2-0.4c0.5,0,0.9,0.1,1.2,0.4l0,0l0.1,0.1c0.5,0.3,1.4,0.3,2.5,0.2
					c-0.2-0.2-0.5-0.3-0.7-0.5l0,0l0,0c-0.2-0.1-0.3-0.3-0.5-0.5c-1.4-1.2-2.8-1.8-4.3-1.7c-0.7,0.8-1.6,1.2-2.7,1.2
					c-2,0-3.6-1.6-3.6-3.6c0-1,0.4-1.9,1-2.5c-0.5,0.3-1.2,0.5-1.8,0.5c-1.3,0-2.4-0.7-3-1.8l0,0c-1.2-1.1-3.1-1.1-5.2-0.8
					c-0.2,0.2-0.5,0.4-0.8,0.4c-0.6,0-1.1-0.5-1.1-1c0-0.6,0.5-1,1.1-1c0.3,0,0.5,0.1,0.7,0.3c2.6,0.4,4.2,0,5.3-0.8V57
					c0.5-1,1.7-1.8,3-1.8c1.2,0,2.2,0.6,2.8,1.4c1,0.2,2.1-0.2,3-0.9C35.5,55.8,35.8,55.5,36.2,55.2z"/>
			</defs>
			<clipPath id="SVGID_30_">
				<use xlink:href="#SVGID_29_"  style="overflow:visible;"/>
			</clipPath>
			<path class="st14" d="M62.6,71.2L62.6,71.2c-0.6-0.5-1.4-0.7-2.3-0.7c-1,0-1.9,0.4-2.6,1c-4.8,1.4-8.3,2.3-12.4,1l0,0
				c-0.4-0.4-0.9-0.6-1.5-0.6c-1.3,0-2.3,1-2.3,2.3s1,2.3,2.3,2.3c0.5,0,1.1-0.2,1.4-0.5c4.9-1.8,8-0.5,12.5,1c0.7,0.6,1.6,1,2.6,1
				c0.9,0,1.7-0.3,2.4-0.8c3.1-0.7,6.2-0.5,8.8,1l0,0c0.8,0.5,1.7,0.8,2.6,0.8c2.6,0,4.7-2.1,4.7-4.7s-2.1-4.7-4.7-4.7
				c-0.9,0-1.8,0.3-2.6,0.8l0,0C68.6,71.5,65.3,71.8,62.6,71.2"/>
		</g>
		<g>
			<defs>
				<path id="SVGID_31_" d="M23.6,64c0.6,0.2,1.4,0.1,2.6-0.6c0.3-0.3,0.7-0.5,1.1-0.5c0.8,0,1.5,0.7,1.5,1.5c0,0.8-0.7,1.5-1.5,1.5
					c-0.4,0-0.8-0.2-1.1-0.4c-0.9-0.6-1.8-0.8-2.7-0.5c-0.1,0.1-0.3,0.2-0.5,0.2c-0.4,0-0.7-0.3-0.7-0.7c0-0.4,0.3-0.7,0.7-0.7
					C23.3,63.8,23.5,63.9,23.6,64 M31.9,60.9c0.1-0.1,0.3-0.2,0.4-0.2c-0.1,0-0.2,0-0.2,0l0,0C32,60.8,32,60.9,31.9,60.9z
					 M26.9,17.8c0.7,0.3,1.6,0.1,2.9-0.6c0.3-0.3,0.7-0.5,1.2-0.5c0.9,0,1.7,0.7,1.7,1.7c0,0.9-0.7,1.7-1.7,1.7
					c-0.5,0-0.9-0.2-1.2-0.5c-1-0.6-2-0.9-3-0.6c-0.1,0.1-0.3,0.2-0.6,0.2c-0.4,0-0.8-0.4-0.8-0.8s0.4-0.8,0.8-0.8
					C26.6,17.5,26.8,17.7,26.9,17.8z M41.1,15.5L41.1,15.5L41.1,15.5L41.1,15.5L41.1,15.5z M36.2,55.2h2.2c0,2.5,0.8,4.7,2.3,6.6
					c1.6,1.9,4.3,3,8.1,3.3c3.4,0,6.1-0.6,8.2-1.9c0.7-0.4,1.2-0.9,1.7-1.4l0,0l0,0c0.9-1,1.4-2.2,1.4-3.6c0-1.6-0.5-2.9-1.4-4
					s-2.1-1.9-3.5-2.5s-2.9-1.1-4.5-1.6c-1.6-0.4-3.2-0.8-4.6-1.2c-5.3-1.2-9.6-2.4-12.9-3.6c0-0.1,0-0.2,0-0.3c0-1.7,1.2-3,2.7-3.4
					c0,0,0-0.1-0.1-0.1l0,0c-2.7-1.5-5.5-2.7-8.7-1.6v-0.1c-0.3,0.3-0.7,0.4-1.1,0.4c-1,0-1.7-0.8-1.7-1.7s0.8-1.7,1.7-1.7
					c0.4,0,0.8,0.2,1.1,0.4c2.1,0.7,4.5,0.1,7-1l0,0c-1.1,0-2.1-0.4-2.8-1.2l0,0c-2.5-1.4-4.7-1.5-6.7-0.9l0,0
					c-0.2,0.1-0.5,0.1-0.8,0.1c-1.2,0-2.2-1-2.2-2.2s1-2.2,2.2-2.2c0.3,0,0.5,0,0.8,0.1c2.3,0.8,4.5,0.9,6.4-0.5
					c0.7-0.8,1.6-1.4,2.7-1.5c-1.1-0.3-2.2-0.3-3.3,0.2l0,0c-0.6,0.5-1.4,0.8-2.3,0.8c-2.1,0-3.7-1.7-3.7-3.7c0-2.1,1.7-3.7,3.7-3.7
					c0.8,0,1.6,0.3,2.2,0.7c2.4,1.1,4.4,0.4,6.3-0.9c-1.2-0.6-2.1-1.9-2.1-3.4c0-2,1.6-3.7,3.6-3.8C37,14,35.8,14,34.5,14.4l0,0
					c-0.2,0.2-0.5,0.3-0.9,0.3c-0.7,0-1.3-0.6-1.3-1.3s0.6-1.3,1.3-1.3c0.3,0,0.6,0.1,0.9,0.3c1.8,0.6,3.8,0,5.9-1
					C40,10.6,39.8,9.8,39.8,9c0-0.7,0.1-1.3,0.4-1.9c3.1-0.6,6.4-0.9,10-0.9c9.4,0.1,16.4,1.9,21,5.4s6.9,8.4,6.9,14.6
					c0,0.8,0,1.5-0.1,1.9H58.8c0-2.6-0.8-4.7-2.5-6.2s-4-2.3-7-2.3c-2.5,0-4.6,0.7-6.2,2c-1.7,1.4-2.5,2.9-2.5,4.6
					c0,3.6,3.8,6.2,11.5,7.9c5.3,1.2,9.2,2.1,11.8,2.8c2.6,0.7,5.2,1.8,7.7,3.2s4.6,3.4,6.2,5.9s2.5,5.8,2.7,9.8
					c0,5.1-1.4,9.3-4.1,12.7c-2.8,3.4-6.5,6-11.1,7.7c-0.6,0.2-1.3,0.4-1.9,0.6c-0.2,0-0.4,0.1-0.7,0.1L62.6,77
					c-3.9,1.1-8.2,1.6-12.8,1.6c-4.7,0-8.9-0.4-12.5-1.2c0.1-2.2,1.9-4,4.2-4h0.1c0.2-0.8,0.8-1.4,1.6-1.7c-1.5-0.3-3-0.3-3.5,0.1
					l-0.1,0.1l0,0c-0.4,0.3-0.8,0.4-1.3,0.4s-1-0.2-1.4-0.5c-0.8-0.4-1.5-0.6-2.4-0.2c-0.3,0.2-0.6,0.3-0.9,0.3
					c-0.4,0-0.8-0.2-1.1-0.4l0,0l0,0l0,0l0,0c-1.1-1-1.8-0.8-2.9-0.5l0,0c-0.2,0.2-0.5,0.3-0.8,0.3c-0.6,0-1.1-0.5-1.1-1.1
					s0.5-1.1,1.1-1.1c0.3,0,0.6,0.1,0.8,0.3c1.1,0.7,2.1,0.1,3-0.5l0,0c0.3-0.2,0.6-0.4,1-0.4s0.7,0.1,1,0.3l0,0
					c0.9,0.6,1.8,0.1,2.5-0.4l0,0l0,0h0.1l0,0c0.3-0.2,0.8-0.4,1.2-0.4c0.5,0,0.9,0.1,1.2,0.4l0,0l0.1,0.1c0.5,0.3,1.4,0.3,2.5,0.2
					c-0.2-0.2-0.5-0.3-0.7-0.5l0,0l0,0c-0.2-0.1-0.3-0.3-0.5-0.5c-1.4-1.2-2.8-1.8-4.3-1.7c-0.7,0.8-1.6,1.2-2.7,1.2
					c-2,0-3.6-1.6-3.6-3.6c0-1,0.4-1.9,1-2.5c-0.5,0.3-1.2,0.5-1.8,0.5c-1.3,0-2.4-0.7-3-1.8l0,0c-1.2-1.1-3.1-1.1-5.2-0.8
					c-0.2,0.2-0.5,0.4-0.8,0.4c-0.6,0-1.1-0.5-1.1-1c0-0.6,0.5-1,1.1-1c0.3,0,0.5,0.1,0.7,0.3c2.6,0.4,4.2,0,5.3-0.8V57
					c0.5-1,1.7-1.8,3-1.8c1.2,0,2.2,0.6,2.8,1.4c1,0.2,2.1-0.2,3-0.9C35.5,55.8,35.8,55.5,36.2,55.2z"/>
			</defs>
			<clipPath id="SVGID_32_">
				<use xlink:href="#SVGID_31_"  style="overflow:visible;"/>
			</clipPath>
			<path class="st15" d="M26.9,17.8c0.7,0.3,1.6,0.1,2.9-0.6c0.3-0.3,0.7-0.5,1.2-0.5c0.9,0,1.7,0.7,1.7,1.7S32,20,31.1,20
				c-0.5,0-0.9-0.2-1.2-0.5c-1-0.6-2-0.9-3-0.6c-0.1,0.1-0.3,0.2-0.6,0.2c-0.4,0-0.8-0.4-0.8-0.8s0.4-0.8,0.8-0.8
				C26.6,17.5,26.8,17.7,26.9,17.8"/>
		</g>
		<g>
			<defs>
				<path id="SVGID_33_" d="M23.6,64c0.6,0.2,1.4,0.1,2.6-0.6c0.3-0.3,0.7-0.5,1.1-0.5c0.8,0,1.5,0.7,1.5,1.5c0,0.8-0.7,1.5-1.5,1.5
					c-0.4,0-0.8-0.2-1.1-0.4c-0.9-0.6-1.8-0.8-2.7-0.5c-0.1,0.1-0.3,0.2-0.5,0.2c-0.4,0-0.7-0.3-0.7-0.7c0-0.4,0.3-0.7,0.7-0.7
					C23.3,63.8,23.5,63.9,23.6,64 M31.9,60.9c0.1-0.1,0.3-0.2,0.4-0.2c-0.1,0-0.2,0-0.2,0l0,0C32,60.8,32,60.9,31.9,60.9z
					 M26.9,17.8c0.7,0.3,1.6,0.1,2.9-0.6c0.3-0.3,0.7-0.5,1.2-0.5c0.9,0,1.7,0.7,1.7,1.7c0,0.9-0.7,1.7-1.7,1.7
					c-0.5,0-0.9-0.2-1.2-0.5c-1-0.6-2-0.9-3-0.6c-0.1,0.1-0.3,0.2-0.6,0.2c-0.4,0-0.8-0.4-0.8-0.8s0.4-0.8,0.8-0.8
					C26.6,17.5,26.8,17.7,26.9,17.8z M41.1,15.5L41.1,15.5L41.1,15.5L41.1,15.5L41.1,15.5z M36.2,55.2h2.2c0,2.5,0.8,4.7,2.3,6.6
					c1.6,1.9,4.3,3,8.1,3.3c3.4,0,6.1-0.6,8.2-1.9c0.7-0.4,1.2-0.9,1.7-1.4l0,0l0,0c0.9-1,1.4-2.2,1.4-3.6c0-1.6-0.5-2.9-1.4-4
					s-2.1-1.9-3.5-2.5s-2.9-1.1-4.5-1.6c-1.6-0.4-3.2-0.8-4.6-1.2c-5.3-1.2-9.6-2.4-12.9-3.6c0-0.1,0-0.2,0-0.3c0-1.7,1.2-3,2.7-3.4
					c0,0,0-0.1-0.1-0.1l0,0c-2.7-1.5-5.5-2.7-8.7-1.6v-0.1c-0.3,0.3-0.7,0.4-1.1,0.4c-1,0-1.7-0.8-1.7-1.7s0.8-1.7,1.7-1.7
					c0.4,0,0.8,0.2,1.1,0.4c2.1,0.7,4.5,0.1,7-1l0,0c-1.1,0-2.1-0.4-2.8-1.2l0,0c-2.5-1.4-4.7-1.5-6.7-0.9l0,0
					c-0.2,0.1-0.5,0.1-0.8,0.1c-1.2,0-2.2-1-2.2-2.2s1-2.2,2.2-2.2c0.3,0,0.5,0,0.8,0.1c2.3,0.8,4.5,0.9,6.4-0.5
					c0.7-0.8,1.6-1.4,2.7-1.5c-1.1-0.3-2.2-0.3-3.3,0.2l0,0c-0.6,0.5-1.4,0.8-2.3,0.8c-2.1,0-3.7-1.7-3.7-3.7c0-2.1,1.7-3.7,3.7-3.7
					c0.8,0,1.6,0.3,2.2,0.7c2.4,1.1,4.4,0.4,6.3-0.9c-1.2-0.6-2.1-1.9-2.1-3.4c0-2,1.6-3.7,3.6-3.8C37,14,35.8,14,34.5,14.4l0,0
					c-0.2,0.2-0.5,0.3-0.9,0.3c-0.7,0-1.3-0.6-1.3-1.3s0.6-1.3,1.3-1.3c0.3,0,0.6,0.1,0.9,0.3c1.8,0.6,3.8,0,5.9-1
					C40,10.6,39.8,9.8,39.8,9c0-0.7,0.1-1.3,0.4-1.9c3.1-0.6,6.4-0.9,10-0.9c9.4,0.1,16.4,1.9,21,5.4s6.9,8.4,6.9,14.6
					c0,0.8,0,1.5-0.1,1.9H58.8c0-2.6-0.8-4.7-2.5-6.2s-4-2.3-7-2.3c-2.5,0-4.6,0.7-6.2,2c-1.7,1.4-2.5,2.9-2.5,4.6
					c0,3.6,3.8,6.2,11.5,7.9c5.3,1.2,9.2,2.1,11.8,2.8c2.6,0.7,5.2,1.8,7.7,3.2s4.6,3.4,6.2,5.9s2.5,5.8,2.7,9.8
					c0,5.1-1.4,9.3-4.1,12.7c-2.8,3.4-6.5,6-11.1,7.7c-0.6,0.2-1.3,0.4-1.9,0.6c-0.2,0-0.4,0.1-0.7,0.1L62.6,77
					c-3.9,1.1-8.2,1.6-12.8,1.6c-4.7,0-8.9-0.4-12.5-1.2c0.1-2.2,1.9-4,4.2-4h0.1c0.2-0.8,0.8-1.4,1.6-1.7c-1.5-0.3-3-0.3-3.5,0.1
					l-0.1,0.1l0,0c-0.4,0.3-0.8,0.4-1.3,0.4s-1-0.2-1.4-0.5c-0.8-0.4-1.5-0.6-2.4-0.2c-0.3,0.2-0.6,0.3-0.9,0.3
					c-0.4,0-0.8-0.2-1.1-0.4l0,0l0,0l0,0l0,0c-1.1-1-1.8-0.8-2.9-0.5l0,0c-0.2,0.2-0.5,0.3-0.8,0.3c-0.6,0-1.1-0.5-1.1-1.1
					s0.5-1.1,1.1-1.1c0.3,0,0.6,0.1,0.8,0.3c1.1,0.7,2.1,0.1,3-0.5l0,0c0.3-0.2,0.6-0.4,1-0.4s0.7,0.1,1,0.3l0,0
					c0.9,0.6,1.8,0.1,2.5-0.4l0,0l0,0h0.1l0,0c0.3-0.2,0.8-0.4,1.2-0.4c0.5,0,0.9,0.1,1.2,0.4l0,0l0.1,0.1c0.5,0.3,1.4,0.3,2.5,0.2
					c-0.2-0.2-0.5-0.3-0.7-0.5l0,0l0,0c-0.2-0.1-0.3-0.3-0.5-0.5c-1.4-1.2-2.8-1.8-4.3-1.7c-0.7,0.8-1.6,1.2-2.7,1.2
					c-2,0-3.6-1.6-3.6-3.6c0-1,0.4-1.9,1-2.5c-0.5,0.3-1.2,0.5-1.8,0.5c-1.3,0-2.4-0.7-3-1.8l0,0c-1.2-1.1-3.1-1.1-5.2-0.8
					c-0.2,0.2-0.5,0.4-0.8,0.4c-0.6,0-1.1-0.5-1.1-1c0-0.6,0.5-1,1.1-1c0.3,0,0.5,0.1,0.7,0.3c2.6,0.4,4.2,0,5.3-0.8V57
					c0.5-1,1.7-1.8,3-1.8c1.2,0,2.2,0.6,2.8,1.4c1,0.2,2.1-0.2,3-0.9C35.5,55.8,35.8,55.5,36.2,55.2z"/>
			</defs>
			<clipPath id="SVGID_34_">
				<use xlink:href="#SVGID_33_"  style="overflow:visible;"/>
			</clipPath>
			<path class="st16" d="M41.1,15.5c1.9,0.9,4.3-0.1,6.6-2l0,0c1.1-1.1,2.7-1.8,4.4-1.8s3.2,0.7,4.3,1.7c2.5,0.5,5.1-0.3,7.8-1.4
				c1.5-1.4,3.4-2.2,5.6-2.2c4.5,0,8.2,3.7,8.2,8.2s-3.7,8.2-8.2,8.2c-2,0-3.8-0.7-5.2-1.9c-3.4-2.2-5.7-2.6-8.4-1.6l0,0
				c-1.1,1-2.6,1.6-4.2,1.6c-1.7,0-3.2-0.7-4.4-1.8l0,0c-2.4-1.9-4.7-2.4-6.9-1.7l0,0c-0.7,0.6-1.6,1-2.5,1c-2.1,0-3.8-1.7-3.8-3.8
				s1.7-3.8,3.8-3.8C39.4,14.3,40.4,14.8,41.1,15.5L41.1,15.5z"/>
		</g>
		<g>
			<defs>
				<path id="SVGID_35_" d="M23.6,64c0.6,0.2,1.4,0.1,2.6-0.6c0.3-0.3,0.7-0.5,1.1-0.5c0.8,0,1.5,0.7,1.5,1.5c0,0.8-0.7,1.5-1.5,1.5
					c-0.4,0-0.8-0.2-1.1-0.4c-0.9-0.6-1.8-0.8-2.7-0.5c-0.1,0.1-0.3,0.2-0.5,0.2c-0.4,0-0.7-0.3-0.7-0.7c0-0.4,0.3-0.7,0.7-0.7
					C23.3,63.8,23.5,63.9,23.6,64 M31.9,60.9c0.1-0.1,0.3-0.2,0.4-0.2c-0.1,0-0.2,0-0.2,0l0,0C32,60.8,32,60.9,31.9,60.9z
					 M26.9,17.8c0.7,0.3,1.6,0.1,2.9-0.6c0.3-0.3,0.7-0.5,1.2-0.5c0.9,0,1.7,0.7,1.7,1.7c0,0.9-0.7,1.7-1.7,1.7
					c-0.5,0-0.9-0.2-1.2-0.5c-1-0.6-2-0.9-3-0.6c-0.1,0.1-0.3,0.2-0.6,0.2c-0.4,0-0.8-0.4-0.8-0.8s0.4-0.8,0.8-0.8
					C26.6,17.5,26.8,17.7,26.9,17.8z M41.1,15.5L41.1,15.5L41.1,15.5L41.1,15.5L41.1,15.5z M36.2,55.2h2.2c0,2.5,0.8,4.7,2.3,6.6
					c1.6,1.9,4.3,3,8.1,3.3c3.4,0,6.1-0.6,8.2-1.9c0.7-0.4,1.2-0.9,1.7-1.4l0,0l0,0c0.9-1,1.4-2.2,1.4-3.6c0-1.6-0.5-2.9-1.4-4
					s-2.1-1.9-3.5-2.5s-2.9-1.1-4.5-1.6c-1.6-0.4-3.2-0.8-4.6-1.2c-5.3-1.2-9.6-2.4-12.9-3.6c0-0.1,0-0.2,0-0.3c0-1.7,1.2-3,2.7-3.4
					c0,0,0-0.1-0.1-0.1l0,0c-2.7-1.5-5.5-2.7-8.7-1.6v-0.1c-0.3,0.3-0.7,0.4-1.1,0.4c-1,0-1.7-0.8-1.7-1.7s0.8-1.7,1.7-1.7
					c0.4,0,0.8,0.2,1.1,0.4c2.1,0.7,4.5,0.1,7-1l0,0c-1.1,0-2.1-0.4-2.8-1.2l0,0c-2.5-1.4-4.7-1.5-6.7-0.9l0,0
					c-0.2,0.1-0.5,0.1-0.8,0.1c-1.2,0-2.2-1-2.2-2.2s1-2.2,2.2-2.2c0.3,0,0.5,0,0.8,0.1c2.3,0.8,4.5,0.9,6.4-0.5
					c0.7-0.8,1.6-1.4,2.7-1.5c-1.1-0.3-2.2-0.3-3.3,0.2l0,0c-0.6,0.5-1.4,0.8-2.3,0.8c-2.1,0-3.7-1.7-3.7-3.7c0-2.1,1.7-3.7,3.7-3.7
					c0.8,0,1.6,0.3,2.2,0.7c2.4,1.1,4.4,0.4,6.3-0.9c-1.2-0.6-2.1-1.9-2.1-3.4c0-2,1.6-3.7,3.6-3.8C37,14,35.8,14,34.5,14.4l0,0
					c-0.2,0.2-0.5,0.3-0.9,0.3c-0.7,0-1.3-0.6-1.3-1.3s0.6-1.3,1.3-1.3c0.3,0,0.6,0.1,0.9,0.3c1.8,0.6,3.8,0,5.9-1
					C40,10.6,39.8,9.8,39.8,9c0-0.7,0.1-1.3,0.4-1.9c3.1-0.6,6.4-0.9,10-0.9c9.4,0.1,16.4,1.9,21,5.4s6.9,8.4,6.9,14.6
					c0,0.8,0,1.5-0.1,1.9H58.8c0-2.6-0.8-4.7-2.5-6.2s-4-2.3-7-2.3c-2.5,0-4.6,0.7-6.2,2c-1.7,1.4-2.5,2.9-2.5,4.6
					c0,3.6,3.8,6.2,11.5,7.9c5.3,1.2,9.2,2.1,11.8,2.8c2.6,0.7,5.2,1.8,7.7,3.2s4.6,3.4,6.2,5.9s2.5,5.8,2.7,9.8
					c0,5.1-1.4,9.3-4.1,12.7c-2.8,3.4-6.5,6-11.1,7.7c-0.6,0.2-1.3,0.4-1.9,0.6c-0.2,0-0.4,0.1-0.7,0.1L62.6,77
					c-3.9,1.1-8.2,1.6-12.8,1.6c-4.7,0-8.9-0.4-12.5-1.2c0.1-2.2,1.9-4,4.2-4h0.1c0.2-0.8,0.8-1.4,1.6-1.7c-1.5-0.3-3-0.3-3.5,0.1
					l-0.1,0.1l0,0c-0.4,0.3-0.8,0.4-1.3,0.4s-1-0.2-1.4-0.5c-0.8-0.4-1.5-0.6-2.4-0.2c-0.3,0.2-0.6,0.3-0.9,0.3
					c-0.4,0-0.8-0.2-1.1-0.4l0,0l0,0l0,0l0,0c-1.1-1-1.8-0.8-2.9-0.5l0,0c-0.2,0.2-0.5,0.3-0.8,0.3c-0.6,0-1.1-0.5-1.1-1.1
					s0.5-1.1,1.1-1.1c0.3,0,0.6,0.1,0.8,0.3c1.1,0.7,2.1,0.1,3-0.5l0,0c0.3-0.2,0.6-0.4,1-0.4s0.7,0.1,1,0.3l0,0
					c0.9,0.6,1.8,0.1,2.5-0.4l0,0l0,0h0.1l0,0c0.3-0.2,0.8-0.4,1.2-0.4c0.5,0,0.9,0.1,1.2,0.4l0,0l0.1,0.1c0.5,0.3,1.4,0.3,2.5,0.2
					c-0.2-0.2-0.5-0.3-0.7-0.5l0,0l0,0c-0.2-0.1-0.3-0.3-0.5-0.5c-1.4-1.2-2.8-1.8-4.3-1.7c-0.7,0.8-1.6,1.2-2.7,1.2
					c-2,0-3.6-1.6-3.6-3.6c0-1,0.4-1.9,1-2.5c-0.5,0.3-1.2,0.5-1.8,0.5c-1.3,0-2.4-0.7-3-1.8l0,0c-1.2-1.1-3.1-1.1-5.2-0.8
					c-0.2,0.2-0.5,0.4-0.8,0.4c-0.6,0-1.1-0.5-1.1-1c0-0.6,0.5-1,1.1-1c0.3,0,0.5,0.1,0.7,0.3c2.6,0.4,4.2,0,5.3-0.8V57
					c0.5-1,1.7-1.8,3-1.8c1.2,0,2.2,0.6,2.8,1.4c1,0.2,2.1-0.2,3-0.9C35.5,55.8,35.8,55.5,36.2,55.2z"/>
			</defs>
			<clipPath id="SVGID_36_">
				<use xlink:href="#SVGID_35_"  style="overflow:visible;"/>
			</clipPath>
			<path class="st17" d="M26.1,36.9c0.4,0,0.8,0.2,1.1,0.4c2.6,0.9,5.6-0.2,8.7-1.9v0.2c0.9-1.2,2.4-2,4-2c1.4,0,2.7,0.6,3.6,1.5
				c2.1,0.9,4,0.4,5.8-0.8c1.1-1.2,2.8-2,4.6-2c1.7,0,3.3,0.7,4.4,1.8l0,0c2,1.2,4,1,6-0.3l0,0c1.3-1.3,3-2.1,4.9-2.1
				c3.8,0,6.9,3.1,6.9,6.9s-3.1,6.9-6.9,6.9c-1.9,0-3.7-0.8-4.9-2.1v0.1c-1.9-1.5-3.9-1.7-6-0.5c-1.1,1.1-2.7,1.8-4.4,1.8
				c-1.6,0-3.1-0.6-4.2-1.6c-2.1-1.5-4-1.9-5.9-1.4c-0.9,1.1-2.3,1.8-3.8,1.8c-1.7,0-3.1-0.8-4-2l0,0c-2.7-1.5-5.5-2.7-8.7-1.6v-0.1
				c-0.3,0.3-0.7,0.4-1.1,0.4c-1,0-1.7-0.8-1.7-1.7S25.1,36.9,26.1,36.9"/>
		</g>
		<g>
			<defs>
				<path id="SVGID_37_" d="M23.6,64c0.6,0.2,1.4,0.1,2.6-0.6c0.3-0.3,0.7-0.5,1.1-0.5c0.8,0,1.5,0.7,1.5,1.5c0,0.8-0.7,1.5-1.5,1.5
					c-0.4,0-0.8-0.2-1.1-0.4c-0.9-0.6-1.8-0.8-2.7-0.5c-0.1,0.1-0.3,0.2-0.5,0.2c-0.4,0-0.7-0.3-0.7-0.7c0-0.4,0.3-0.7,0.7-0.7
					C23.3,63.8,23.5,63.9,23.6,64 M31.9,60.9c0.1-0.1,0.3-0.2,0.4-0.2c-0.1,0-0.2,0-0.2,0l0,0C32,60.8,32,60.9,31.9,60.9z
					 M26.9,17.8c0.7,0.3,1.6,0.1,2.9-0.6c0.3-0.3,0.7-0.5,1.2-0.5c0.9,0,1.7,0.7,1.7,1.7c0,0.9-0.7,1.7-1.7,1.7
					c-0.5,0-0.9-0.2-1.2-0.5c-1-0.6-2-0.9-3-0.6c-0.1,0.1-0.3,0.2-0.6,0.2c-0.4,0-0.8-0.4-0.8-0.8s0.4-0.8,0.8-0.8
					C26.6,17.5,26.8,17.7,26.9,17.8z M41.1,15.5L41.1,15.5L41.1,15.5L41.1,15.5L41.1,15.5z M36.2,55.2h2.2c0,2.5,0.8,4.7,2.3,6.6
					c1.6,1.9,4.3,3,8.1,3.3c3.4,0,6.1-0.6,8.2-1.9c0.7-0.4,1.2-0.9,1.7-1.4l0,0l0,0c0.9-1,1.4-2.2,1.4-3.6c0-1.6-0.5-2.9-1.4-4
					s-2.1-1.9-3.5-2.5s-2.9-1.1-4.5-1.6c-1.6-0.4-3.2-0.8-4.6-1.2c-5.3-1.2-9.6-2.4-12.9-3.6c0-0.1,0-0.2,0-0.3c0-1.7,1.2-3,2.7-3.4
					c0,0,0-0.1-0.1-0.1l0,0c-2.7-1.5-5.5-2.7-8.7-1.6v-0.1c-0.3,0.3-0.7,0.4-1.1,0.4c-1,0-1.7-0.8-1.7-1.7s0.8-1.7,1.7-1.7
					c0.4,0,0.8,0.2,1.1,0.4c2.1,0.7,4.5,0.1,7-1l0,0c-1.1,0-2.1-0.4-2.8-1.2l0,0c-2.5-1.4-4.7-1.5-6.7-0.9l0,0
					c-0.2,0.1-0.5,0.1-0.8,0.1c-1.2,0-2.2-1-2.2-2.2s1-2.2,2.2-2.2c0.3,0,0.5,0,0.8,0.1c2.3,0.8,4.5,0.9,6.4-0.5
					c0.7-0.8,1.6-1.4,2.7-1.5c-1.1-0.3-2.2-0.3-3.3,0.2l0,0c-0.6,0.5-1.4,0.8-2.3,0.8c-2.1,0-3.7-1.7-3.7-3.7c0-2.1,1.7-3.7,3.7-3.7
					c0.8,0,1.6,0.3,2.2,0.7c2.4,1.1,4.4,0.4,6.3-0.9c-1.2-0.6-2.1-1.9-2.1-3.4c0-2,1.6-3.7,3.6-3.8C37,14,35.8,14,34.5,14.4l0,0
					c-0.2,0.2-0.5,0.3-0.9,0.3c-0.7,0-1.3-0.6-1.3-1.3s0.6-1.3,1.3-1.3c0.3,0,0.6,0.1,0.9,0.3c1.8,0.6,3.8,0,5.9-1
					C40,10.6,39.8,9.8,39.8,9c0-0.7,0.1-1.3,0.4-1.9c3.1-0.6,6.4-0.9,10-0.9c9.4,0.1,16.4,1.9,21,5.4s6.9,8.4,6.9,14.6
					c0,0.8,0,1.5-0.1,1.9H58.8c0-2.6-0.8-4.7-2.5-6.2s-4-2.3-7-2.3c-2.5,0-4.6,0.7-6.2,2c-1.7,1.4-2.5,2.9-2.5,4.6
					c0,3.6,3.8,6.2,11.5,7.9c5.3,1.2,9.2,2.1,11.8,2.8c2.6,0.7,5.2,1.8,7.7,3.2s4.6,3.4,6.2,5.9s2.5,5.8,2.7,9.8
					c0,5.1-1.4,9.3-4.1,12.7c-2.8,3.4-6.5,6-11.1,7.7c-0.6,0.2-1.3,0.4-1.9,0.6c-0.2,0-0.4,0.1-0.7,0.1L62.6,77
					c-3.9,1.1-8.2,1.6-12.8,1.6c-4.7,0-8.9-0.4-12.5-1.2c0.1-2.2,1.9-4,4.2-4h0.1c0.2-0.8,0.8-1.4,1.6-1.7c-1.5-0.3-3-0.3-3.5,0.1
					l-0.1,0.1l0,0c-0.4,0.3-0.8,0.4-1.3,0.4s-1-0.2-1.4-0.5c-0.8-0.4-1.5-0.6-2.4-0.2c-0.3,0.2-0.6,0.3-0.9,0.3
					c-0.4,0-0.8-0.2-1.1-0.4l0,0l0,0l0,0l0,0c-1.1-1-1.8-0.8-2.9-0.5l0,0c-0.2,0.2-0.5,0.3-0.8,0.3c-0.6,0-1.1-0.5-1.1-1.1
					s0.5-1.1,1.1-1.1c0.3,0,0.6,0.1,0.8,0.3c1.1,0.7,2.1,0.1,3-0.5l0,0c0.3-0.2,0.6-0.4,1-0.4s0.7,0.1,1,0.3l0,0
					c0.9,0.6,1.8,0.1,2.5-0.4l0,0l0,0h0.1l0,0c0.3-0.2,0.8-0.4,1.2-0.4c0.5,0,0.9,0.1,1.2,0.4l0,0l0.1,0.1c0.5,0.3,1.4,0.3,2.5,0.2
					c-0.2-0.2-0.5-0.3-0.7-0.5l0,0l0,0c-0.2-0.1-0.3-0.3-0.5-0.5c-1.4-1.2-2.8-1.8-4.3-1.7c-0.7,0.8-1.6,1.2-2.7,1.2
					c-2,0-3.6-1.6-3.6-3.6c0-1,0.4-1.9,1-2.5c-0.5,0.3-1.2,0.5-1.8,0.5c-1.3,0-2.4-0.7-3-1.8l0,0c-1.2-1.1-3.1-1.1-5.2-0.8
					c-0.2,0.2-0.5,0.4-0.8,0.4c-0.6,0-1.1-0.5-1.1-1c0-0.6,0.5-1,1.1-1c0.3,0,0.5,0.1,0.7,0.3c2.6,0.4,4.2,0,5.3-0.8V57
					c0.5-1,1.7-1.8,3-1.8c1.2,0,2.2,0.6,2.8,1.4c1,0.2,2.1-0.2,3-0.9C35.5,55.8,35.8,55.5,36.2,55.2z"/>
			</defs>
			<clipPath id="SVGID_38_">
				<use xlink:href="#SVGID_37_"  style="overflow:visible;"/>
			</clipPath>
			<path class="st18" d="M77.7,50.1c4.4,0,7.9,3.6,7.9,7.9s-3.5,8-7.9,8c-2.2,0-4.3-0.9-5.7-2.4l0,0c-1.7-1.3-3.4-2.7-5.4-2l0,0
				c-1,1.1-2.4,1.8-4,1.8c-1.7,0-3.3-0.8-4.3-2.1l0,0c-1.7-1.5-3.2-1.8-4.6-1.1c-0.6,0.8-1.6,1.3-2.6,1.3c-1.8,0-3.3-1.5-3.3-3.3
				s1.5-3.3,3.3-3.3c1.2,0,2.2,0.6,2.8,1.5c1.4,0.3,2.9-0.3,4.3-1.2l0,0c1-1.4,2.6-2.3,4.4-2.3c1.5,0,2.8,0.6,3.8,1.6l0,0
				c2.4,0.1,4.1-0.3,5.8-1.9l0,0C73.6,51,75.6,50.1,77.7,50.1"/>
		</g>
	</g>
	<path class="st19" d="M22.4,8.7c0.1,0,0.2,0,0.3,0.1c0.8,0.3,1.7-0.1,2.6-0.6v0.1c0.3-0.4,0.7-0.6,1.2-0.6c0.4,0,0.8,0.2,1.1,0.5
		c0.6,0.3,1.2,0.1,1.7-0.2c0.3-0.4,0.8-0.6,1.4-0.6c0.5,0,1,0.2,1.3,0.5l0,0c0.6,0.4,1.2,0.3,1.8-0.1l0,0c0.4-0.4,0.9-0.6,1.5-0.6
		c1.1,0,2.1,0.9,2.1,2.1s-0.9,2.1-2.1,2.1c-0.6,0-1.1-0.2-1.5-0.6l0,0c-0.6-0.5-1.2-0.5-1.8-0.1c-0.3,0.3-0.8,0.5-1.3,0.5
		s-0.9-0.2-1.3-0.5c-0.6-0.4-1.2-0.6-1.8-0.4c-0.3,0.3-0.7,0.5-1.1,0.5c-0.5,0-0.9-0.2-1.2-0.6l0,0c-0.8-0.4-1.6-0.8-2.6-0.5l0,0
		c-0.1,0.1-0.2,0.1-0.3,0.1c-0.3,0-0.5-0.2-0.5-0.5C21.9,8.9,22.2,8.7,22.4,8.7"/>
	<path class="st20" d="M18.4,21.8c1.9,0,3.5,1.5,3.5,3.5s-1.5,3.5-3.5,3.5c-1,0-1.9-0.4-2.5-1.1l0,0c-0.8-0.6-1.5-1.2-2.4-0.9l0,0
		c-0.4,0.5-1.1,0.8-1.7,0.8c-0.8,0-1.4-0.4-1.9-0.9c-0.7-0.7-1.4-0.8-2-0.5c-0.3,0.3-0.7,0.5-1.1,0.5c-0.8,0-1.5-0.7-1.5-1.5
		s0.7-1.5,1.5-1.5c0.5,0,1,0.3,1.2,0.7c0.6,0.1,1.2-0.1,1.9-0.5l0,0c0.4-0.6,1.1-1,1.9-1c0.7,0,1.2,0.3,1.7,0.7l0,0
		c1.1,0.1,1.8-0.1,2.5-0.8l0,0C16.6,22.2,17.5,21.8,18.4,21.8"/>
	<path class="st21" d="M22.8,76.8c1.1-0.2,2.1-0.2,2.8,0.4l0,0c0.3,0.6,0.9,0.9,1.6,0.9c0.6,0,1.1-0.3,1.4-0.7l0,0
		c0.7-0.1,1.2,0,1.6,0.3c0.2,0.2,0.4,0.5,0.6,0.6l0,0c0.4,0.3,1,0.5,1.5,0.5c1.4,0,2.6-1.1,2.6-2.5s-1.2-2.5-2.6-2.5
		c-0.9,0-1.7,0.4-2.1,1.1c-0.5,0.4-1.1,0.6-1.6,0.5c-0.3-0.4-0.9-0.7-1.5-0.7c-0.7,0-1.3,0.4-1.6,0.9v-0.1C25,76,24.2,76.2,22.8,76
		c-0.1-0.1-0.2-0.1-0.4-0.1c-0.3,0-0.6,0.2-0.6,0.5s0.3,0.5,0.6,0.5C22.6,77,22.7,76.9,22.8,76.8"/>
	<path class="st22" d="M18.1,38.1c0.5,0.2,1.2,0.1,2.2-0.5c0.2-0.2,0.6-0.4,0.9-0.4c0.7,0,1.3,0.6,1.3,1.3s-0.6,1.3-1.3,1.3
		c-0.4,0-0.7-0.1-0.9-0.4c-0.8-0.5-1.6-0.7-2.3-0.4c-0.1,0.1-0.3,0.2-0.4,0.2c-0.3,0-0.6-0.3-0.6-0.6s0.3-0.6,0.6-0.6
		C17.8,37.9,18,38,18.1,38.1"/>
	<path class="st23" d="M101.6,16c0-0.1,0-0.2-0.1-0.5c0-0.2,0-0.4-0.1-0.5c0,0.2-0.1,0.3-0.1,0.5s-0.1,0.3-0.2,0.5l-1.9,3.9l-1.9-4
		c-0.1-0.2-0.1-0.3-0.2-0.5C97,15.3,97,15.1,97,15c0,0.2,0,0.3,0,0.5s-0.1,0.3-0.1,0.5L96,19.6h-1.1l1.7-7.6l2.1,4.6
		c0,0.1,0.1,0.2,0.2,0.4c0.1,0.2,0.1,0.4,0.2,0.6c0.1-0.2,0.2-0.5,0.3-0.8c0-0.1,0.1-0.2,0.1-0.2l2.1-4.6l1.8,7.6h-1.1L101.6,16z"/>
	<path class="st23" d="M111.9,15.9c0,0.5-0.1,1-0.3,1.5c-0.2,0.5-0.5,0.9-0.8,1.2c-0.4,0.4-0.8,0.6-1.3,0.8c-0.5,0.2-1,0.3-1.5,0.3
		s-1-0.1-1.5-0.3c-0.5-0.2-0.9-0.5-1.3-0.8c-0.4-0.4-0.7-0.8-0.8-1.2c-0.2-0.5-0.3-0.9-0.3-1.5c0-0.5,0.1-1,0.3-1.5s0.5-0.9,0.8-1.2
		c0.4-0.4,0.8-0.6,1.3-0.8s1-0.3,1.5-0.3s1,0.1,1.5,0.3s0.9,0.5,1.3,0.8c0.4,0.4,0.7,0.8,0.8,1.2C111.8,14.9,111.9,15.4,111.9,15.9z
		 M110.6,15.9c0-0.4-0.1-0.7-0.2-1s-0.3-0.6-0.6-0.9c-0.2-0.3-0.5-0.5-0.9-0.6c-0.3-0.1-0.7-0.2-1-0.2s-0.7,0.1-1,0.2
		c-0.3,0.1-0.6,0.3-0.9,0.6s-0.4,0.5-0.6,0.9s-0.2,0.7-0.2,1.1c0,0.4,0.1,0.7,0.2,1s0.3,0.6,0.6,0.9s0.5,0.5,0.9,0.6
		c0.3,0.1,0.7,0.2,1,0.2c0.4,0,0.7-0.1,1-0.2s0.6-0.3,0.9-0.6c0.3-0.3,0.4-0.6,0.6-0.9C110.6,16.6,110.6,16.3,110.6,15.9z"/>
	<path class="st23" d="M112.8,18.1l0.9-0.4c0.1,0.3,0.3,0.6,0.5,0.7c0.2,0.2,0.5,0.3,0.9,0.3s0.6-0.1,0.8-0.3s0.3-0.5,0.3-0.8
		c0-0.4-0.4-0.8-1.1-1.1c-0.1,0-0.2-0.1-0.2-0.1c-0.8-0.4-1.3-0.7-1.6-1.1c-0.3-0.3-0.4-0.7-0.4-1.2c0-0.6,0.2-1.1,0.6-1.4
		c0.4-0.4,0.9-0.6,1.6-0.6c0.5,0,1,0.1,1.3,0.3c0.4,0.2,0.6,0.5,0.7,0.9l-0.9,0.5c-0.1-0.2-0.3-0.4-0.5-0.5s-0.4-0.2-0.6-0.2
		c-0.3,0-0.6,0.1-0.8,0.2S114,13.7,114,14c0,0.4,0.4,0.8,1.2,1.2c0.1,0,0.1,0.1,0.1,0.1c0.7,0.3,1.2,0.7,1.5,1s0.4,0.7,0.4,1.2
		c0,0.7-0.2,1.2-0.7,1.6s-1,0.6-1.8,0.6c-0.6,0-1.1-0.1-1.5-0.4S112.9,18.6,112.8,18.1z"/>
	<path class="st23" d="M121.2,13.3v6.3H120v-6.3h-2v-1h5v1H121.2z"/>
	<path class="st23" d="M125.1,16.3v3.3H124v-7.3h1.6c0.5,0,0.9,0,1.1,0.1c0.3,0.1,0.5,0.2,0.7,0.3c0.2,0.2,0.4,0.4,0.5,0.7
		s0.2,0.6,0.2,0.9c0,0.6-0.1,1-0.4,1.4c-0.3,0.3-0.7,0.5-1.2,0.6l2.5,3.3h-1.3l-2.4-3.3C125.3,16.3,125.1,16.3,125.1,16.3z
		 M125.2,15.4h0.2c0.6,0,1-0.1,1.2-0.2c0.2-0.1,0.3-0.4,0.3-0.8c0-0.4-0.1-0.7-0.3-0.8c-0.2-0.2-0.6-0.2-1.2-0.2h-0.2V15.4z"/>
	<path class="st23" d="M134.5,19.6l-0.8-1.9h-2.9l-0.8,1.9h-1.2l3.5-7.6l3.5,7.6H134.5z M131.2,16.7h2l-0.7-1.7
		c0-0.1-0.1-0.2-0.1-0.4s-0.1-0.3-0.1-0.5c0,0.2-0.1,0.3-0.1,0.4c0,0.1-0.1,0.3-0.1,0.4L131.2,16.7z"/>
	<path class="st23" d="M139.5,19.6v-7.3h1.6c1,0,1.8,0.1,2.2,0.2c0.4,0.1,0.8,0.3,1.1,0.5c0.4,0.3,0.7,0.7,1,1.2s0.3,1.1,0.3,1.7
		c0,0.6-0.1,1.2-0.3,1.7s-0.5,0.9-1,1.2c-0.3,0.2-0.7,0.4-1.1,0.5c-0.4,0.1-1,0.2-1.9,0.2h-0.3L139.5,19.6L139.5,19.6z M140.7,18.5
		h1c0.5,0,1,0,1.2-0.1c0.3-0.1,0.5-0.2,0.7-0.4c0.3-0.2,0.5-0.5,0.6-0.9s0.2-0.8,0.2-1.2s-0.1-0.9-0.2-1.2s-0.3-0.6-0.6-0.9
		c-0.2-0.2-0.5-0.3-0.7-0.4c-0.3-0.1-0.7-0.1-1.3-0.1h-0.4h-0.4v5.2H140.7z"/>
	<path class="st23" d="M147,19.6v-7.3h4.1v1h-2.9v1.8h2.9v1h-2.9v2.3h2.9v1.1H147V19.6z"/>
	<path class="st23" d="M157.8,13.3v6.3h-1.2v-6.3h-1.9v-1h5v1H157.8z"/>
	<path class="st23" d="M160.7,19.6v-7.3h4.1v1h-2.9v1.8h2.9v1h-2.9v2.3h2.9v1.1h-4.1V19.6z"/>
	<path class="st23" d="M170.9,19.6l-0.8-1.9h-2.9l-0.8,1.9h-1.2l3.5-7.6l3.5,7.6H170.9z M167.6,16.7h2l-0.7-1.7
		c0-0.1-0.1-0.2-0.1-0.4s-0.1-0.3-0.1-0.5c0,0.2-0.1,0.3-0.1,0.4c0,0.1-0.1,0.3-0.1,0.4L167.6,16.7z"/>
	<path class="st23" d="M174.6,13.3v6.3h-1.2v-6.3h-1.9v-1h5v1H174.6z"/>
	<path class="st23" d="M178.5,16.3v3.3h-1.1v-7.3h1.6c0.5,0,0.9,0,1.1,0.1c0.3,0.1,0.5,0.2,0.7,0.3c0.2,0.2,0.4,0.4,0.5,0.7
		s0.2,0.6,0.2,0.9c0,0.6-0.1,1-0.4,1.4c-0.3,0.3-0.7,0.5-1.2,0.6l2.5,3.3h-1.3l-2.4-3.3C178.7,16.3,178.5,16.3,178.5,16.3z
		 M178.6,15.4h0.2c0.6,0,1-0.1,1.2-0.2c0.2-0.1,0.3-0.4,0.3-0.8c0-0.4-0.1-0.7-0.3-0.8c-0.2-0.2-0.6-0.2-1.2-0.2h-0.2V15.4z"/>
	<path class="st23" d="M190.6,15.9c0,0.5-0.1,1-0.3,1.5s-0.5,0.9-0.8,1.2c-0.4,0.4-0.8,0.6-1.3,0.8c-0.5,0.2-1,0.3-1.5,0.3
		s-1-0.1-1.5-0.3c-0.5-0.2-0.9-0.5-1.3-0.8c-0.4-0.4-0.7-0.8-0.8-1.2c-0.2-0.5-0.3-0.9-0.3-1.5c0-0.5,0.1-1,0.3-1.5s0.5-0.9,0.8-1.2
		c0.4-0.4,0.8-0.6,1.3-0.8s1-0.3,1.5-0.3s1,0.1,1.5,0.3s0.9,0.5,1.3,0.8c0.4,0.4,0.7,0.8,0.8,1.2C190.5,14.9,190.6,15.4,190.6,15.9z
		 M189.3,15.9c0-0.4-0.1-0.7-0.2-1c-0.1-0.3-0.3-0.6-0.6-0.9c-0.2-0.3-0.5-0.5-0.9-0.6c-0.3-0.1-0.7-0.2-1-0.2s-0.7,0.1-1,0.2
		c-0.3,0.1-0.6,0.3-0.9,0.6c-0.3,0.3-0.4,0.5-0.6,0.9s-0.2,0.7-0.2,1.1c0,0.4,0.1,0.7,0.2,1s0.3,0.6,0.6,0.9s0.5,0.5,0.9,0.6
		c0.3,0.1,0.7,0.2,1,0.2c0.4,0,0.7-0.1,1-0.2s0.6-0.3,0.9-0.6c0.3-0.3,0.4-0.6,0.6-0.9C189.3,16.6,189.3,16.3,189.3,15.9z"/>
	<path class="st23" d="M98,43.7c1,1.1,2,2,3,2.6s2,0.9,2.9,0.9s1.7-0.2,2.2-0.7c0.6-0.5,0.9-1.1,0.9-1.9c0-0.8-0.3-1.5-0.8-1.9
		s-1.6-0.9-3.4-1.4c-2.4-0.7-4.2-1.5-5.2-2.6s-1.5-2.5-1.5-4.3c0-2.4,0.8-4.3,2.4-5.8s3.7-2.3,6.2-2.3c1.4,0,2.7,0.2,3.9,0.6
		c1.2,0.4,2.4,0.9,3.5,1.7l-2.1,4.9c-0.8-0.7-1.6-1.2-2.4-1.5s-1.6-0.5-2.4-0.5s-1.5,0.2-2,0.6c-0.5,0.4-0.8,0.9-0.8,1.5
		s0.2,1.1,0.7,1.5c0.4,0.4,1.3,0.7,2.6,1.1l0.3,0.1c2.8,0.7,4.6,1.6,5.5,2.5c0.6,0.6,1,1.3,1.3,2.2s0.5,1.8,0.5,2.9
		c0,2.6-0.9,4.8-2.6,6.4c-1.7,1.6-4.1,2.4-6.9,2.4c-1.7,0-3.3-0.3-4.7-0.9c-1.4-0.6-2.8-1.5-4.1-2.8L98,43.7z"/>
	<path class="st23" d="M142.8,39.3c0,1.8-0.3,3.5-1,5c-0.7,1.6-1.6,3-2.9,4.2c-1.3,1.2-2.7,2.2-4.4,2.8c-1.6,0.7-3.3,1-5.1,1
		s-3.5-0.3-5.1-1s-3.1-1.6-4.3-2.8c-1.3-1.2-2.3-2.6-2.9-4.2c-0.7-1.6-1-3.3-1-5c0-1.8,0.3-3.5,1-5c0.7-1.6,1.6-3,2.9-4.2
		c1.2-1.2,2.7-2.2,4.3-2.8c1.6-0.7,3.3-1,5.1-1c1.8,0,3.5,0.3,5.1,1s3.1,1.6,4.3,2.8c1.2,1.2,2.2,2.6,2.9,4.2
		C142.4,35.9,142.8,37.5,142.8,39.3z M129.4,46.6c1.9,0,3.4-0.7,4.7-2.1c1.2-1.4,1.8-3.1,1.8-5.2c0-2.1-0.6-3.8-1.9-5.2
		c-1.2-1.4-2.8-2.1-4.6-2.1c-1.9,0-3.4,0.7-4.7,2.1s-1.8,3.1-1.8,5.2c0,2.1,0.6,3.9,1.8,5.3S127.5,46.6,129.4,46.6z"/>
	<path class="st23" d="M147,51.7V26.8h6.8v19.1h8.4v5.8H147z"/>
	<path class="st23" d="M190.6,39.3c0,1.8-0.3,3.5-1,5c-0.7,1.6-1.6,3-2.9,4.2c-1.3,1.2-2.7,2.2-4.4,2.8c-1.6,0.7-3.3,1-5.1,1
		s-3.5-0.3-5.1-1s-3.1-1.6-4.3-2.8c-1.3-1.2-2.3-2.6-2.9-4.2c-0.7-1.6-1-3.3-1-5c0-1.8,0.3-3.5,1-5c0.7-1.6,1.6-3,2.9-4.2
		c1.2-1.2,2.7-2.2,4.3-2.8c1.6-0.7,3.3-1,5.1-1s3.5,0.3,5.1,1s3.1,1.6,4.3,2.8c1.2,1.2,2.2,2.6,2.9,4.2
		C190.2,35.9,190.6,37.5,190.6,39.3z M177.2,46.6c1.9,0,3.4-0.7,4.7-2.1c1.2-1.4,1.8-3.1,1.8-5.2c0-2.1-0.6-3.8-1.9-5.2
		c-1.2-1.4-2.8-2.1-4.6-2.1c-1.9,0-3.4,0.7-4.7,2.1s-1.8,3.1-1.8,5.2c0,2.1,0.6,3.9,1.8,5.3S175.3,46.6,177.2,46.6z"/>
	<path class="st23" d="M94.9,72.8V59.7h3.3c0.9,0,1.6,0.1,2.1,0.2c0.5,0.1,0.8,0.3,1.2,0.5c0.4,0.3,0.7,0.7,0.9,1.2
		c0.2,0.5,0.3,1,0.3,1.6c0,0.7-0.2,1.3-0.5,1.8s-0.8,0.8-1.4,1c0.8,0.1,1.4,0.5,1.8,1c0.4,0.6,0.7,1.3,0.7,2.2c0,0.5-0.1,1-0.3,1.5
		c-0.2,0.5-0.4,0.9-0.8,1.2c-0.4,0.4-0.8,0.6-1.3,0.8c-0.5,0.1-1.4,0.2-2.7,0.2L94.9,72.8L94.9,72.8z M97,65.2h0.8
		c1,0,1.7-0.1,2.2-0.4c0.4-0.3,0.6-0.7,0.6-1.4c0-0.7-0.2-1.2-0.6-1.5s-1.1-0.4-2.2-0.4H97V65.2z M97,71h0.7c0.7,0,1.3,0,1.7-0.1
		c0.4-0.1,0.7-0.2,0.9-0.3c0.3-0.2,0.5-0.4,0.6-0.7c0.1-0.3,0.2-0.6,0.2-1s-0.1-0.8-0.3-1.1c-0.2-0.3-0.4-0.6-0.7-0.7
		c-0.2-0.1-0.4-0.2-0.7-0.2s-0.6-0.1-1-0.1h-0.6H97V71z"/>
	<path class="st23" d="M107.5,66.9v5.9h-2V59.7h3c0.9,0,1.5,0.1,2,0.2c0.5,0.1,0.9,0.3,1.2,0.6c0.4,0.3,0.7,0.7,0.9,1.2
		c0.2,0.5,0.3,1.1,0.3,1.6c0,1.1-0.3,1.9-0.8,2.5c-0.5,0.6-1.3,1-2.2,1.1l4.5,6H112L107.5,66.9L107.5,66.9L107.5,66.9z M107.6,65.3
		h0.4c1.1,0,1.9-0.1,2.2-0.4s0.6-0.7,0.6-1.4c0-0.7-0.2-1.2-0.6-1.5s-1.1-0.4-2.2-0.4h-0.4V65.3z"/>
	<path class="st23" d="M124.4,72.8l-1.5-3.4h-5.2l-1.5,3.4H114l6.4-13.6l6.3,13.6H124.4z M118.5,67.6h3.7l-1.3-3
		c-0.1-0.2-0.2-0.4-0.2-0.7c-0.1-0.2-0.2-0.5-0.3-0.8c-0.1,0.3-0.1,0.6-0.2,0.8s-0.2,0.5-0.2,0.7L118.5,67.6z"/>
	<path class="st23" d="M127.2,70.2l1.7-0.8c0.2,0.6,0.5,1,0.9,1.3s1,0.5,1.6,0.5s1.1-0.2,1.5-0.5c0.4-0.4,0.6-0.8,0.6-1.4
		c0-0.8-0.6-1.5-1.9-2.1c-0.2-0.1-0.3-0.2-0.4-0.2c-1.4-0.7-2.4-1.3-2.9-1.9s-0.7-1.3-0.7-2.1c0-1.1,0.4-1.9,1.1-2.6
		c0.7-0.7,1.7-1,2.9-1c1,0,1.8,0.2,2.4,0.6c0.7,0.4,1.1,0.9,1.4,1.6l-1.7,0.9c-0.3-0.4-0.6-0.7-0.9-0.9c-0.3-0.2-0.7-0.3-1.1-0.3
		c-0.6,0-1,0.1-1.4,0.4c-0.3,0.3-0.5,0.7-0.5,1.2c0,0.8,0.7,1.5,2.2,2.2c0.1,0.1,0.2,0.1,0.3,0.1c1.3,0.6,2.2,1.2,2.7,1.8
		c0.5,0.6,0.7,1.3,0.7,2.1c0,1.2-0.4,2.2-1.2,3c-0.8,0.7-1.8,1.1-3.2,1.1c-1.1,0-2-0.3-2.7-0.8C127.9,71.9,127.4,71.1,127.2,70.2z"
		/>
	<path class="st23" d="M138,72.8V59.7h2.1v13.1H138z"/>
	<path class="st23" d="M143.2,72.8V59.7h2.1v11.2h4.8v1.9H143.2z"/>
	<path class="st23" d="M151.8,72.8V59.7h7.3v1.8H154v3.3h5.2v1.9H154v4.2h5.2v1.9H151.8z"/>
	<path class="st23" d="M161.6,72.8V59.7h2.1v13.1H161.6z"/>
	<path class="st23" d="M168.8,66.9v5.9h-2V59.7h3c0.9,0,1.5,0.1,2,0.2c0.5,0.1,0.9,0.3,1.2,0.6c0.4,0.3,0.7,0.7,0.9,1.2
		s0.3,1.1,0.3,1.6c0,1.1-0.3,1.9-0.8,2.5c-0.5,0.6-1.3,1-2.2,1.1l4.5,6h-2.4l-4.4-5.9L168.8,66.9L168.8,66.9z M169,65.3h0.4
		c1.1,0,1.9-0.1,2.2-0.4s0.6-0.7,0.6-1.4c0-0.7-0.2-1.2-0.6-1.5s-1.1-0.4-2.2-0.4H169V65.3z"/>
	<path class="st23" d="M190.6,66.3c0,0.9-0.2,1.8-0.5,2.6c-0.3,0.8-0.9,1.6-1.5,2.2c-0.7,0.7-1.4,1.1-2.3,1.5
		c-0.8,0.3-1.7,0.5-2.7,0.5c-0.9,0-1.8-0.2-2.7-0.5s-1.6-0.8-2.3-1.5s-1.2-1.4-1.5-2.2c-0.3-0.8-0.5-1.7-0.5-2.7
		c0-0.9,0.2-1.8,0.5-2.7c0.3-0.8,0.9-1.6,1.5-2.2c0.7-0.7,1.4-1.1,2.3-1.5c0.8-0.3,1.7-0.5,2.7-0.5c0.9,0,1.8,0.2,2.7,0.5
		c0.8,0.3,1.6,0.8,2.3,1.5s1.2,1.4,1.5,2.2C190.4,64.5,190.6,65.3,190.6,66.3z M188.3,66.3c0-0.7-0.1-1.3-0.4-1.9
		c-0.2-0.6-0.6-1.1-1-1.6s-1-0.8-1.5-1.1c-0.6-0.2-1.2-0.4-1.8-0.4s-1.3,0.1-1.8,0.4s-1.1,0.6-1.6,1.1s-0.8,1-1,1.6
		s-0.4,1.2-0.4,1.9c0,0.7,0.1,1.3,0.4,1.9c0.2,0.6,0.6,1.1,1,1.6c0.5,0.5,1,0.8,1.5,1.1c0.6,0.2,1.2,0.4,1.8,0.4s1.2-0.1,1.8-0.4
		c0.6-0.2,1.1-0.6,1.6-1.1s0.8-1,1-1.6C188.2,67.6,188.3,66.9,188.3,66.3z"/>
</g>
<path class="st23" d="M251.9,14.7h-42.8c-3.1,0-5.6,2.5-5.6,5.6v44.9c0,3.1,2.5,5.6,5.6,5.6h42.8c3.1,0,5.6-2.5,5.6-5.6V20.3
	C257.5,17.2,255,14.7,251.9,14.7z M250.1,47.1c0,2-2.4,3.1-3.9,1.6l-6.8-6.9l-19.7,20c-1.1,1.1-2.8,1.1-3.8,0l-4.2-4.3
	c-1.1-1.1-1.1-2.8,0-3.9l19.7-20l-6.8-6.9c-1.4-1.4-0.4-3.9,1.6-3.9h21.7c1.2,0,2.3,1,2.3,2.3V47.1z"/>
</svg>
