<?xml version="1.0" encoding="utf-8"?>
<!-- Generator: Adobe Illustrator 25.0.0, SVG Export Plug-In . SVG Version: 6.00 Build 0)  -->
<svg version="1.1" id="Camada_1" xmlns="http://www.w3.org/2000/svg" xmlns:xlink="http://www.w3.org/1999/xlink" x="0px" y="0px"
	 viewBox="0 0 503.3 77.9" style="enable-background:new 0 0 503.3 77.9;" xml:space="preserve">
<style type="text/css">
	.st0{fill:#FFFFFF;}
</style>
<g>
	<path class="st0" d="M184.9,51.7l0.8-10.3c0.2,0,0.5,0,0.8,0c0.3,0,0.6,0,0.8,0l1.7,5.3c0.1,0.2,0.2,0.6,0.4,1.2
		c0.2,0.6,0.2,0.9,0.3,1h0.1c0.1-0.7,0.3-1.4,0.6-2.2l1.7-5.3c0.2,0,0.5,0,0.8,0c0.3,0,0.5,0,0.8,0l0.8,10.3c-0.2,0-0.4,0.1-0.6,0.1
		c-0.2,0-0.4,0-0.5,0l-0.4-6.2c0-0.4-0.1-1.4-0.1-2.8h-0.1l-2.4,7.4c-0.2,0-0.4,0.1-0.6,0.1c-0.2,0-0.3,0-0.5-0.1l-2.4-7.4h-0.1
		c0,0.2,0,0.7-0.1,1.4c0,0.7,0,1.2-0.1,1.4l-0.4,6.2c-0.2,0-0.4,0-0.6,0C185.3,51.8,185.1,51.7,184.9,51.7"/>
	<path class="st0" d="M196.5,51.7V41.4c0.1,0,0.3,0,0.5,0c0.2,0,0.4,0,0.6,0v10.3c-0.2,0-0.4,0-0.6,0
		C196.8,51.7,196.7,51.7,196.5,51.7"/>
	<path class="st0" d="M207.2,41.4L207.2,41.4l0.1,10.3c-0.2,0-0.4,0-0.7,0c-0.3,0-0.5,0-0.7,0l-3.7-6.8c-0.3-0.6-0.6-1.3-1-2.1h0
		c0.1,1.9,0.1,2.9,0.1,3.2v5.6c-0.2,0-0.4,0-0.6,0c-0.2,0-0.3,0-0.5,0V41.4c0.2,0,0.4,0,0.7,0c0.3,0,0.5,0,0.7,0l3.7,6.8
		c0.2,0.4,0.6,1.1,1.1,2.1h0c-0.1-1.3-0.1-2.4-0.1-3.4v-4.8c0-0.3,0-0.5,0.1-0.6c0.1-0.1,0.2-0.2,0.5-0.2H207.2z"/>
	<path class="st0" d="M209.7,51.7V41.4c0.1,0,0.3,0,0.5,0c0.2,0,0.4,0,0.6,0v10.3c-0.2,0-0.4,0-0.6,0
		C210,51.7,209.8,51.7,209.7,51.7"/>
	<path class="st0" d="M212.4,50.7c0-0.4,0.2-0.7,0.5-0.9c1,0.7,2,1,3,1c0.7,0,1.3-0.1,1.7-0.5c0.4-0.3,0.6-0.7,0.6-1.2
		c0-0.8-0.5-1.4-1.6-1.9l-1.8-0.8c-1.4-0.6-2-1.4-2-2.5c0-0.4,0.1-0.7,0.2-1.1c0.2-0.3,0.4-0.6,0.7-0.9c0.3-0.3,0.6-0.4,1-0.6
		c0.4-0.1,0.8-0.2,1.3-0.2c1,0,2,0.2,3,0.7c0,0.4-0.2,0.7-0.5,1c-0.5-0.2-0.9-0.4-1.4-0.5c-0.4-0.1-0.8-0.2-1.1-0.2
		c-0.3,0-0.6,0-0.9,0.1c-0.3,0.1-0.5,0.2-0.7,0.4c-0.2,0.1-0.3,0.3-0.4,0.5c-0.1,0.2-0.2,0.4-0.2,0.6c0,0.4,0.1,0.8,0.4,1
		c0.3,0.2,0.6,0.5,1.1,0.7l1.7,0.7c1.5,0.7,2.2,1.6,2.2,2.7c0,0.9-0.3,1.6-0.9,2.1c-0.6,0.5-1.5,0.8-2.8,0.8
		C214.5,51.9,213.4,51.5,212.4,50.7"/>
	<path class="st0" d="M224.6,42.4l-0.8,0v9.3c-0.2,0-0.3,0-0.6,0c-0.2,0-0.4,0-0.6,0v-9.3l-0.8,0h-1.9c0-0.2,0-0.3,0-0.5
		c0-0.2,0-0.3,0-0.5h6.6c0.1,0.1,0.1,0.3,0.1,0.5c0,0.3-0.2,0.5-0.7,0.5H224.6z"/>
	<path class="st0" d="M228.8,50.1l0,0.6c0.3,0,0.7,0,0.9,0h4.1c0,0.2,0,0.4,0,0.5c-0.1,0.4-0.3,0.5-0.7,0.5h-4.7
		c-0.2,0-0.4-0.1-0.5-0.2c-0.1-0.1-0.2-0.3-0.2-0.6v-9.4l0.1-0.1h5.8c0,0.1,0,0.3,0,0.5c0,0.2,0,0.4-0.1,0.5h-4.8l0,0.9V46l0.9,0
		h3.1c0,0.2,0,0.3,0,0.5c0,0.2,0,0.3,0,0.5h-3.1c-0.4,0-0.7,0-0.9,0V50.1z M229.4,40.1l2.9-1.7c0.3,0.2,0.5,0.5,0.6,1l-3.1,1.3
		C229.5,40.6,229.4,40.4,229.4,40.1z"/>
	<path class="st0" d="M235.7,41.4l3,0c1,0,1.8,0.3,2.4,0.8c0.6,0.5,0.9,1.3,0.9,2.2c0,0.7-0.2,1.3-0.5,1.7c-0.3,0.5-0.8,0.8-1.4,1
		c0.4,0.1,0.7,0.5,1,1.2l0.8,2c0.1,0.3,0.2,0.5,0.3,0.7c0.1,0.2,0.2,0.3,0.3,0.4c-0.2,0.3-0.4,0.4-0.8,0.4c-0.2,0-0.4-0.1-0.5-0.2
		c-0.1-0.1-0.2-0.3-0.3-0.6l-0.9-2.3c-0.2-0.4-0.4-0.8-0.6-1c-0.2-0.2-0.6-0.4-1-0.4h-1.6v4.3c-0.2,0-0.4,0-0.6,0
		c-0.2,0-0.4,0-0.6,0L235.7,41.4L235.7,41.4z M236.7,42.3v4.1c0.2,0,0.5,0,0.8,0c0.3,0,0.7,0,1.1,0c0.4,0,0.8-0.1,1-0.2
		c0.3-0.1,0.5-0.3,0.7-0.4c0.2-0.2,0.3-0.4,0.4-0.6c0.1-0.2,0.1-0.5,0.1-0.8c0-0.3,0-0.5-0.1-0.8c-0.1-0.2-0.2-0.5-0.4-0.6
		c-0.2-0.2-0.4-0.3-0.7-0.4c-0.3-0.1-0.6-0.2-1.1-0.2h-1.1C237.2,42.3,236.9,42.3,236.7,42.3z"/>
	<path class="st0" d="M244,51.7V41.4c0.1,0,0.3,0,0.6,0c0.2,0,0.4,0,0.6,0v10.3c-0.2,0-0.4,0-0.6,0C244.3,51.7,244.1,51.7,244,51.7"
		/>
	<path class="st0" d="M248.5,51c-1.1-0.9-1.6-2.4-1.6-4.4c0-0.8,0.1-1.5,0.3-2.2c0.2-0.7,0.4-1.2,0.8-1.7c0.3-0.5,0.8-0.8,1.3-1.1
		c0.5-0.3,1.1-0.4,1.7-0.4c0.7,0,1.3,0.1,1.8,0.4c0.5,0.3,0.9,0.7,1.3,1.2c0.3,0.5,0.6,1,0.7,1.7c0.2,0.6,0.2,1.3,0.2,2
		c0,0.8-0.1,1.5-0.3,2.2c-0.2,0.7-0.4,1.2-0.8,1.7c-0.3,0.5-0.8,0.8-1.3,1.1c-0.5,0.3-1.1,0.4-1.8,0.4C250,51.9,249.2,51.6,248.5,51
		 M248.3,45c-0.1,0.2-0.1,0.5-0.1,0.7c0,0.3,0,0.5,0,0.8c0,0.5,0,0.9,0.1,1.4c0.1,0.5,0.2,1,0.4,1.4c0.2,0.4,0.5,0.8,0.9,1.1
		c0.4,0.3,0.9,0.4,1.5,0.4c0.4,0,0.8-0.1,1.1-0.2c0.3-0.1,0.6-0.3,0.8-0.6c0.2-0.2,0.4-0.5,0.5-0.8c0.1-0.3,0.2-0.6,0.3-0.9
		c0.1-0.3,0.1-0.7,0.2-1c0-0.3,0-0.6,0-0.9c0-0.4,0-0.9-0.1-1.4c-0.1-0.5-0.2-1-0.4-1.4c-0.2-0.4-0.5-0.8-0.9-1.1
		c-0.4-0.3-0.8-0.4-1.5-0.4c-0.4,0-0.8,0.1-1.2,0.2c-0.3,0.2-0.6,0.4-0.8,0.6c-0.2,0.3-0.4,0.6-0.5,0.9
		C248.4,44.3,248.3,44.7,248.3,45z"/>
	<path class="st0" d="M265.2,51c-0.1,0.1-0.3,0.2-0.5,0.3c-0.2,0.1-0.4,0.2-0.6,0.2c-0.2,0.1-0.5,0.1-0.7,0.2
		c-0.2,0-0.4,0.1-0.6,0.1c-0.2,0-0.5,0-1.1,0c-0.5,0-1.2,0-2.1,0l-0.1-0.1V41.5l0.1-0.1c0.9,0,1.9,0,3.1,0c0.8,0,1.4,0.1,2,0.4
		c0.5,0.3,0.9,0.6,1.3,1.1c0.3,0.5,0.5,1,0.7,1.7c0.1,0.6,0.2,1.3,0.2,2c0,0.5,0,1-0.1,1.4c0,0.4-0.1,0.8-0.2,1.2
		c-0.1,0.4-0.3,0.7-0.5,1C265.7,50.5,265.5,50.7,265.2,51 M260.7,50.8l2,0c0.6,0,1-0.1,1.4-0.3c0.4-0.2,0.7-0.5,0.9-0.9
		c0.2-0.4,0.4-0.8,0.5-1.3c0.1-0.5,0.1-0.9,0.1-1.4c0-0.7,0-1.3-0.1-1.9c-0.1-0.6-0.2-1-0.4-1.5c-0.2-0.4-0.5-0.7-0.9-1
		c-0.4-0.2-0.9-0.3-1.4-0.3l-2,0V50.8z"/>
	<path class="st0" d="M269.5,51c-1.1-0.9-1.6-2.4-1.6-4.4c0-0.8,0.1-1.5,0.3-2.2c0.2-0.7,0.4-1.2,0.8-1.7c0.3-0.5,0.8-0.8,1.3-1.1
		c0.5-0.3,1.1-0.4,1.7-0.4c0.7,0,1.3,0.1,1.8,0.4c0.5,0.3,0.9,0.7,1.3,1.2c0.3,0.5,0.6,1,0.7,1.7c0.2,0.6,0.2,1.3,0.2,2
		c0,0.8-0.1,1.5-0.3,2.2c-0.2,0.7-0.4,1.2-0.8,1.7c-0.3,0.5-0.8,0.8-1.3,1.1c-0.5,0.3-1.1,0.4-1.7,0.4
		C270.9,51.9,270.1,51.6,269.5,51 M269.2,45c0,0.2-0.1,0.5-0.1,0.7c0,0.3,0,0.5,0,0.8c0,0.5,0,0.9,0.1,1.4c0.1,0.5,0.2,1,0.4,1.4
		c0.2,0.4,0.5,0.8,0.9,1.1c0.4,0.3,0.9,0.4,1.5,0.4c0.4,0,0.8-0.1,1.1-0.2c0.3-0.1,0.6-0.3,0.8-0.6c0.2-0.2,0.4-0.5,0.5-0.8
		c0.1-0.3,0.2-0.6,0.3-0.9c0.1-0.3,0.1-0.7,0.2-1c0-0.3,0-0.6,0-0.9c0-0.4,0-0.9-0.1-1.4c-0.1-0.5-0.2-1-0.4-1.4
		c-0.2-0.4-0.5-0.8-0.9-1.1c-0.4-0.3-0.8-0.4-1.5-0.4c-0.4,0-0.8,0.1-1.2,0.2c-0.3,0.2-0.6,0.4-0.8,0.6c-0.2,0.3-0.4,0.6-0.5,0.9
		C269.4,44.3,269.3,44.7,269.2,45z"/>
	<path class="st0" d="M223.1,59.2v7.5c-0.3,0.1-0.6,0.1-1,0.1c-0.4,0-0.7,0-1-0.1v-7.5l0-1.1l-0.9,0h-1.7c-0.1-0.3-0.1-0.5-0.1-0.8
		c0-0.3,0-0.6,0.1-0.8h7.2c0.1,0.2,0.1,0.5,0.1,0.8c0,0.3-0.1,0.5-0.3,0.7c-0.2,0.1-0.4,0.2-0.8,0.2H224l-0.9,0L223.1,59.2z"/>
	<path class="st0" d="M234.3,56.4V63c0,1.3-0.3,2.2-1,2.9c-0.7,0.7-1.7,1-2.9,1c-1.2,0-2.2-0.3-2.9-1c-0.7-0.7-1-1.6-1-2.9v-6.6
		l0.1-0.1h0.8c0.4,0,0.7,0.1,0.9,0.3c0.2,0.2,0.3,0.5,0.3,1V63c0,1.5,0.6,2.3,1.9,2.3c1.3,0,1.9-0.8,1.9-2.3v-6.6
		c0.3-0.1,0.6-0.1,1-0.1C233.6,56.3,234,56.3,234.3,56.4"/>
	<path class="st0" d="M243.1,59.5c0,0.3,0,0.6-0.1,0.9c-0.1,0.3-0.2,0.6-0.4,0.8c-0.2,0.2-0.4,0.4-0.6,0.6c-0.2,0.2-0.5,0.3-0.7,0.4
		c0.3,0.1,0.5,0.2,0.7,0.5c0.2,0.2,0.3,0.5,0.5,0.9l0.6,1.5c0.1,0.3,0.2,0.5,0.3,0.6c0.1,0.2,0.2,0.3,0.4,0.5
		c-0.1,0.2-0.3,0.3-0.6,0.4c-0.2,0.1-0.5,0.2-0.8,0.2c-0.3,0-0.5-0.1-0.7-0.3c-0.2-0.2-0.3-0.5-0.5-0.9l-0.6-1.8
		c-0.1-0.4-0.3-0.6-0.5-0.8c-0.2-0.2-0.5-0.3-0.9-0.3H238v3.9c-0.1,0-0.3,0-0.5,0.1c-0.2,0-0.4,0-0.6,0c-0.4,0-0.7,0-1-0.1V56.5
		l0.1-0.1c0.8,0,1.5,0,2.1,0c0.6,0,1,0,1.4,0c1.1,0,1.9,0.3,2.6,0.8C242.8,57.7,243.1,58.4,243.1,59.5 M238,57.8v3.3
		c0.5,0,1,0,1.4,0c1.1,0,1.6-0.5,1.6-1.6c0-1.1-0.5-1.6-1.6-1.6h-0.8C238.4,57.9,238.2,57.8,238,57.8z"/>
	<path class="st0" d="M244.6,66.7V56.4c0.3-0.1,0.6-0.1,1-0.1c0.4,0,0.8,0,1,0.1v10.3c-0.3,0-0.6,0.1-1,0.1
		C245.2,66.7,244.9,66.7,244.6,66.7"/>
	<path class="st0" d="M247.7,65.7c0-0.3,0.1-0.6,0.3-0.8c0.2-0.3,0.3-0.5,0.5-0.7c1,0.7,2,1,3,1c0.5,0,0.9-0.1,1.1-0.3
		c0.3-0.2,0.4-0.5,0.4-0.9c0-0.6-0.4-1-1.2-1.4l-1.8-0.8c-0.7-0.3-1.2-0.7-1.6-1.1c-0.4-0.5-0.5-1-0.5-1.6c0-0.4,0.1-0.9,0.3-1.2
		c0.2-0.4,0.4-0.7,0.8-1c0.3-0.3,0.7-0.5,1.2-0.6c0.4-0.2,0.9-0.2,1.5-0.2c1.1,0,2.2,0.3,3.2,0.8c0,0.6-0.3,1.1-0.7,1.5
		c-1-0.5-1.9-0.7-2.6-0.7c-0.5,0-0.8,0.1-1.1,0.3c-0.3,0.2-0.4,0.5-0.4,0.8c0,0.5,0.4,0.8,1.1,1.1l1.8,0.8c0.7,0.3,1.3,0.7,1.7,1.2
		c0.4,0.5,0.6,1.1,0.6,1.7c0,0.5-0.1,0.9-0.2,1.3c-0.2,0.4-0.4,0.7-0.7,1c-0.3,0.3-0.7,0.5-1.2,0.6c-0.5,0.2-1.1,0.2-1.7,0.2
		C250,66.9,248.8,66.5,247.7,65.7"/>
	<path class="st0" d="M256.1,66.6l0.8-10.2c0.4-0.1,0.9-0.1,1.3-0.1c0.5,0,0.9,0,1.3,0.1l1.2,4.2c0.3,1.2,0.5,2.1,0.6,2.6h0.1
		c0.1-0.5,0.3-1.3,0.6-2.6l1.1-4.2c0.4-0.1,0.9-0.1,1.3-0.1c0.5,0,0.9,0,1.3,0.1l0.8,10.2c-0.3,0.1-0.6,0.1-1,0.1
		c-0.4,0-0.7,0-0.9-0.1l-0.3-4.8c-0.1-1.2-0.1-2.3-0.1-3.3h-0.1l-1.8,6.5c-0.3,0.1-0.7,0.1-1,0.1c-0.4,0-0.7,0-1-0.1l-1.8-6.5h-0.1
		c0,1.2-0.1,2.3-0.1,3.3l-0.3,4.8c-0.3,0-0.6,0.1-0.9,0.1C256.7,66.7,256.4,66.7,256.1,66.6"/>
	<path class="st0" d="M269.1,65.9c-1.1-0.9-1.6-2.4-1.6-4.4c0-0.9,0.1-1.6,0.3-2.3c0.2-0.7,0.5-1.2,0.9-1.7c0.4-0.5,0.8-0.8,1.4-1
		c0.5-0.2,1.1-0.4,1.8-0.4c0.7,0,1.3,0.1,1.8,0.4c0.5,0.2,1,0.6,1.4,1c0.4,0.5,0.7,1,0.9,1.7c0.2,0.7,0.3,1.4,0.3,2.3
		c0,0.8-0.1,1.6-0.3,2.3c-0.2,0.7-0.5,1.2-0.9,1.7c-0.4,0.5-0.8,0.8-1.4,1c-0.5,0.2-1.1,0.4-1.8,0.4
		C270.8,66.9,269.9,66.6,269.1,65.9 M274.1,61.5c0-2.5-0.7-3.8-2.2-3.8c-1.5,0-2.2,1.3-2.2,3.8c0,2.5,0.7,3.8,2.2,3.8
		C273.4,65.3,274.1,64,274.1,61.5z"/>
	<path class="st0" d="M9.3,50c0.9,0.6,2,1,2.9,1c1.4,0,2.2-0.6,2.2-1.6c0-0.9-0.7-1.5-1.6-1.9l-1.7-0.8c-1.3-0.5-2-1.3-2-2.5
		c0-1.5,1.2-2.7,3.2-2.7c1.1,0,2.2,0.3,2.9,0.7c0,0.3-0.2,0.7-0.5,0.9c-0.8-0.4-1.7-0.7-2.4-0.7c-1.2,0-2.1,0.7-2.1,1.7
		c0,0.8,0.6,1.2,1.4,1.6l1.7,0.7c1.2,0.5,2.2,1.3,2.2,2.7c0,1.6-1.1,2.8-3.5,2.8c-1.2,0-2.5-0.4-3.4-1.1C8.8,50.5,9.1,50.2,9.3,50"
		/>
	<path class="st0" d="M23.9,51.3c-0.1,0.4-0.3,0.5-0.7,0.5h-4.6c-0.4,0-0.6-0.3-0.6-0.7v-9.2l0.1-0.1h5.7c0,0.2,0,0.3,0,0.5
		c0,0.1,0,0.3-0.1,0.5h-3.8c-0.2,0-0.6,0-0.9,0c0,0.4,0,0.5,0,0.9v2.6c0.3,0,0.6,0,0.9,0h3c0,0.2,0,0.4,0,0.5c0,0.1,0,0.3,0,0.5h-3
		c-0.2,0-0.6,0-0.9,0v3.1c0,0.2,0,0.4,0,0.6c0.2,0,0.5,0,0.9,0h4C23.9,50.9,23.9,51.1,23.9,51.3"/>
	<path class="st0" d="M29.3,42.5c-1.7,0-2.7,1.5-2.7,4.3c0,2.6,1,4.2,2.7,4.2c0.9,0,1.8-0.4,2.7-1.2c0.3,0.2,0.5,0.5,0.6,0.7
		c-0.8,0.8-2,1.4-3.5,1.4c-2.7,0-3.7-2.5-3.7-5.1c0-3.6,1.8-5.3,3.9-5.3c2.1,0,3.4,1.4,3.4,2.8c0,0.3-0.1,0.7-0.6,0.7
		c-0.2,0-0.3,0-0.5-0.1C31.7,43.9,31.1,42.5,29.3,42.5"/>
	<path class="st0" d="M39.2,47.3c0.4,0.1,0.8,0.6,1,1.2l0.8,2c0.2,0.4,0.3,0.8,0.6,1c-0.2,0.2-0.5,0.4-0.8,0.4
		c-0.5,0-0.6-0.3-0.8-0.7l-0.9-2.2c-0.3-0.8-0.6-1.4-1.6-1.4H36v4.2c-0.2,0-0.4,0-0.6,0c-0.2,0-0.4,0-0.5,0v-10l0.1-0.1c1,0,2,0,3,0
		c2,0,3.2,1.1,3.2,2.9C41.2,45.9,40.4,46.9,39.2,47.3 M36,46.6c0.6,0,1.4,0,1.9,0c1.6,0,2-1,2-2c0-1-0.4-2-2-2c-0.5,0-1.4,0-1.9,0
		V46.6z"/>
	<path class="st0" d="M49.6,51.3c-0.1,0.4-0.3,0.5-0.7,0.5h-4.6c-0.4,0-0.6-0.3-0.6-0.7v-9.2l0.1-0.1h5.7c0,0.2,0,0.3,0,0.5
		c0,0.1,0,0.3-0.1,0.5h-3.8c-0.2,0-0.6,0-0.9,0c0,0.4,0,0.5,0,0.9v2.6c0.3,0,0.6,0,0.9,0h3c0,0.2,0,0.4,0,0.5c0,0.1,0,0.3,0,0.5h-3
		c-0.2,0-0.6,0-0.9,0v3.1c0,0.2,0,0.4,0,0.6c0.2,0,0.5,0,0.9,0h4C49.6,50.9,49.6,51.1,49.6,51.3"/>
	<path class="st0" d="M53.5,42.7c-0.2,0-0.6,0-0.8,0h-1.9c0-0.2,0-0.3,0-0.5c0-0.1,0-0.3,0-0.5h6.5c0.1,0.1,0.1,0.3,0.1,0.5
		c0,0.4-0.2,0.5-0.7,0.5h-1.2c-0.2,0-0.6,0-0.8,0v9.1c-0.2,0-0.4,0-0.6,0c-0.2,0-0.4,0-0.6,0V42.7z"/>
	<path class="st0" d="M59,49.2l-0.9,2.6c-0.1,0-0.3,0-0.5,0c-0.2,0-0.4,0-0.5-0.1l0,0l3.4-10c0.2,0,0.5,0,0.6,0c0.2,0,0.5,0,0.6,0
		l3.4,10c-0.2,0.1-0.4,0.1-0.7,0.1c-0.4,0-0.5-0.1-0.7-0.6L63,49.2c-0.2,0-0.9,0-1,0h-2C59.9,49.2,59.2,49.2,59,49.2 M59.3,48.2
		c0.2,0,0.8,0,0.9,0h1.7c0.1,0,0.6,0,0.9,0l-0.9-2.8c-0.3-0.9-0.6-1.8-0.8-2.5h-0.1c-0.1,0.6-0.4,1.4-0.5,1.8L59.3,48.2z"/>
	<path class="st0" d="M71.2,47.3c0.4,0.1,0.8,0.6,1,1.2l0.8,2c0.1,0.4,0.3,0.8,0.6,1c-0.2,0.2-0.5,0.4-0.8,0.4
		c-0.5,0-0.6-0.3-0.8-0.7l-0.9-2.2c-0.3-0.8-0.6-1.4-1.6-1.4H68v4.2c-0.2,0-0.4,0-0.6,0c-0.2,0-0.4,0-0.5,0v-10l0.1-0.1c1,0,2,0,3,0
		c2,0,3.2,1.1,3.2,2.9C73.1,45.9,72.4,46.9,71.2,47.3 M68,46.6c0.6,0,1.4,0,1.9,0c1.6,0,2-1,2-2c0-1-0.4-2-2-2c-0.5,0-1.4,0-1.9,0
		V46.6z"/>
	<path class="st0" d="M75.7,41.7c0.1,0,0.4,0,0.5,0c0.2,0,0.4,0,0.6,0v10c-0.2,0-0.4,0-0.6,0c-0.2,0-0.4,0-0.5,0V41.7z"/>
	<path class="st0" d="M80.6,49.2l-0.9,2.6c-0.1,0-0.3,0-0.5,0c-0.2,0-0.4,0-0.5-0.1l0,0l3.4-10c0.2,0,0.5,0,0.6,0c0.2,0,0.5,0,0.6,0
		l3.4,10c-0.2,0.1-0.4,0.1-0.7,0.1c-0.4,0-0.5-0.1-0.7-0.6l-0.7-2.1c-0.2,0-0.9,0-1,0h-2C81.5,49.2,80.8,49.2,80.6,49.2 M80.9,48.2
		c0.2,0,0.8,0,0.9,0h1.7c0.1,0,0.6,0,0.9,0l-0.9-2.8c-0.3-0.9-0.6-1.8-0.8-2.5h-0.1c-0.1,0.6-0.4,1.4-0.5,1.8L80.9,48.2z"/>
	<path class="st0" d="M97.8,51.3c-0.1,0.4-0.3,0.5-0.7,0.5h-4.6c-0.4,0-0.6-0.3-0.6-0.7v-9.2l0.1-0.1h5.7c0,0.2,0,0.3,0,0.5
		c0,0.1,0,0.3-0.1,0.5h-3.8c-0.2,0-0.6,0-0.9,0c0,0.4,0,0.5,0,0.9v2.6c0.3,0,0.6,0,0.9,0h3c0,0.2,0,0.4,0,0.5c0,0.1,0,0.3,0,0.5h-3
		c-0.2,0-0.6,0-0.9,0v3.1c0,0.2,0,0.4,0,0.6c0.3,0,0.5,0,0.9,0h4C97.8,50.9,97.8,51.1,97.8,51.3"/>
	<path class="st0" d="M99.7,50c0.9,0.6,2,1,2.9,1c1.4,0,2.2-0.6,2.3-1.6c0-0.9-0.7-1.5-1.6-1.9l-1.7-0.8c-1.3-0.5-2-1.3-2-2.5
		c0-1.5,1.2-2.7,3.2-2.7c1.1,0,2.2,0.3,2.9,0.7c0,0.3-0.2,0.7-0.5,0.9c-0.8-0.4-1.7-0.7-2.4-0.7c-1.2,0-2.1,0.7-2.1,1.7
		c0,0.8,0.6,1.2,1.4,1.6l1.7,0.7c1.2,0.5,2.2,1.3,2.2,2.7c0,1.6-1.1,2.8-3.5,2.8c-1.2,0-2.5-0.4-3.4-1.1
		C99.2,50.5,99.4,50.2,99.7,50"/>
	<path class="st0" d="M111.1,48h-1.8v3.8c-0.1,0-0.4,0-0.6,0c-0.2,0-0.4,0-0.5,0v-10l0.1-0.1c1,0,1.9,0,2.8,0c1.9,0,3.2,1.1,3.2,3.1
		C114.4,46.9,113,48,111.1,48 M109.3,47.1c0.6,0,1.4,0,1.8,0c1.6,0,2-1.2,2-2.2c0-1-0.4-2.2-2-2.2c-0.5,0-1.3,0-1.8,0V47.1z"/>
	<path class="st0" d="M122.4,51.3c-0.1,0.4-0.3,0.5-0.7,0.5h-4.6c-0.4,0-0.6-0.3-0.6-0.7v-9.2l0.1-0.1h5.7c0,0.2,0,0.3,0,0.5
		c0,0.1,0,0.3-0.1,0.5h-3.8c-0.2,0-0.6,0-0.9,0c0,0.4,0,0.5,0,0.9v2.6c0.3,0,0.6,0,0.9,0h3c0,0.2,0,0.4,0,0.5c0,0.1,0,0.3,0,0.5h-3
		c-0.2,0-0.6,0-0.9,0v3.1c0,0.2,0,0.4,0,0.6c0.2,0,0.5,0,0.9,0h4C122.4,50.9,122.4,51.1,122.4,51.3"/>
	<path class="st0" d="M127.9,42.5c-1.7,0-2.7,1.5-2.7,4.3c0,2.6,1,4.2,2.7,4.2c0.9,0,1.8-0.4,2.7-1.2c0.3,0.2,0.5,0.5,0.6,0.7
		c-0.8,0.8-2,1.4-3.5,1.4c-2.7,0-3.7-2.5-3.7-5.1c0-3.6,1.8-5.3,3.9-5.3c2.1,0,3.4,1.4,3.4,2.8c0,0.3-0.1,0.7-0.6,0.7
		c-0.2,0-0.3,0-0.5-0.1C130.2,43.9,129.6,42.5,127.9,42.5"/>
	<path class="st0" d="M133.5,41.7c0.1,0,0.4,0,0.5,0c0.2,0,0.4,0,0.6,0v10c-0.2,0-0.4,0-0.6,0c-0.2,0-0.4,0-0.5,0V41.7z"/>
	<path class="st0" d="M138.5,49.2l-0.9,2.6c-0.1,0-0.3,0-0.5,0c-0.2,0-0.4,0-0.5-0.1l0,0l3.4-10c0.2,0,0.5,0,0.6,0
		c0.2,0,0.5,0,0.6,0l3.4,10c-0.2,0.1-0.4,0.1-0.7,0.1c-0.4,0-0.5-0.1-0.7-0.6l-0.7-2.1c-0.2,0-0.9,0-1,0h-2
		C139.4,49.2,138.7,49.2,138.5,49.2 M138.8,48.2c0.2,0,0.8,0,0.9,0h1.7c0.1,0,0.6,0,0.9,0l-0.9-2.8c-0.3-0.9-0.6-1.8-0.8-2.5h-0.1
		c-0.1,0.6-0.4,1.4-0.5,1.8L138.8,48.2z"/>
	<path class="st0" d="M151.9,50.8c0,0.1,0,0.3,0,0.5c-0.1,0.4-0.3,0.5-0.7,0.5H147c-0.4,0-0.6-0.2-0.6-0.7v-9.3l0.1-0.1h0.4
		c0.5,0,0.6,0.2,0.6,0.7v8.4c0.4,0,0.9,0,1.3,0H151.9z"/>
	<path class="st0" d="M162.6,51.1c-0.6,0.5-1.7,0.7-2.5,0.7c-1.2,0-1.7,0-3-0.1l-0.1-0.1v-9.9l0.1-0.1c1.3,0,1.8,0,3,0
		c0.7,0,1.9,0.2,2.5,0.7c1.3,1.1,1.5,2.6,1.5,4.3C164.2,48.5,163.9,50,162.6,51.1 M160.2,42.6c-0.7,0-1.2,0-1.9,0v8.3
		c0.8,0,1.2,0,1.9,0c2.5,0,2.8-2.3,2.8-4.1C163,44.9,162.6,42.6,160.2,42.6z"/>
	<path class="st0" d="M167.1,49.2l-0.9,2.6c-0.1,0-0.3,0-0.5,0c-0.2,0-0.4,0-0.5-0.1l0,0l3.4-10c0.2,0,0.5,0,0.6,0
		c0.2,0,0.5,0,0.6,0l3.4,10c-0.2,0.1-0.4,0.1-0.7,0.1c-0.4,0-0.5-0.1-0.7-0.6l-0.7-2.1c-0.2,0-0.9,0-1,0h-2
		C168,49.2,167.4,49.2,167.1,49.2 M167.4,48.2c0.2,0,0.8,0,0.9,0h1.7c0.1,0,0.6,0,0.9,0l-0.9-2.8c-0.3-0.9-0.6-1.8-0.8-2.5h-0.1
		c-0.1,0.6-0.4,1.4-0.5,1.8L167.4,48.2z"/>
	<path class="st0" d="M117.4,58.2c-1.3,0-1.8,1.2-1.8,3.4c0,2.1,0.7,3.1,2,3.1c1,0,1.8-0.5,2.5-1c0.5,0.3,1,1,1.1,1.5
		c-0.8,0.8-2.4,1.6-4,1.6c-3.1,0-4.1-2.7-4.1-5.2c0-3.7,2-5.3,4.3-5.3c2.3,0,3.8,1.3,3.8,3.1c0,0.9-0.5,1.3-1.3,1.3
		c-0.4,0-0.6-0.1-0.9-0.1C119,59.4,118.7,58.2,117.4,58.2"/>
	<path class="st0" d="M130.5,62.9c0,2.5-1.4,3.9-4,3.9c-2.5,0-4-1.4-4-3.9v-6.3l0.1-0.1h0.9c0.9,0,1.4,0.4,1.4,1.5v5
		c0,1.3,0.4,2,1.6,2c1.2,0,1.6-0.7,1.6-2v-6.4c0.4-0.1,0.8-0.1,1.1-0.1c0.3,0,0.8,0,1.2,0.1V62.9z"/>
	<path class="st0" d="M138.9,64.7c0,0.3,0,0.6,0,0.9c-0.1,0.7-0.7,1.1-1.5,1.1H134c-0.8,0-1.4-0.5-1.4-1.4v-8.7l0.1-0.1h0.9
		c0.9,0,1.4,0.4,1.4,1.5v6.7c0.5,0,1-0.1,1.4-0.1H138.9z"/>
	<path class="st0" d="M140.3,58.5c-0.2,0-0.7,0-0.9,0h-1.5c-0.1-0.4-0.1-0.7-0.1-1c0-0.3,0-0.6,0.1-1h7.3c0.1,0.2,0.1,0.6,0.1,0.9
		c0,0.8-0.4,1.1-1.2,1.1h-0.4c-0.2,0-0.7,0-0.9,0h0c0,0.4,0,0.7,0,1.1v7c-0.4,0.1-0.9,0.1-1.2,0.1c-0.3,0-0.8,0-1.2-0.1V58.5z"/>
	<path class="st0" d="M154.2,62.9c0,2.5-1.4,3.9-4,3.9c-2.5,0-4-1.4-4-3.9v-6.3l0.1-0.1h0.9c0.9,0,1.4,0.4,1.4,1.5v5
		c0,1.3,0.4,2,1.6,2c1.2,0,1.6-0.7,1.6-2v-6.4c0.4-0.1,0.8-0.1,1.1-0.1c0.3,0,0.8,0,1.2,0.1V62.9z"/>
	<path class="st0" d="M161.7,62.4c0.6,0.2,0.9,0.7,1.1,1.4l0.4,1.3c0.2,0.4,0.4,0.8,0.7,1.1c-0.3,0.4-0.9,0.7-1.6,0.7
		c-0.9,0-1.1-0.5-1.4-1.4l-0.5-1.5c-0.2-0.5-0.5-0.9-1.2-0.9h-0.6v3.7c-0.4,0.1-0.9,0.1-1.2,0.1c-0.3,0-0.8,0-1.2-0.1v-10l0.1-0.1
		c1.3,0,2.4-0.1,3.5-0.1c2,0,3.6,1,3.6,3.2C163.5,61.1,162.5,62.1,161.7,62.4 M158.6,61.2c0.5,0,0.9,0,1.1,0c1.1,0,1.4-0.7,1.4-1.4
		c0-0.8-0.3-1.4-1.4-1.4c-0.3,0-0.7,0-1.1,0V61.2z"/>
	<path class="st0" d="M167.2,64.5l-0.6,2.1c-0.3,0.1-0.6,0.1-1,0.1c-0.4,0-0.9-0.1-1.1-0.2l-0.1-0.1l3.2-9.9c0.4-0.1,1-0.1,1.4-0.1
		c0.4,0,1,0,1.4,0.1l3.2,9.9c-0.3,0.2-0.9,0.3-1.4,0.3c-0.8,0-1.1-0.3-1.4-1.3l-0.3-1c-0.2,0-0.4,0-0.6,0h-2.1
		C167.6,64.5,167.4,64.5,167.2,64.5 M167.7,62.7c0.2,0,0.4,0,0.6,0h1.1c0.1,0,0.4,0,0.5,0l-0.2-0.9c-0.2-0.8-0.6-2.1-0.8-3h-0.1
		c-0.1,0.8-0.5,2-0.7,2.8L167.7,62.7z"/>
	<path class="st0" d="M387.9,30.8c5.6,0,8.4,2.3,8.4,6.2c0,2.2-1.5,4.1-3.6,4.8c2.6,0.7,4.9,3.1,4.9,6c0,3.8-2.8,6.7-9.1,6.7
		c-3.1,0-5.6-0.1-8.5-0.1l-0.2-0.2V31.2l0.2-0.2C382.7,30.9,385.3,30.8,387.9,30.8 M383.7,40.7h4c3.6,0,4.4-1.9,4.4-3.6
		c0-1.7-0.7-3.6-4.3-3.6c-1.1,0-2.9,0-4.1,0V40.7z M383.7,43.6v8.3c1.6,0,3.2,0,4.6,0c4.1,0,5-2.4,5-4.1c0-1.7-1.1-4.2-5.2-4.2
		H383.7z"/>
	<path class="st0" d="M412.8,44.2c1.3,0.4,2.2,1.6,2.7,2.9l1.7,4c0.4,0.9,0.8,1.9,1.7,2.5c-0.5,0.7-1.7,1.1-2.8,1.1
		c-1.5,0-2.1-0.8-2.7-2.2l-1.9-4.7c-0.7-1.6-1.5-2.8-3.9-2.8h-3.1v9.5c-0.6,0.1-1.4,0.1-2,0.1c-0.6,0-1.4,0-2-0.1V31.2l0.2-0.2
		c2.9,0,5.6-0.1,8.3-0.1c5.3,0,8.7,2.5,8.7,7.1C417.8,41.1,415.6,43.4,412.8,44.2 M404.6,42.1c1.5,0,3.2-0.1,4.3-0.1
		c3.8,0,4.7-2.1,4.7-4.1c0-2.1-0.9-4.2-4.7-4.2c-1.1,0-3,0-4.3,0V42.1z"/>
	<path class="st0" d="M427,48.8l-2,5.8c-0.5,0.1-1.2,0.1-1.8,0.1c-0.7,0-1.5-0.1-2-0.2l-0.1-0.2l8.7-23.3c0.6-0.1,1.7-0.1,2.3-0.1
		c0.7,0,1.7,0,2.3,0.1l8.6,23.3c-0.6,0.3-1.5,0.5-2.4,0.5c-1.3,0-1.9-0.4-2.4-1.9l-1.4-4c-0.7,0-2,0-2.3,0h-5.3
		C428.9,48.8,427.6,48.8,427,48.8 M428,45.8c0.6,0,1.6,0,2,0h3.8c0.3,0,1.3,0,1.9,0l-1.8-5c-0.7-2-1.5-4.4-2-6.2h-0.2
		c-0.4,1.6-1.1,3.7-1.5,5L428,45.8z"/>
	<path class="st0" d="M446.6,49.6c2.2,1.3,5.1,2.3,7.7,2.3c3.1,0,4.9-1.3,4.9-3.2c0-1.6-1.3-2.9-3.5-3.7l-4.5-1.8
		c-3.2-1.2-5.3-3-5.3-6c0-3.8,3.5-6.7,8.7-6.7c3.2,0,6.1,0.9,8.1,1.8c0,1-0.7,2.2-1.5,2.9c-2-0.9-4.6-1.6-6.6-1.6
		c-2.8,0-4.6,1.4-4.6,3.2c0,1.5,1.3,2.4,3.2,3.1l4.5,1.7c3.3,1.2,5.8,3.3,5.8,6.4c0,4-3.1,6.9-9.4,6.9c-3.2,0-6.6-1-9.2-2.6
		C445,51.3,445.8,50.2,446.6,49.6"/>
	<path class="st0" d="M468.3,31c0.6-0.1,1.4-0.1,2-0.1c0.6,0,1.4,0,2,0.1v23.6c-0.6,0.1-1.4,0.1-2,0.1c-0.6,0-1.5,0-2-0.1V31z"/>
	<path class="st0" d="M494.2,51.4c0,0.4,0,1-0.1,1.4c-0.2,1.2-1.2,1.8-2.6,1.8h-10c-1.4,0-2.4-0.8-2.4-2.3V31.1l0.3-0.2h1.5
		c1.7,0,2.3,0.7,2.3,2.3v18.3c1.2-0.1,2.4-0.1,3.4-0.1H494.2z"/>
	<path class="st0" d="M383.6,23.1H382V27c-0.4,0.1-0.8,0.1-1.2,0.1c-0.3,0-0.8,0-1.2-0.1V15.2l0.1-0.1c1.4,0,2.6-0.1,3.8-0.1
		c2.4,0,4.1,1.3,4.1,4C387.7,21.7,386,23.1,383.6,23.1 M382,21.3c0.6,0,1.2,0,1.5,0c1.5,0,1.9-1.3,1.9-2.2c0-0.9-0.3-2.2-1.9-2.2
		c-0.4,0-0.9,0-1.5,0V21.3z"/>
	<path class="st0" d="M390.5,24.3l-0.8,2.7c-0.3,0.1-0.6,0.1-1,0.1c-0.4,0-0.8-0.1-1.1-0.2l-0.1-0.1l3.9-11.7c0.4-0.1,1-0.1,1.4-0.1
		c0.4,0,1,0,1.3,0.1l3.8,11.7c-0.3,0.2-0.9,0.3-1.3,0.3c-0.7,0-1.1-0.3-1.4-1.3l-0.5-1.6c-0.3,0-0.7,0-0.9,0h-2.4
		C391.2,24.3,390.8,24.3,390.5,24.3 M391.1,22.5c0.2,0,0.6,0,0.8,0h1.5c0.2,0,0.5,0,0.7,0l-0.5-1.8c-0.3-1-0.7-2.3-0.9-3.4h-0.1
		c-0.2,0.9-0.5,2.1-0.8,2.9L391.1,22.5z"/>
	<path class="st0" d="M400.2,18.4c0-0.5,0-0.8,0-1.3h0c-0.2,0-0.8,0-1,0h-1.9c-0.1-0.3-0.1-0.7-0.1-1c0-0.3,0-0.6,0.1-1h8.3
		c0.1,0.2,0.1,0.6,0.1,0.9c0,0.8-0.4,1-1.3,1h-0.8c-0.2,0-0.8,0-1,0h0c0,0.5,0,0.8,0,1.3V27c-0.4,0.1-0.8,0.1-1.2,0.1
		c-0.3,0-0.8,0-1.2-0.1V18.4z"/>
	<path class="st0" d="M413.2,21.9c0.6,0.2,1,0.8,1.3,1.5l0.6,1.8c0.2,0.5,0.4,1,0.8,1.3c-0.3,0.4-0.9,0.7-1.5,0.7
		c-0.9,0-1.1-0.5-1.5-1.4l-0.7-2.1c-0.3-0.7-0.6-1.2-1.6-1.2h-1.1V27c-0.4,0.1-0.8,0.1-1.2,0.1c-0.3,0-0.8,0-1.1-0.1V15.2l0.1-0.1
		c1.4,0,2.7-0.1,4-0.1c2.4,0,4.1,1.2,4.1,3.7C415.4,20.4,414.3,21.5,413.2,21.9 M409.5,20.7c0.6,0,1.3-0.1,1.6-0.1
		c1.5,0,1.9-0.9,1.9-1.9c0-1-0.3-1.9-1.9-1.9c-0.4,0-1.1,0-1.6,0V20.7z"/>
	<path class="st0" d="M417.8,15.1c0.3-0.1,0.9-0.1,1.2-0.1c0.3,0,0.8,0,1.2,0.1V27c-0.4,0.1-0.8,0.1-1.2,0.1c-0.3,0-0.8,0-1.2-0.1
		V15.1z"/>
	<path class="st0" d="M424.9,24.3l-0.8,2.7c-0.3,0.1-0.6,0.1-1,0.1c-0.4,0-0.8-0.1-1.1-0.2l-0.1-0.1l3.9-11.7c0.4-0.1,1-0.1,1.4-0.1
		c0.4,0,1,0,1.3,0.1l3.8,11.7c-0.3,0.2-0.9,0.3-1.3,0.3c-0.7,0-1.1-0.3-1.4-1.3l-0.5-1.6c-0.3,0-0.7,0-0.9,0h-2.4
		C425.6,24.3,425.2,24.3,424.9,24.3 M425.5,22.5c0.2,0,0.6,0,0.8,0h1.5c0.2,0,0.5,0,0.7,0l-0.5-1.8c-0.3-1-0.7-2.3-0.9-3.4h-0.1
		c-0.2,0.9-0.5,2.1-0.8,2.9L425.5,22.5z"/>
	<path class="st0" d="M439.6,24.3l-0.8,2.7c-0.3,0.1-0.6,0.1-1,0.1c-0.4,0-0.8-0.1-1.1-0.2l-0.1-0.1l3.9-11.7c0.4-0.1,1-0.1,1.4-0.1
		c0.4,0,1,0,1.3,0.1l3.8,11.7c-0.3,0.2-0.9,0.3-1.3,0.3c-0.7,0-1.1-0.3-1.4-1.3l-0.5-1.6c-0.3,0-0.7,0-0.9,0h-2.4
		C440.3,24.3,439.9,24.3,439.6,24.3 M440.2,22.5c0.2,0,0.6,0,0.8,0h1.5c0.2,0,0.5,0,0.7,0l-0.5-1.8c-0.3-1-0.7-2.3-0.9-3.4h-0.1
		c-0.2,0.9-0.5,2.1-0.8,2.9L440.2,22.5z"/>
	<path class="st0" d="M449.2,15.2c0.5-0.1,1.2-0.1,1.6-0.1c0.4,0,1,0,1.5,0.1l1.3,4.8c0.1,0.5,0.6,2.3,0.7,3h0.1
		c0.1-0.7,0.5-2.5,0.7-3l1.3-4.8c0.5-0.1,1.1-0.1,1.5-0.1c0.4,0,1.1,0,1.6,0.1l0.9,11.8c-0.3,0.1-0.8,0.1-1.2,0.1
		c-0.4,0-0.7,0-1-0.1l-0.3-5.6c-0.1-1.1-0.1-2.7-0.1-3.8h-0.1l-2,7.6c-0.3,0.1-0.9,0.1-1.2,0.1c-0.3,0-0.8,0-1.2-0.1l-2-7.6H451
		c0,1.1-0.1,2.7-0.1,3.8l-0.3,5.6c-0.3,0.1-0.7,0.1-1,0.1c-0.4,0-0.8,0-1.2-0.1L449.2,15.2z"/>
	<path class="st0" d="M464.7,24.3l-0.8,2.7c-0.3,0.1-0.6,0.1-1,0.1c-0.4,0-0.8-0.1-1.1-0.2l-0.1-0.1l3.9-11.7c0.4-0.1,1-0.1,1.4-0.1
		c0.4,0,1,0,1.3,0.1l3.8,11.7c-0.3,0.2-0.9,0.3-1.3,0.3c-0.7,0-1.1-0.3-1.4-1.3l-0.5-1.6c-0.3,0-0.7,0-0.9,0h-2.4
		C465.4,24.3,465,24.3,464.7,24.3 M465.3,22.5c0.2,0,0.6,0,0.8,0h1.5c0.2,0,0.5,0,0.7,0l-0.5-1.8c-0.3-1-0.7-2.3-0.9-3.4h-0.1
		c-0.2,0.9-0.5,2.1-0.8,2.9L465.3,22.5z"/>
	<path class="st0" d="M481.1,26.2c-0.8,0.6-2.2,0.9-3.1,0.9c-1.5,0-2.6,0-4.1-0.1l-0.1-0.1V15.2l0.1-0.1c1.5-0.1,2.6-0.1,4.1-0.1
		c0.9,0,2.3,0.2,3.1,0.9c1.6,1.3,1.9,3.1,1.9,5.1C483,23.1,482.7,24.9,481.1,26.2 M478,16.9c-0.7,0-1.2,0-1.9,0v8.4
		c0.7,0,1.2,0,1.9,0c2.3,0,2.6-2.3,2.6-4.2C480.6,19.2,480.3,16.9,478,16.9z"/>
	<path class="st0" d="M486.8,24.3L486,27c-0.3,0.1-0.6,0.1-1,0.1c-0.4,0-0.8-0.1-1.1-0.2l-0.1-0.1l3.9-11.7c0.4-0.1,1-0.1,1.4-0.1
		c0.4,0,1,0,1.3,0.1l3.8,11.7c-0.3,0.2-0.9,0.3-1.3,0.3c-0.7,0-1.1-0.3-1.4-1.3l-0.5-1.6c-0.3,0-0.7,0-0.9,0h-2.4
		C487.5,24.3,487.1,24.3,486.8,24.3 M487.4,22.5c0.2,0,0.6,0,0.8,0h1.5c0.2,0,0.5,0,0.7,0l-0.5-1.8c-0.3-1-0.7-2.3-0.9-3.4h-0.1
		c-0.2,0.9-0.5,2.1-0.8,2.9L487.4,22.5z"/>
	<path class="st0" d="M394.8,11.1c0.3,0.2,0.8,0.7,0.9,1.2l-2.9,1.7c-0.3-0.1-0.6-0.5-0.6-0.8L394.8,11.1z"/>
	<path class="st0" d="M382.5,61.8l1.3,0c0.6,0,0.9,0.3,0.9,0.8v2.2c-0.7,0.2-1.5,0.3-2.3,0.3c-0.4,0-0.8-0.1-1.1-0.2
		c-0.3-0.1-0.6-0.3-0.8-0.6c-0.2-0.3-0.4-0.6-0.5-0.9c-0.1-0.4-0.2-0.8-0.2-1.3c0-0.5,0.1-1,0.2-1.3c0.1-0.4,0.3-0.7,0.6-0.9
		c0.3-0.3,0.5-0.4,0.9-0.6c0.3-0.1,0.7-0.2,1-0.2c0.7,0,1.4,0.2,2.1,0.6c0,0.1,0,0.2-0.1,0.3c0,0.1-0.1,0.2-0.1,0.3
		c-0.1,0.1-0.1,0.2-0.2,0.2c-0.1,0.1-0.1,0.1-0.2,0.2c-0.5-0.3-0.9-0.5-1.4-0.5c-0.9,0-1.4,0.6-1.4,1.9c0,1.3,0.5,1.9,1.4,1.9
		c0.1,0,0.3,0,0.4,0c0.1,0,0.2,0,0.4-0.1v-0.6c0-0.1,0-0.2,0-0.3c0-0.1,0-0.2,0-0.2h-0.4c-0.2,0-0.4,0-0.5-0.1
		c-0.1-0.1-0.1-0.2-0.1-0.4C382.4,62.1,382.5,62,382.5,61.8"/>
	<path class="st0" d="M389.3,64.6c-0.6-0.5-0.9-1.3-0.9-2.5c0-0.5,0.1-0.9,0.2-1.3c0.1-0.4,0.3-0.7,0.5-0.9c0.2-0.3,0.5-0.4,0.8-0.6
		c0.3-0.1,0.7-0.2,1-0.2c0.4,0,0.7,0.1,1.1,0.2c0.3,0.1,0.6,0.3,0.8,0.6c0.2,0.3,0.4,0.6,0.5,0.9c0.1,0.4,0.2,0.8,0.2,1.3
		c0,0.5-0.1,0.9-0.2,1.3c-0.1,0.4-0.3,0.7-0.5,0.9c-0.2,0.3-0.5,0.4-0.8,0.6c-0.3,0.1-0.7,0.2-1.1,0.2
		C390.2,65.2,389.7,65,389.3,64.6 M390,63.5c0.2,0.4,0.5,0.7,0.9,0.7c0.2,0,0.4-0.1,0.6-0.2c0.1-0.1,0.3-0.3,0.3-0.4
		c0.1-0.2,0.1-0.4,0.2-0.6c0-0.2,0-0.4,0-0.6c0-0.2,0-0.4,0-0.7c0-0.2-0.1-0.5-0.1-0.7c-0.1-0.2-0.2-0.4-0.3-0.5
		c-0.1-0.1-0.4-0.2-0.6-0.2c-0.3,0-0.5,0.1-0.6,0.2c-0.1,0.1-0.2,0.3-0.3,0.5c-0.1,0.2-0.1,0.4-0.1,0.6c0,0.2,0,0.4,0,0.6
		c0,0.3,0,0.5,0,0.7C389.9,63,389.9,63.3,390,63.5z"/>
	<path class="st0" d="M399.2,63.9l1.1-4.6c0.1,0,0.3,0,0.5,0c0.3,0,0.5,0,0.7,0.1l0.1,0.1L400,65c-0.3,0-0.6,0.1-1,0.1
		c-0.3,0-0.6,0-0.7-0.1c-0.1-0.1-0.3-0.2-0.3-0.5l-1.4-5.1c0.3-0.1,0.6-0.2,0.8-0.2c0.2,0,0.4,0.1,0.5,0.2c0.1,0.1,0.2,0.3,0.3,0.5
		l0.7,2.4c0.1,0.4,0.2,0.9,0.3,1.5C399.1,63.9,399.1,63.9,399.2,63.9"/>
	<path class="st0" d="M406.5,63.3l0,0.6v0c0.3,0,0.5,0,0.6,0h2c0,0.2,0,0.4,0,0.5c-0.1,0.4-0.4,0.7-0.9,0.7h-2.2
		c-0.2,0-0.4-0.1-0.6-0.2c-0.1-0.1-0.2-0.3-0.2-0.6v-5l0.1-0.1h3.6c0,0.2,0.1,0.3,0.1,0.5c0,0.2,0,0.4-0.1,0.6h-2.3l0,0.6v0.6
		c0.1,0,0.3,0,0.6,0h1.3c0.1,0.2,0.1,0.3,0.1,0.5c0,0.2,0,0.4-0.1,0.6h-1.9V63.3z"/>
	<path class="st0" d="M417.1,61.1c0,0.2,0,0.4-0.1,0.5c-0.1,0.2-0.1,0.3-0.2,0.4c-0.1,0.1-0.2,0.2-0.3,0.3c-0.1,0.1-0.3,0.2-0.4,0.2
		c0.3,0.1,0.5,0.4,0.7,0.8l0.3,0.7c0.1,0.3,0.2,0.5,0.4,0.6c-0.1,0.1-0.2,0.2-0.4,0.3c-0.2,0.1-0.4,0.1-0.6,0.1
		c-0.2,0-0.4-0.1-0.5-0.2c-0.1-0.1-0.2-0.3-0.3-0.6l-0.3-0.9c-0.1-0.2-0.1-0.3-0.2-0.4c-0.1-0.1-0.3-0.1-0.5-0.1h-0.3V65
		c-0.2,0-0.4,0.1-0.7,0.1c-0.3,0-0.5,0-0.7-0.1v-5.7l0.1-0.1c0.5,0,0.9,0,1.2,0c0.3,0,0.6,0,0.8,0c0.3,0,0.6,0,0.8,0.1
		c0.3,0.1,0.5,0.2,0.6,0.3c0.2,0.2,0.3,0.3,0.4,0.6C417,60.5,417.1,60.7,417.1,61.1 M414.3,60.2v1.7c0.3,0,0.5,0,0.6,0
		c0.2,0,0.3,0,0.4-0.1c0.1-0.1,0.2-0.1,0.3-0.3c0.1-0.1,0.1-0.3,0.1-0.5c0-0.6-0.3-0.8-0.8-0.8h-0.4
		C414.4,60.2,414.3,60.2,414.3,60.2z"/>
	<path class="st0" d="M425.6,59.2L425.6,59.2l0.1,5.8c-0.2,0.1-0.5,0.1-0.8,0.1c-0.3,0-0.6,0-0.8-0.1l-1.3-3
		c-0.2-0.3-0.3-0.7-0.5-1.2l0,0c0.1,0.8,0.1,1.7,0.1,2.5V65c-0.2,0-0.4,0.1-0.6,0.1c-0.2,0-0.5,0-0.6-0.1v-5.7
		c0.2-0.1,0.5-0.1,0.8-0.1c0.3,0,0.6,0,0.8,0l1.3,3c0.2,0.6,0.4,1,0.5,1.3l0,0c-0.1-0.8-0.1-1.6-0.1-2.5v-1c0-0.3,0.1-0.5,0.2-0.6
		c0.1-0.1,0.3-0.2,0.6-0.2H425.6z"/>
	<path class="st0" d="M430.4,64.6c-0.6-0.5-0.9-1.3-0.9-2.5c0-0.5,0.1-0.9,0.2-1.3c0.1-0.4,0.3-0.7,0.5-0.9c0.2-0.3,0.5-0.4,0.8-0.6
		c0.3-0.1,0.7-0.2,1-0.2c0.4,0,0.7,0.1,1.1,0.2c0.3,0.1,0.6,0.3,0.8,0.6c0.2,0.3,0.4,0.6,0.5,0.9c0.1,0.4,0.2,0.8,0.2,1.3
		c0,0.5-0.1,0.9-0.2,1.3c-0.1,0.4-0.3,0.7-0.5,0.9c-0.2,0.3-0.5,0.4-0.8,0.6c-0.3,0.1-0.7,0.2-1.1,0.2
		C431.3,65.2,430.8,65,430.4,64.6 M431,63.5c0.2,0.4,0.5,0.7,0.9,0.7c0.2,0,0.4-0.1,0.6-0.2c0.1-0.1,0.3-0.3,0.3-0.4
		c0.1-0.2,0.1-0.4,0.2-0.6c0-0.2,0-0.4,0-0.6c0-0.2,0-0.4,0-0.7c0-0.2-0.1-0.5-0.1-0.7c-0.1-0.2-0.2-0.4-0.3-0.5
		c-0.1-0.1-0.4-0.2-0.6-0.2c-0.3,0-0.5,0.1-0.6,0.2c-0.1,0.1-0.3,0.3-0.3,0.5c-0.1,0.2-0.1,0.4-0.1,0.6c0,0.2,0,0.4,0,0.6
		c0,0.3,0,0.5,0,0.7C430.9,63,431,63.3,431,63.5z"/>
	<path class="st0" d="M444.4,60.4l0,0.7v0.5h1.8c0,0.2,0.1,0.4,0.1,0.6c0,0.2,0,0.4-0.1,0.6h-1.8V65c-0.2,0-0.4,0.1-0.7,0.1
		c-0.3,0-0.5,0-0.7-0.1v-5.7l0.1-0.1h3.6c0,0.1,0.1,0.3,0.1,0.5c0,0.2-0.1,0.4-0.2,0.5c-0.1,0.1-0.3,0.2-0.5,0.2H444.4z"/>
	<path class="st0" d="M451.8,63.3l0,0.6v0c0.3,0,0.5,0,0.6,0h2c0,0.2,0,0.4,0,0.5c-0.1,0.4-0.4,0.7-0.9,0.7h-2.2
		c-0.2,0-0.4-0.1-0.6-0.2c-0.1-0.1-0.2-0.3-0.2-0.6v-5l0.1-0.1h3.6c0,0.2,0.1,0.3,0.1,0.5c0,0.2,0,0.4-0.1,0.6h-2.3l0,0.6v0.6
		c0.1,0,0.3,0,0.6,0h1.3c0.1,0.2,0.1,0.3,0.1,0.5c0,0.2,0,0.4-0.1,0.6h-1.9V63.3z"/>
	<path class="st0" d="M462,64.7c-0.2,0.1-0.4,0.3-0.7,0.3c-0.3,0.1-0.6,0.1-1,0.1c-0.2,0-0.4,0-0.8,0c-0.3,0-0.7,0-1.2,0l-0.1-0.1
		v-5.7l0.1-0.1c0.3,0,0.7,0,1,0c0.4,0,0.7,0,1.1,0c0.5,0,0.9,0.1,1.2,0.2c0.3,0.2,0.6,0.4,0.8,0.6c0.2,0.3,0.3,0.6,0.4,0.9
		c0.1,0.4,0.1,0.7,0.1,1.2c0,0.6-0.1,1-0.2,1.5C462.6,64,462.3,64.4,462,64.7 M460.4,64c0.7,0,1.1-0.6,1.1-1.9
		c0-1.3-0.4-1.9-1.1-1.9h-0.5c-0.1,0-0.3,0-0.4,0V64c0.1,0,0.2,0,0.4,0H460.4z"/>
	<path class="st0" d="M468.1,63.3l0,0.6v0c0.3,0,0.5,0,0.6,0h2c0,0.2,0,0.4,0,0.5c-0.1,0.4-0.4,0.7-0.9,0.7h-2.2
		c-0.2,0-0.4-0.1-0.6-0.2c-0.1-0.1-0.2-0.3-0.2-0.6v-5l0.1-0.1h3.6c0,0.2,0.1,0.3,0.1,0.5c0,0.2,0,0.4-0.1,0.6h-2.3l0,0.6v0.6
		c0.1,0,0.3,0,0.6,0h1.3c0.1,0.2,0.1,0.3,0.1,0.5c0,0.2,0,0.4-0.1,0.6h-1.9V63.3z"/>
	<path class="st0" d="M478.6,61.1c0,0.2,0,0.4-0.1,0.5c-0.1,0.2-0.1,0.3-0.2,0.4c-0.1,0.1-0.2,0.2-0.3,0.3c-0.1,0.1-0.3,0.2-0.4,0.2
		c0.3,0.1,0.5,0.4,0.7,0.8l0.3,0.7c0.1,0.3,0.2,0.5,0.4,0.6c-0.1,0.1-0.2,0.2-0.4,0.3c-0.2,0.1-0.4,0.1-0.6,0.1
		c-0.2,0-0.4-0.1-0.5-0.2c-0.1-0.1-0.2-0.3-0.3-0.6l-0.3-0.9c-0.1-0.2-0.1-0.3-0.2-0.4c-0.1-0.1-0.3-0.1-0.5-0.1h-0.3V65
		c-0.2,0-0.4,0.1-0.7,0.1c-0.3,0-0.5,0-0.7-0.1v-5.7l0.1-0.1c0.5,0,0.9,0,1.2,0c0.3,0,0.6,0,0.8,0c0.3,0,0.6,0,0.8,0.1
		c0.3,0.1,0.5,0.2,0.6,0.3c0.2,0.2,0.3,0.3,0.4,0.6C478.6,60.5,478.6,60.7,478.6,61.1 M475.8,60.2v1.7c0.3,0,0.5,0,0.6,0
		c0.2,0,0.3,0,0.4-0.1c0.1-0.1,0.2-0.1,0.2-0.3c0.1-0.1,0.1-0.3,0.1-0.5c0-0.6-0.3-0.8-0.8-0.8h-0.3C476,60.2,475.9,60.2,475.8,60.2
		z"/>
	<path class="st0" d="M484,63.8c-0.2,0-0.3,0-0.3,0l-0.4,1.2c-0.1,0-0.3,0-0.6,0c-0.3,0-0.5,0-0.7-0.1l0-0.1l1.9-5.7
		c0.2,0,0.5,0,0.8,0c0.3,0,0.6,0,0.8,0.1l1.8,5.7c-0.2,0.1-0.4,0.2-0.7,0.2c-0.3,0-0.5-0.1-0.6-0.2c-0.1-0.1-0.2-0.3-0.3-0.6
		l-0.2-0.6c-0.1,0-0.2,0-0.3,0H484z M484,62.8l0.3,0h0.6c0,0,0.1,0,0.1,0c0.1,0,0.1,0,0.2,0l-0.1-0.5c-0.1-0.5-0.3-1.1-0.5-1.7h-0.1
		c0,0.2-0.2,0.8-0.4,1.6L484,62.8z"/>
	<path class="st0" d="M493,63.9h1.5c0,0.2,0,0.4,0,0.6c0,0.2-0.1,0.3-0.3,0.4c-0.2,0.1-0.4,0.2-0.6,0.2h-1.9c-0.2,0-0.4-0.1-0.6-0.2
		c-0.1-0.1-0.2-0.3-0.2-0.6v-5l0.1-0.1h0.5c0.5,0,0.8,0.3,0.8,0.9v3.9C492.5,63.9,492.7,63.9,493,63.9"/>
	<path class="st0" d="M348.5,40.4c-17.5,3.5-30.9,10.5-38.7,15.5c1.1-5.4,4-10.3,8.2-13.9c4.5-3.9,10.3-6,16.3-6
		C339.5,36,344.3,37.5,348.5,40.4 M372.8,38.3L372.8,38.3L372.8,38.3l-0.1,0l0,0l0,0l0,0l0,0l0,0l0,0l0,0c-0.9,0-1.8,0-2.6,0
		c-7,0-13.6,0.7-19.7,1.8c-4.4-3.3-9.8-5.2-15.7-5.2c-13,0-23.8,9.5-25.8,21.9l-0.1,0c-3.8,2.5-6,4.4-6.4,4.7V42.3l28.1-22.7
		L372.8,38.3z M302.1,40.8V15.1h70.7v22.1l-42.1-18.6c-0.1-0.1-0.3-0.1-0.4-0.1c-0.2,0-0.5,0.1-0.7,0.2L302.1,40.8z M372.8,65.1
		h-70.7v0c0.4-0.3,2.4-1.9,6.1-4.1c8.2-4.8,24.6-12.4,48.4-13.8c5.1-0.3,10.5-0.3,16.2,0V65.1z"/>
</g>
</svg>
